<?xml version="1.0" encoding="utf-8"?>
<!-- Generator: Adobe Illustrator 21.1.0, SVG Export Plug-In . SVG Version: 6.00 Build 0)  -->
<svg version="1.1" id="Capa_1" xmlns="http://www.w3.org/2000/svg" xmlns:xlink="http://www.w3.org/1999/xlink" x="0px" y="0px"
	 viewBox="0 0 512 512" style="enable-background:new 0 0 512 512;" xml:space="preserve">
<style type="text/css">
	.st0{fill:#FFFFFF;}
</style>
<g>
	<g>
		<g>
			<path class="st0" d="M270.2,342v139.5c0,7.7-6.3,14-14,14H61.1c-7.7,0-14-6.3-14-14V223.8c0-7.7,6.3-14,14-14h76.7v-13.9H61.1
				c-15.4,0-27.8,12.5-27.8,27.8v257.8c0,15.4,12.5,27.9,27.8,27.9h195.1c15.4,0,27.8-12.5,27.8-27.8V342H270.2z"/>
		</g>
	</g>
	<g>
		<g>
			<path class="st0" d="M256.3,195.9h-76.7v14h76.7c7.7,0,14,6.3,14,14v125.4h14V223.8C284.1,208.4,271.7,195.9,256.3,195.9z"/>
		</g>
	</g>
	<g>
		<g>
			<path class="st0" d="M242.3,370v97.7H75.1V237.7H103v-14H68.2c-3.8,0-6.9,3.1-6.9,6.9v243.9c0,3.8,3.1,6.9,6.9,6.9h181.2
				c3.8,0,6.9-3.1,6.9-6.9V370H242.3L242.3,370z"/>
		</g>
	</g>
	<g>
		<g>
			<path class="st0" d="M249.3,223.8h-34.9v14h27.9v139.4h14V230.8C256.3,227,253.2,223.8,249.3,223.8z"/>
		</g>
	</g>
	<g>
		<g>
			<path class="st0" d="M228.1,249.8l-14-48.7c-0.8-3-3.6-5.1-6.7-5.1h-20.9V189c0-15.4-12.5-27.8-27.8-27.8s-27.8,12.5-27.8,27.8
				v6.9H110c-3.1,0-5.9,2-6.7,5.1l-14,48.7c-0.6,2.1-0.2,4.3,1.1,6.1c1.3,1.8,3.3,2.8,5.6,2.8h125.4c2.2,0,4.2-1.1,5.6-2.8
				C228.3,254.2,228.7,251.9,228.1,249.8z M105.2,244.7l10-34.9h22.6c3.8,0,6.9-3.1,6.9-6.9v-14c0-7.7,6.3-14,14-14s14,6.3,14,14v14
				c0,3.8,3.1,6.9,6.9,6.9h22.6l10,34.9H105.2z"/>
		</g>
	</g>
	<g>
		<g>
			<rect x="130.9" y="293.5" class="st0" width="90.6" height="14"/>
		</g>
	</g>
	<g>
		<g>
			
				<rect x="89.1" y="286.5" transform="matrix(0.5998 -0.8001 0.8001 0.5998 -192.1782 202.6419)" class="st0" width="34.9" height="14"/>
		</g>
	</g>
	<g>
		<g>
			<rect x="130.9" y="335.3" class="st0" width="90.6" height="14"/>
		</g>
	</g>
	<g>
		<g>
			
				<rect x="89" y="328.3" transform="matrix(0.5998 -0.8001 0.8001 0.5998 -225.6635 219.3158)" class="st0" width="34.9" height="14"/>
		</g>
	</g>
	<g>
		<g>
			<rect x="130.9" y="377.1" class="st0" width="90.6" height="14"/>
		</g>
	</g>
	<g>
		<g>
			<rect x="130.9" y="418.9" class="st0" width="69.7" height="14"/>
		</g>
	</g>
	<g>
		<g>
			
				<rect x="89" y="370.1" transform="matrix(0.5998 -0.8001 0.8001 0.5998 -259.1155 236.0467)" class="st0" width="34.9" height="14"/>
		</g>
	</g>
	<g>
		<g>
			
				<rect x="89" y="411.9" transform="matrix(0.5998 -0.8001 0.8001 0.5998 -292.5651 252.7813)" class="st0" width="34.9" height="14"/>
		</g>
	</g>
	<g>
		<path class="st0" d="M478.7,134.7v-17.2c0-5.8-2.9-10.9-7.3-14c-1.1-14-12.9-25-27.1-25h-40.4C388.1,78.5,375,67,372.4,52
			c7-2.1,12-8.6,12-16.2V19.5c0-9.4-7.6-17-17-17h-6.8c-3.4,0-6.1,2.7-6.1,6.1s2.7,6.1,6.1,6.1h6.8c2.6,0,4.7,2.1,4.7,4.7v16.3
			c0,2.6-2.1,4.7-4.7,4.7c-4.8,0-37.5,0-42.5,0c-2.6,0-4.7-2.1-4.7-4.7V19.5c0-2.6,2.1-4.7,4.7-4.7h7.1c3.4,0,6.1-2.7,6.1-6.1
			s-2.7-6.1-6.1-6.1H325c-9.4,0-17,7.6-17,17v16.3c0,7.8,5.2,14.3,12.3,16.3c-2.6,15-15.7,26.4-31.4,26.4h-40.7
			c-14.4,0-26.1,11.2-27.2,25.3c-4.2,3.1-7,8.1-7,13.7v17.2c0,5.6,2.7,10.6,6.9,13.7v46.9h12.3v-43.6h225.9V224h-76.7l-26.2-45.3
			c-4.5-7.7-15.6-7.7-20.1,0L310,224h-26.3v12.2h19.2c-3.7,6.4-8.6,13.9-9.8,26.6h-9.4v12.2h9.7c3.7,25.6,25.4,45.9,52.9,45.9
			c27.4,0,49.2-20.2,52.9-45.9h60.1v25.5c0,3.4,2.7,6.1,6.1,6.1c3.4,0,6.1-2.7,6.1-6.1V272c4.4-3.1,7.2-8.1,7.2-13.9v-17.2
			c0-5.7-2.9-10.8-7.2-13.9v-78.5C475.8,145.5,478.7,140.4,478.7,134.7z M248.3,90.7H289c22.2,0,40.7-16.6,43.7-38h27.5
			c3,21.4,21.4,38,43.7,38h40.4c6.4,0,11.9,4.1,14,9.8H234.2C236.3,94.8,241.8,90.7,248.3,90.7z M386.8,274.4
			c-3.3,19.4-19.7,34.4-40.6,34.4c-21.3,0-37.6-15.8-40.6-34.5c-3-17.9,0.9-20,40.6-88.5C386.1,254.6,389.7,256.1,386.8,274.4z
			 M466.4,258.1c0,2.7-2.2,4.7-4.7,4.7h-62.3c-1.2-12.8-6.4-20.8-9.8-26.6h72.1c2.5,0,4.7,2.1,4.7,4.7V258.1z M466.4,134.7
			c0,2.7-2.2,4.7-4.7,4.7H231.1c-2.6,0-4.7-2.1-4.7-4.7v-17.2c0-2.7,2.2-4.7,4.7-4.7h230.7c2.5,0,4.7,2.1,4.7,4.7V134.7z"/>
		<path class="st0" d="M471.5,350.5v-21.3c0-3.4-2.7-6.1-6.1-6.1c-3.4,0-6.1,2.7-6.1,6.1v18.3H283.7v12.2h178.1
			c2.5,0,4.7,2.1,4.7,4.7v17.2c0,2.7-2.2,4.7-4.7,4.7H283.7v12.3h174.6c-2.1,5.7-7.6,9.8-14,9.8H283.7v12.2h160.6
			c14.3,0,26-11,27.1-25c4.4-3.1,7.3-8.2,7.3-14v-17.2C478.7,358.7,475.8,353.6,471.5,350.5z"/>
	</g>
</g>
</svg>
