<?xml version="1.0" encoding="utf-8"?>
<!-- Generator: Adobe Illustrator 21.1.0, SVG Export Plug-In . SVG Version: 6.00 Build 0)  -->
<svg version="1.1" id="Capa_1" xmlns="http://www.w3.org/2000/svg" xmlns:xlink="http://www.w3.org/1999/xlink" x="0px" y="0px"
	 viewBox="0 0 512 512" style="enable-background:new 0 0 512 512;" xml:space="preserve">
<style type="text/css">
	.st0{fill:#FFFFFF;}
</style>
<g>
	<g>
		<g>
			<path class="st0" d="M270.1,342.1v140.3c0,7.7-6.3,14-14,14H59.9c-7.7,0-14-6.3-14-14V223.2c0-7.7,6.3-14,14-14H137v-14H59.9
				c-15.4,0-28,12.6-28,28v259.2c0,15.5,12.6,28.1,28,28.1h196.2c15.4,0,28-12.6,28-28V342.1H270.1z"/>
		</g>
	</g>
	<g>
		<g>
			<path class="st0" d="M256.1,195.2H179v14h77.1c7.7,0,14,6.3,14,14v126.1h14V223.2C284.1,207.8,271.6,195.2,256.1,195.2z"/>
		</g>
	</g>
	<g>
		<g>
			<path class="st0" d="M242.1,370.2v98.3H73.9V237.2h28v-14H67c-3.9,0-7,3.1-7,7v245.3c0,3.9,3.1,7,7,7h182.2c3.9,0,7-3.1,7-7
				V370.2H242.1L242.1,370.2z"/>
		</g>
	</g>
	<g>
		<g>
			<path class="st0" d="M249.1,223.2H214v14h28.1v140.2h14V230.3C256.1,226.4,253,223.2,249.1,223.2z"/>
		</g>
	</g>
	<g>
		<g>
			<path class="st0" d="M227.8,249.3l-14-49c-0.8-3-3.6-5.1-6.7-5.1h-21v-7c0-15.4-12.6-28-28-28s-28,12.6-28,28v7h-21
				c-3.1,0-5.9,2.1-6.7,5.1l-14,49c-0.6,2.1-0.2,4.4,1.1,6.2c1.3,1.8,3.4,2.8,5.6,2.8h126.1c2.2,0,4.3-1.1,5.6-2.8
				C228,253.7,228.4,251.4,227.8,249.3z M104.2,244.2l10-35.1H137c3.9,0,7-3.1,7-7v-14c0-7.7,6.3-14,14-14s14,6.3,14,14v14
				c0,3.9,3.1,7,7,7h22.7l10,35.1H104.2z"/>
		</g>
	</g>
	<g>
		<g>
			<rect x="88" y="285.3" class="st0" width="84.3" height="15"/>
		</g>
	</g>
	<g>
		<g>
			<rect x="88" y="321.8" class="st0" width="84.3" height="15"/>
		</g>
	</g>
	<g>
		<g>
			<rect x="135.8" y="369.4" class="st0" width="84.3" height="15"/>
		</g>
	</g>
	<g>
		<g>
			<rect x="135.8" y="412.9" class="st0" width="84.3" height="15"/>
		</g>
	</g>
	<g>
		<path class="st0" d="M480.1,134.4v-17.3c0-5.8-2.9-11-7.4-14c-1.1-14.1-12.9-25.2-27.3-25.2h-40.6c-15.8,0-29-11.5-31.6-26.6
			c7-2.1,12.1-8.6,12.1-16.3V18.6c0-9.4-7.7-17.1-17.1-17.1h-6.9c-3.4,0-6.2,2.8-6.2,6.2s2.8,6.2,6.2,6.2h6.9c2.6,0,4.8,2.1,4.8,4.8
			v16.4c0,2.6-2.1,4.8-4.8,4.8c-4.9,0-37.7,0-42.7,0c-2.6,0-4.8-2.1-4.8-4.8V18.6c0-2.6,2.1-4.8,4.8-4.8h7.2c3.4,0,6.2-2.8,6.2-6.2
			s-2.8-6.2-6.2-6.2h-7.2c-9.4,0-17.1,7.7-17.1,17.1v16.4c0,7.8,5.3,14.4,12.4,16.4c-2.6,15.1-15.8,26.5-31.6,26.5h-40.9
			c-14.4,0-26.3,11.2-27.3,25.4c-4.3,3.1-7.1,8.1-7.1,13.8v17.3c0,5.6,2.8,10.6,7,13.7v47.2h12.3v-43.8h227.2v72.7h-77.1L357,178.6
			c-4.5-7.8-15.7-7.8-20.2,0l-26.4,45.6H284v12.3h19.3c-3.7,6.4-8.7,14-9.8,26.8H284v12.3h9.8c3.7,25.7,25.5,46.2,53.2,46.2
			c27.6,0,49.5-20.3,53.2-46.2h60.4v25.6c0,3.4,2.8,6.2,6.2,6.2c3.4,0,6.2-2.8,6.2-6.2v-28.7c4.4-3.1,7.3-8.2,7.3-14v-17.3
			c0-5.8-2.9-10.9-7.3-14v-79C477.2,145.3,480.1,140.2,480.1,134.4z M248.4,90.2h40.9c22.4,0,40.9-16.6,43.9-38.2h27.6
			c3,21.6,21.6,38.2,43.9,38.2h40.6c6.5,0,12,4.1,14.1,9.8H234.3C236.4,94.3,241.9,90.2,248.4,90.2z M387.7,274.9
			c-3.3,19.5-19.8,34.6-40.8,34.6c-21.4,0-37.9-15.9-40.8-34.7c-3-18,0.9-20.1,40.8-89C387,255,390.6,256.5,387.7,274.9z
			 M467.8,258.5c0,2.7-2.2,4.8-4.8,4.8h-62.7c-1.2-12.9-6.4-20.9-9.8-26.8H463c2.5,0,4.8,2.1,4.8,4.8V258.5z M467.8,134.4
			c0,2.7-2.2,4.8-4.8,4.8H231.1c-2.6,0-4.8-2.1-4.8-4.8v-17.3c0-2.7,2.2-4.8,4.8-4.8H463c2.5,0,4.8,2.1,4.8,4.8V134.4z"/>
		<path class="st0" d="M472.8,351.5V330c0-3.4-2.8-6.2-6.2-6.2c-3.4,0-6.2,2.8-6.2,6.2v18.4H284v12.3H463c2.6,0,4.8,2.1,4.8,4.8
			v17.3c0,2.7-2.2,4.8-4.8,4.8H284v12.3h175.6c-2.1,5.7-7.7,9.8-14.1,9.8H284v12.3h161.5c14.4,0,26.2-11.1,27.3-25.2
			c4.4-3.1,7.4-8.2,7.4-14v-17.3C480.1,359.6,477.2,354.5,472.8,351.5z"/>
	</g>
</g>
</svg>
