<?xml version="1.0" encoding="utf-8"?>
<!-- Generator: Adobe Illustrator 21.1.0, SVG Export Plug-In . SVG Version: 6.00 Build 0)  -->
<svg version="1.1" id="Capa_1" xmlns="http://www.w3.org/2000/svg" xmlns:xlink="http://www.w3.org/1999/xlink" x="0px" y="0px"
	 viewBox="0 0 512 512" style="enable-background:new 0 0 512 512;" xml:space="preserve">
<style type="text/css">
	.st0{fill:#FFFFFF;}
</style>
<g>
	<g>
		<path class="st0" d="M479.5,134.8v-17.2c0-5.8-2.9-10.9-7.3-14c-1.1-14-12.9-25.1-27.2-25.1h-40.5c-15.8,0-28.9-11.5-31.5-26.5
			c7-2.1,12.1-8.6,12.1-16.3V19.5c0-9.4-7.6-17-17-17h-6.8c-3.4,0-6.1,2.7-6.1,6.1s2.7,6.1,6.1,6.1h6.8c2.6,0,4.7,2.1,4.7,4.7v16.3
			c0,2.6-2.1,4.7-4.7,4.7c-4.8,0-37.5,0-42.6,0c-2.6,0-4.7-2.1-4.7-4.7V19.5c0-2.6,2.1-4.7,4.7-4.7h7.1c3.4,0,6.1-2.7,6.1-6.1
			s-2.7-6.1-6.1-6.1h-7.1c-9.4,0-17,7.6-17,17v16.3c0,7.8,5.2,14.3,12.4,16.3c-2.6,15-15.7,26.4-31.4,26.4h-40.8
			c-14.4,0-26.2,11.2-27.2,25.3c-4.2,3.1-7,8.1-7,13.7v17.2c0,5.6,2.7,10.6,6.9,13.7v47h12.3v-43.7H460v72.5h-76.8l-26.3-45.4
			c-4.5-7.7-15.6-7.7-20.1,0l-26.3,45.4h-26.3v12.3h19.2c-3.7,6.4-8.6,13.9-9.8,26.7h-9.4v12.3h9.7c3.7,25.6,25.4,46,53,46
			c27.5,0,49.3-20.3,53-46H460v25.5c0,3.4,2.7,6.1,6.1,6.1c3.4,0,6.1-2.7,6.1-6.1v-28.6c4.4-3.1,7.2-8.2,7.2-13.9v-17.2
			c0-5.7-2.9-10.8-7.2-13.9v-78.7C476.6,145.7,479.5,140.6,479.5,134.8z M248.6,90.8h40.8c22.3,0,40.8-16.6,43.8-38.1h27.5
			c3,21.5,21.5,38.1,43.8,38.1H445c6.4,0,11.9,4.1,14.1,9.8H234.6C236.7,94.9,242.2,90.8,248.6,90.8z M387.4,274.8
			c-3.3,19.4-19.7,34.5-40.6,34.5c-21.3,0-37.7-15.9-40.6-34.5c-3-17.9,0.9-20,40.6-88.7C386.8,255.1,390.3,256.5,387.4,274.8z
			 M467.2,258.5c0,2.7-2.2,4.7-4.7,4.7h-62.4c-1.2-12.8-6.4-20.8-9.8-26.7h72.2c2.5,0,4.7,2.1,4.7,4.7V258.5z M467.2,134.8
			c0,2.7-2.2,4.7-4.7,4.7H231.4c-2.6,0-4.7-2.1-4.7-4.7v-17.2c0-2.7,2.2-4.7,4.7-4.7h231.1c2.5,0,4.7,2.1,4.7,4.7V134.8z"/>
		<path class="st0" d="M472.3,351.1v-21.4c0-3.4-2.7-6.1-6.1-6.1c-3.4,0-6.1,2.7-6.1,6.1V348H284.1v12.3h178.4
			c2.5,0,4.7,2.1,4.7,4.7v17.2c0,2.7-2.2,4.7-4.7,4.7H284.1v12.3H459c-2.1,5.7-7.6,9.8-14.1,9.8H284.1v12.3H445
			c14.3,0,26.1-11.1,27.2-25.1c4.4-3.1,7.3-8.2,7.3-14V365C479.5,359.3,476.6,354.2,472.3,351.1z"/>
	</g>
	<g>
		<g>
			<path class="st0" d="M269.8,390.8v90.7c0,7.7-6.3,14-14,14H60.4c-7.7,0-14-6.3-14-14V223.3c0-7.7,6.3-14,14-14h76.8v-13.9H60.4
				c-15.4,0-27.9,12.5-27.9,27.9v258.2c0,15.5,12.5,28,27.9,28h195.4c15.4,0,27.9-12.5,27.9-27.9v-90.8H269.8z"/>
		</g>
	</g>
	<g>
		<g>
			<path class="st0" d="M255.9,195.4h-76.8v14h76.8c7.7,0,14,6.3,14,14V349h14V223.3C283.8,207.9,271.3,195.4,255.9,195.4z"/>
		</g>
	</g>
	<g>
		<g>
			<path class="st0" d="M241.9,418.8v48.8H74.4V237.3h27.9v-14H67.4c-3.8,0-7,3.1-7,7v244.3c0,3.8,3.1,7,7,7h181.5c3.8,0,7-3.1,7-7
				v-55.9L241.9,418.8L241.9,418.8z"/>
		</g>
	</g>
	<g>
		<g>
			<path class="st0" d="M248.9,223.3h-34.9v14h28v139.6h14V230.4C255.9,226.5,252.8,223.3,248.9,223.3z"/>
		</g>
	</g>
	<g>
		<g>
			<path class="st0" d="M227.7,249.3l-14-48.8c-0.8-3-3.6-5.1-6.7-5.1H186v-7c0-15.4-12.5-27.9-27.9-27.9s-27.9,12.5-27.9,27.9v7
				h-20.9c-3.1,0-5.9,2-6.7,5.1l-14,48.8c-0.6,2.1-0.2,4.3,1.1,6.1s3.4,2.8,5.6,2.8H221c2.2,0,4.3-1.1,5.6-2.8
				C227.8,253.8,228.2,251.5,227.7,249.3z M104.6,244.3l10-34.9h22.7c3.8,0,7-3.1,7-7v-14c0-7.7,6.3-14,14-14c7.7,0,14,6.3,14,14v14
				c0,3.8,3.1,7,7,7h22.7l10,34.9H104.6z"/>
		</g>
	</g>
	<g>
		<g>
			<rect x="130.3" y="293.2" class="st0" width="90.7" height="14"/>
		</g>
	</g>
	<g>
		<g>
			
				<rect x="88.3" y="286.1" transform="matrix(0.5998 -0.8001 0.8001 0.5998 -192.198 201.9563)" class="st0" width="34.9" height="14"/>
		</g>
	</g>
	<g>
		<g>
			<rect x="130.3" y="335.1" class="st0" width="90.7" height="14"/>
		</g>
	</g>
	<g>
		<g>
			
				<rect x="88.3" y="328" transform="matrix(0.5998 -0.8001 0.8001 0.5998 -225.7319 218.6572)" class="st0" width="34.9" height="14"/>
		</g>
	</g>
	<g>
		<g>
			<rect x="130.3" y="376.9" class="st0" width="90.7" height="14"/>
		</g>
	</g>
	<g>
		<g>
			<rect x="130.3" y="418.8" class="st0" width="69.8" height="14"/>
		</g>
	</g>
	<g>
		<g>
			
				<rect x="88.3" y="369.9" transform="matrix(0.5998 -0.8001 0.8001 0.5998 -259.2411 235.4188)" class="st0" width="34.9" height="14"/>
		</g>
	</g>
	<g>
		<g>
			
				<rect x="88.3" y="411.8" transform="matrix(0.5998 -0.8001 0.8001 0.5998 -292.7455 252.1797)" class="st0" width="34.9" height="14"/>
		</g>
	</g>
	<g>
		<g>
			<path class="st0" d="M351.5,316.2l-20.9-20.9c-2.7-2.7-7.1-2.7-9.9,0L195.1,420.9c-1.3,1.3-2,3.1-2,4.9v20.9c0,3.8,3.1,7,7,7H221
				c1.9,0,3.6-0.7,4.9-2L351.5,326C354.3,323.3,354.3,318.9,351.5,316.2z M218.1,439.8h-11v-11L325.8,310l11,11L218.1,439.8z"/>
		</g>
	</g>
	<g>
		<g>
			
				<rect x="308.3" y="316.7" transform="matrix(0.7071 -0.7071 0.7071 0.7071 -142.1003 320.0282)" class="st0" width="14" height="29.6"/>
		</g>
	</g>
</g>
</svg>
