<?xml version="1.0" encoding="utf-8"?>
<!-- Generator: Adobe Illustrator 21.1.0, SVG Export Plug-In . SVG Version: 6.00 Build 0)  -->
<svg version="1.1" id="Layer_1" xmlns="http://www.w3.org/2000/svg" xmlns:xlink="http://www.w3.org/1999/xlink" x="0px" y="0px"
	 viewBox="0 0 512 512" style="enable-background:new 0 0 512 512;" xml:space="preserve">
<style type="text/css">
	.st0{fill:#FFFFFF;}
</style>
<path class="st0" d="M387.2,161.8c9.1,9.1,9.1,23.7,0,32.8L231.6,350.2c-9.1,9.1-23.7,9.1-32.8,0l-74.1-74.1
	c-9.1-9.1-9.1-23.7,0-32.8c9.1-9.1,23.7-9.1,32.8,0l57.7,57.7l139.2-139.2C363.5,152.8,378.2,152.8,387.2,161.8z M512,256
	c0,141.5-114.5,256-256,256C114.5,512,0,397.5,0,256C0,114.5,114.5,0,256,0C397.5,0,512,114.5,512,256z M472,256
	c0-119.4-96.6-216-216-216C136.6,40,40,136.6,40,256c0,119.4,96.6,216,216,216C375.4,472,472,375.4,472,256z"/>
</svg>
