<?xml version="1.0" encoding="utf-8"?>
<!-- Generator: Adobe Illustrator 21.1.0, SVG Export Plug-In . SVG Version: 6.00 Build 0)  -->
<svg version="1.1" id="Layer_1" xmlns="http://www.w3.org/2000/svg" xmlns:xlink="http://www.w3.org/1999/xlink" x="0px" y="0px"
	 viewBox="0 0 24 24" style="enable-background:new 0 0 24 24;" xml:space="preserve">
<style type="text/css">
	.st0{fill:#FFFFFF;}
</style>
<g>
	<g>
		<g>
			<path class="st0" d="M23.3,11.3c-0.8-0.7-2-0.7-2.8,0.2l-2,2.3c-0.3-0.9-1-1.5-1.9-1.5h-4.5c-0.3,0-0.4-0.1-0.8-0.5
				c-1.8-1.7-4.4-1.7-6.2,0L3.7,13c-0.6-0.3-1.3-0.3-1.9,0l-5.3,2.2c-0.3,0.2-0.5,0.6-0.3,1l0.7,8.1c0.2,0.4,0.7,0.9,1,0.7l8.6-1.9
				c0.7-0.4,1.1-1.2,1.1-2h9c1.5,0,2.9-0.8,3.8-2l3.2-4.7C24.2,13.4,24.1,12.1,23.3,11.3z M5.9,21.7l-8,1.7l-0.1-7.1l4.7-2
				c0.3-0.2,0.7,0,0.9,0.3l2.8,6.2C6.4,21.1,6.3,21.6,5.9,21.7z M22.5,13.4l-3.2,4.7c-0.6,0.9-1.6,1.5-2.7,1.5H7.2l-2.5-5.5l1.3-1.2
				c1.3-1.2,3.2-1.2,4.4,0c0.7,0.7,1.2,0.8,1.7,0.8h4.5c0.4,0,0.7,0.3,0.7,0.7c0,0.4-0.3,0.7-0.7,0.7h-4.4c-0.4,0-0.7,0.3-0.7,0.7
				s0.3,0.7,0.7,0.7H17c0.6,0,1.1-0.3,1.5-0.7l3-3.5c0.3-0.3,0.7-0.3,0.9,0C22.7,12.7,22.7,13.1,22.5,13.4z"/>
		</g>
	</g>
	<g>
		<g>
			<path class="st0" d="M13,1.7c0.9,0,1.7,0.8,1.7,1.7c0,0.9-0.8,1.7-1.7,1.7c-1,0-1.8-0.8-1.8-1.7C11.2,2.5,12,1.7,13,1.7z
				 M9.6,9.2c0.4-1.4,1.8-2.4,3.3-2.4c1.9,0,3.4,1.5,3.4,3.4h1.7c0-1.9-1.1-3.6-2.7-4.5c0.6-0.6,0.9-1.4,0.9-2.3
				C16.4,1.6,14.9,0,13,0c-1.9,0-3.5,1.6-3.5,3.4c0,0.9,0.3,1.7,1,2.3C9.3,6.4,8.4,7.4,8,8.6L9.6,9.2z"/>
		</g>
	</g>
</g>
</svg>
