<?xml version="1.0" encoding="utf-8"?>
<!-- Generator: Adobe Illustrator 21.1.0, SVG Export Plug-In . SVG Version: 6.00 Build 0)  -->
<svg version="1.1" id="Capa_1" xmlns="http://www.w3.org/2000/svg" xmlns:xlink="http://www.w3.org/1999/xlink" x="0px" y="0px"
	 viewBox="0 0 480 480" style="enable-background:new 0 0 480 480;" xml:space="preserve">
<style type="text/css">
	.st0{fill:#BCBCBC;}
</style>
<g>
	<g>
		<path class="st0" d="M288,96h-12.3c7.9-8.8,12.3-20.2,12.3-32V48c0-26.5-21.5-48-48-48s-48,21.5-48,48v16c0,11.8,4.4,23.2,12.3,32
			H192c-22.1,0-40,17.9-40,40v56h16v-56c0-13.3,10.7-24,24-24h40v80h16v-80h40c13.3,0,24,10.7,24,24v56h16v-56
			C328,113.9,310.1,96,288,96z M272,64c0,17.7-14.3,32-32,32s-32-14.3-32-32V48c0-17.7,14.3-32,32-32s32,14.3,32,32V64z"/>
	</g>
</g>
<g>
	<g>
		<rect x="184" y="144" class="st0" width="16" height="48"/>
	</g>
</g>
<g>
	<g>
		<rect x="280" y="144" class="st0" width="16" height="48"/>
	</g>
</g>
<g>
	<g>
		<path class="st0" d="M392,232H248v-24h-16v24H88c-4.4,0-8,3.6-8,8v32h16v-24h288v24h16v-32C400,235.6,396.4,232,392,232z"/>
	</g>
</g>
<g>
	<g>
		<path class="st0" d="M136,384h-12.3c7.9-8.8,12.3-20.2,12.3-32v-16c0-26.5-21.5-48-48-48s-48,21.5-48,48v16
			c0,11.8,4.4,23.2,12.3,32H40c-22.1,0-40,17.9-40,40v56h16v-56c0-13.3,10.7-24,24-24h40v80h16v-80h40c13.3,0,24,10.7,24,24v56h16
			v-56C176,401.9,158.1,384,136,384z M120,352c0,17.7-14.3,32-32,32s-32-14.3-32-32v-16c0-17.7,14.3-32,32-32s32,14.3,32,32V352z"/>
	</g>
</g>
<g>
	<g>
		<rect x="32" y="432" class="st0" width="16" height="48"/>
	</g>
</g>
<g>
	<g>
		<rect x="128" y="432" class="st0" width="16" height="48"/>
	</g>
</g>
<g>
	<g>
		<path class="st0" d="M440,384h-12.3c7.9-8.8,12.3-20.2,12.3-32v-16c0-26.5-21.5-48-48-48s-48,21.5-48,48v16
			c0,11.8,4.4,23.2,12.3,32H344c-22.1,0-40,17.9-40,40v56h16v-56c0-13.3,10.7-24,24-24h40v80h16v-80h40c13.3,0,24,10.7,24,24v56h16
			v-56C480,401.9,462.1,384,440,384z M424,352c0,17.7-14.3,32-32,32s-32-14.3-32-32v-16c0-17.7,14.3-32,32-32s32,14.3,32,32V352z"/>
	</g>
</g>
<g>
	<g>
		<rect x="336" y="432" class="st0" width="16" height="48"/>
	</g>
</g>
<g>
	<g>
		<rect x="432" y="432" class="st0" width="16" height="48"/>
	</g>
</g>
<path class="st0" d="M304.6,258.4l-28.9,34.2H178v102.9h117.6V292.6H295l20.9-24.6L304.6,258.4z M280.9,380.8h-88.2v-73.5h70.6
	L229,347.9l-16.4-16.4l-10.4,10.4l27.7,27.7l51-60.3L280.9,380.8L280.9,380.8z"/>
</svg>
