<?xml version="1.0" encoding="utf-8"?>
<!-- Generator: Adobe Illustrator 21.1.0, SVG Export Plug-In . SVG Version: 6.00 Build 0)  -->
<svg version="1.1" id="Layer_1" xmlns="http://www.w3.org/2000/svg" xmlns:xlink="http://www.w3.org/1999/xlink" x="0px" y="0px"
	 viewBox="0 0 24 24" style="enable-background:new 0 0 24 24;" xml:space="preserve">
<style type="text/css">
	.st0{fill:#FFFFFF;}
</style>
<g>
	<g>
		<path class="st0" d="M21.9,7.6c-0.2-0.5-0.4-0.8-0.7-1.1l-4.4-4.4c-0.3-0.3-0.6-0.5-1.1-0.7s-0.9-0.3-1.2-0.3H3.4
			c-0.4,0-0.7,0.1-1,0.4S2,2.1,2,2.5v20.1c0,0.4,0.1,0.7,0.4,1S3,24,3.4,24h17.4c0.4,0,0.7-0.1,1-0.4s0.4-0.6,0.4-1V8.8
			C22.2,8.4,22.1,8,21.9,7.6z M14.9,3c0.3,0.1,0.5,0.2,0.6,0.3l4.4,4.4C20,7.8,20.1,8,20.2,8.3h-5.3V3z M20.4,22.1H3.8V2.9h9.3v5.9
			c0,0.4,0.1,0.7,0.4,1c0.3,0.3,0.6,0.4,1,0.4h5.9V22.1z"/>
		<path class="st0" d="M16.1,17.6h-9c-0.1,0-0.2,0-0.3,0.1c-0.1,0.1-0.1,0.2-0.1,0.3v1c0,0.1,0,0.2,0.1,0.3c0.1,0.1,0.2,0.1,0.3,0.1
			h9c0.1,0,0.2,0,0.3-0.1c0.1-0.1,0.1-0.2,0.1-0.3v-0.9c0-0.1,0-0.2-0.1-0.3C16.3,17.7,16.2,17.6,16.1,17.6z"/>
		<path class="st0" d="M6.8,14.1c-0.1,0.1-0.1,0.2-0.1,0.3v0.9c0,0.1,0,0.2,0.1,0.3s0.2,0.1,0.3,0.1h9c0.1,0,0.2,0,0.3-0.1
			c0.1-0.1,0.1-0.2,0.1-0.3v-0.9c0-0.1,0-0.2-0.1-0.3C16.3,14,16.2,14,16.1,14h-9C7,14,6.9,14,6.8,14.1z"/>
	</g>
</g>
</svg>
