<?xml version="1.0" encoding="utf-8"?>
<!-- Generator: Adobe Illustrator 21.1.0, SVG Export Plug-In . SVG Version: 6.00 Build 0)  -->
<svg version="1.1" id="Layer_1" xmlns="http://www.w3.org/2000/svg" xmlns:xlink="http://www.w3.org/1999/xlink" x="0px" y="0px"
	 viewBox="0 0 24 24" style="enable-background:new 0 0 24 24;" xml:space="preserve">
<path d="M11.1,17.2V13H6.9C6.4,12.9,6,12.5,6,12s0.4-0.9,0.9-0.9h4.2V6.8c0-0.5,0.4-0.9,0.9-0.9s1,0.4,1,0.9v4.3h4.2
	c0.5,0,0.9,0.4,0.9,0.9s-0.4,0.9-0.9,0.9H13v4.2c0,0.5-0.4,0.9-0.9,0.9S11.1,17.7,11.1,17.2L11.1,17.2z M22.1,20.2
	c0.5,0,0.8-0.4,0.8-0.8V4.6c0-1.9-1.5-3.4-3.4-3.4h-15c-1.9,0-3.4,1.5-3.4,3.4v15c0,1.8,1.5,3.4,3.4,3.4h15c1.9,0,3.4-1.5,3.4-3.4
	c0-0.5-0.4-0.8-0.8-0.8s-0.8,0.4-0.8,0.8c0,0.9-0.7,1.7-1.7,1.7h-15c-0.9,0-1.7-0.7-1.7-1.7v-15c0-0.9,0.7-1.7,1.7-1.7h15
	c0.9,0,1.7,0.7,1.7,1.7v14.9C21.2,19.8,21.5,20.2,22.1,20.2z"/>
</svg>
