<?xml version="1.0" encoding="utf-8"?>
<!-- Generator: Adobe Illustrator 22.0.1, SVG Export Plug-In . SVG Version: 6.00 Build 0)  -->
<svg version="1.1" id="Capa_1" xmlns="http://www.w3.org/2000/svg" xmlns:xlink="http://www.w3.org/1999/xlink" x="0px" y="0px"
	 viewBox="0 0 512 512" style="enable-background:new 0 0 512 512;" xml:space="preserve">
<style type="text/css">
	.st0{fill:#F12300;}
	.st1{fill:#001E35;}
</style>
<g>
	<g>
		<path class="st0" d="M83.4,280.2c-4.8,0-8.7,3.9-8.7,8.7v34.7c0,4.8,3.9,8.7,8.7,8.7s8.7-3.9,8.7-8.7v-34.8
			C92.1,284,88.2,280.2,83.4,280.2z"/>
	</g>
</g>
<g>
	<g>
		<path class="st0" d="M118.1,297.5c-4.8,0-8.7,3.9-8.7,8.7v34.7c0,4.8,3.9,8.7,8.7,8.7c4.8,0,8.7-3.9,8.7-8.7v-34.7
			C126.8,301.4,122.9,297.5,118.1,297.5z"/>
	</g>
</g>
<g>
	<g>
		<path class="st1" d="M495.9,372.8c-8.4-29.1-29.1-53.1-56.7-65.8V115.3c0-3.1-1.6-5.9-4.3-7.5L244-5c-2.7-1.6-6.1-1.6-8.8,0
			L44.3,107.8c-0.2,0.1-0.3,0.3-0.5,0.4s-0.3,0.3-0.5,0.4c-0.8,0.6-1.4,1.3-1.9,2.1c0,0.1-0.1,0.1-0.1,0.2v0.1
			c-0.5,0.9-0.8,1.8-1,2.8c0,0.3-0.1,0.5-0.1,0.8s-0.1,0.5-0.1,0.8V341c0,3.1,1.6,5.9,4.3,7.5l190.9,112.8c0.2,0.1,0.5,0.2,0.7,0.3
			c0.2,0.1,0.5,0.2,0.7,0.3c1.9,0.8,4.1,0.8,6,0c0.3-0.1,0.5-0.2,0.7-0.3c0.2-0.1,0.5-0.2,0.7-0.3l51.8-30.6
			c15.9,55.2,73.6,87.1,128.9,71.1C479.9,485.7,511.8,428,495.9,372.8z M239.6,12.6l45.1,26.7l-66.9,39.5c-4.1,2.4-5.5,7.8-3.1,11.9
			s7.8,5.5,11.9,3.1l75.1-44.4l45.1,26.7L173.1,178.7L128,152l72.7-43c4.1-2.4,5.5-7.8,3.1-11.9s-7.8-5.5-11.9-3.1L111,141.8
			l-45.1-26.7L239.6,12.6z M164.4,193.7v57.9l-44.8-26.5v-57.9L164.4,193.7z M295.1,374.8c-2.3,8.8-3.5,17.8-3.4,26.8
			c0,3.6,0.2,7.3,0.6,10.9l-44,26v-28.2c0-4.8-3.9-8.7-8.7-8.7s-8.7,3.9-8.7,8.7v28.2L57.4,336V130.5l44.8,26.5v73.1
			c0,3.1,1.6,5.9,4.3,7.5l62.2,36.7c1.3,0.8,2.9,1.2,4.4,1.2c4.8,0,8.7-3.9,8.7-8.7v-62.9L231,233v142.6c0,4.8,3.9,8.7,8.7,8.7
			s8.7-3.9,8.7-8.7V233l157.3-92.9c4.1-2.4,5.5-7.8,3.1-11.9c-2.4-4.1-7.8-5.5-11.9-3.1l-157.1,92.8l-49.6-29.1L364,86.1l57.8,34.2
			v180.8C366.5,286.4,309.7,319.4,295.1,374.8z M395.8,488.4c-47.9,0-86.8-38.8-86.8-86.8s38.8-86.8,86.8-86.8s86.8,38.8,86.8,86.8
			C482.5,449.5,443.7,488.4,395.8,488.4z"/>
	</g>
</g>
<path class="st0" d="M395.8,297.5c-57.5,0-104.2,46.7-104.2,104.1s46.7,104.2,104.2,104.2S500,459.1,500,401.7
	C499.8,344.2,453.2,297.6,395.8,297.5z M395.8,486.8c-47,0-85.1-38.1-85.1-85.1s38.1-85.1,85.1-85.1s85.1,38.1,85.1,85.1
	C480.9,448.5,442.7,486.8,395.8,486.8z"/>
<path class="st1" d="M454.6,393.8h-51v-50.9c0-4.3-3.5-7.7-7.7-7.7s-7.7,3.5-7.7,7.7v50.9h-50.9c-4.3,0-7.7,3.5-7.7,7.7
	c0,4.3,3.5,7.7,7.7,7.7h50.9v50.9c0,4.3,3.5,7.7,7.7,7.7s7.7-3.5,7.7-7.7v-50.9h50.9c4.3,0,7.7-3.5,7.7-7.7S458.8,393.8,454.6,393.8
	z"/>
</svg>
