<?xml version="1.0" encoding="utf-8"?>
<!-- Generator: Adobe Illustrator 21.1.0, SVG Export Plug-In . SVG Version: 6.00 Build 0)  -->
<svg version="1.1" id="Layer_1" xmlns="http://www.w3.org/2000/svg" xmlns:xlink="http://www.w3.org/1999/xlink" x="0px" y="0px"
	 viewBox="0 0 512 512" style="enable-background:new 0 0 512 512;" xml:space="preserve">
<style type="text/css">
	.st0{fill:#B1B1B1;}
</style>
<path class="st0" d="M76,270c3.8,0,7.7-1.5,10.6-4.4L196,156.2l49.4,49.4c5.9,5.9,15.4,5.9,21.2,0L421,51.2V75c0,8.3,6.7,15,15,15
	s15-6.7,15-15V15c0-0.5,0-1-0.1-1.5c0-0.2-0.1-0.5-0.1-0.7c0-0.2-0.1-0.5-0.1-0.7c-0.1-0.3-0.1-0.6-0.2-0.9
	c-0.1-0.2-0.1-0.4-0.1-0.6c-0.1-0.3-0.2-0.6-0.3-0.9c-0.1-0.2-0.1-0.3-0.2-0.5c-0.1-0.3-0.3-0.6-0.4-0.9c-0.1-0.1-0.1-0.3-0.2-0.4
	c-0.2-0.3-0.4-0.6-0.6-0.9c-0.1-0.1-0.1-0.2-0.2-0.3c-0.3-0.4-0.6-0.8-0.9-1.2c0,0,0,0,0,0c-0.6-0.8-1.4-1.5-2.2-2.2c0,0,0,0,0,0
	c-0.4-0.3-0.8-0.6-1.2-0.9c-0.1-0.1-0.2-0.1-0.3-0.2c-0.3-0.2-0.6-0.4-0.9-0.6c-0.1-0.1-0.3-0.1-0.4-0.2c-0.3-0.1-0.6-0.3-0.9-0.4
	c-0.2-0.1-0.3-0.1-0.5-0.2c-0.3-0.1-0.6-0.2-0.9-0.3c-0.2-0.1-0.4-0.1-0.6-0.1c-0.3-0.1-0.6-0.2-0.9-0.2c-0.2,0-0.5-0.1-0.7-0.1
	c-0.2,0-0.5-0.1-0.7-0.1C437,0,436.5,0,436,0h-60c-8.3,0-15,6.7-15,15s6.7,15,15,15h23.8L256,173.8l-49.4-49.4
	c-5.9-5.9-15.4-5.9-21.2,0l-120,120c-5.9,5.9-5.9,15.4,0,21.2C68.3,268.5,72.2,270,76,270z"/>
<path class="st0" d="M0,497c0,8.3,6.7,15,15,15h120c8.3,0,15-6.7,15-15v-21H0V497z"/>
<path class="st0" d="M135,410H15c-8.3,0-15,6.7-15,15v21h150v-21C150,416.7,143.3,410,135,410z"/>
<path class="st0" d="M181,497c0,8.3,6.7,15,15,15h120c8.3,0,15-6.7,15-15v-21H181V497z"/>
<path class="st0" d="M362,410h150v36H362V410z"/>
<path class="st0" d="M497,212H377c-8.3,0-15,6.7-15,15v21h150v-21C512,218.7,505.3,212,497,212z"/>
<path class="st0" d="M362,278h150v36H362V278z"/>
<path class="st0" d="M362,344h150v36H362V344z"/>
<path class="st0" d="M362,497c0,8.3,6.7,15,15,15h120c8.3,0,15-6.7,15-15v-21H362V497z"/>
<path class="st0" d="M181,410h150v36H181V410z"/>
<path class="st0" d="M316,344H196c-8.3,0-15,6.7-15,15v21h150v-21C331,350.7,324.3,344,316,344z"/>
</svg>
