<?xml version="1.0" encoding="utf-8"?>
<!-- Generator: Adobe Illustrator 16.0.0, SVG Export Plug-In . SVG Version: 6.00 Build 0)  -->
<!DOCTYPE svg PUBLIC "-//W3C//DTD SVG 1.1//EN" "http://www.w3.org/Graphics/SVG/1.1/DTD/svg11.dtd">
<svg version="1.1" id="Layer_1" xmlns="http://www.w3.org/2000/svg" xmlns:xlink="http://www.w3.org/1999/xlink" x="0px" y="0px"
	 width="167.272px" height="45px" viewBox="0 0 167.272 45" enable-background="new 0 0 167.272 45" xml:space="preserve">
<path fill="#F12300" d="M70.095,0.438c-12.185,0-22.062,9.877-22.062,22.063c0,12.184,9.877,22.061,22.062,22.061
	S92.157,34.685,92.157,22.5C92.157,10.315,82.28,0.438,70.095,0.438 M70.095,39.849c-9.581,0-17.348-7.768-17.348-17.348
	c0-9.581,7.767-17.349,17.348-17.349S87.443,12.919,87.443,22.5C87.443,32.081,79.676,39.849,70.095,39.849"/>
<path fill="#939598" d="M109.83,42.5c-0.25-0.104-0.473-0.262-0.668-0.472l0.315-0.383c0.144,0.175,0.315,0.309,0.517,0.4
	c0.201,0.093,0.405,0.139,0.611,0.139c0.252,0,0.453-0.056,0.605-0.166c0.151-0.111,0.228-0.262,0.228-0.454
	c0-0.206-0.085-0.369-0.255-0.488c-0.099-0.071-0.288-0.158-0.569-0.263l-0.003-0.003h-0.003h-0.003l-0.002-0.003H110.6
	l-0.003-0.003h-0.003h-0.003l-0.003-0.002h-0.003h-0.002l-0.003-0.003h-0.003l-0.003-0.003h-0.003h-0.003l-0.003-0.003h-0.002
	l-0.003-0.003h-0.003h-0.003l-0.003-0.003h-0.003h-0.003l-0.002-0.003h-0.003l-0.003-0.002h-0.003h-0.003l-0.006-0.003
	c-0.102-0.039-0.188-0.073-0.258-0.101c-0.07-0.028-0.15-0.064-0.243-0.109c-0.092-0.045-0.169-0.088-0.23-0.13
	s-0.125-0.093-0.191-0.153c-0.065-0.061-0.118-0.123-0.156-0.188s-0.069-0.141-0.095-0.228s-0.038-0.179-0.038-0.275
	c0-0.199,0.055-0.381,0.164-0.546c0.108-0.164,0.258-0.294,0.448-0.388c0.189-0.094,0.399-0.142,0.628-0.142
	c0.224-0.001,0.445,0.039,0.665,0.12c0.219,0.082,0.426,0.2,0.619,0.355l-0.299,0.385c-0.158-0.13-0.323-0.229-0.495-0.296
	s-0.337-0.101-0.493-0.101c-0.128,0-0.246,0.021-0.354,0.065c-0.106,0.044-0.194,0.111-0.264,0.201
	c-0.068,0.091-0.104,0.197-0.104,0.32c-0.001,0.182,0.087,0.332,0.266,0.449c0.099,0.067,0.294,0.156,0.587,0.268l0.002,0.003h0.003
	l0.003,0.003h0.003h0.003l0.003,0.003c0.335,0.13,0.557,0.225,0.664,0.282c0.259,0.138,0.432,0.308,0.517,0.511
	c0.051,0.121,0.075,0.261,0.075,0.419c0,0.146-0.024,0.28-0.073,0.406c-0.05,0.126-0.117,0.233-0.203,0.322
	c-0.085,0.09-0.186,0.166-0.3,0.23s-0.238,0.112-0.37,0.143s-0.269,0.046-0.41,0.046C110.335,42.656,110.079,42.604,109.83,42.5z"/>
<path fill="#939598" d="M116.639,42.497c-0.255-0.105-0.471-0.251-0.646-0.436s-0.313-0.403-0.413-0.657s-0.149-0.526-0.149-0.817
	c0-0.29,0.05-0.563,0.149-0.816s0.237-0.473,0.413-0.656s0.392-0.328,0.646-0.435c0.255-0.105,0.531-0.159,0.829-0.159
	c0.283,0,0.55,0.051,0.799,0.151c0.25,0.101,0.464,0.239,0.644,0.417s0.321,0.396,0.426,0.655s0.156,0.54,0.156,0.843
	c0,0.304-0.052,0.585-0.156,0.844s-0.246,0.478-0.426,0.656s-0.394,0.318-0.644,0.419c-0.249,0.101-0.516,0.15-0.799,0.15
	C117.17,42.656,116.894,42.604,116.639,42.497z M118.059,42.063c0.186-0.079,0.346-0.188,0.48-0.327s0.241-0.308,0.319-0.507
	s0.117-0.413,0.117-0.643c0-0.229-0.039-0.442-0.117-0.642s-0.185-0.368-0.319-0.507s-0.295-0.247-0.48-0.325
	s-0.382-0.117-0.591-0.117c-0.177,0-0.345,0.026-0.504,0.08c-0.159,0.055-0.3,0.13-0.423,0.228
	c-0.123,0.099-0.229,0.213-0.318,0.344c-0.089,0.132-0.157,0.277-0.205,0.438s-0.071,0.327-0.071,0.502
	c0,0.22,0.037,0.427,0.111,0.622c0.075,0.194,0.178,0.363,0.309,0.507c0.132,0.143,0.293,0.257,0.483,0.34
	c0.19,0.084,0.396,0.126,0.618,0.126C117.677,42.182,117.874,42.143,118.059,42.063z"/>
<path fill="#939598" d="M123.193,38.558h0.497v3.604h2.011v0.458h-2.508V38.558z"/>
<path fill="#939598" d="M130.014,42.542c-0.193-0.076-0.358-0.186-0.496-0.327c-0.138-0.141-0.245-0.318-0.321-0.531
	c-0.076-0.214-0.114-0.452-0.114-0.717v-2.409h0.497v2.373c0,0.378,0.098,0.681,0.292,0.909c0.194,0.228,0.454,0.342,0.78,0.342
	c0.322,0,0.583-0.111,0.782-0.335c0.198-0.224,0.298-0.528,0.298-0.916v-2.373h0.497v2.409c0,0.521-0.142,0.934-0.426,1.236
	c-0.283,0.302-0.667,0.453-1.151,0.453C130.419,42.656,130.207,42.618,130.014,42.542z"/>
<path fill="#939598" d="M136.93,39.016h-1.215v-0.458h2.94v0.458h-1.229v3.604h-0.497V39.016z"/>
<path fill="#939598" d="M142.228,38.558h0.499v4.063h-0.499V38.558z"/>
<path fill="#939598" d="M147.669,42.497c-0.255-0.105-0.471-0.251-0.646-0.436s-0.313-0.403-0.413-0.657s-0.149-0.526-0.149-0.817
	c0-0.29,0.05-0.563,0.149-0.816s0.237-0.473,0.413-0.656s0.392-0.328,0.646-0.435c0.255-0.105,0.531-0.159,0.829-0.159
	c0.283,0,0.55,0.051,0.799,0.151c0.25,0.101,0.464,0.239,0.644,0.417s0.322,0.396,0.426,0.655c0.104,0.259,0.156,0.54,0.156,0.843
	c0,0.304-0.052,0.585-0.156,0.844c-0.104,0.259-0.246,0.478-0.426,0.656s-0.394,0.318-0.644,0.419
	c-0.249,0.101-0.516,0.15-0.799,0.15C148.201,42.656,147.924,42.604,147.669,42.497z M149.089,42.063
	c0.186-0.079,0.346-0.188,0.48-0.327s0.241-0.308,0.319-0.507s0.117-0.413,0.117-0.643c0-0.229-0.039-0.442-0.117-0.642
	s-0.185-0.368-0.319-0.507s-0.295-0.247-0.48-0.325s-0.382-0.117-0.591-0.117c-0.177,0-0.345,0.026-0.504,0.08
	c-0.159,0.055-0.3,0.13-0.423,0.228c-0.123,0.099-0.229,0.213-0.318,0.344c-0.089,0.132-0.158,0.277-0.205,0.438
	c-0.048,0.16-0.071,0.327-0.071,0.502c0,0.22,0.037,0.427,0.111,0.622c0.075,0.194,0.178,0.363,0.309,0.507
	c0.132,0.143,0.293,0.257,0.483,0.34c0.19,0.084,0.396,0.126,0.618,0.126C148.708,42.182,148.904,42.143,149.089,42.063z"/>
<path fill="#939598" d="M157.512,38.558v4.063h-0.505l-2.276-3.203h-0.011v3.203h-0.497v-4.063h0.491l2.29,3.236h0.011v-3.236
	H157.512z"/>
<path fill="#939598" d="M161.797,42.5c-0.25-0.104-0.473-0.262-0.668-0.472l0.315-0.383c0.144,0.175,0.315,0.309,0.517,0.4
	c0.201,0.093,0.405,0.139,0.612,0.139c0.251,0,0.452-0.056,0.604-0.166c0.151-0.111,0.228-0.262,0.228-0.454
	c0-0.206-0.085-0.369-0.255-0.488c-0.099-0.071-0.288-0.158-0.569-0.263l-0.003-0.003h-0.003h-0.002l-0.003-0.003h-0.003
	l-0.003-0.003h-0.003h-0.003l-0.003-0.002h-0.003h-0.002l-0.003-0.003h-0.003l-0.003-0.003h-0.003h-0.003l-0.003-0.003h-0.002
	l-0.003-0.003h-0.003h-0.003l-0.003-0.003h-0.003h-0.003l-0.002-0.003h-0.003l-0.003-0.002h-0.003H162.5l-0.006-0.003
	c-0.102-0.039-0.188-0.073-0.258-0.101c-0.07-0.028-0.15-0.064-0.243-0.109c-0.092-0.045-0.169-0.088-0.23-0.13
	s-0.125-0.093-0.191-0.153c-0.065-0.061-0.118-0.123-0.156-0.188s-0.069-0.141-0.095-0.228s-0.038-0.179-0.038-0.275
	c0-0.199,0.055-0.381,0.164-0.546c0.108-0.164,0.258-0.294,0.448-0.388c0.189-0.094,0.399-0.142,0.628-0.142
	c0.224-0.001,0.445,0.039,0.665,0.12c0.22,0.082,0.426,0.2,0.619,0.355l-0.299,0.385c-0.158-0.13-0.323-0.229-0.495-0.296
	s-0.337-0.101-0.493-0.101c-0.128,0-0.246,0.021-0.354,0.065c-0.106,0.044-0.194,0.111-0.264,0.201
	c-0.068,0.091-0.104,0.197-0.104,0.32c-0.001,0.182,0.087,0.332,0.266,0.449c0.099,0.067,0.294,0.156,0.587,0.268l0.002,0.003h0.003
	l0.003,0.003h0.003h0.003l0.003,0.003c0.335,0.13,0.557,0.225,0.664,0.282c0.259,0.138,0.432,0.308,0.517,0.511
	c0.051,0.121,0.075,0.261,0.075,0.419c0,0.146-0.024,0.28-0.073,0.406c-0.05,0.126-0.117,0.233-0.203,0.322
	c-0.085,0.09-0.186,0.166-0.3,0.23s-0.238,0.112-0.37,0.143s-0.269,0.046-0.41,0.046C162.303,42.656,162.046,42.604,161.797,42.5z"
	/>
<polygon fill="#001E35" points="23.861,32.419 15.141,13.102 11.779,13.102 3.059,32.419 6.144,32.419 7.682,29.001 15.662,29.001 
	14.4,26.198 8.942,26.198 13.46,16.208 20.776,32.419 "/>
<polygon fill="#001E35" points="27.348,13.131 27.348,32.419 37.981,32.419 37.981,29.616 30.151,29.616 30.151,13.131 "/>
<polygon fill="#001E35" points="41.583,13.131 41.583,32.419 52.216,32.419 52.216,29.616 44.386,29.616 44.386,13.131 "/>
<polygon fill="#001E35" points="106.11,17.536 106.11,32.39 108.913,32.39 108.913,13.074 105.658,13.074 99.225,23.013 
	92.824,13.074 89.569,13.074 89.569,32.39 92.372,32.39 92.372,17.532 99.226,28.175 "/>
<polygon fill="#001E35" points="133.202,32.419 124.481,13.102 121.12,13.102 112.4,32.419 115.484,32.419 117.021,29.001 
	125.002,29.001 123.741,26.198 118.283,26.198 122.8,16.208 130.117,32.419 "/>
<polygon fill="#001E35" points="146.495,13.102 131.99,13.102 131.99,15.905 137.855,15.905 137.855,32.419 140.659,32.419 
	140.659,15.905 146.495,15.905 "/>
<polygon fill="#001E35" points="162.895,15.905 162.895,13.102 150.099,13.102 150.099,32.419 162.895,32.419 162.895,29.616 
	152.902,29.616 152.902,24.161 160.4,24.161 160.4,21.359 152.902,21.359 152.902,15.905 "/>
</svg>
