<?xml version="1.0" encoding="utf-8"?>
<!-- Generator: Adobe Illustrator 21.1.0, SVG Export Plug-In . SVG Version: 6.00 Build 0)  -->
<svg version="1.1" id="Layer_1" xmlns="http://www.w3.org/2000/svg" xmlns:xlink="http://www.w3.org/1999/xlink" x="0px" y="0px"
	 viewBox="0 0 1399.5 376.5" style="enable-background:new 0 0 1399.5 376.5;" xml:space="preserve">
<style type="text/css">
	.st0{clip-path:url(#SVGID_2_);fill:#F12300;}
	.st1{fill:none;}
	.st2{enable-background:new    ;}
	.st3{fill:#939598;}
	.st4{clip-path:url(#SVGID_4_);fill:#FFFFFF;}
	.st5{clip-path:url(#SVGID_6_);fill:#FFFFFF;}
	.st6{clip-path:url(#SVGID_8_);fill:#FFFFFF;}
	.st7{clip-path:url(#SVGID_10_);fill:#FFFFFF;}
	.st8{clip-path:url(#SVGID_12_);fill:#FFFFFF;}
	.st9{clip-path:url(#SVGID_14_);fill:#FFFFFF;}
	.st10{fill:#FFFFFF;}
</style>
<g>
	<g>
		<g>
			<g>
				<g>
					<defs>
						<rect id="SVGID_1_" x="44.4" y="10.9" width="1325.7" height="356.6"/>
					</defs>
					<clipPath id="SVGID_2_">
						<use xlink:href="#SVGID_1_"  style="overflow:visible;"/>
					</clipPath>
					<path class="st0" d="M586.2,10.9c-98.5,0-178.3,79.8-178.3,178.3c0,98.5,79.8,178.3,178.3,178.3c98.5,0,178.3-79.8,178.3-178.3
						C764.6,90.8,684.7,10.9,586.2,10.9 M586.2,329.5c-77.4,0-140.2-62.8-140.2-140.2S508.8,49,586.2,49s140.2,62.8,140.2,140.2
						C726.5,266.7,663.7,329.5,586.2,329.5"/>
				</g>
			</g>
		</g>
	</g>
	<rect x="44.4" y="10.9" class="st1" width="1325.7" height="356.6"/>
	<g class="st2">
		<path class="st3" d="M907.4,350.9c-2-0.8-3.8-2.1-5.4-3.8l2.5-3.1c1.2,1.4,2.5,2.5,4.2,3.2c1.6,0.7,3.3,1.1,4.9,1.1
			c2,0,3.7-0.4,4.9-1.3s1.8-2.1,1.8-3.7c0-1.7-0.7-3-2-3.9c-0.8-0.6-2.3-1.3-4.6-2.1l0,0h0h0l0,0h0l0,0h0h0l0,0h0h0l0,0h0l0,0h0h0
			l0,0h0l0,0h0h0l0,0h0h0l0,0h0l0,0h0h0l0,0c-0.8-0.3-1.5-0.6-2.1-0.8c-0.6-0.2-1.2-0.5-2-0.9c-0.7-0.4-1.4-0.7-1.9-1
			c-0.5-0.3-1-0.8-1.5-1.2c-0.5-0.5-1-1-1.3-1.5c-0.3-0.5-0.6-1.1-0.8-1.8c-0.2-0.7-0.3-1.4-0.3-2.2c0-1.6,0.4-3.1,1.3-4.4
			c0.9-1.3,2.1-2.4,3.6-3.1c1.5-0.8,3.2-1.1,5.1-1.1c1.8,0,3.6,0.3,5.4,1c1.8,0.7,3.4,1.6,5,2.9l-2.4,3.1c-1.3-1.1-2.6-1.8-4-2.4
			c-1.4-0.5-2.7-0.8-4-0.8c-1,0-2,0.2-2.8,0.5c-0.9,0.4-1.6,0.9-2.1,1.6s-0.8,1.6-0.8,2.6c0,1.5,0.7,2.7,2.1,3.6
			c0.8,0.5,2.4,1.3,4.7,2.2l0,0h0l0,0h0h0l0,0c2.7,1.1,4.5,1.8,5.4,2.3c2.1,1.1,3.5,2.5,4.2,4.1c0.4,1,0.6,2.1,0.6,3.4
			c0,1.2-0.2,2.3-0.6,3.3s-0.9,1.9-1.6,2.6s-1.5,1.3-2.4,1.9c-0.9,0.5-1.9,0.9-3,1.1c-1.1,0.2-2.2,0.4-3.3,0.4
			C911.5,352.2,909.4,351.7,907.4,350.9z"/>
	</g>
	<g class="st2">
		<path class="st3" d="M962.4,350.9c-2.1-0.9-3.8-2-5.2-3.5c-1.4-1.5-2.5-3.3-3.3-5.3c-0.8-2-1.2-4.2-1.2-6.6c0-2.3,0.4-4.5,1.2-6.6
			c0.8-2,1.9-3.8,3.3-5.3c1.4-1.5,3.2-2.6,5.2-3.5c2.1-0.9,4.3-1.3,6.7-1.3c2.3,0,4.4,0.4,6.4,1.2c2,0.8,3.7,1.9,5.2,3.4
			c1.4,1.4,2.6,3.2,3.4,5.3c0.8,2.1,1.3,4.4,1.3,6.8c0,2.4-0.4,4.7-1.3,6.8s-2,3.9-3.4,5.3s-3.2,2.6-5.2,3.4c-2,0.8-4.2,1.2-6.4,1.2
			C966.7,352.2,964.5,351.7,962.4,350.9z M973.9,347.4c1.5-0.6,2.8-1.5,3.9-2.6c1.1-1.1,1.9-2.5,2.6-4.1s0.9-3.3,0.9-5.2
			c0-1.8-0.3-3.6-0.9-5.2s-1.5-3-2.6-4.1c-1.1-1.1-2.4-2-3.9-2.6c-1.5-0.6-3.1-0.9-4.8-0.9c-1.4,0-2.8,0.2-4.1,0.7
			c-1.3,0.4-2.4,1-3.4,1.8c-1,0.8-1.8,1.7-2.6,2.8s-1.3,2.2-1.7,3.5c-0.4,1.3-0.6,2.6-0.6,4.1c0,1.8,0.3,3.4,0.9,5
			c0.6,1.6,1.4,2.9,2.5,4.1s2.4,2.1,3.9,2.7c1.5,0.7,3.2,1,5,1C970.8,348.3,972.4,348,973.9,347.4z"/>
	</g>
	<g class="st2">
		<path class="st3" d="M1015.4,319.1h4v29.1h16.2v3.7h-20.2L1015.4,319.1L1015.4,319.1z"/>
	</g>
	<g class="st2">
		<path class="st3" d="M1070.5,351.2c-1.6-0.6-2.9-1.5-4-2.6c-1.1-1.1-2-2.6-2.6-4.3c-0.6-1.7-0.9-3.6-0.9-5.8v-19.4h4v19.1
			c0,3,0.8,5.5,2.4,7.3c1.6,1.8,3.7,2.8,6.3,2.8c2.6,0,4.7-0.9,6.3-2.7s2.4-4.3,2.4-7.4v-19.1h4v19.4c0,4.2-1.1,7.5-3.4,10
			c-2.3,2.4-5.4,3.7-9.3,3.7C1073.8,352.2,1072.1,351.9,1070.5,351.2z"/>
		<path class="st3" d="M1124.4,322.8h-9.8v-3.7h23.7v3.7h-9.9v29.1h-4L1124.4,322.8L1124.4,322.8z"/>
		<path class="st3" d="M1165.1,319.1h4v32.8h-4V319.1z"/>
		<path class="st3" d="M1207,350.9c-2.1-0.9-3.8-2-5.2-3.5c-1.4-1.5-2.5-3.3-3.3-5.3c-0.8-2-1.2-4.2-1.2-6.6c0-2.3,0.4-4.5,1.2-6.6
			c0.8-2,1.9-3.8,3.3-5.3c1.4-1.5,3.2-2.6,5.2-3.5c2.1-0.9,4.3-1.3,6.7-1.3c2.3,0,4.4,0.4,6.4,1.2c2,0.8,3.7,1.9,5.2,3.4
			c1.4,1.4,2.6,3.2,3.4,5.3c0.8,2.1,1.3,4.4,1.3,6.8c0,2.4-0.4,4.7-1.3,6.8s-2,3.9-3.4,5.3s-3.2,2.6-5.2,3.4c-2,0.8-4.2,1.2-6.4,1.2
			C1211.3,352.2,1209.1,351.7,1207,350.9z M1218.5,347.4c1.5-0.6,2.8-1.5,3.9-2.6c1.1-1.1,1.9-2.5,2.6-4.1c0.6-1.6,0.9-3.3,0.9-5.2
			c0-1.8-0.3-3.6-0.9-5.2c-0.6-1.6-1.5-3-2.6-4.1c-1.1-1.1-2.4-2-3.9-2.6c-1.5-0.6-3.1-0.9-4.8-0.9c-1.4,0-2.8,0.2-4.1,0.7
			c-1.3,0.4-2.4,1-3.4,1.8c-1,0.8-1.8,1.7-2.6,2.8s-1.3,2.2-1.7,3.5c-0.4,1.3-0.6,2.6-0.6,4.1c0,1.8,0.3,3.4,0.9,5
			c0.6,1.6,1.4,2.9,2.5,4.1s2.4,2.1,3.9,2.7c1.5,0.7,3.2,1,5,1C1215.4,348.3,1217,348,1218.5,347.4z"/>
		<path class="st3" d="M1284.4,319.1v32.8h-4.1L1262,326h-0.1v25.8h-4v-32.8h4l18.5,26.1h0.1v-26.1H1284.4z"/>
	</g>
	<g class="st2">
		<path class="st3" d="M1327.4,350.9c-2-0.8-3.8-2.1-5.4-3.8l2.5-3.1c1.2,1.4,2.5,2.5,4.2,3.2c1.6,0.7,3.3,1.1,4.9,1.1
			c2,0,3.7-0.4,4.9-1.3s1.8-2.1,1.8-3.7c0-1.7-0.7-3-2-3.9c-0.8-0.6-2.3-1.3-4.6-2.1l0,0h0h0l0,0h0l0,0h0h0l0,0h0h0l0,0h0l0,0h0h0
			l0,0h0l0,0h0h0l0,0h0h0l0,0h0l0,0h0h0l0,0c-0.8-0.3-1.5-0.6-2.1-0.8c-0.6-0.2-1.2-0.5-2-0.9c-0.7-0.4-1.4-0.7-1.9-1
			c-0.5-0.3-1-0.8-1.5-1.2c-0.5-0.5-1-1-1.3-1.5c-0.3-0.5-0.6-1.1-0.8-1.8c-0.2-0.7-0.3-1.4-0.3-2.2c0-1.6,0.4-3.1,1.3-4.4
			c0.9-1.3,2.1-2.4,3.6-3.1c1.5-0.8,3.2-1.1,5.1-1.1c1.8,0,3.6,0.3,5.4,1c1.8,0.7,3.4,1.6,5,2.9l-2.4,3.1c-1.3-1.1-2.6-1.8-4-2.4
			c-1.4-0.5-2.7-0.8-4-0.8c-1,0-2,0.2-2.8,0.5c-0.9,0.4-1.6,0.9-2.1,1.6s-0.8,1.6-0.8,2.6c0,1.5,0.7,2.7,2.1,3.6
			c0.8,0.5,2.4,1.3,4.7,2.2l0,0h0l0,0h0h0l0,0c2.7,1.1,4.5,1.8,5.4,2.3c2.1,1.1,3.5,2.5,4.2,4.1c0.4,1,0.6,2.1,0.6,3.4
			c0,1.2-0.2,2.3-0.6,3.3s-0.9,1.9-1.6,2.6s-1.5,1.3-2.4,1.9c-0.9,0.5-1.9,0.9-3,1.1c-1.1,0.2-2.2,0.4-3.3,0.4
			C1331.5,352.2,1329.4,351.7,1327.4,350.9z"/>
	</g>
	<g>
		<g>
			<g>
				<g>
					<defs>
						<rect id="SVGID_3_" x="44.4" y="10.9" width="1325.7" height="356.6"/>
					</defs>
					<clipPath id="SVGID_4_">
						<use xlink:href="#SVGID_3_"  style="overflow:visible;"/>
					</clipPath>
					<polygon class="st4" points="212.5,269.4 142.1,113.3 114.9,113.3 44.4,269.4 69.3,269.4 81.8,241.8 146.3,241.8 136.1,219.2 
						91.9,219.2 128.5,138.4 187.6,269.4 					"/>
				</g>
			</g>
		</g>
	</g>
	<g>
		<g>
			<g>
				<g>
					<defs>
						<rect id="SVGID_5_" x="44.4" y="10.9" width="1325.7" height="356.6"/>
					</defs>
					<clipPath id="SVGID_6_">
						<use xlink:href="#SVGID_5_"  style="overflow:visible;"/>
					</clipPath>
					<polygon class="st5" points="240.7,113.5 240.7,269.4 326.7,269.4 326.7,246.8 263.4,246.8 263.4,113.5 					"/>
				</g>
			</g>
		</g>
	</g>
	<g>
		<g>
			<g>
				<g>
					<defs>
						<rect id="SVGID_7_" x="44.4" y="10.9" width="1325.7" height="356.6"/>
					</defs>
					<clipPath id="SVGID_8_">
						<use xlink:href="#SVGID_7_"  style="overflow:visible;"/>
					</clipPath>
					<polygon class="st6" points="355.8,113.5 355.8,269.4 441.7,269.4 441.7,246.8 378.4,246.8 378.4,113.5 					"/>
				</g>
			</g>
		</g>
	</g>
	<g>
		<g>
			<g>
				<g>
					<defs>
						<rect id="SVGID_9_" x="44.4" y="10.9" width="1325.7" height="356.6"/>
					</defs>
					<clipPath id="SVGID_10_">
						<use xlink:href="#SVGID_9_"  style="overflow:visible;"/>
					</clipPath>
					<polygon class="st7" points="877.3,149.1 877.3,269.2 900,269.2 900,113.1 873.7,113.1 821.7,193.4 769.9,113.1 743.6,113.1 
						743.6,269.2 766.3,269.2 766.3,149.1 821.7,235.1 					"/>
				</g>
			</g>
		</g>
	</g>
	<g>
		<g>
			<g>
				<g>
					<defs>
						<rect id="SVGID_11_" x="44.4" y="10.9" width="1325.7" height="356.6"/>
					</defs>
					<clipPath id="SVGID_12_">
						<use xlink:href="#SVGID_11_"  style="overflow:visible;"/>
					</clipPath>
					<polygon class="st8" points="1096.3,269.4 1025.8,113.3 998.7,113.3 928.2,269.4 953.1,269.4 965.5,241.8 1030,241.8 
						1019.8,219.2 975.7,219.2 1012.2,138.4 1071.4,269.4 					"/>
				</g>
			</g>
		</g>
	</g>
	<g>
		<g>
			<g>
				<g>
					<defs>
						<rect id="SVGID_13_" x="44.4" y="10.9" width="1325.7" height="356.6"/>
					</defs>
					<clipPath id="SVGID_14_">
						<use xlink:href="#SVGID_13_"  style="overflow:visible;"/>
					</clipPath>
					<polygon class="st9" points="1203.8,113.3 1086.5,113.3 1086.5,135.9 1133.9,135.9 1133.9,269.4 1156.6,269.4 1156.6,135.9 
						1203.8,135.9 					"/>
				</g>
			</g>
		</g>
	</g>
	<rect x="44.4" y="10.9" class="st1" width="1325.7" height="356.6"/>
	<polygon class="st10" points="1336.3,135.9 1336.3,113.3 1232.9,113.3 1232.9,269.4 1336.3,269.4 1336.3,246.8 1255.5,246.8 
		1255.5,202.7 1316.1,202.7 1316.1,180 1255.5,180 1255.5,135.9 	"/>
</g>
</svg>
