<?xml version="1.0" encoding="utf-8"?>
<!-- Generator: Adobe Illustrator 21.1.0, SVG Export Plug-In . SVG Version: 6.00 Build 0)  -->
<svg version="1.1" id="Layer_1" xmlns="http://www.w3.org/2000/svg" xmlns:xlink="http://www.w3.org/1999/xlink" x="0px" y="0px"
	 viewBox="0 0 1000 818.4" style="enable-background:new 0 0 1000 818.4;" xml:space="preserve">
<style type="text/css">
	.st0{fill:#282828;}
	.st1{fill:#999999;}
	.st2{fill:none;stroke:#999999;stroke-width:8.5;stroke-miterlimit:10;}
	.st3{fill:none;stroke:#999999;stroke-width:7.5;stroke-miterlimit:10;}
	.st4{fill:none;stroke:#999999;stroke-width:6;stroke-miterlimit:10;}
	.st5{fill:none;stroke:#999999;stroke-width:4;stroke-miterlimit:10;}
	.st6{fill:none;stroke:#999999;stroke-width:10.5;stroke-miterlimit:10;}
	.st7{fill:#0038BA;}
</style>
<path class="st0" d="M724,572h-8V368.2L614.9,284H596v77.2L511.1,284H492v80h-17.1l-16-112H397l-16,112h-17v70.8
	c-18.1,8-33.1,22.5-41.2,41.2H316c-13.2,0-24,10.8-24,24s10.8,24,24,24h1.6c4.7,23.2,19.3,42.5,39,53.6
	C296.3,594.8,252,650.3,252,716v32h288v-32c0-36.9-14.1-70.5-37-96h53v104c0,13.2,10.8,24,24,24h144c13.2,0,24-10.8,24-24V596
	C748,582.8,737.2,572,724,572z M410.9,268H445l13.7,96h-61.5L410.9,268z M508,380v-77.2l84.9,77.2H612v-77.6l88,73.3V396H380v-16
	H508z M396,444c23,0,43.9,12.5,55.2,32H340.8C352.1,456.5,373,444,396,444z M308,500c0-4.4,3.6-8,8-8h160c4.4,0,8,3.6,8,8
	s-3.6,8-8,8H316C311.6,508,308,504.4,308,500z M334.1,524h123.8c-7.1,27.9-32.3,48-61.9,48C366.4,572,341.3,551.9,334.1,524z
	 M345.5,598.4l39.6,45.2l-17.7,17.7L344.3,599C344.7,598.8,345.1,598.6,345.5,598.4z M396,655.3l22.5,22.5L398.4,732h-4.9
	l-20.1-54.2L396,655.3z M424.6,661.3l-17.7-17.7l39.6-45.2c0.4,0.2,0.8,0.4,1.1,0.6L424.6,661.3z M396,631.9l-34.2-39.1
	c10.9-3,22.3-4.8,34.2-4.8c11.9,0,23.3,1.7,34.2,4.8L396,631.9z M268,716c0-46.4,25-87.1,62.1-109.5L376.5,732H316v-64h-16v64h-32
	V716z M524,732h-32v-64h-16v64h-60.5l46.4-125.5C499,628.9,524,669.6,524,716V732z M486.3,604c-14.8-12-32.1-21-51-26.4
	c19.7-11.1,34.3-30.4,39-53.6h1.6c13.2,0,24-10.8,24-24s-10.8-24-24-24h-6.8c-12.6-28.9-41.4-48-73.2-48c-5.4,0-10.8,0.6-16,1.7V412
	h320v160H580c-13.2,0-24,10.8-24,24v8H486.3z M636,588h32v32h-32V588z M732,724c0,4.4-3.6,8-8,8H580c-4.4,0-8-3.6-8-8V596
	c0-4.4,3.6-8,8-8h40v48h64v-48h40c4.4,0,8,3.6,8,8V724z"/>
<path class="st1" d="M410.9,268H445l13.7,96h-61.5L410.9,268z M508,380v-77.2l84.9,77.2H612v-77.6l88,73.3V396H380v-16H508z
	 M503,620h53v104c0,13.3,10.7,24,24,24h144c13.3,0,24-10.7,24-24V596c0-13.3-10.7-24-24-24h-8V368.2L614.9,284H596v77.2L511.1,284
	H492v80h-17.1l-16-112H397l-16,112h-17v70.8l6.4-2.2c1.1-0.4,2.1-0.7,3.2-1l6.4-1.8V412h320v160H580c-13.3,0-24,10.7-24,24v8h-69.7
	L503,620z M636,588h32v32h-32V588z M732,724c0,4.4-3.6,8-8,8H580c-4.4,0-8-3.6-8-8V596c0-4.4,3.6-8,8-8h40v48h64v-48h40
	c4.4,0,8,3.6,8,8V724z"/>
<line class="st2" x1="39.2" y1="396" x2="186" y2="396"/>
<line class="st2" x1="9" y1="446" x2="112.2" y2="446"/>
<line class="st2" x1="945.9" y1="341" x2="809" y2="341"/>
<line class="st2" x1="974" y1="291" x2="877.8" y2="291"/>
<circle class="st3" cx="886" cy="776" r="15"/>
<circle class="st4" cx="291" cy="178" r="12"/>
<circle class="st5" cx="567" cy="42" r="8"/>
<circle class="st6" cx="715" cy="166" r="21"/>
<line class="st2" x1="120" y1="776" x2="142" y2="776"/>
<line class="st2" x1="87" y1="776" x2="109" y2="776"/>
<line class="st2" x1="436" y1="214" x2="458" y2="214"/>
<line class="st2" x1="403" y1="214" x2="425" y2="214"/>
<line class="st2" x1="120" y1="152" x2="142" y2="152"/>
<line class="st2" x1="87" y1="152" x2="109" y2="152"/>
<path class="st7" d="M700,573H580c-13.2,0-24,10.8-24,24v8v16v104c0,13.2,10.8,24,24,24h144c13.2,0,24-10.8,24-24V597
	c0-13.2-10.8-24-24-24h-8H700z M636,589h32v32h-32V589z M732,725c0,4.4-3.6,8-8,8H580c-4.4,0-8-3.6-8-8V597c0-4.4,3.6-8,8-8h40v48
	h64v-48h40c4.4,0,8,3.6,8,8V725z"/>
</svg>
