<?xml version="1.0" encoding="utf-8"?>
<!-- Generator: Adobe Illustrator 21.1.0, SVG Export Plug-In . SVG Version: 6.00 Build 0)  -->
<svg version="1.1" id="Capa_1" xmlns="http://www.w3.org/2000/svg" xmlns:xlink="http://www.w3.org/1999/xlink" x="0px" y="0px"
	 viewBox="0 0 501.2 501.2" style="enable-background:new 0 0 501.2 501.2;" xml:space="preserve">
<style type="text/css">
	.st0{fill:#BCBCBC;}
</style>
<g>
	<g>
		<path class="st0" d="M426.6,2.6c-13.2,0-24,10.8-24,24c0,1.1,0.2,2.1,0.3,3.2L355,57.2c-4.3-4-10-6.6-16.4-6.6s-12.1,2.5-16.4,6.6
			l-47.9-27.4c0.1-1,0.3-2.1,0.3-3.2c0-13.2-10.8-24-24-24s-24,10.8-24,24c0,1.3,0.2,2.5,0.4,3.8l-48.4,26.4
			c-4.3-3.8-9.8-6.2-15.9-6.2S151,53,146.8,56.8L98.2,30.4c0.2-1.2,0.4-2.5,0.4-3.8c0-13.2-10.8-24-24-24s-24,10.8-24,24
			s10.8,24,24,24c6.1,0,11.7-2.4,15.9-6.2L139,70.8c-0.2,1.2-0.4,2.5-0.4,3.8c0,13.2,10.8,24,24,24s24-10.8,24-24
			c0-1.3-0.2-2.5-0.4-3.8l48.4-26.4c4.3,3.8,9.8,6.2,15.9,6.2c6.4,0,12.1-2.5,16.4-6.6l47.9,27.4c-0.1,1-0.3,2.1-0.3,3.2
			c0,13.2,10.8,24,24,24s24-10.8,24-24c0-1.1-0.2-2.1-0.3-3.2l48-27.4c4.3,4,10,6.6,16.4,6.6c13.2,0,24-10.8,24-24
			S439.8,2.6,426.6,2.6z M74.6,34.6c-4.4,0-8-3.6-8-8s3.6-8,8-8s8,3.6,8,8S79,34.6,74.6,34.6z M162.6,82.6c-4.4,0-8-3.6-8-8
			s3.6-8,8-8s8,3.6,8,8S167,82.6,162.6,82.6z M250.6,34.6c-4.4,0-8-3.6-8-8s3.6-8,8-8s8,3.6,8,8S255,34.6,250.6,34.6z M338.6,82.6
			c-4.4,0-8-3.6-8-8s3.6-8,8-8s8,3.6,8,8S343,82.6,338.6,82.6z M426.6,34.6c-4.4,0-8-3.6-8-8s3.6-8,8-8s8,3.6,8,8
			S431,34.6,426.6,34.6z"/>
	</g>
</g>
<g>
	<g>
		<path class="st0" d="M490.3,460.6c-5.8-20.2-22.2-35.4-42.9-39.5l-44.9-9V410c14.8-8.6,25.8-22.9,30-40c14.8-2.8,26-15.8,26-31.4
			v-55c0-0.3-0.1-0.6-0.1-1h0.1v-200h-64v97.3h16V98.6h32v148.3c-5.4-5-11.8-8.9-19.1-11.2c-3.7-5-8.1-9.2-12.9-12.8v-27h-16v18.4
			c-6.6-2.4-13.6-3.6-20.8-3.6c-1.1,0-2.1,0.1-3.2,0.2v-88.2h-64V237c-1-0.4-2-0.9-3.1-1.3c-5.6-7.6-12.8-13.6-20.9-17.9V82.6h-64
			v135.1c-8.8,3.7-16.9,8.8-24,14.9v-110h-64v88.2c-8.3,0.3-16.4,1.6-24,4v-20.1h-16v26.9c-12.8,6.9-23.8,16.8-32,28.8V98.6h32v80
			h16v-96h-64v216h0.2c0,1.1-0.2,2.1-0.2,3.2v36.8c0,15.6,11.2,28.5,26,31.4c4.2,17,15.2,31.4,30,40v2.1l-44.9,9
			c-20.7,4.1-37.1,19.3-42.9,39.5L0,498.6h120h10.6h240h10.6h120L490.3,460.6z M418.6,354.6c0,26.5-21.5,48-48,48
			c-22.4,0-41.6-15.8-46.6-37.2c8.8-5.7,14.6-15.6,14.6-26.8V318c8.4-3.3,16.2-8.3,22.6-14.7l2.1-2.1l0.8,0.6
			c15.8,11.8,34.8,18.9,54.4,20.5L418.6,354.6L418.6,354.6z M190.6,376.7c5.2,14.1,15.2,25.8,28,33.2v2.1l-28,5.6l-28-5.6v-2.1
			C175.4,402.5,185.4,390.8,190.6,376.7z M178.6,338.6c0-5.9,3.2-11,8-13.8v27.6C181.8,349.6,178.6,344.5,178.6,338.6z M202.6,354.6
			v-32.5c14.6-1.8,28.1-8.2,38.6-18.8l2.1-2.1l0.8,0.6c15.8,11.8,34.8,18.9,54.4,20.5v32.3c0,26.5-21.5,48-48,48
			S202.6,381.1,202.6,354.6z M282.6,409.9c12.8-7.4,22.8-19.2,28-33.2c5.2,14.1,15.3,25.8,28,33.2v2.1l-28,5.6l-28-5.6V409.9z
			 M314.6,352.4v-27.6c4.8,2.8,8,7.9,8,13.8S319.4,349.6,314.6,352.4z M434.6,352.4v-27.6c4.8,2.8,8,7.9,8,13.8
			S439.4,349.6,434.6,352.4z M322.6,138.6h32v74.1c-11.5,2.5-22.3,7.2-32,13.8V138.6z M373.8,226.6c15.4,0,29.7,7.6,38.2,20.4
			l1.7,2.6l3,0.8c15.3,3.8,25.9,17.5,25.9,33.2v27.5c-4.7-2.8-10.1-4.4-16-4.4c-18.9,0-37.7-6.2-52.8-17.6l-12-9L349.9,292
			c-3.3,3.3-7.2,6.1-11.3,8.4v-16.8c0-14.4-6.1-27.5-16.1-36.8C336.3,233.9,354.6,226.6,373.8,226.6z M234.6,98.6h32V212
			c-4.2-0.9-8.5-1.4-12.8-1.4c-6.6,0-13,0.7-19.2,2.1V98.6z M253.8,226.6c15.4,0,29.7,7.6,38.2,20.4l1.7,2.6l3,0.8
			c15.3,3.8,25.9,17.5,25.9,33.2v27.5c-4.7-2.8-10.1-4.4-16-4.4c-18.9,0-37.7-6.2-52.8-17.6l-12-9L229.9,292
			c-9.4,9.4-22,14.6-35.3,14.6c-5.9,0-11.3,1.7-16,4.4v-9.3C178.6,260.3,212.3,226.6,253.8,226.6z M146.6,138.6h32v91.2
			c-8.6-9.1-19.8-15.2-32-17.8V138.6z M66.6,352.4c-4.8-2.8-8-7.9-8-13.8s3.2-11,8-13.8V352.4z M58.6,311.1v-9.3
			c0-41.4,33.7-75.2,75.2-75.2c15.4,0,29.7,7.6,38.2,20.4l1.7,2.6l3,0.8c0.5,0.1,1,0.4,1.5,0.5c-9.8,14.5-15.5,32-15.5,50.9v1.4
			c-10.4-3-20.2-7.7-28.8-14.2l-12-9l-12,12c-9.4,9.4-22,14.6-35.3,14.6C68.8,306.6,63.3,308.3,58.6,311.1z M82.6,354.6v-32.5
			c14.6-1.8,28.1-8.2,38.6-18.8l2.1-2.1l0.8,0.6c11.4,8.5,24.6,14.5,38.4,17.8v19c0,11.2,5.8,21.1,14.6,26.8
			c-5,21.4-24.2,37.2-46.6,37.2C104.1,402.6,82.6,381.1,82.6,354.6z M124.6,482.6H21.2l5-17.7c4.1-14.5,15.9-25.3,30.6-28.2
			l57.7-11.5v-8.7c5.1,1.3,10.5,2.1,16,2.1s10.9-0.8,16-2.1v8.7l10.6,2.1c-12.6,7.1-22.2,18.8-26.3,33.3L124.6,482.6z M320.9,482.6
			l-6.5-25.9l-15.5,3.9l5.5,22.1H196.9l5.5-22.1l-15.5-3.9l-6.5,25.9h-39.1l5-17.7c4.1-14.5,15.9-25.3,30.6-28.2l57.7-11.5v-8.7
			c5.1,1.3,10.5,2.1,16,2.1c5.5,0,10.9-0.8,16-2.1v8.7l57.7,11.5c14.8,3,26.5,13.8,30.6,28.2l5,17.7H320.9z M376.6,482.6l-6.3-22.1
			c-4.1-14.4-13.7-26.2-26.3-33.3l10.6-2.1v-8.7c5.1,1.3,10.5,2.1,16,2.1s10.9-0.8,16-2.1v8.7l57.7,11.5c14.8,3,26.5,13.8,30.6,28.2
			l5,17.7L376.6,482.6L376.6,482.6z"/>
	</g>
</g>
</svg>
