<?xml version="1.0" encoding="utf-8"?>
<!-- Generator: Adobe Illustrator 21.1.0, SVG Export Plug-In . SVG Version: 6.00 Build 0)  -->
<svg version="1.1" id="Capa_1" xmlns="http://www.w3.org/2000/svg" xmlns:xlink="http://www.w3.org/1999/xlink" x="0px" y="0px"
	 viewBox="0 0 496 496" style="enable-background:new 0 0 496 496;" xml:space="preserve">
<style type="text/css">
	.st0{fill:#0038BA;}
	.st1{fill:#ADADAD;}
	.st2{fill:#282828;}
</style>
<g>
	<g>
		<path class="st0" d="M104,99c-8.8,0-16-7.2-16-16s7.2-16,16-16s16,7.2,16,16h16c0-17.6-14.4-32-32-32S72,65.4,72,83s14.4,32,32,32
			c8.8,0,16,7.2,16,16s-7.2,16-16,16s-16-7.2-16-16H72c0,17.6,14.4,32,32,32s32-14.4,32-32S121.6,99,104,99z"/>
	</g>
</g>
<g>
	<g>
		<rect x="96" y="35" class="st0" width="16" height="24"/>
	</g>
</g>
<g>
	<g>
		<rect x="96" y="155" class="st0" width="16" height="24"/>
	</g>
</g>
<g>
	<g>
		<path class="st1" d="M0,448v48h144v-48H0z M128,480H16v-16h112V480z"/>
	</g>
</g>
<g>
	<g>
		<path class="st1" d="M0,416v48h144v-48H0z M128,448H16v-16h112V448z"/>
	</g>
</g>
<g>
	<g>
		<path class="st1" d="M0,384v48h144v-48H0z M128,416H16v-16h112V416z"/>
	</g>
</g>
<g>
	<g>
		<polygon class="st1" points="208,448 208,464 288,464 288,480 176,480 176,464 192,464 192,448 160,448 160,496 304,496 304,448 
					"/>
	</g>
</g>
<g>
	<g>
		<polygon class="st1" points="160,416 160,456 176,456 176,432 288,432 288,456 304,456 304,416 		"/>
	</g>
</g>
<g>
	<g>
		<path class="st1" d="M160,384v48h144v-48H160z M288,416H176v-16h112V416z"/>
	</g>
</g>
<g>
	<g>
		<path class="st1" d="M160,352v48h144v-48H160z M288,384H176v-16h112V384z"/>
	</g>
</g>
<g>
	<g>
		<path class="st1" d="M160,320v48h144v-48H160z M288,352H176v-16h112V352z"/>
	</g>
</g>
<g>
	<g>
		<path class="st1" d="M320,448v48h144v-48H320z M448,480H336v-16h112V480z"/>
	</g>
</g>
<g>
	<g>
		<path class="st1" d="M320,416v48h144v-48H320z M448,448H336v-16h112V448z"/>
	</g>
</g>
<g>
	<g>
		<path class="st1" d="M320,384v48h144v-48H320z M448,416H336v-16h112V416z"/>
	</g>
</g>
<g>
	<g>
		<path class="st1" d="M320,352v48h144v-48H320z M448,384H336v-16h112V384z"/>
	</g>
</g>
<g>
	<g>
		<polygon class="st1" points="432,320 432,336 448,336 448,352 336,352 336,336 416,336 416,320 320,320 320,368 464,368 464,320 
					"/>
	</g>
</g>
<g>
	<g>
		<polygon class="st1" points="320,288 320,328 336,328 336,304 448,304 448,328 464,328 464,288 		"/>
	</g>
</g>
<g>
	<g>
		<path class="st1" d="M320,256v48h144v-48H320z M448,288H336v-16h112V288z"/>
	</g>
</g>
<g>
	<g>
		<path class="st0" d="M3.9,329.5l193.5-151.1l74.5,46.6L449.8,47.1h-86.9c-5.1,0-11-6.2-11-11.3s5.9-11.8,11-11.8h124.6v124.6
			c0,5.1-5.4,8.8-10.5,8.8s-12.6-3.7-12.6-8.8V71L278.2,257.2l-82.4-45.8L20.1,352L3.9,329.5z"/>
	</g>
</g>
<g>
	<g>
		<rect x="32" y="99" class="st0" width="16" height="16"/>
	</g>
</g>
<g>
	<g>
		<rect x="160" y="99" class="st0" width="16" height="16"/>
	</g>
</g>
<g>
	<g>
		<path class="st2" d="M104,3C46.7,3,0,49.7,0,107s46.7,104,104,104s104-46.7,104-104S161.3,3,104,3z M104,195
			c-48.5,0-88-39.5-88-88s39.5-88,88-88s88,39.5,88,88S152.5,195,104,195z"/>
	</g>
</g>
</svg>
