<?xml version="1.0" encoding="utf-8"?>
<!-- Generator: Adobe Illustrator 21.1.0, SVG Export Plug-In . SVG Version: 6.00 Build 0)  -->
<svg version="1.1" id="Layer_1" xmlns="http://www.w3.org/2000/svg" xmlns:xlink="http://www.w3.org/1999/xlink" x="0px" y="0px"
	 viewBox="0 0 480 480" style="enable-background:new 0 0 480 480;" xml:space="preserve">
<style type="text/css">
	.st0{fill:#BCBCBC;}
</style>
<path class="st0" d="M27.1,162h16v16h-16C27.1,178,27.1,162,27.1,162z"/>
<path class="st0" d="M127,265.8h16v16h-16V265.8z"/>
<path class="st0" d="M228.1,162h16v16h-16V162z"/>
<path class="st0" d="M127,63h16v16h-16V63z"/>
<path class="st0" d="M271.7,363.1h-39.9c-8.8,0-16,7.2-16,16v24c0,8.8,7.2,16,16,16h39.9c8.8,0,16-7.2,16-16v-24
	C287.7,370.3,280.5,363.1,271.7,363.1z M231.7,403.1v-24h39.9v24H231.7z"/>
<path class="st0" d="M424.5,189.6l26,45.7H366l-12.4-55.9h56C416.1,179.5,422,183.5,424.5,189.6z M272.3,179.4h37.4l-12.4,55.9
	h-40.6C265.8,218,271.2,198.9,272.3,179.4z M311.6,251.3h39.9v55.9l-10.4-7.8c-5.7-4.2-13.5-4.2-19.2,0l-10.4,7.8v-55.9H311.6z
	 M335.6,179.4h1.6l12.4,55.9h-35.9l12.4-55.9H335.6L335.6,179.4z M216.7,61.8c-16.6-12.1-35.7-20.3-55.9-24c0,0-24.7-3.8-47.9,0
	c-20.2,3.6-39.3,11.8-55.9,24c-25.7,19.6-37.5,41.6-37.5,41.6C-9.4,152.9-4,215.3,33,259.1s97.6,59.6,151.2,39.4V427
	c0,13.2,10.7,24,24,24H455c13.2,0,24-10.7,24-24V259.3c0-4.3-1.2-8.5-3.5-12.2c-0.1-0.2-0.1-0.4-0.2-0.5l-36.6-64.2
	c-5.1-11.5-16.6-19-29.2-19H272.3c-1.2-21.1-6-36.4-18-60C240.7,78.1,216.7,61.8,216.7,61.8z M17,171.4
	c0-66.2,53.6-119.8,119.8-119.9c66.2,0,119.8,53.6,119.9,119.8v0.1c0,66.2-53.7,119.8-119.9,119.8S17,237.6,17,171.4z M463,427
	c0,4.4-3.6,8-8,8H208.2c-4.4,0-8-3.6-8-8V291.4c18.3-9.7,34.1-23.4,46.2-40.2h49.2v63.9c0,4.5,2.6,8.7,6.6,10.7
	c4.1,2,8.9,1.6,12.6-1.1l16.8-12.6l16.8,12.6c3.6,2.7,8.5,3.2,12.5,1.1c4.1-2,6.6-6.2,6.6-10.7v-63.9H455c2.7,0,5.2,1.4,6.7,3.7
	c0.9,1.3,1.3,2.7,1.3,4.3V427z"/>
<path class="st0" d="M420.7,269.6c-0.1-0.1-0.2-0.1-0.2-0.2c-0.7-0.7-1.5-1.2-2.3-1.6c-0.1,0-0.1,0-0.2,0c-0.8-0.3-1.7-0.5-2.5-0.5
	c-0.3,0-0.5,0-0.8,0c-0.7,0-1.4,0.2-2,0.4c-0.3,0.1-0.5,0.2-0.7,0.3c-0.9,0.4-1.7,0.9-2.4,1.6l-16,16c-3,3.1-3,8.1,0.1,11.2
	s8.1,3.1,11.2,0.1l2.3-2.3v20.7c0,4.4,3.6,8,8,8s8-3.6,8-8v-20.7l2.3,2.3c3.1,3,8.1,3,11.2-0.1s3.1-8.1,0.1-11.2L420.7,269.6z"/>
<path class="st0" d="M423.1,339.2h-16c-8.8,0-16,7.2-16,16v8c0,10.1,6.4,19.2,16,22.6v17.4h-8c-4.4,0-8,3.6-8,8s3.6,8,8,8h32
	c4.4,0,8-3.6,8-8s-3.6-8-8-8h-8v-17.4c9.7-3.8,16.1-13.1,16-23.5v-7C439.1,346.3,431.9,339.2,423.1,339.2z M423.1,362.1
	c0.2,4.1-2.6,7.8-6.6,8.8c-2.3,0.4-4.7-0.2-6.5-1.8c-1.8-1.5-2.8-3.7-2.9-6.1v-8h16V362.1z"/>
<path class="st0" d="M179.8,140.3l-27.7,13.9c-8.2-8-21-9-30.4-2.4l-28.4-19c-2.4-1.6-5.4-1.8-8-0.5s-4.3,3.8-4.4,6.6
	c-0.2,2.8,1.2,5.6,3.5,7.2l28.1,18.8c-0.6,2.1-1,4.3-1,6.5c0,13.2,10.7,24,24,24c13.2,0,24-10.7,24-24c0-1-0.1-1.9-0.3-2.9
	l27.8-13.9c2.5-1.3,4.2-3.8,4.4-6.7s-1.2-5.6-3.6-7.1C185.4,139.2,182.4,139,179.8,140.3L179.8,140.3z M135.5,179.4
	c-4.4,0-8-3.6-8-8s3.6-8,8-8s8,3.6,8,8C143.5,175.8,139.9,179.4,135.5,179.4z"/>
</svg>
