<?xml version="1.0" encoding="utf-8"?>
<!-- Generator: Adobe Illustrator 21.1.0, SVG Export Plug-In . SVG Version: 6.00 Build 0)  -->
<svg version="1.1" id="Layer_1" xmlns="http://www.w3.org/2000/svg" xmlns:xlink="http://www.w3.org/1999/xlink" x="0px" y="0px"
	 viewBox="0 0 512 512" style="enable-background:new 0 0 512 512;" xml:space="preserve">
<style type="text/css">
	.st0{fill:#BCBCBC;}
</style>
<g id="Receipt">
	<path class="st0" d="M360,429.1c-4.4,0-8,3.6-8,8V480H32V32h240v72c0,4.4,3.6,8,8,8h72v118.9c0,4.4,3.6,8,8,8s8-3.6,8-8V104
		c0-2.1-0.8-4.2-2.3-5.7l-80-80c-1.5-1.5-3.5-2.3-5.7-2.3H24c-4.4,0-8,3.6-8,8v464c0,4.4,3.6,8,8,8h336c4.4,0,8-3.6,8-8v-50.9
		C368,432.7,364.4,429.1,360,429.1z M288,96V43.3L340.7,96H288z"/>
	<path class="st0" d="M131,451.1c1.3,0,2.5-0.3,3.6-0.9l64-32.3c2.7-1.4,4.4-4.1,4.4-7.1V330c0-3-1.7-5.8-4.4-7.2l-64-32
		c-2.3-1.1-4.9-1.1-7.2,0l-64,32c-2.7,1.4-4.4,4.1-4.4,7.2v80c0,3,1.7,5.7,4.3,7.1l64,33.1C128.5,450.8,129.7,451.1,131,451.1z
		 M187,405.9l-48,24.2v-63.2l48-24V405.9z M131,306.9l46.1,23.1L131,353.1l-14.1-7.1l17.7-8.8l-7.2-14.3L99,337.1L84.9,330
		L131,306.9z M123,430l-48-24.8v-62.3l16,8V378h16v-19.1l16,8V430z"/>
	<path class="st0" d="M301,338h-32c-4.4,0-8,3.6-8,8s3.6,8,8,8h32c4.4,0,8-3.6,8-8S305.4,338,301,338z"/>
	<path class="st0" d="M301,370h-64c-4.4,0-8,3.6-8,8s3.6,8,8,8h64c4.4,0,8-3.6,8-8S305.4,370,301,370z"/>
	<path class="st0" d="M301,402h-64c-4.4,0-8,3.6-8,8s3.6,8,8,8h64c4.4,0,8-3.6,8-8S305.4,402,301,402z"/>
	<path class="st0" d="M237,354h8c4.4,0,8-3.6,8-8s-3.6-8-8-8h-8c-4.4,0-8,3.6-8,8S232.6,354,237,354z"/>
	<path class="st0" d="M416,320c9.8,0,16,4.7,16,8h16c0-11.4-10.1-20.6-24-23.2V288h-16v16.8c-13.9,2.6-24,11.8-24,23.2
		c0,13.5,14.1,24,32,24c9.8,0,16,4.7,16,8s-6.2,8-16,8s-16-4.7-16-8h-16c0,11.4,10.1,20.6,24,23.2V400h16v-16.8
		c13.9-2.6,24-11.8,24-23.2c0-13.5-14.1-24-32-24c-9.8,0-16-4.7-16-8S406.2,320,416,320z"/>
	<path class="st0" d="M416,256c-48.6,0-88,39.4-88,88s39.4,88,88,88s88-39.4,88-88C503.9,295.4,464.6,256.1,416,256z M416,416
		c-39.8,0-72-32.2-72-72s32.2-72,72-72s72,32.2,72,72C488,383.7,455.7,416,416,416z"/>
</g>
<g>
	<polygon class="st0" points="209.5,239.6 209.5,98.7 234.5,98.7 234.5,239.6 247,239.6 247,86.2 196.9,86.2 196.9,239.6 	"/>
	<polygon class="st0" points="140.5,239.6 140.5,149.6 165.6,149.6 165.6,239.6 178.1,239.6 178.1,137 127.9,137 127.9,239.6 	"/>
	<polygon class="st0" points="71.6,239.6 71.6,118.2 96.6,118.2 96.6,239.7 109.1,239.7 109.1,105.7 59,105.7 59,239.6 	"/>
</g>
</svg>
