<?xml version="1.0" encoding="utf-8"?>
<!-- Generator: Adobe Illustrator 21.1.0, SVG Export Plug-In . SVG Version: 6.00 Build 0)  -->
<svg version="1.1" id="Layer_1" xmlns="http://www.w3.org/2000/svg" xmlns:xlink="http://www.w3.org/1999/xlink" x="0px" y="0px"
	 viewBox="0 0 24 24" style="enable-background:new 0 0 24 24;" xml:space="preserve">
<style type="text/css">
	.st0{fill:#FFFFFF;}
</style>
<g>
	<path class="st0" d="M1.2,10.9h0.6c0,0,0,0.1,0,0.1v11.2H1.4c-0.4,0-0.7,0.3-0.7,0.7s0.3,0.7,0.7,0.7h1.1h2.7h2.7h2.7h2.7h2.7h2.7
		h2.7h1.1c0.4,0,0.7-0.3,0.7-0.7s-0.3-0.7-0.7-0.7h-0.4V11c0,0,0-0.1,0-0.1h0.6c0.5,0,1-0.3,1.2-0.9s0-1.1-0.4-1.4L12.4,0.5
		c-0.3-0.2-0.6-0.2-0.8,0L0.5,8.7C0.1,9-0.1,9.6,0.1,10.1S0.7,10.9,1.2,10.9z M3.2,22.2V11.7h1.3v10.5H3.2z M19.5,22.2V11.7h1.3
		v10.5H19.5z M7.4,9.5H1.8C1.8,9.5,12,2,12,2l10.2,7.5h-5l0.5,1.4h0.7v11.2L5.9,22.2V11c0,0,0-0.1,0-0.1h0.6L7.4,9.5z"/>
</g>
<path class="st0" d="M12,17.2h-2c-0.6,0-1,0.4-1,1s0.4,1,1,1h1v0.3c0,0.6,0.4,1,1,1s1-0.4,1-1v-0.5c1.2-0.4,2-1.5,2-2.9
	c0-1.7-1.3-3-3-3c-0.6,0-1-0.4-1-1s0.4-1,1-1h2c0.6,0,1-0.4,1-1s-0.4-1-1-1h-1V8.8c0-0.6-0.4-1-1-1s-1,0.4-1,1v0.5
	c-1.2,0.4-2,1.5-2,2.9c0,1.7,1.3,3,3,3c0.6,0,1,0.4,1,1S12.5,17.2,12,17.2z"/>
</svg>
