<?xml version="1.0" encoding="utf-8"?>
<!-- Generator: Adobe Illustrator 21.1.0, SVG Export Plug-In . SVG Version: 6.00 Build 0)  -->
<svg version="1.1" id="Layer_1" xmlns="http://www.w3.org/2000/svg" xmlns:xlink="http://www.w3.org/1999/xlink" x="0px" y="0px"
	 viewBox="0 0 24 24" style="enable-background:new 0 0 24 24;" xml:space="preserve">
<style type="text/css">
	.st0{fill:#FFFFFF;}
</style>
<g>
	<path class="st0" d="M22.8,3.6L12.2,0.1c-0.2,0-0.4,0-0.6,0L1,3.6C0.2,3.9,0.2,4.5,0.2,4.5V19c0,0.4,0.2,0.7,0.6,0.8l10.7,4.1
		c0.2,0.1,0.6,0,0.7,0l10.7-4.1c0.4-0.1,0.6-0.5,0.6-0.8V4.5C23.8,4.2,23.6,3.7,22.8,3.6z M12,1.9l7.9,2.6L12,7.5L4.1,4.6L12,1.9z
		 M2.3,18.4V5.9l8.8,3.2v12.4L2.3,18.4z M21.7,18.4l-8.8,3.3V9.1l8.8-3.3V18.4z"/>
</g>
<g id="Product">
	<path class="st0" d="M4.7,6.4v3.6c0,0.2,0.1,0.5,0.4,0.6l2.8,1.2c0.3,0.2,0.8,0,0.9-0.3c0-0.1,0.1-0.2,0.1-0.3V8l1-0.9l3.7-1.5
		C14,5.5,14.2,5.1,14,4.8c-0.1-0.1-0.2-0.3-0.4-0.3l-3-1.2c-0.2-0.1-0.4-0.1-0.6,0L5.2,5.2L4.7,6.4z M6.1,6.9l1.4,0.5v2.7L6.1,9.5
		V6.9z M7,5.9l3.4-1.3L11.6,5L8.2,6.4L7,5.9z"/>
</g>
<path class="st0" d="M19.4,16l-4.3,1.6c-0.4,0.2-0.5,0.5-0.4,0.8c0.2,0.3,0.7,0.4,1.1,0.3l4.3-1.6c0.4-0.2,0.5-0.5,0.4-0.8
	C20.3,16,19.8,15.8,19.4,16L19.4,16z"/>
<path class="st0" d="M15.4,15.6c0.1,0,0.2,0,0.4-0.1L20,14c0.4-0.2,0.5-0.5,0.4-0.8c-0.2-0.3-0.7-0.4-1.1-0.3l0,0L15,14.4
	c-0.4,0.2-0.5,0.5-0.4,0.8C14.8,15.4,15.1,15.6,15.4,15.6z"/>
</svg>
