<?xml version="1.0" encoding="utf-8"?>
<!-- Generator: Adobe Illustrator 21.1.0, SVG Export Plug-In . SVG Version: 6.00 Build 0)  -->
<svg version="1.1" id="Layer_1" xmlns="http://www.w3.org/2000/svg" xmlns:xlink="http://www.w3.org/1999/xlink" x="0px" y="0px"
	 viewBox="0 0 24 24" style="enable-background:new 0 0 24 24;" xml:space="preserve">
<style type="text/css">
	.st0{fill:#FFFFFF;}
</style>
<path class="st0" d="M20.7,0.1H3.2C1.6,0.1,0.3,1.4,0.3,3V21c0,1.6,1.4,2.9,2.9,2.9h17.5c1.6,0,2.9-1.4,2.9-2.9V3
	C23.6,1.4,22.4,0.1,20.7,0.1z M2.2,22.3V9.5 M21.7,9.5v12.9l0,0 M21.7,21c0,0.6-0.5,1-1,1H3.2c-0.6,0-1-0.5-1-1V3c0-0.6,0.5-1,1-1
	h17.5c0.6,0,1,0.5,1,1C21.7,3,21.7,21,21.7,21z"/>
<g>
	<g>
		<path class="st0" d="M17.6,11.8l-5.1-5.7C12.4,6,12.2,5.9,12,5.9c-0.2,0-0.3,0.1-0.5,0.2l-5.1,5.7c-0.2,0.2-0.2,0.4-0.1,0.6
			c0.1,0.2,0.3,0.4,0.5,0.4h3.3v4.8c0,0.3,0.3,0.6,0.6,0.6h2.3c0.3,0,0.6-0.3,0.6-0.6v-4.8H17c0.2,0,0.5-0.1,0.5-0.4
			C17.8,12.2,17.7,12,17.6,11.8z"/>
	</g>
</g>
</svg>
