<?xml version="1.0" encoding="utf-8"?>
<!-- Generator: Adobe Illustrator 21.1.0, SVG Export Plug-In . SVG Version: 6.00 Build 0)  -->
<svg version="1.1" id="Capa_1" xmlns="http://www.w3.org/2000/svg" xmlns:xlink="http://www.w3.org/1999/xlink" x="0px" y="0px"
	 viewBox="0 0 512 512" style="enable-background:new 0 0 512 512;" xml:space="preserve">
<style type="text/css">
	.st0{fill:#001E35;}
</style>
<g>
	<g>
		<g>
			<path class="st0" d="M279,364c0,22.1,17.9,40,40,40h47c22.1,0,40-17.9,40-40v-47c0-22.1-17.9-40-40-40h-47c-22.1,0-40,17.9-40,40
				V364z M319,317h47v47l0,0h-47V317z"/>
			<circle class="st0" cx="386" cy="210" r="20"/>
			<circle class="st0" cx="299" cy="210" r="20"/>
			<path class="st0" d="M492,352c11,0,20-9,20-20V120c0-44.1-35.9-80-80-80h-26V20c0-11-9-20-20-20s-20,9-20,20v20h-91V20
				c0-11-9-20-20-20s-20,9-20,20v20h-90V20c0-11-9-20-20-20s-20,9-20,20v20H80C35.9,40,0,75.9,0,120v312c0,44.1,35.9,80,80,80h352
				c44.1,0,80-35.9,80-80c0-11-9-20-20-20s-20,9-20,20c0,22.1-17.9,40-40,40H80c-22.1,0-40-17.9-40-40V120c0-22.1,17.9-40,40-40h25
				v20c0,11,9,20,20,20s20-9,20-20V80h90v20c0,11,9,20,20,20s20-9,20-20V80h91v20c0,11,9,20,20,20s20-9,20-20V80h26
				c22.1,0,40,17.9,40,40v212C472,343,481,352,492,352z"/>
			<circle class="st0" cx="125" cy="384" r="20"/>
			<circle class="st0" cx="125" cy="210" r="20"/>
			<circle class="st0" cx="125" cy="297" r="20"/>
			<circle class="st0" cx="212" cy="297" r="20"/>
			<circle class="st0" cx="212" cy="210" r="20"/>
			<circle class="st0" cx="212" cy="384" r="20"/>
		</g>
	</g>
</g>
</svg>
