<?xml version="1.0" encoding="utf-8"?>
<!-- Generator: Adobe Illustrator 22.0.1, SVG Export Plug-In . SVG Version: 6.00 Build 0)  -->
<svg version="1.1" id="Layer_1" xmlns="http://www.w3.org/2000/svg" xmlns:xlink="http://www.w3.org/1999/xlink" x="0px" y="0px"
	 viewBox="0 0 512 512" style="enable-background:new 0 0 512 512;" xml:space="preserve">
<style type="text/css">
	.st0{stroke:#000000;stroke-width:18.8838;stroke-miterlimit:10;}
</style>
<g>
	<g>
		<g>
			<g>
				<path class="st0" d="M348.8,488.9c-11.3,0-23-1.8-34.8-5.4c-33.7-10.4-73-24.1-108.3-46.6c-22.8-14.5-44.7-31.6-65.3-50.8
					c-34.5-32.2-61.5-64.7-82.8-99.4c-15-24.6-25.3-50.8-33.3-73.1c-5-14-10.1-28-12.9-42.8c-4.3-22.3-1.9-45.1,7.1-67.6
					c3.4-8.3,7.4-17.1,12.1-26c11-21,27.9-33.9,50-38.3c5.1-1,10.1-1.9,15.2-2.9l6.4-1.2c1.2-0.2,2.4-0.1,3.5,0.4
					c8.7-1.1,15.8,2.2,20.2,9.5l4.7,7.8c4.9,8,9.8,15.9,14.4,24c4.2,7.4,8.2,14.9,12.3,22.4c3,5.5,6,11.1,9,16.5
					c1.1,1.9,2.3,3.7,3.6,5.5c0.9,1.4,1.9,2.7,2.8,4.2c2.4,3.9,4.4,7,6.2,10.4c5.1,9.8,4,19.6-3,26.9c-6,6.2-12.4,12-18.8,17.7
					l-6.7,6.1c-2.6,2.4-5.3,4.9-8,7.2c-4.6,4.2-9.3,8.3-13.7,12.6c-3.3,3.2-3.9,6.4-1.8,10.3c5,9.6,10,19.1,15.5,28.4
					c15.5,26.5,33.9,49.8,54.6,69.2c16.9,15.8,36.1,30,57,42.2c8.6,5,17.3,9.8,26,14.5c5.1,2.8,9.1,2.2,13.3-2.4
					c3.6-3.9,7.1-7.8,10.6-11.8c4.3-4.8,8.5-9.6,12.9-14.3c6.1-6.7,12.7-13.7,19.7-20.2c7-6.6,16.4-7.8,25.9-3.1c2,1,3.9,2,5.8,3.1
					l17.2,9.9c12.7,7.3,25.5,14.7,38.1,22c6.8,4,13.6,8.1,20.4,12.3l9,5.5c7.2,4.3,10.6,10.8,10.2,19.4c-1,21.8-5.7,38.6-14.8,52.9
					c-7.1,11.1-17.7,18.1-27.2,23.5c-15.6,8.8-32.2,15.2-49.2,19C364.2,488.1,356.5,488.9,348.8,488.9z M102.1,47.4l-4,0.7
					c-5,0.9-10,1.8-15,2.8C64.5,54.7,51,65.1,41.6,82.9c-4.5,8.5-8.4,16.9-11.6,24.8c-8.2,20.6-10.3,40.5-6.4,60.7
					c2.7,13.9,7.3,26.8,12.3,40.6c8,22.2,17.9,47.7,32.4,71.3c20.6,33.7,47,65.4,80.6,96.8c20,18.7,41.4,35.3,63.5,49.4
					c34.1,21.7,72.3,35,105.3,45.2c17.6,5.4,34.9,6.3,51.2,2.7c15.9-3.5,31.3-9.5,45.8-17.7c8.1-4.6,17.2-10.5,22.8-19.3
					c7.9-12.4,12-27.2,12.9-46.8c0.2-4-1-6.2-4.2-8.1l-9.1-5.5c-6.7-4.1-13.4-8.2-20.2-12.1c-12.7-7.4-25.4-14.7-38.1-22l-17.2-9.9
					c-1.6-0.9-3.3-1.9-5-2.7c-4.9-2.4-8.5-2.2-11.9,1c-6.7,6.3-13.1,13.1-19,19.5c-4.3,4.7-8.5,9.4-12.7,14.1
					c-3.5,4-7.1,8-10.7,11.9c-7.9,8.6-18.3,10.5-28.4,5c-8.9-4.8-17.7-9.7-26.4-14.7c-21.7-12.6-41.7-27.4-59.2-43.9
					c-21.6-20.2-40.7-44.4-56.8-72c-5.5-9.5-10.7-19.2-15.8-28.9c-4.5-8.6-3-18,4.2-25c4.5-4.5,9.3-8.7,14.1-13
					c2.6-2.4,5.3-4.7,7.9-7.1l6.8-6.2c6.2-5.6,12.4-11.2,18.2-17.2c1.2-1.2,4.8-4.9,0.9-12.4c-1.6-3-3.4-5.9-5.2-8.8
					c-1.2-1.9-2.1-3.1-2.9-4.4c-1.5-2.1-3-4.3-4.2-6.5c-3.1-5.5-6.1-11.1-9.1-16.7c-4-7.4-8-14.8-12.1-22.1
					c-4.5-8-9.3-15.8-14.2-23.7l-4.8-7.8c-1.9-3.2-4.5-4.1-8.2-3.6c-0.3,0-1.5,0.1-1.8,0.1l1.2-0.1l-2-0.2l0,0l-1,0
					C103,47.4,102.5,47.5,102.1,47.4z"/>
			</g>
		</g>
	</g>
	<g>
		<g>
			<g>
				<path class="st0" d="M388,276.6c-2,2-5.3,2-7.3,0c-2-2-2-5.3,0-7.3c10.4-10.4-3.7-47.4-40.3-84.1
					c-36.6-36.6-73.7-50.7-84.1-40.3c-2,2-5.2,2-7.3,0c-2-2-2-5.3,0-7.3c16.6-16.6,59,0.7,98.6,40.3
					C387.3,217.6,404.7,260,388,276.6z"/>
			</g>
			<g>
				<path class="st0" d="M439.5,258.1c-2,2-5.2,2-7.3,0c-2-2-2-5.3,0-7.3c13.4-13.4-4.1-60.6-50.4-106.9S288.3,80.2,275,93.5
					c-2,2-5.2,2-7.3,0c-2-2-2-5.3,0-7.3c19.9-19.9,73.2,2.2,121.4,50.4C437.3,184.9,459.4,238.2,439.5,258.1z"/>
			</g>
			<g>
				<path class="st0" d="M494.1,236.3c-2,2-5.2,2-7.3,0c-2-2-2-5.3,0-7.3c16.7-16.7-3.6-72.9-60.5-129.7
					c-56.9-56.9-113-77.2-129.7-60.4c-2,2-5.3,2-7.3,0c-2-2-2-5.3,0-7.3c23.5-23.5,86.9,3.1,144.2,60.5
					C491.1,149.5,517.6,212.9,494.1,236.3z"/>
			</g>
		</g>
	</g>
</g>
</svg>
