<?xml version="1.0" encoding="utf-8"?>
<!-- Generator: Adobe Illustrator 21.1.0, SVG Export Plug-In . SVG Version: 6.00 Build 0)  -->
<svg version="1.1" id="Layer_1" xmlns="http://www.w3.org/2000/svg" xmlns:xlink="http://www.w3.org/1999/xlink" x="0px" y="0px"
	 viewBox="0 0 1000 818.4" style="enable-background:new 0 0 1000 818.4;" xml:space="preserve">
<style type="text/css">
	.st0{fill:none;stroke:#999999;stroke-width:9.5;stroke-miterlimit:10;}
	.st1{fill:none;stroke:#999999;stroke-width:7.5;stroke-miterlimit:10;}
	.st2{fill:none;stroke:#999999;stroke-width:6;stroke-miterlimit:10;}
	.st3{fill:none;stroke:#999999;stroke-width:10.5;stroke-miterlimit:10;}
	.st4{fill:none;stroke:#999999;stroke-width:8.5;stroke-miterlimit:10;}
	.st5{fill:#282828;}
	.st6{fill:#0038BA;}
</style>
<line class="st0" x1="971.6" y1="341" x2="867.6" y2="341"/>
<line class="st0" x1="993" y1="291" x2="919.9" y2="291"/>
<circle class="st1" cx="894.5" cy="767.5" r="23.5"/>
<circle class="st2" cx="112.1" cy="72.3" r="15.1"/>
<circle class="st3" cx="907" cy="97.4" r="21"/>
<line class="st4" x1="89.6" y1="776" x2="142" y2="776"/>
<line class="st4" x1="11" y1="776" x2="63.4" y2="776"/>
<line class="st4" x1="225.2" y1="167.4" x2="262" y2="167.4"/>
<line class="st4" x1="170" y1="167.4" x2="206.8" y2="167.4"/>
<g>
	<path class="st5" d="M784.2,653.2H435.8V304.8h153.3V263H394v432h432V499.9h-41.8V653.2z M798.1,513.8h13.9v167.2H407.9V276.9
		h167.2v13.9H421.9v376.3h376.3V513.8z"/>
	<g>
		<path class="st6" d="M650.7,263v126.1l-90.6,90.6l-18.5-18.5c-3.4-3.4-8.1-5.3-12.9-5.3c-10.1,0-18.2,8.2-18.2,18.2v104.5h104.5
			c10.1,0,18.2-8.2,18.2-18.2c0-4.8-1.9-9.5-5.3-12.9l-18.5-18.5l90.6-90.6H826V263L650.7,263z M744.2,286.4v23.4h-11.7v-23.4h-11.7
			v23.4h-11.7v-35.1h58.4v35.1h-11.7v-23.4H744.2z M592.7,528.9l26.8,26.8c1.2,1.2,1.9,2.9,1.9,4.6c0,3.6-2.9,6.6-6.6,6.6h-92.8
			v-92.8c0-3.6,2.9-6.6,6.6-6.6c1.7,0,3.4,0.7,4.6,1.9l26.8,26.8l90.6-90.6v32.6h32.6L592.7,528.9z M814.3,426.6H662.4V274.7h35.1
			v46.8h81.8v-46.8h35.1V426.6z"/>
		<path d="M790.9,403.3h11.7v11.7h-11.7V403.3z"/>
		<path d="M767.6,403.3h11.7v11.7h-11.7V403.3z"/>
		<path d="M744.2,403.3h11.7v11.7h-11.7V403.3z"/>
		<path class="st5" d="M744.2,379.9h58.4v11.7h-58.4V379.9z"/>
		<path class="st5" d="M602.6,402.1l8.3-8.3l8.3,8.3l-8.3,8.3L602.6,402.1z"/>
		<path class="st5" d="M569.5,435.2l8.3-8.3l8.3,8.3l-8.3,8.3L569.5,435.2z"/>
		<path class="st5" d="M586.1,418.7l8.3-8.3l8.3,8.3l-8.3,8.3L586.1,418.7z"/>
		<path class="st5" d="M553,451.7l8.3-8.3l8.3,8.3l-8.3,8.3L553,451.7z"/>
		<path class="st5" d="M645.5,511.2l8.3-8.3l8.3,8.3l-8.3,8.3L645.5,511.2z"/>
		<path class="st5" d="M678.6,478.1l8.3-8.3l8.3,8.3l-8.3,8.3L678.6,478.1z"/>
		<path class="st5" d="M629,527.7l8.3-8.3l8.3,8.3l-8.3,8.3L629,527.7z"/>
		<path class="st5" d="M662,494.6l8.3-8.3l8.3,8.3l-8.3,8.3L662,494.6z"/>
	</g>
	<g>
		<polygon class="st5" points="372.7,263 351.5,269.4 351.5,688 372.7,695 		"/>
		<polygon class="st6" points="330.4,275.8 311.4,281.5 311.4,674.8 330.4,681.1 		"/>
		<polygon class="st5" points="288.2,288.5 271.2,293.7 271.2,661.6 288.2,667.2 		"/>
		<polygon class="st6" points="246,301.3 231.1,305.8 231.1,648.4 246,653.3 		"/>
		<polygon class="st5" points="203.7,314 191,317.9 191,635.1 203.7,639.3 		"/>
		<polygon class="st6" points="161.5,326.8 150.8,330 150.8,621.9 161.5,625.4 		"/>
		<polygon class="st5" points="130,336.3 120,339.3 120,611.8 130,615.1 		"/>
	</g>
</g>
<circle class="st2" cx="567.9" cy="32.2" r="26.2"/>
</svg>
