<?xml version="1.0" encoding="utf-8"?>
<!-- Generator: Adobe Illustrator 21.1.0, SVG Export Plug-In . SVG Version: 6.00 Build 0)  -->
<svg version="1.1" id="Layer_1" xmlns="http://www.w3.org/2000/svg" xmlns:xlink="http://www.w3.org/1999/xlink" x="0px" y="0px"
	 viewBox="0 0 512 512" style="enable-background:new 0 0 512 512;" xml:space="preserve">
<style type="text/css">
	.st0{fill:#282828;}
	.st1{fill:#0038BA;}
</style>
<g id="Receipt">
	<path class="st0" d="M16,337v151c0,4.4,3.6,8,8,8h336c4.4,0,8-3.6,8-8v-20.9c0-4.4-3.6-8-8-8s-8,3.6-8,8V480H32V337 M14.4,32H272
		v72c0,4.4,3.6,8,8,8h72v88.9c0,4.4,3.6,8,8,8s8-3.6,8-8V104c0-2.1-0.8-4.2-2.3-5.7l-80-80c-1.5-1.5-3.5-2.3-5.7-2.3H14l0.2,7.4
		L14.4,32z M288,96V43.3L340.7,96H288z"/>
	<path class="st1" d="M398,224.3c-60.6,0-109.8,49.1-109.8,109.7S337.3,443.8,398,443.8c60.6,0,109.8-49.1,109.8-109.7
		C507.6,273.5,458.5,224.4,398,224.3z M398,423.8c-49.6,0-89.8-40.2-89.8-89.8s40.2-89.8,89.8-89.8s89.8,40.2,89.8,89.8
		C487.7,383.5,447.5,423.8,398,423.8z"/>
	<path class="st0" d="M76,374H60c-4.4,0-8,3.6-8,8s3.6,8,8,8h16c4.4,0,8-3.6,8-8S80.4,374,76,374z"/>
	<path class="st0" d="M248,374H108c-4.4,0-8,3.6-8,8s3.6,8,8,8h140c4.4,0,8-3.6,8-8S252.4,374,248,374z"/>
	<path class="st0" d="M76,406H60c-4.4,0-8,3.6-8,8s3.6,8,8,8h16c4.4,0,8-3.6,8-8S80.4,406,76,406z"/>
	<path class="st0" d="M248,406H108c-4.4,0-8,3.6-8,8s3.6,8,8,8h140c4.4,0,8-3.6,8-8S252.4,406,248,406z"/>
	<path class="st0" d="M76,438H60c-4.4,0-8,3.6-8,8s3.6,8,8,8h16c4.4,0,8-3.6,8-8S80.4,438,76,438z"/>
	<path class="st0" d="M108,454h140c4.4,0,8-3.6,8-8s-3.6-8-8-8H108c-4.4,0-8,3.6-8,8S103.6,454,108,454z"/>
	<path class="st0" d="M458.1,326.1h-52.2V274c0-4.4-3.6-7.9-7.9-7.9s-7.9,3.6-7.9,7.9v52.1H338c-4.4,0-7.9,3.6-7.9,7.9
		s3.6,7.9,7.9,7.9h52.1V394c0,4.4,3.6,7.9,7.9,7.9s7.9-3.6,7.9-7.9v-52.1H458c4.4,0,7.9-3.6,7.9-7.9S462.5,326.1,458.1,326.1z"/>
	<g>
		<g>
			<g>
				<path class="st1" d="M243.4,198.2l-14.1-3.4v-2.5c9.2-6.4,15.2-17,15.2-29.1v-18.3c0-19.6-15.9-35.5-35.5-35.5
					c-8.8,0-16.8,3.2-23,8.5c-6.9-16.9-23.5-28.8-42.9-28.8s-36,12-42.9,28.9c-6.2-5.3-14.3-8.6-23.1-8.6
					c-19.6,0-35.5,15.9-35.5,35.5v1.2v17.1c0,12,6,22.6,15.2,29.1v2.5l-14.1,3.4c-16.8,4-28.6,18.9-28.6,36.2v14.8
					c0,4.4,3.5,7.9,7.9,7.9h36.4c-0.1,1-0.1,1.9-0.1,2.9v28.5c0,4.4,3.5,7.9,7.9,7.9H114c4.4,0,7.9-3.5,7.9-7.9s-3.5-7.9-7.9-7.9
					h-8.2v-16.4c0-4.4-3.5-7.9-7.9-7.9s-7.9,3.5-7.9,7.9v16.4H74.3V260c0-15.3,10.4-28.4,25.2-32l21.7-5.2l14.6,33.1
					c1.3,2.9,4.1,4.7,7.3,4.7l0,0c3.1,0,6-1.9,7.3-4.7l14.5-33.1l21.7,5.2c14.9,3.6,25.3,16.7,25.3,32v20.5h-15.7v-16.4
					c0-4.4-3.5-7.9-7.9-7.9s-7.9,3.5-7.9,7.9v16.4h-9c-4.4,0-7.9,3.5-7.9,7.9s3.5,7.9,7.9,7.9h48.4c4.4,0,7.9-3.5,7.9-7.9v-28.5
					c0-1,0-2-0.1-2.9h36.5c4.4,0,7.9-3.5,7.9-7.9v-14.8C272,217.1,260.2,202.2,243.4,198.2z M209,125.3c10.4,0,18.9,8.1,19.6,18.3
					h-11c-9.3,0-18.4-2.2-26.6-6.5C194,130.2,201,125.3,209,125.3z M189.4,162.1c0-0.4,0-0.8,0-1.2v-7.1c8.9,3.7,18.5,5.6,28.1,5.6
					h11.1v3.8c0,10.8-8.8,19.6-19.6,19.6s-19.6-8.8-19.6-19.6V162.1z M112.7,135.4L112.7,135.4c0-16.8,13.7-30.4,30.4-30.4
					c15.1,0,27.7,11.1,30.1,25.6l-13.3-7.8c-3.3-2-7.6-1.2-10.1,1.7c-6.5,7.8-16.1,12.2-26.2,12.2h-10.8L112.7,135.4L112.7,135.4z
					 M77.2,125.3c8.1,0,15,4.9,18,11.8c-8.2,4.2-17.3,6.5-26.6,6.5h-11C58.3,133.4,66.8,125.3,77.2,125.3z M57.6,159.5h11.1
					c9.7,0,19.3-1.9,28.2-5.6v9.4c0,10.8-8.8,19.6-19.6,19.6s-19.6-8.8-19.6-19.6L57.6,159.5L57.6,159.5z M95.8,212.6
					c-15.6,3.7-27.8,14.6-33.7,28.7h-32v-6.9c0-9.9,6.8-18.5,16.4-20.8l20.2-4.8c3.6-0.9,6.1-4,6.1-7.7v-2.7
					c1.5,0.2,2.9,0.3,4.4,0.3s3-0.1,4.4-0.3v2.3c0,0.1,0,0.2,0,0.4c0,2.6,1.3,5.1,3.6,6.7c0.9,0.6,1.8,0.9,2.8,1.1l11.8,2.8
					L95.8,212.6z M117.9,200.3c-2-0.9-4.2-1.6-6.3-2.1l-14.2-3.4v-2.5c2.6-1.8,4.9-3.9,6.9-6.3c3.5,5.5,8.2,10.1,13.6,13.7V200.3
					L117.9,200.3z M152.4,212l-9.3,21.1l-9.3-21.1v-5.7c3,0.6,6.2,1,9.4,1s6.2-0.3,9.2-0.9L152.4,212L152.4,212z M143.2,191.4
					c-16.8,0-30.4-13.7-30.4-30.4v-8.4h10.8c12.6,0,24.5-4.7,33.7-13l16.3,9.6v12.9C172.9,178.3,159.5,191.4,143.2,191.4z
					 M168.2,200.3v-0.5c5.5-3.5,10.2-8.2,13.7-13.7c2,2.4,4.3,4.4,6.8,6.2v2.5l-14.2,3.4C172.4,198.7,170.3,199.4,168.2,200.3z
					 M256.2,241.3H224c-5.8-14.1-18.1-24.9-33.7-28.7l-4-1l11.9-2.8c1-0.2,2-0.6,2.9-1.1c2.3-1.5,3.6-4.1,3.6-6.7c0-0.1,0-0.1,0-0.2
					v-2.4c1.4,0.2,2.9,0.3,4.4,0.3s3-0.1,4.4-0.3v2.7c0,3.7,2.5,6.9,6.1,7.7l20.2,4.8c9.7,2.3,16.4,10.9,16.4,20.8L256.2,241.3
					L256.2,241.3z"/>
			</g>
		</g>
		<g>
			<g>
				<path class="st1" d="M148.7,282.9c-1.5-1.5-3.5-2.3-5.6-2.3s-4.1,0.8-5.6,2.3s-2.3,3.5-2.3,5.6s0.8,4.1,2.3,5.6s3.5,2.3,5.6,2.3
					s4.1-0.8,5.6-2.3s2.3-3.5,2.3-5.6S150.1,284.4,148.7,282.9z"/>
			</g>
		</g>
		<g>
			<g>
				<path class="st1" d="M143,46.3c-4.4,0-7.9,3.5-7.9,7.9v11.9c0,4.4,3.5,7.9,7.9,7.9s7.9-3.5,7.9-7.9V54.3
					C151,49.9,147.4,46.3,143,46.3z"/>
			</g>
		</g>
		<g>
			<g>
				<path class="st1" d="M113.9,72.2l-8.3-8.3c-3.1-3.1-8.1-3.1-11.2,0c-3.1,3.1-3.1,8.1,0,11.2l8.3,8.3c1.5,1.5,3.6,2.3,5.6,2.3
					s4.1-0.8,5.6-2.3C117,80.3,117,75.3,113.9,72.2z"/>
			</g>
		</g>
		<g>
			<g>
				<path class="st1" d="M191.6,64.1c-3.1-3.1-8.1-3.1-11.2,0l-8.2,8.3c-3.1,3.1-3.1,8.1,0,11.2c1.5,1.5,3.6,2.3,5.6,2.3
					s4.1-0.8,5.6-2.3l8.2-8.3C194.7,72.2,194.7,67.2,191.6,64.1z"/>
			</g>
		</g>
	</g>
</g>
<path class="st0" d="M14.2,16v88.9c0,4.4,3.6,8,8,8s8-3.6,8-8V16H14.2z"/>
<path class="st0" d="M32,388.8v-88.9c0-4.4-3.6-8-8-8s-8,3.6-8,8v88.9H32z"/>
</svg>
