<?xml version="1.0" encoding="utf-8"?>
<!-- Generator: Adobe Illustrator 21.1.0, SVG Export Plug-In . SVG Version: 6.00 Build 0)  -->
<svg version="1.1" id="Layer_1" xmlns="http://www.w3.org/2000/svg" xmlns:xlink="http://www.w3.org/1999/xlink" x="0px" y="0px"
	 viewBox="0 0 82 30" style="enable-background:new 0 0 82 30;" xml:space="preserve">
<style type="text/css">
	.st0{display:none;opacity:0.1;fill:url(#SVGID_1_);enable-background:new    ;}
	.st1{fill:#0038BA;}
	.st2{fill:#F12300;}
	.st3{fill:#054CDB;}
	.st4{fill:#023191;}
	.st5{fill:#0954CC;}
	.st6{fill:#03266D;}
	.st7{fill:#02225B;}
</style>
<linearGradient id="SVGID_1_" gradientUnits="userSpaceOnUse" x1="41" y1="95.6376" x2="41" y2="70.176" gradientTransform="matrix(1 0 0 1 0 -68)">
	<stop  offset="1.853550e-02" style="stop-color:#840301"/>
	<stop  offset="0.2076" style="stop-color:#A34342"/>
	<stop  offset="0.4213" style="stop-color:#C48584"/>
	<stop  offset="0.6152" style="stop-color:#DDBAB9"/>
	<stop  offset="0.7824" style="stop-color:#F0DFDF"/>
	<stop  offset="0.9162" style="stop-color:#FBF7F6"/>
	<stop  offset="1" style="stop-color:#FFFFFF"/>
</linearGradient>
<rect x="2.3" y="2.2" class="st0" width="77.4" height="25.5"/>
<g>
	<rect x="1" y="27.9" class="st1" width="79.6" height="1.7"/>
	<rect x="0.4" y="0.5" class="st1" width="81.2" height="27.8"/>
	<rect x="1.6" y="1.7" class="st2" width="78.8" height="26.5"/>
	<g>
		<rect x="2.3" y="1.7" class="st3" width="0.4" height="26.6"/>
		<rect x="3.6" y="1.6" class="st4" width="0.4" height="26.6"/>
		<rect x="2.7" y="1.6" class="st1" width="1" height="26.6"/>
		
			<image style="overflow:visible;opacity:0.3;enable-background:new    ;" width="8" height="117" xlink:href="29AA1838.png"  transform="matrix(0.12 0 0 0.2318 3.28 1.48)">
		</image>
		
			<image style="overflow:visible;opacity:0.3;enable-background:new    ;" width="8" height="117" xlink:href="29AA1839.png"  transform="matrix(0.15 0 0 0.2318 2.08 1.48)">
		</image>
	</g>
	<g>
		<rect x="4.8" y="1.7" class="st3" width="0.4" height="26.6"/>
		<rect x="6.1" y="1.6" class="st4" width="0.4" height="26.6"/>
		<rect x="5.1" y="1.6" class="st1" width="1" height="26.6"/>
		
			<image style="overflow:visible;opacity:0.3;enable-background:new    ;" width="8" height="117" xlink:href="29AA183F.png"  transform="matrix(0.15 0 0 0.2318 5.68 1.48)">
		</image>
		
			<image style="overflow:visible;opacity:0.3;enable-background:new    ;" width="8" height="117" xlink:href="29AA183A.png"  transform="matrix(0.15 0 0 0.2318 4.72 1.48)">
		</image>
	</g>
	<g>
		<rect x="7.3" y="1.7" class="st3" width="0.4" height="26.6"/>
		<rect x="8.7" y="1.6" class="st4" width="0.4" height="26.6"/>
		<rect x="7.7" y="1.6" class="st1" width="1" height="26.6"/>
		
			<image style="overflow:visible;opacity:0.3;enable-background:new    ;" width="8" height="117" xlink:href="29AA183B.png"  transform="matrix(0.12 0 0 0.2318 8.32 1.48)">
		</image>
		
			<image style="overflow:visible;opacity:0.3;enable-background:new    ;" width="8" height="117" xlink:href="29AA1836.png"  transform="matrix(0.12 0 0 0.2318 7.36 1.48)">
		</image>
	</g>
	<g>
		<rect x="9.9" y="1.7" class="st3" width="0.4" height="26.6"/>
		<rect x="11.2" y="1.6" class="st4" width="0.4" height="26.6"/>
		<rect x="10.2" y="1.6" class="st1" width="1" height="26.6"/>
		
			<image style="overflow:visible;opacity:0.3;enable-background:new    ;" width="8" height="117" xlink:href="29AA1837.png"  transform="matrix(0.15 0 0 0.2318 10.72 1.48)">
		</image>
		
			<image style="overflow:visible;opacity:0.3;enable-background:new    ;" width="8" height="117" xlink:href="29AA1848.png"  transform="matrix(0.15 0 0 0.2318 9.76 1.48)">
		</image>
	</g>
	<g>
		<rect x="12.4" y="1.7" class="st3" width="0.4" height="26.6"/>
		<rect x="13.8" y="1.6" class="st4" width="0.4" height="26.6"/>
		<rect x="12.8" y="1.6" class="st1" width="1" height="26.6"/>
		
			<image style="overflow:visible;opacity:0.3;enable-background:new    ;" width="8" height="117" xlink:href="29AA184B.png"  transform="matrix(0.12 0 0 0.2318 13.36 1.48)">
		</image>
		
			<image style="overflow:visible;opacity:0.3;enable-background:new    ;" width="8" height="117" xlink:href="5958067.png"  transform="matrix(0.12 0 0 0.2318 12.4 1.48)">
		</image>
	</g>
	<g>
		<rect x="14.9" y="1.7" class="st3" width="0.4" height="26.6"/>
		<rect x="16.2" y="1.6" class="st4" width="0.4" height="26.6"/>
		<rect x="15.3" y="1.6" class="st1" width="1" height="26.6"/>
		
			<image style="overflow:visible;opacity:0.3;enable-background:new    ;" width="8" height="117" xlink:href="5958065.png"  transform="matrix(0.15 0 0 0.2318 15.76 1.48)">
		</image>
		
			<image style="overflow:visible;opacity:0.3;enable-background:new    ;" width="8" height="117" xlink:href="5958063.png"  transform="matrix(0.15 0 0 0.2318 14.8 1.48)">
		</image>
	</g>
	<g>
		<rect x="17.4" y="1.7" class="st3" width="0.4" height="26.6"/>
		<rect x="18.8" y="1.6" class="st4" width="0.4" height="26.6"/>
		<rect x="17.8" y="1.6" class="st1" width="1" height="26.6"/>
		
			<image style="overflow:visible;opacity:0.3;enable-background:new    ;" width="8" height="117" xlink:href="595807D.png"  transform="matrix(0.15 0 0 0.2318 18.4 1.48)">
		</image>
		
			<image style="overflow:visible;opacity:0.3;enable-background:new    ;" width="8" height="117" xlink:href="595807F.png"  transform="matrix(0.12 0 0 0.2318 17.44 1.48)">
		</image>
	</g>
	<g>
		<rect x="20" y="1.7" class="st3" width="0.4" height="26.6"/>
		<rect x="21.3" y="1.6" class="st4" width="0.4" height="26.6"/>
		<rect x="20.4" y="1.6" class="st1" width="1" height="26.6"/>
		
			<image style="overflow:visible;opacity:0.3;enable-background:new    ;" width="8" height="117" xlink:href="5958062.png"  transform="matrix(0.15 0 0 0.2318 20.8 1.48)">
		</image>
		
			<image style="overflow:visible;opacity:0.3;enable-background:new    ;" width="13" height="117" xlink:href="5958061.png"  transform="matrix(9.230769e-02 0 0 0.2318 19.84 1.48)">
		</image>
	</g>
	<g>
		<rect x="22.5" y="1.7" class="st3" width="0.4" height="26.6"/>
		<rect x="23.8" y="1.6" class="st4" width="0.4" height="26.6"/>
		<rect x="22.8" y="1.6" class="st1" width="1" height="26.6"/>
		
			<image style="overflow:visible;opacity:0.3;enable-background:new    ;" width="8" height="117" xlink:href="5958066.png"  transform="matrix(0.15 0 0 0.2318 23.44 1.48)">
		</image>
		
			<image style="overflow:visible;opacity:0.3;enable-background:new    ;" width="8" height="117" xlink:href="5958060.png"  transform="matrix(0.12 0 0 0.2318 22.48 1.48)">
		</image>
	</g>
	<g>
		<rect x="25" y="1.7" class="st3" width="0.4" height="26.6"/>
		<rect x="26.4" y="1.6" class="st4" width="0.4" height="26.6"/>
		<rect x="25.4" y="1.6" class="st1" width="1" height="26.6"/>
		
			<image style="overflow:visible;opacity:0.3;enable-background:new    ;" width="13" height="117" xlink:href="595806E.png"  transform="matrix(9.230769e-02 0 0 0.2318 25.84 1.48)">
		</image>
		
			<image style="overflow:visible;opacity:0.3;enable-background:new    ;" width="13" height="117" xlink:href="5958086.png"  transform="matrix(9.230769e-02 0 0 0.2318 24.88 1.48)">
		</image>
	</g>
	<g>
		<rect x="27.6" y="1.7" class="st3" width="0.4" height="26.6"/>
		<rect x="28.9" y="1.6" class="st4" width="0.4" height="26.6"/>
		<rect x="27.9" y="1.6" class="st1" width="1" height="26.6"/>
		
			<image style="overflow:visible;opacity:0.3;enable-background:new    ;" width="8" height="117" xlink:href="5958085.png"  transform="matrix(0.15 0 0 0.2318 28.48 1.48)">
		</image>
		
			<image style="overflow:visible;opacity:0.3;enable-background:new    ;" width="8" height="117" xlink:href="5958082.png"  transform="matrix(0.12 0 0 0.2318 27.52 1.48)">
		</image>
	</g>
	<g>
		<rect x="30.1" y="1.7" class="st3" width="0.4" height="26.6"/>
		<rect x="31.5" y="1.6" class="st4" width="0.4" height="26.6"/>
		<rect x="30.5" y="1.6" class="st1" width="1" height="26.6"/>
		
			<image style="overflow:visible;opacity:0.3;enable-background:new    ;" width="13" height="117" xlink:href="595808D.png"  transform="matrix(9.230769e-02 0 0 0.2318 30.88 1.48)">
		</image>
		
			<image style="overflow:visible;opacity:0.3;enable-background:new    ;" width="13" height="117" xlink:href="595808E.png"  transform="matrix(9.230769e-02 0 0 0.2318 29.92 1.48)">
		</image>
	</g>
	<g>
		<rect x="32.6" y="1.7" class="st3" width="0.4" height="26.6"/>
		<rect x="33.9" y="1.6" class="st4" width="0.4" height="26.6"/>
		<rect x="33" y="1.6" class="st1" width="1" height="26.6"/>
		
			<image style="overflow:visible;opacity:0.3;enable-background:new    ;" width="8" height="117" xlink:href="595808C.png"  transform="matrix(0.12 0 0 0.2318 33.52 1.48)">
		</image>
		
			<image style="overflow:visible;opacity:0.3;enable-background:new    ;" width="8" height="117" xlink:href="5958083.png"  transform="matrix(0.15 0 0 0.2318 32.56 1.48)">
		</image>
	</g>
	<g>
		<rect x="35.1" y="1.7" class="st3" width="0.4" height="26.6"/>
		<rect x="36.5" y="1.6" class="st4" width="0.4" height="26.6"/>
		<rect x="35.5" y="1.6" class="st1" width="1" height="26.6"/>
		
			<image style="overflow:visible;opacity:0.3;enable-background:new    ;" width="8" height="117" xlink:href="5958084.png"  transform="matrix(0.12 0 0 0.2318 36.16 1.48)">
		</image>
		
			<image style="overflow:visible;opacity:0.3;enable-background:new    ;" width="13" height="117" xlink:href="5958087.png"  transform="matrix(9.230769e-02 0 0 0.2318 34.96 1.48)">
		</image>
	</g>
	<g>
		<rect x="37.7" y="1.7" class="st3" width="0.4" height="26.6"/>
		<rect x="39" y="1.6" class="st4" width="0.4" height="26.6"/>
		<rect x="38.1" y="1.6" class="st1" width="1" height="26.6"/>
		
			<image style="overflow:visible;opacity:0.3;enable-background:new    ;" width="8" height="117" xlink:href="59580BB.png"  transform="matrix(0.15 0 0 0.2318 38.56 1.48)">
		</image>
		
			<image style="overflow:visible;opacity:0.3;enable-background:new    ;" width="8" height="117" xlink:href="59580A9.png"  transform="matrix(0.15 0 0 0.2318 37.6 1.48)">
		</image>
	</g>
	<g>
		<rect x="40.2" y="1.7" class="st3" width="0.4" height="26.6"/>
		<rect x="41.5" y="1.6" class="st4" width="0.4" height="26.6"/>
		<rect x="40.5" y="1.6" class="st1" width="1" height="26.6"/>
		
			<image style="overflow:visible;opacity:0.3;enable-background:new    ;" width="8" height="117" xlink:href="59580A7.png"  transform="matrix(0.12 0 0 0.2318 41.2 1.48)">
		</image>
		
			<image style="overflow:visible;opacity:0.3;enable-background:new    ;" width="8" height="117" xlink:href="5958099.png"  transform="matrix(0.15 0 0 0.2318 40 1.48)">
		</image>
	</g>
	<g>
		<rect x="42.7" y="1.7" class="st3" width="0.4" height="26.6"/>
		<rect x="44" y="1.6" class="st4" width="0.4" height="26.6"/>
		<rect x="43.1" y="1.6" class="st1" width="1" height="26.6"/>
		
			<image style="overflow:visible;opacity:0.3;enable-background:new    ;" width="8" height="117" xlink:href="595809B.png"  transform="matrix(0.12 0 0 0.2318 43.6 1.48)">
		</image>
		
			<image style="overflow:visible;opacity:0.3;enable-background:new    ;" width="8" height="117" xlink:href="5958098.png"  transform="matrix(0.15 0 0 0.2318 42.64 1.48)">
		</image>
	</g>
	<g>
		<rect x="45.3" y="1.7" class="st3" width="0.4" height="26.6"/>
		<rect x="46.6" y="1.6" class="st4" width="0.4" height="26.6"/>
		<rect x="45.6" y="1.6" class="st1" width="1" height="26.6"/>
		
			<image style="overflow:visible;opacity:0.3;enable-background:new    ;" width="4" height="117" xlink:href="595809F.png"  transform="matrix(0.18 0 0 0.2318 46.24 1.48)">
		</image>
		
			<image style="overflow:visible;opacity:0.3;enable-background:new    ;" width="4" height="117" xlink:href="595809A.png"  transform="matrix(0.18 0 0 0.2318 45.28 1.48)">
		</image>
	</g>
	<g>
		<rect x="47.8" y="1.7" class="st3" width="0.4" height="26.6"/>
		<rect x="49.2" y="1.6" class="st4" width="0.4" height="26.6"/>
		<rect x="48.2" y="1.6" class="st1" width="1" height="26.6"/>
		
			<image style="overflow:visible;opacity:0.3;enable-background:new    ;" width="8" height="117" xlink:href="5958096.png"  transform="matrix(0.15 0 0 0.2318 48.64 1.48)">
		</image>
		
			<image style="overflow:visible;opacity:0.3;enable-background:new    ;" width="8" height="117" xlink:href="5958097.png"  transform="matrix(0.12 0 0 0.2318 47.68 1.48)">
		</image>
	</g>
	<g>
		<rect x="50.3" y="1.7" class="st3" width="0.4" height="26.6"/>
		<rect x="51.6" y="1.6" class="st4" width="0.4" height="26.6"/>
		<rect x="50.7" y="1.6" class="st1" width="1" height="26.6"/>
		
			<image style="overflow:visible;opacity:0.3;enable-background:new    ;" width="8" height="117" xlink:href="59580E7.png"  transform="matrix(0.12 0 0 0.2318 51.28 1.48)">
		</image>
		
			<image style="overflow:visible;opacity:0.3;enable-background:new    ;" width="8" height="117" xlink:href="59580F4.png"  transform="matrix(0.12 0 0 0.2318 50.32 1.48)">
		</image>
	</g>
	<g>
		<rect x="52.8" y="1.7" class="st3" width="0.4" height="26.6"/>
		<rect x="54.2" y="1.6" class="st4" width="0.4" height="26.6"/>
		<rect x="53.2" y="1.6" class="st1" width="1" height="26.6"/>
		
			<image style="overflow:visible;opacity:0.3;enable-background:new    ;" width="8" height="117" xlink:href="59580F7.png"  transform="matrix(0.12 0 0 0.2318 53.68 1.48)">
		</image>
		
			<image style="overflow:visible;opacity:0.3;enable-background:new    ;" width="8" height="117" xlink:href="59580F5.png"  transform="matrix(0.15 0 0 0.2318 52.72 1.48)">
		</image>
	</g>
	<g>
		<rect x="55.4" y="1.7" class="st3" width="0.4" height="26.6"/>
		<rect x="56.7" y="1.6" class="st4" width="0.4" height="26.6"/>
		<rect x="55.8" y="1.6" class="st1" width="1" height="26.6"/>
		
			<image style="overflow:visible;opacity:0.3;enable-background:new    ;" width="8" height="117" xlink:href="59580F3.png"  transform="matrix(0.15 0 0 0.2318 56.32 1.48)">
		</image>
		
			<image style="overflow:visible;opacity:0.3;enable-background:new    ;" width="8" height="117" xlink:href="59580CC.png"  transform="matrix(9.000000e-02 0 0 0.2318 55.36 1.48)">
		</image>
	</g>
	<g>
		<rect x="57.9" y="1.7" class="st3" width="0.4" height="26.6"/>
		<rect x="59.2" y="1.6" class="st4" width="0.4" height="26.6"/>
		<rect x="58.2" y="1.6" class="st1" width="1" height="26.6"/>
		
			<image style="overflow:visible;opacity:0.3;enable-background:new    ;" width="8" height="117" xlink:href="59580CF.png"  transform="matrix(0.15 0 0 0.2318 58.72 1.48)">
		</image>
		
			<image style="overflow:visible;opacity:0.3;enable-background:new    ;" width="8" height="117" xlink:href="59580CD.png"  transform="matrix(0.12 0 0 0.2318 57.76 1.48)">
		</image>
	</g>
	<g>
		<rect x="60.4" y="1.7" class="st3" width="0.4" height="26.6"/>
		<rect x="61.7" y="1.6" class="st4" width="0.4" height="26.6"/>
		<rect x="60.8" y="1.6" class="st1" width="1" height="26.6"/>
		
			<image style="overflow:visible;opacity:0.3;enable-background:new    ;" width="8" height="117" xlink:href="59580D3.png"  transform="matrix(0.12 0 0 0.2318 61.36 1.48)">
		</image>
		
			<image style="overflow:visible;opacity:0.3;enable-background:new    ;" width="8" height="117" xlink:href="59580D4.png"  transform="matrix(0.12 0 0 0.2318 60.4 1.48)">
		</image>
	</g>
	<g>
		<rect x="63" y="1.7" class="st3" width="0.4" height="26.6"/>
		<rect x="64.3" y="1.6" class="st4" width="0.4" height="26.6"/>
		<rect x="63.3" y="1.6" class="st1" width="1" height="26.6"/>
	</g>
	<g>
		<rect x="65.5" y="1.7" class="st3" width="0.4" height="26.6"/>
		<rect x="66.9" y="1.6" class="st4" width="0.4" height="26.6"/>
		<rect x="65.9" y="1.6" class="st1" width="1" height="26.6"/>
		
			<image style="overflow:visible;opacity:0.3;enable-background:new    ;" width="8" height="117" xlink:href="59580D7.png"  transform="matrix(0.15 0 0 0.2318 66.4 1.48)">
		</image>
		
			<image style="overflow:visible;opacity:0.3;enable-background:new    ;" width="8" height="117" xlink:href="5958133.png"  transform="matrix(0.12 0 0 0.2318 65.44 1.48)">
		</image>
	</g>
	<g>
		<rect x="68" y="1.7" class="st3" width="0.4" height="26.6"/>
		<rect x="69.3" y="1.6" class="st4" width="0.4" height="26.6"/>
		<rect x="68.3" y="1.6" class="st1" width="1" height="26.6"/>
		
			<image style="overflow:visible;opacity:0.3;enable-background:new    ;" width="4" height="117" xlink:href="5958131.png"  transform="matrix(0.18 0 0 0.2318 69.04 1.48)">
		</image>
		
			<image style="overflow:visible;opacity:0.3;enable-background:new    ;" width="8" height="117" xlink:href="5958137.png"  transform="matrix(0.12 0 0 0.2318 67.84 1.48)">
		</image>
	</g>
	<g>
		<rect x="70.5" y="1.7" class="st3" width="0.4" height="26.6"/>
		<rect x="71.9" y="1.6" class="st4" width="0.4" height="26.6"/>
		<rect x="70.9" y="1.6" class="st1" width="1" height="26.6"/>
		
			<image style="overflow:visible;opacity:0.3;enable-background:new    ;" width="8" height="117" xlink:href="5958132.png"  transform="matrix(0.12 0 0 0.2318 71.44 1.48)">
		</image>
		
			<image style="overflow:visible;opacity:0.3;enable-background:new    ;" width="8" height="117" xlink:href="595813D.png"  transform="matrix(0.15 0 0 0.2318 70.48 1.48)">
		</image>
	</g>
	<g>
		<rect x="73.1" y="1.7" class="st3" width="0.4" height="26.6"/>
		<rect x="74.4" y="1.6" class="st4" width="0.4" height="26.6"/>
		<rect x="73.5" y="1.6" class="st1" width="1" height="26.6"/>
		
			<image style="overflow:visible;opacity:0.3;enable-background:new    ;" width="4" height="117" xlink:href="595813E.png"  transform="matrix(0.18 0 0 0.2318 74.08 1.48)">
		</image>
		
			<image style="overflow:visible;opacity:0.3;enable-background:new    ;" width="13" height="117" xlink:href="595813F.png"  transform="matrix(9.230769e-02 0 0 0.2318 72.88 1.48)">
		</image>
	</g>
	<g>
		<rect x="75.6" y="1.7" class="st3" width="0.4" height="26.6"/>
		<rect x="76.9" y="1.6" class="st4" width="0.4" height="26.6"/>
		<rect x="75.9" y="1.6" class="st1" width="1" height="26.6"/>
		
			<image style="overflow:visible;opacity:0.3;enable-background:new    ;" width="8" height="117" xlink:href="5958134.png"  transform="matrix(0.15 0 0 0.2318 76.48 1.48)">
		</image>
		
			<image style="overflow:visible;opacity:0.3;enable-background:new    ;" width="8" height="117" xlink:href="5958135.png"  transform="matrix(0.12 0 0 0.2318 75.52 1.48)">
		</image>
	</g>
	<g>
		<rect x="78.1" y="1.7" class="st3" width="0.4" height="26.6"/>
		<rect x="79.4" y="1.6" class="st4" width="0.4" height="26.6"/>
		<rect x="78.5" y="1.6" class="st1" width="1" height="26.6"/>
		
			<image style="overflow:visible;opacity:0.3;enable-background:new    ;" width="4" height="117" xlink:href="5958136.png"  transform="matrix(0.18 0 0 0.2318 79.12 1.48)">
		</image>
		
			<image style="overflow:visible;opacity:0.3;enable-background:new    ;" width="8" height="117" xlink:href="595811A.png"  transform="matrix(0.12 0 0 0.2318 77.92 1.48)">
		</image>
	</g>
	<g>
		<path class="st1" d="M1.3,0.4H0.8c-0.3,0-0.5,0.2-0.5,0.5v0.5c0,0.3,0.2,0.5,0.5,0.5h0.5c0.3,0,0.5-0.2,0.5-0.5V0.9
			C1.8,0.6,1.5,0.4,1.3,0.4z"/>
		<path class="st5" d="M1,1.6c-0.2,0-0.4-0.2-0.4-0.4l0,0C0.6,1.4,0.8,1.6,1,1.6s0.4-0.2,0.4-0.4l0,0C1.4,1.4,1.2,1.6,1,1.6z"/>
		<path class="st6" d="M1,0.7L1,0.7c-0.2,0-0.4,0.2-0.4,0.4l0,0c0,0.2,0.2,0.4,0.4,0.4l0,0c0.2,0,0.4-0.2,0.4-0.4l0,0
			C1.4,0.9,1.2,0.7,1,0.7z"/>
	</g>
	<g>
		<path class="st7" d="M77.9,29.3h-1.3c-0.2,0-0.3-0.1-0.3-0.3l0,0c0-0.2,0.1-0.3,0.3-0.3h1.3c0.2,0,0.3,0.1,0.3,0.3l0,0
			C78.2,29.1,78,29.3,77.9,29.3z"/>
		<path class="st7" d="M59.8,29.3h-1.3c-0.2,0-0.3-0.1-0.3-0.3l0,0c0-0.2,0.1-0.3,0.3-0.3h1.3c0.2,0,0.3,0.1,0.3,0.3l0,0
			C60.1,29.1,60,29.3,59.8,29.3z"/>
		<path class="st7" d="M41.7,29.3h-1.3c-0.2,0-0.3-0.1-0.3-0.3l0,0c0-0.2,0.1-0.3,0.3-0.3h1.3c0.2,0,0.3,0.1,0.3,0.3l0,0
			C42,29.1,41.9,29.3,41.7,29.3z"/>
		<path class="st7" d="M23.6,29.3h-1.3c-0.2,0-0.3-0.1-0.3-0.3l0,0c0-0.2,0.1-0.3,0.3-0.3h1.3c0.2,0,0.3,0.1,0.3,0.3l0,0
			C23.9,29.1,23.8,29.3,23.6,29.3z"/>
		<path class="st7" d="M5.5,29.3H4.2c-0.2,0-0.3-0.1-0.3-0.3l0,0c0-0.2,0.1-0.3,0.3-0.3h1.3c0.2,0,0.3,0.1,0.3,0.3l0,0
			C5.8,29.1,5.7,29.3,5.5,29.3z"/>
	</g>
	<g>
		<path class="st1" d="M1.2,28.1H0.8c-0.3,0-0.5,0.2-0.5,0.5v0.5c0,0.3,0.2,0.5,0.5,0.5h0.5c0.3,0,0.5-0.2,0.5-0.5v-0.5
			C1.7,28.3,1.5,28.1,1.2,28.1z"/>
		<path class="st5" d="M1,29.3c-0.2,0-0.4-0.2-0.4-0.4l0,0C0.6,29.1,0.8,29.3,1,29.3s0.4-0.2,0.4-0.4l0,0C1.4,29.1,1.2,29.3,1,29.3z
			"/>
		<path class="st6" d="M1,28.4L1,28.4c-0.2,0-0.4,0.2-0.4,0.4l0,0c0,0.2,0.2,0.4,0.4,0.4l0,0c0.2,0,0.4-0.2,0.4-0.4l0,0
			C1.4,28.6,1.2,28.4,1,28.4z"/>
	</g>
	<g>
		<path class="st1" d="M81.2,0.4h-0.5c-0.3,0-0.5,0.2-0.5,0.5v0.5c0,0.3,0.2,0.5,0.5,0.5h0.5c0.3,0,0.5-0.2,0.5-0.5V0.9
			C81.7,0.6,81.5,0.4,81.2,0.4z"/>
		<path class="st5" d="M81,1.6c-0.2,0-0.4-0.2-0.4-0.4l0,0C80.6,1.4,80.8,1.6,81,1.6s0.4-0.2,0.4-0.4l0,0C81.4,1.4,81.2,1.6,81,1.6z
			"/>
		<path class="st6" d="M81,0.7L81,0.7c-0.2,0-0.4,0.2-0.4,0.4l0,0c0,0.2,0.2,0.4,0.4,0.4l0,0c0.2,0,0.4-0.2,0.4-0.4l0,0
			C81.4,0.9,81.2,0.7,81,0.7z"/>
	</g>
	<g>
		<path class="st1" d="M81.2,28.1h-0.5c-0.3,0-0.5,0.2-0.5,0.5v0.5c0,0.3,0.2,0.5,0.5,0.5h0.5c0.3,0,0.5-0.2,0.5-0.5v-0.5
			C81.7,28.3,81.5,28.1,81.2,28.1z"/>
		<path class="st5" d="M81,29.3c-0.2,0-0.4-0.2-0.4-0.4l0,0C80.6,29.1,80.8,29.3,81,29.3s0.4-0.2,0.4-0.4l0,0
			C81.4,29.1,81.2,29.3,81,29.3z"/>
		<path class="st6" d="M81,28.4L81,28.4c-0.2,0-0.4,0.2-0.4,0.4l0,0c0,0.2,0.2,0.4,0.4,0.4l0,0c0.2,0,0.4-0.2,0.4-0.4l0,0
			C81.4,28.6,81.2,28.4,81,28.4z"/>
	</g>
</g>
<image style="overflow:visible;opacity:0.3;enable-background:new    ;" width="17" height="233" xlink:href="5958119.png"  transform="matrix(5.647059e-02 0 0 0.1164 1.6 1.6485)">
</image>
</svg>
