<?xml version="1.0" encoding="utf-8"?>
<!-- Generator: Adobe Illustrator 21.1.0, SVG Export Plug-In . SVG Version: 6.00 Build 0)  -->
<svg version="1.1" id="Layer_1" xmlns="http://www.w3.org/2000/svg" xmlns:xlink="http://www.w3.org/1999/xlink" x="0px" y="0px"
	 viewBox="0 0 24 24" style="enable-background:new 0 0 24 24;" xml:space="preserve">
<style type="text/css">
	.st0{fill:#FFFFFF;}
</style>
<g>
	<path class="st0" d="M19.3,3.8L12,9.3L4.7,3.8C4.4,3.5,3.9,3.5,3.6,3.8C3.3,4.2,3.3,4.7,3.7,5l7.8,6c0.2,0.1,0.3,0.2,0.5,0.2
		s0.4-0.1,0.5-0.2l7.8-6c0.3-0.3,0.4-0.8,0.1-1.2C20.1,3.5,19.6,3.5,19.3,3.8z"/>
	<path class="st0" d="M21.4,0.2H2.6c-1.3,0-2.4,1.1-2.4,2.5v18.7c0,1.4,1.1,2.5,2.4,2.5h18.8c1.3,0,2.4-1.1,2.4-2.5V2.7
		C23.8,1.4,22.7,0.2,21.4,0.2z M22.2,21.4c0,0.5-0.4,0.8-0.8,0.8H2.6c-0.4,0-0.8-0.4-0.8-0.8V2.7c0-0.5,0.4-0.8,0.8-0.8h18.8
		c0.4,0,0.8,0.4,0.8,0.8V21.4z"/>
</g>
<path class="st0" d="M9.2,15.1H3.9c-0.5,0-0.9,0.4-0.9,0.9c0,0.4,0.4,0.9,0.9,0.9h5.3c0.5,0,0.9-0.4,0.9-0.9
	C10.1,15.4,9.7,15.1,9.2,15.1z"/>
<path class="st0" d="M9.2,18.6H3.9c-0.5,0-0.9,0.4-0.9,0.9c0,0.4,0.4,0.9,0.9,0.9h5.3c0.5,0,0.9-0.4,0.9-0.9S9.7,18.6,9.2,18.6z"/>
<path class="st0" d="M20.3,15c-0.5-0.4-1.1-0.3-1.5,0.1L16,18.3L14.3,17c-0.5-0.4-1.1-0.3-1.4,0.2c-0.4,0.5-0.3,1.1,0.2,1.4l2.4,1.9
	c0.2,0.2,0.4,0.2,0.6,0.2c0.3,0,0.6-0.2,0.8-0.4l3.5-4C20.8,16.1,20.7,15.4,20.3,15z"/>
</svg>
