<?xml version="1.0" encoding="utf-8"?>
<!-- Generator: Adobe Illustrator 21.1.0, SVG Export Plug-In . SVG Version: 6.00 Build 0)  -->
<svg version="1.1" id="Layer_1" xmlns="http://www.w3.org/2000/svg" xmlns:xlink="http://www.w3.org/1999/xlink" x="0px" y="0px"
	 viewBox="0 0 24 24" style="enable-background:new 0 0 24 24;" xml:space="preserve">
<style type="text/css">
	.st0{fill:#FFFFFF;}
</style>
<path class="st0" d="M9.5,1.5H2C1.3,1.5,0.7,2,0.7,2.6S1.3,3.8,2,3.8h7.6c0.7,0,1.3-0.5,1.3-1.2S10.2,1.5,9.5,1.5z"/>
<path class="st0" d="M9.5,7.7H2c-0.7,0-1.3,0.5-1.3,1.2C0.7,9.5,1.3,10,2,10h7.6c0.7,0,1.3-0.5,1.3-1.2C10.8,8.2,10.2,7.7,9.5,7.7z"
	/>
<path class="st0" d="M8,16H2c-0.7,0-1.3,0.5-1.3,1.2c0,0.6,0.6,1.2,1.3,1.2h6c0.7,0,1.3-0.5,1.3-1.2S8.7,16,8,16z"/>
<path class="st0" d="M13.8,3.8h7.6c0.7,0,1.3-0.5,1.3-1.2S22,1.5,21.3,1.5h-7.6c-0.7,0-1.3,0.5-1.3,1.2S13.1,3.8,13.8,3.8z"/>
<path class="st0" d="M13.8,10h7.6c0.7,0,1.3-0.5,1.3-1.2c0-0.6-0.6-1.2-1.3-1.2h-7.6c-0.7,0-1.3,0.5-1.3,1.2
	C12.5,9.5,13.1,10,13.8,10z"/>
<path class="st0" d="M22.6,14.6c-0.6-0.5-1.5-0.4-2,0.1L16.9,19l-2.2-1.7c-0.6-0.5-1.5-0.4-1.9,0.2c-0.5,0.6-0.4,1.5,0.2,1.9
	l3.2,2.5c0.2,0.2,0.5,0.3,0.8,0.3c0.4,0,0.8-0.2,1.1-0.5l4.6-5.3C23.2,16,23.1,15.1,22.6,14.6z"/>
</svg>
