<?xml version="1.0" encoding="utf-8"?>
<!-- Generator: Adobe Illustrator 21.1.0, SVG Export Plug-In . SVG Version: 6.00 Build 0)  -->
<svg version="1.1" id="Capa_1" xmlns="http://www.w3.org/2000/svg" xmlns:xlink="http://www.w3.org/1999/xlink" x="0px" y="0px"
	 viewBox="0 0 488.6 488.6" style="enable-background:new 0 0 488.6 488.6;" xml:space="preserve">
<style type="text/css">
	.st0{fill:#FFFFFF;}
</style>
<g>
	<path class="st0" d="M437.4,42.1H55.5C34.3,42.1,17,59.4,17,80.6v230.7c0,21.3,17.3,38.5,38.5,38.5h32.3
		c-1.3-7.6-1.9-15.2-1.9-23.1c0-8.8,0.9-17.4,2.4-25.8H66v-129h361.1v129h-14.4c1.5,8.4,2.4,17,2.4,25.8c0,7.8-0.6,15.5-1.9,23.1
		h24.3c21.3,0,38.5-17.3,38.5-43.5V75.6C475.9,59.4,458.7,42.1,437.4,42.1z M427.1,133.4H66V93h361.1V133.4z"/>
	<path class="st0" d="M251.4,179.7c-81.6,0-147.7,66.2-147.7,147.7s66.2,147.7,147.7,147.7S399.2,409,399.2,327.5
		S333,179.7,251.4,179.7z M293.9,385.7c-6.4,7.9-14.8,13.2-24.6,15.8c-4.3,1.1-6.2,3.4-6,7.9c0.2,4.3,0,8.6,0,13.2
		c0,3.9-2.1,6-5.8,6c-4.7,0.2-9.4,0.2-14.1,0c-4.1,0-6-2.4-6-6.4c0-3.2,0-6.4,0-9.6c0-7-0.4-7.3-7.1-8.5c-8.6-1.3-17.1-3.4-25-7.1
		c-6.2-3-7-4.5-5.1-11.1c1.3-4.9,2.6-9.8,4.1-14.5c1.7-5.6,3.2-6.2,8.5-3.6c8.8,4.5,18,7.1,27.8,8.3c6.2,0.8,12.4,0.2,18.2-2.4
		c10.9-4.7,12.6-17.3,3.4-24.8c-3.2-2.6-6.6-4.5-10.3-6c-9.6-4.1-19.5-7.3-28.4-12.8c-14.7-8.6-23.9-20.7-22.7-38.5
		c1.1-20.1,12.6-32.5,31-39.3c7.5-2.8,7.7-2.6,7.7-10.5c0-2.6,0-5.5,0-8.1c0.2-6,1.1-7,7.1-7.1c1.9,0,3.8,0,5.5,0
		c12.8,0,12.8,0,12.8,12.8c0,9,0,9,9,10.3c6.8,1.1,13.3,3,19.7,5.8c3.6,1.5,4.9,3.9,3.8,7.7c-1.5,5.5-3,11.1-4.9,16.4
		c-1.7,5.1-3.4,5.8-8.3,3.6c-10-4.9-20.3-6.8-31.2-6.2c-2.8,0.2-5.6,0.6-8.3,1.7c-9.4,4.1-11.1,14.7-3,21.1
		c4.1,3.2,8.6,5.6,13.5,7.7c8.5,3.4,16.7,6.8,24.8,11.3C304.8,332.4,311.8,364.1,293.9,385.7z"/>
</g>
</svg>
