<?xml version="1.0" encoding="utf-8"?>
<!-- Generator: Adobe Illustrator 22.0.1, SVG Export Plug-In . SVG Version: 6.00 Build 0)  -->
<svg version="1.1" id="Layer_1" xmlns="http://www.w3.org/2000/svg" xmlns:xlink="http://www.w3.org/1999/xlink" x="0px" y="0px"
	 viewBox="0 0 50 50" style="enable-background:new 0 0 50 50;" xml:space="preserve">
<style type="text/css">
	.st0{fill:none;stroke:#000000;stroke-width:1.9098;stroke-linecap:round;stroke-linejoin:round;stroke-miterlimit:10;}
	.st1{fill:none;stroke:#000000;stroke-width:1.9009;stroke-linecap:round;stroke-linejoin:round;stroke-miterlimit:10;}
</style>
<g>
	<path d="M46.3,10H3.7C1.7,10,0,11.6,0,13.7v22.6C0,38.4,1.7,40,3.7,40h42.5c2.1,0,3.7-1.7,3.7-3.7V13.7C50.1,11.6,48.3,10,46.3,10z
		 M25,14.2c6,0,10.8,4.9,10.8,10.8S31,35.8,25,35.8S14.2,31,14.2,25S19,14.2,25,14.2z M46.8,13.7V19c-3.1-0.2-5.6-2.7-5.9-5.8h5.4
		C46.6,13.2,46.8,13.4,46.8,13.7z M3.7,13.2h5.4c-0.3,3.1-2.8,5.5-5.9,5.8v-5.2C3.2,13.4,3.5,13.2,3.7,13.2z M3.2,36.3V31
		c3.1,0.2,5.6,2.7,5.9,5.8H3.7C3.5,36.8,3.2,36.6,3.2,36.3z M46.3,36.8h-5.4c0.3-3.1,2.8-5.5,5.9-5.8v5.2
		C46.8,36.6,46.6,36.8,46.3,36.8z"/>
	<path d="M22.2,28.2l-0.4-0.6l-1.3,1.7l0.3,0.3c0.9,1.1,2.1,1.9,3.5,2.1v1.7h1.9v-1.7c2.5-0.4,3.4-2.3,3.4-3.9c0-2.6-2-3.5-3.4-4
		v-3.4c0.6,0.2,1.1,0.6,1.6,1.1l0.4,0.6l1.4-1.7l-0.3-0.4c-0.7-1-1.8-1.6-3-1.8v-1.7h-1.9v1.7c-2,0.3-3.3,1.8-3.3,3.7
		c0,2.4,1.8,3.2,3.3,3.6v4C23.3,29.3,22.6,28.6,22.2,28.2z M26.1,26.3c1,0.4,1.3,0.9,1.3,1.6c0,0.4-0.2,1.3-1.3,1.7V26.3z M23,22
		c0-0.7,0.5-1.3,1.2-1.6v2.8C23.4,22.9,23,22.5,23,22z"/>
</g>
<line class="st0" x1="16.2" y1="4.2" x2="47.8" y2="4.2"/>
<line class="st1" x1="2.4" y1="46.3" x2="33.4" y2="46.3"/>
</svg>
