<?xml version="1.0" encoding="utf-8"?>
<!-- Generator: Adobe Illustrator 21.1.0, SVG Export Plug-In . SVG Version: 6.00 Build 0)  -->
<svg version="1.1" id="Layer_1" xmlns="http://www.w3.org/2000/svg" xmlns:xlink="http://www.w3.org/1999/xlink" x="0px" y="0px"
	 viewBox="0 0 512 512" style="enable-background:new 0 0 512 512;" xml:space="preserve">
<style type="text/css">
	.st0{fill:#003DB6;}
</style>
<g>
	<g>
		<path class="st0" d="M339.4,255.7c-2.2-0.6-4.5-0.8-6.7-0.5c-0.3,0-0.5,0-0.8,0c20.2-19.7,32.8-47.3,32.8-77.7V22.5
			c0-8.6-7-15.6-15.6-15.6H233.8c-47.7,0-86.4,38.8-86.4,86.4v84.2c0,30.4,12.6,57.9,32.8,77.7c-0.3,0-0.5,0-0.8,0
			c-2.2-0.3-4.5-0.2-6.7,0.5c-80.5,7.2-143.8,75-143.8,157.4v76.4c0,8.6,7,15.6,15.6,15.6h423.2c8.6,0,15.6-7,15.6-15.6v-76.4
			C483.2,330.8,419.9,262.9,339.4,255.7z M178.5,115.2V93.3l0,0c0-30.5,24.8-55.3,55.3-55.3h99.8v41.7c0,21.1-17.1,38.2-38.2,38.2
			H178.5L178.5,115.2L178.5,115.2z M178.5,177.5V149h116.9c14.1,0,27.2-4.2,38.2-11.5v40c0,42.8-34.8,77.5-77.5,77.5
			C213.2,255.1,178.5,220.3,178.5,177.5z M297.3,286.2L256,327.5l-41.3-41.3L297.3,286.2L297.3,286.2z M452,474H60v-44.8h127
			c8.6,0,15.6-7,15.6-15.6s-7-15.6-15.6-15.6H60.9c6.9-57.9,52.8-103.9,110.7-110.9l73.4,73.4c3,3,7,4.6,11,4.6s8-1.5,11-4.6
			l73.4-73.4c62.8,7.6,111.6,61.1,111.6,125.9V474z"/>
	</g>
</g>
<g>
	<g>
		<path class="st0" d="M263.3,248.7c-1.9-1.9-4.6-3-7.3-3s-5.4,1.1-7.3,3c-1.9,1.9-3,4.6-3,7.3s1.1,5.4,3,7.3c1.9,1.9,4.6,3,7.3,3
			s5.4-1.1,7.3-3c1.9-1.9,3-4.6,3-7.3S265.2,250.6,263.3,248.7z"/>
	</g>
</g>
</svg>
