<?xml version="1.0" encoding="utf-8"?>
<!-- Generator: Adobe Illustrator 21.1.0, SVG Export Plug-In . SVG Version: 6.00 Build 0)  -->
<svg version="1.1" id="Capa_1" xmlns="http://www.w3.org/2000/svg" xmlns:xlink="http://www.w3.org/1999/xlink" x="0px" y="0px"
	 viewBox="0 0 512 512" style="enable-background:new 0 0 512 512;" xml:space="preserve">
<style type="text/css">
	.st0{fill:#B1B1B1;}
</style>
<g>
	<path class="st0" d="M342.3,195.4h133c5.8,0,11.4-2.4,15.3-6.7c3.9-4.3,5.9-10,5.4-15.8c-1.8-21.8-11.7-42.1-27.8-57
		c-4.9-4.5-10.1-8.4-15.8-11.6c10.9-11.1,17.6-26.2,17.6-43c0-33.8-27.4-61.3-61.1-61.3c-33.7,0-61.1,27.5-61.1,61.3
		c0,16.7,6.7,31.9,17.6,43c-5.6,3.2-10.9,7.1-15.8,11.6c-16.1,14.9-26,35.1-27.8,57c-0.5,5.8,1.5,11.5,5.4,15.8
		C330.9,192.9,336.5,195.4,342.3,195.4z M377.6,61.3c0-17.3,14-31.3,31.1-31.3c17.2,0,31.1,14,31.1,31.3c0,17.3-14,31.3-31.1,31.3
		C391.6,92.6,377.6,78.6,377.6,61.3z M369.8,137.9c10.6-9.9,24.5-15.3,39-15.3s28.3,5.4,39,15.3c8.1,7.5,13.8,17,16.6,27.5h-111
		C356,154.9,361.7,145.4,369.8,137.9z"/>
	<path class="st0" d="M94.7,195.4h133c5.8,0,11.4-2.4,15.3-6.7c3.9-4.3,5.9-10,5.4-15.8c-1.8-21.8-11.7-42.1-27.8-57
		c-4.9-4.5-10.1-8.4-15.8-11.6c10.9-11.1,17.6-26.2,17.6-43c0-33.8-27.4-61.3-61.1-61.3S100,27.5,100,61.3c0,16.7,6.7,31.9,17.6,43
		c-5.6,3.2-10.9,7.1-15.8,11.6c-16.1,14.9-26,35.1-27.8,57c-0.5,5.8,1.5,11.5,5.4,15.8C83.3,192.9,88.9,195.4,94.7,195.4z M130,61.3
		C130,44,144,30,161.1,30s31.1,14,31.1,31.3c0,17.3-14,31.3-31.1,31.3S130,78.6,130,61.3z M122.2,137.9c10.6-9.9,24.5-15.3,39-15.3
		c14.5,0,28.3,5.4,39,15.3c8.1,7.5,13.8,17,16.6,27.5h-111C108.4,154.9,114.1,145.4,122.2,137.9z"/>
	<path class="st0" d="M468.1,365.6c-4.9-4.5-10.1-8.4-15.8-11.6c10.9-11.1,17.6-26.2,17.6-43c0-33.8-27.4-61.3-61.1-61.3
		c-33.7,0-61.1,27.5-61.1,61.3c0,16.7,6.7,31.9,17.6,43c-5.6,3.2-10.9,7.1-15.8,11.6c-16.1,14.9-26,35.1-27.8,57
		c-0.5,5.8,1.5,11.5,5.4,15.8c3.9,4.3,9.5,6.7,15.3,6.7h133c5.8,0,11.4-2.4,15.3-6.7c3.9-4.3,5.9-10,5.4-15.8
		C494.1,400.7,484.2,380.5,468.1,365.6z M377.6,311c0-17.3,14-31.3,31.1-31.3c17.2,0,31.1,14,31.1,31.3s-14,31.3-31.1,31.3
		C391.6,342.3,377.6,328.2,377.6,311z M353.2,415c2.8-10.5,8.5-20,16.6-27.5c10.6-9.9,24.5-15.3,39-15.3s28.3,5.4,39,15.3
		c8.1,7.5,13.8,17,16.6,27.5H353.2z"/>
	<path class="st0" d="M161.1,225.5c-72.7,0-131.8,59.1-131.8,131.8c0,33.4,12.5,63.9,33,87.1l-42,42c-5.9,5.9-5.9,15.4,0,21.2
		c2.9,2.9,6.8,4.4,10.6,4.4s7.7-1.5,10.6-4.4l43-43c21.6,15.4,48,24.5,76.5,24.5c72.7,0,131.8-59.1,131.8-131.8
		S233.8,225.5,161.1,225.5z M161.1,459.1c-56.1,0-101.8-45.7-101.8-101.8S105,255.5,161.1,255.5s101.8,45.7,101.8,101.8
		S217.3,459.1,161.1,459.1z"/>
	<path class="st0" d="M203,316.7l-59.7,59.7l-24-24c-5.9-5.9-15.4-5.9-21.2,0c-5.9,5.9-5.9,15.4,0,21.2l34.6,34.6
		c2.9,2.9,6.8,4.4,10.6,4.4s7.7-1.5,10.6-4.4l0,0l0,0l70.3-70.3c5.9-5.9,5.9-15.4,0-21.2C218.3,310.8,208.8,310.8,203,316.7z"/>
</g>
</svg>
