<?xml version="1.0" encoding="utf-8"?>
<!-- Generator: Adobe Illustrator 21.1.0, SVG Export Plug-In . SVG Version: 6.00 Build 0)  -->
<svg version="1.1" id="Capa_1" xmlns="http://www.w3.org/2000/svg" xmlns:xlink="http://www.w3.org/1999/xlink" x="0px" y="0px"
	 viewBox="0 0 174.2 174.2" style="enable-background:new 0 0 174.2 174.2;" xml:space="preserve">
<style type="text/css">
	.st0{fill:#F12300;}
</style>
<g>
	<path class="st0" d="M87.1,2.9C40.7,2.9,2.9,40.7,2.9,87.1s37.8,84.2,84.2,84.2s84.2-37.8,84.2-84.2S133.6,2.9,87.1,2.9z
		 M87.1,161.4c-40.9,0-74.2-33.3-74.2-74.2s33.3-74.2,74.2-74.2s74.2,33.3,74.2,74.2S128.1,161.4,87.1,161.4z"/>
	<path class="st0" d="M121.8,52.5c-3-3-7.9-3-10.9,0L87.1,76.3L63.3,52.5c-3-3-7.9-3-10.9,0c-3,3-3,7.9,0,10.9l23.8,23.8l-23.8,23.8
		c-3,3-3,7.9,0,10.9c1.5,1.5,3.5,2.3,5.4,2.3c2,0,3.9-0.7,5.4-2.3L87.1,98l23.8,23.8c1.5,1.5,3.5,2.3,5.4,2.3c2,0,3.9-0.7,5.4-2.3
		c3-3,3-7.9,0-10.9L98,87.1l23.8-23.8C124.8,60.3,124.8,55.5,121.8,52.5z"/>
</g>
</svg>
