<?xml version="1.0" encoding="utf-8"?>
<!-- Generator: Adobe Illustrator 21.1.0, SVG Export Plug-In . SVG Version: 6.00 Build 0)  -->
<svg version="1.1" id="Layer_1" xmlns="http://www.w3.org/2000/svg" xmlns:xlink="http://www.w3.org/1999/xlink" x="0px" y="0px"
	 viewBox="0 0 24 24" style="enable-background:new 0 0 24 24;" xml:space="preserve">
<style type="text/css">
	.st0{fill:#FFFFFF;}
</style>
<g>
	<g>
		<g>
			<path class="st0" d="M17.4,8.3l-2.9-2.9c0.3-0.4,0.4-0.9,0.4-1.5h-1.5c0,0.8-0.7,1.5-1.5,1.5s-1.5-0.7-1.5-1.5s0.7-1.5,1.5-1.5
				h0.7v-3.4h-1.5v2C10,1.4,9.1,2.6,9.1,3.9c0,0.5,0.1,1.1,0.4,1.5L6.6,8.3H0.4V24h23.1V8.3H17.4z M10.5,6.5
				c0.4,0.3,0.9,0.4,1.5,0.4c0.5,0,1.1-0.1,1.5-0.4l1.9,1.9H8.6L10.5,6.5z M13.3,9.8v2.6h-2.6V9.8H13.3L13.3,9.8z M22.1,22.5H1.9
				V9.8h7.3v4h5.6v-4h7.3V22.5z"/>
		</g>
	</g>
	<g>
		<g>
			<rect x="3.7" y="11.3" class="st0" width="1.4" height="9.8"/>
		</g>
	</g>
	<g>
		<g>
			<rect x="6.6" y="11.3" class="st0" width="1.4" height="9.8"/>
		</g>
	</g>
	<g>
		<g>
			<rect x="16.2" y="11.3" class="st0" width="1.4" height="9.8"/>
		</g>
	</g>
	<g>
		<g>
			<rect x="19.1" y="11.3" class="st0" width="1.4" height="9.8"/>
		</g>
	</g>
	<g>
		<g>
			<rect x="11.3" y="15.8" class="st0" width="1.4" height="5.3"/>
		</g>
	</g>
</g>
</svg>
