<?xml version="1.0" encoding="utf-8"?>
<!-- Generator: Adobe Illustrator 21.1.0, SVG Export Plug-In . SVG Version: 6.00 Build 0)  -->
<svg version="1.1" id="Layer_1" xmlns="http://www.w3.org/2000/svg" xmlns:xlink="http://www.w3.org/1999/xlink" x="0px" y="0px"
	 viewBox="0 0 24 24" style="enable-background:new 0 0 24 24;" xml:space="preserve">
<style type="text/css">
	.st0{fill:#FFFFFF;}
</style>
<g>
	<path class="st0" d="M22.5,19.7l-1.4-1.4V7.4c0-0.2-0.1-0.4-0.2-0.6l-6.4-6.4c-0.2-0.2-0.4-0.2-0.6-0.2H4.4c-0.9,0-1.6,0.7-1.6,1.6
		v8L2,9.8c-0.2,0-0.4,0.1-0.6,0.2s-0.2,0.4-0.2,0.6V23c0,0.2,0.1,0.4,0.2,0.6c0.2,0.2,0.4,0.2,0.6,0.2l19.9,0c0.4,0,0.8-0.4,0.8-0.8
		l0-2.7C22.8,20,22.7,19.8,22.5,19.7L22.5,19.7z M14.8,3l3.7,3.7h-3.7C14.8,6.6,14.8,3,14.8,3z M4.4,1.8h8.7v4.8
		c0,0.9,0.7,1.6,1.6,1.6h4.8v8.5L13,10.1c-0.2-0.2-0.4-0.2-0.6-0.2l-8,0L4.4,1.8z M21.2,22.2H2.8V11.4h9.3l9.1,9.1L21.2,22.2
		L21.2,22.2z"/>
	<path class="st0" d="M4.8,18.5h5.3v2.4H4.8V18.5z"/>
</g>
</svg>
