<?xml version="1.0" encoding="utf-8"?>
<!-- Generator: Adobe Illustrator 21.1.0, SVG Export Plug-In . SVG Version: 6.00 Build 0)  -->
<svg version="1.1" id="f20e0c25-d928-42cc-98d1-13cc230663ea"
	 xmlns="http://www.w3.org/2000/svg" xmlns:xlink="http://www.w3.org/1999/xlink" x="0px" y="0px" viewBox="0 0 456.9 415"
	 style="enable-background:new 0 0 456.9 415;" xml:space="preserve">
<style type="text/css">
	.st0{opacity:0.5;}
	.st1{fill:#47E6B1;}
	.st2{opacity:0.5;fill:#4D8AF0;enable-background:new    ;}
	.st3{opacity:0.5;fill:#E8E8E8;enable-background:new    ;}
	.st4{opacity:0.5;fill:#FDD835;enable-background:new    ;}
	.st5{opacity:0.5;fill:#F55F44;enable-background:new    ;}
	.st6{opacity:0.5;fill:#47E6B1;enable-background:new    ;}
	.st7{opacity:0.5;enable-background:new    ;}
	.st8{fill:#E8E8E8;}
	.st9{fill:#DBDBDB;stroke:#FFFFFF;stroke-width:3;stroke-miterlimit:10;}
	.st10{fill:#0038BA;}
</style>
<title>no data</title>
<g>
	<g class="st0">
		<rect x="62.7" y="204.6" class="st1" width="2.1" height="11.7"/>
		<rect x="57.8" y="209.5" class="st1" width="11.7" height="2.1"/>
	</g>
	<g class="st0">
		<rect x="193.5" y="4.7" class="st1" width="2.1" height="11.7"/>
		<rect x="188.6" y="9.5" class="st1" width="11.7" height="2.1"/>
	</g>
	<g class="st0">
		<rect x="402.2" y="87.9" class="st1" width="2.1" height="11.7"/>
		<rect x="397.4" y="92.8" class="st1" width="11.7" height="2.1"/>
	</g>
	<path class="st2" d="M415.4,389.5c-1.2-0.5-1.8-1.8-1.4-3.1c0.1-0.1,0.1-0.2,0.1-0.3l0,0c0.1-0.7-0.5-1.3-1.2-1.3
		c-0.4,0-0.8,0.2-1.1,0.5l0,0c-0.1,0.1-0.1,0.2-0.2,0.3c-0.5,1.2-1.8,1.8-3.1,1.4c-0.1-0.1-0.2-0.1-0.3-0.1l0,0
		c-0.7-0.1-1.3,0.5-1.3,1.2c0,0.4,0.2,0.8,0.5,1.1l0,0c0.1,0.1,0.2,0.1,0.2,0.2c1.2,0.5,1.8,1.8,1.4,3.1c-0.1,0.1-0.1,0.2-0.1,0.3
		l0,0c-0.1,0.7,0.5,1.3,1.2,1.3c0.4,0,0.8-0.2,1.1-0.5l0,0c0.1-0.1,0.1-0.2,0.2-0.3c0.5-1.2,1.8-1.8,3.1-1.4
		c0.1,0.1,0.2,0.1,0.3,0.1l0,0c0.7,0.1,1.3-0.5,1.3-1.2c0-0.4-0.2-0.8-0.5-1.1l0,0C415.6,389.5,415.5,389.5,415.4,389.5z"/>
	<path class="st3" d="M88.8,280.8c-1.5-0.7-2.4-2.4-1.9-4.1c0.1-0.1,0.1-0.2,0.1-0.4l0,0c0.1-1-0.7-1.8-1.6-1.8
		c-0.6,0-1.1,0.2-1.5,0.7l0,0c-0.1,0.1-0.1,0.2-0.2,0.4c-0.7,1.5-2.4,2.4-4.1,1.9c-0.1-0.1-0.2-0.1-0.4-0.1l0,0
		c-1-0.1-1.8,0.7-1.8,1.6c0,0.6,0.2,1.1,0.7,1.5l0,0c0.1,0.1,0.2,0.1,0.4,0.2c1.5,0.7,2.4,2.4,1.9,4.1c-0.1,0.1-0.1,0.2-0.1,0.4l0,0
		c-0.1,1,0.7,1.8,1.6,1.8c0.6,0,1.1-0.2,1.5-0.7l0,0c0.1-0.1,0.1-0.2,0.2-0.4c0.7-1.5,2.4-2.4,4.1-1.9c0.1,0.1,0.2,0.1,0.4,0.1l0,0
		c1,0.1,1.8-0.7,1.8-1.6c0-0.6-0.2-1.1-0.7-1.5l0,0C89,280.9,88.8,280.9,88.8,280.8z"/>
	<path class="st4" d="M343.3,34.1c-1.2-0.5-1.8-1.8-1.4-3.1c0.1-0.1,0.1-0.2,0.1-0.3l0,0c0.1-0.7-0.5-1.3-1.2-1.3
		c-0.4,0-0.8,0.2-1.1,0.5l0,0c-0.1,0.1-0.1,0.2-0.2,0.2c-0.5,1.2-1.8,1.8-3.1,1.4c-0.1-0.1-0.2-0.1-0.3-0.1l0,0
		c-0.7-0.1-1.3,0.5-1.3,1.2c0,0.4,0.2,0.8,0.5,1.1l0,0c0.1,0.1,0.2,0.1,0.3,0.2c1.2,0.5,1.8,1.8,1.4,3.1c-0.1,0.1-0.1,0.2-0.1,0.3
		l0,0c-0.1,0.7,0.5,1.3,1.2,1.3c0.4,0,0.8-0.2,1.1-0.5l0,0c0.1-0.1,0.1-0.2,0.2-0.2c0.5-1.2,1.8-1.8,3.1-1.4
		c0.1,0.1,0.2,0.1,0.3,0.1l0,0c0.7,0.1,1.3-0.5,1.3-1.2c0-0.4-0.2-0.8-0.5-1.1l0,0C343.5,34.2,343.4,34.1,343.3,34.1z"/>
	<circle class="st5" cx="449.9" cy="160.4" r="4.1"/>
	<circle class="st5" cx="129.8" cy="398.2" r="4.1"/>
	<circle class="st5" cx="407.4" cy="249.9" r="4.1"/>
	<circle class="st5" cx="250.4" cy="359" r="4.1"/>
	<circle class="st2" cx="50.8" cy="40.3" r="4.1"/>
	<circle class="st6" cx="7" cy="153.4" r="4.1"/>
</g>
<g class="st7">
	<g>
		<g>
			<path class="st8" d="M380.6,141.5c-1.2,2-0.6,4.5,1.3,5.8l4.2,2.6c2,1.2,4.5,0.6,5.8-1.3l2.6-4.2c1.2-2,0.6-4.5-1.3-5.8L389,136
				c-2-1.2-4.5-0.6-5.8,1.3L380.6,141.5z M386.7,139.6l4.2,2.6l-2.6,4.2l0,0l-4.2-2.6L386.7,139.6z"/>
			
				<ellipse transform="matrix(0.5334 -0.8458 0.8458 0.5334 72.7846 399.6921)" class="st8" cx="398.7" cy="133.9" rx="2.1" ry="2.1"/>
			
				<ellipse transform="matrix(0.5334 -0.8458 0.8458 0.5334 73.2226 390.8575)" class="st8" cx="390.9" cy="129.1" rx="2.1" ry="2.1"/>
			<path class="st8" d="M400.1,152.4c1,0.6,2.3,0.3,2.9-0.7l11.9-18.8c2.5-3.9,1.3-9.1-2.6-11.6l-2.3-1.5l1.1-1.8
				c0.6-1,0.3-2.3-0.7-2.9s-2.3-0.3-2.9,0.7l-1.1,1.8l-8.1-5.1l1.1-1.8c0.6-1,0.3-2.3-0.7-2.9s-2.3-0.3-2.9,0.7l-1.1,1.8l-8-5
				l1.1-1.8c0.6-1,0.3-2.3-0.7-2.9s-2.3-0.3-2.9,0.7l-1.1,1.8l-2.2-1.4c-3.9-2.5-9.1-1.3-11.6,2.6L352,132
				c-2.5,3.9-1.3,9.1,2.6,11.6l31.2,19.7c3.9,2.5,9.1,1.3,11.6-2.6c0.6-1,0.3-2.3-0.7-2.9c-1-0.6-2.3-0.3-2.9,0.7
				c-1.2,2-3.8,2.5-5.8,1.3L356.9,140c-2-1.2-2.5-3.8-1.3-5.8l17.5-27.7c1.2-2,3.8-2.5,5.8-1.3l2.2,1.4l-1.1,1.8
				c-0.6,1-0.3,2.3,0.7,2.9s2.3,0.3,2.9-0.7l1.1-1.8l8,5l-1.1,1.8c-0.6,1-0.3,2.3,0.7,2.9s2.3,0.3,2.9-0.7l1.1-1.8l8.1,5.1L403,123
				c-0.6,1-0.3,2.3,0.7,2.9c1,0.6,2.3,0.3,2.9-0.7l1.1-1.8l2.3,1.5c2,1.2,2.5,3.8,1.3,5.8l-11.9,18.8
				C398.9,150.5,399.1,151.8,400.1,152.4z"/>
			
				<ellipse transform="matrix(0.5334 -0.8458 0.8458 0.5334 56.7243 372.2327)" class="st8" cx="365.8" cy="134.7" rx="2.1" ry="2.1"/>
			
				<ellipse transform="matrix(0.5334 -0.8458 0.8458 0.5334 74.2858 373.296)" class="st8" cx="375.5" cy="119.3" rx="2.1" ry="2.1"/>
			
				<ellipse transform="matrix(0.5334 -0.8458 0.8458 0.5334 65.4569 372.7616)" class="st8" cx="370.6" cy="127" rx="2.1" ry="2.1"/>
			
				<ellipse transform="matrix(0.5334 -0.8458 0.8458 0.5334 65.0188 381.5962)" class="st8" cx="378.4" cy="131.9" rx="2.1" ry="2.1"/>
			
				<ellipse transform="matrix(0.5334 -0.8458 0.8458 0.5334 73.7571 382.0286)" class="st8" cx="383.2" cy="124.2" rx="2.1" ry="2.1"/>
			
				<ellipse transform="matrix(0.5334 -0.8458 0.8458 0.5334 56.1898 381.0617)" class="st8" cx="373.5" cy="139.6" rx="2.1" ry="2.1"/>
		</g>
	</g>
</g>
<g>
	<path class="st9" d="M304.5,379.5h7.6v7.6h-7.6V379.5z"/>
	<path class="st9" d="M289.2,379.5h7.6v7.6h-7.6V379.5z"/>
	<path class="st9" d="M274,379.5h7.6v7.6H274V379.5z"/>
	<path class="st9" d="M274,364.3h38v7.6h-38V364.3z"/>
	<path class="st9" d="M325.9,303.1H131.5l-19.4,38.4h17.5v60.9h197.7v-60.9h17.5L325.9,303.1z M262.7,141.5v-11.4
		c0-6.3,5.1-11.4,11.4-11.4h4.2c1.8,8.7,9.5,15.2,18.6,15.2c10.5,0,19-8.5,19-19s-8.5-19-19-19c-9.2,0-16.9,6.5-18.6,15.2H274
		c-10.5,0-19,8.5-19,19v11.4h-7.6V61.7c0-6.3,5.1-11.4,11.4-11.4h4.5c1.5,4.4,5.7,7.6,10.7,7.6v7.6c-6.3,0-11.4,5.1-11.4,11.4
		s5.1,11.4,11.4,11.4h60.9c6.3,0,11.4-5.1,11.4-11.4c0-6.3-5.1-11.4-11.4-11.4V58c6.3,0,11.4-5.1,11.4-11.4s-5.1-11.4-11.4-11.4
		v-7.6c6.3,0,11.4-5.1,11.4-11.4s-5.1-11.4-11.4-11.4H274c-6.3,0-11.4,5.1-11.4,11.4s5.1,11.4,11.4,11.4v7.6c-5,0-9.2,3.2-10.7,7.6
		h-4.5c-10.5,0-19,8.5-19,19v79.8h-7.6V61.7c0-10.5-8.5-19-19-19h-3.7V16.1c0-6.3-5.1-11.4-11.4-11.4h-76c-6.3,0-11.4,5.1-11.4,11.4
		v53.3c0,6.3,5.1,11.4,11.4,11.4h76c6.3,0,11.4-5.1,11.4-11.4v-19h3.7c6.3,0,11.4,5.1,11.4,11.4v79.8H217v-19c0-10.5-8.5-19-19-19
		h-11.8c-1.8-8.7-9.5-15.2-18.6-15.2h-30.4c-10.5,0-19,8.5-19,19s8.5,19,19,19h49.4v-15.2H198c6.3,0,11.4,5.1,11.4,11.4v19v7.4h53.3
		L262.7,141.5z M201.8,69.3c0,2.1-1.7,3.7-3.7,3.7h-76c-2.1,0-3.7-1.7-3.7-3.7V16.1c0-2.1,1.7-3.7,3.7-3.7h76c2.1,0,3.7,1.7,3.7,3.7
		L201.8,69.3L201.8,69.3z M179.1,118.7h-41.8c-6.3,0-11.4-5.1-11.4-11.4c0-6.3,5.1-11.4,11.4-11.4h30.4c6.3,0,11.4,5.1,11.4,11.4
		V118.7z M296.9,103.5c6.3,0,11.4,5.1,11.4,11.4c0,6.3-5.1,11.4-11.4,11.4c-6.3,0-11.4-5.1-11.4-11.4
		C285.5,108.7,290.6,103.5,296.9,103.5z M135.8,311.1h56.1l-11.4,22.8h-56.1L135.8,311.1z M137.2,341.4h48l12.9-25.7v78.9h-60.9
		V341.4z M319.7,394.7h-114v-78.9l12.9,25.7h101.2v53.3H319.7z M332.6,333.9H223.2l-11.4-22.8h109.4L332.6,333.9z M270.3,16.1
		c0-2.1,1.7-3.7,3.7-3.7h60.9c2.1,0,3.7,1.7,3.7,3.7s-1.7,3.9-3.7,3.9H274C271.9,19.9,270.3,18.2,270.3,16.1z M281.6,27.5h45.6v7.6
		h-45.6V27.5z M270.3,46.5c0-2.1,1.7-3.7,3.7-3.7h60.9c2.1,0,3.7,1.7,3.7,3.7c0,2.1-1.7,3.7-3.7,3.7H274
		C271.9,50.3,270.3,48.6,270.3,46.5z M338.8,76.9c0,2.1-1.7,3.7-3.7,3.7h-60.9c-2.1,0-3.7-1.7-3.7-3.7s1.7-3.7,3.7-3.7h60.8
		C337,73.1,338.8,74.8,338.8,76.9z M327.3,65.6h-45.6V58h45.6V65.6z"/>
	<path class="st9" d="M171.5,27.5h-15.2v7.6h-15.2v7.6h-15.2v22.8h68.5V19.9h-22.8V27.5z M156.3,42.7V58h-7.6V42.7H156.3z
		 M133.5,50.3h7.6V58h-7.6V50.3z M163.9,58V35.1h7.6V58H163.9z M179.1,27.5h7.6V58h-7.6V27.5z"/>
	<path class="st9" d="M133.5,103.5h7.6v7.6h-7.6V103.5z"/>
	<path class="st9" d="M148.7,103.5h7.6v7.6h-7.6V103.5z"/>
	<path class="st9" d="M163.9,103.5h7.6v7.6h-7.6V103.5z"/>
	<path class="st9" d="M308.3,318.7h7.6v7.6h-7.6V318.7z"/>
	<path class="st9" d="M293.1,318.7h7.6v7.6h-7.6V318.7z"/>
	<path class="st9" d="M277.9,318.7h7.6v7.6h-7.6V318.7z"/>
	<path class="st9" d="M144.8,349h7.6v7.6h-7.6V349z"/>
	<path class="st9" d="M144.8,364.3h7.6v7.6h-7.6V364.3z"/>
	<path class="st9" d="M144.8,379.5h7.6v7.6h-7.6V379.5z"/>
</g>
<path class="st10" d="M297,204.3c-1.4-2.2-3.7-3.7-6.3-4.4c1.7-3.2,1.7-7.3-0.6-10.5c-1.5-2.3-3.9-3.7-6.3-4.3
	c0.4-0.9,0.8-1.8,1-2.8c0.6-2.6,0-5.4-1.5-7.7c-1.4-2.2-3.7-3.7-6.3-4.4c1.7-3.2,1.7-7.3-0.6-10.5c-3.1-4.7-9.5-6.1-14.2-2.9
	l-10.3,6.8c-5.5-2.8-11.2-4.7-17.3-5.8c-1.9-2.9-4.1-5.6-6.6-7.9l-4.2-4.1c-3.1-3-7.9-3.4-11.6-1.1c-4.3,2.9-5.4,8.6-2.6,12.9
	c0.1,0.2,0.2,0.3,0.3,0.6c-13.9,2.8-26.6,10.1-35.9,20.9c-10.1,11.7-15.8,26.8-15.8,42.2c0,3,0.2,6,0.6,8.8
	c3.1,22.6,18.2,42,39.3,50.8c7.8,3.2,16.1,4.9,24.7,4.9c13.6,0,26.5-4.2,37.5-12c10.7-7.7,18.7-18.3,23.3-30.7
	c0.4-1.1-0.2-2.4-1.3-2.9c-1.1-0.4-2.4,0.2-2.9,1.3c-4.2,11.5-11.7,21.4-21.6,28.6c-10.3,7.3-22.3,11.1-35,11.1
	c-6.5,0-12.9-1-19-3.1l18.1-11.9l0,0l0,0l15-9.9l0,0c1.3-0.9,2.3-2.2,2.5-3.9c0.3-1.5,0-3.2-0.9-4.5l-0.2-0.3l2.9-2
	c2.1-1.3,4.6-1.9,7.1-1.5c3.5,0.6,7.2-0.2,10.1-2.2l24.1-16c-0.2,2.1-0.4,4.2-0.8,6.3c-0.2,1.2,0.6,2.3,1.8,2.5c0.1,0,0.2,0,0.4,0
	c1.1,0,2-0.8,2.2-1.8c0.7-3.3,1-6.7,1.1-10.1l6.8-4.5c2.3-1.5,3.9-3.9,4.4-6.5C299.1,209.3,298.5,206.6,297,204.3z M247.6,166.6
	l-6.7,4.5l-1.3-3.6c-0.6-1.5-1.2-3-1.9-4.4C241.1,163.9,244.4,165.1,247.6,166.6z M177.3,182c9-10.4,21.3-17.3,34.7-19.7
	c2.2,5.2,2.6,11,1.4,16.6l-5.4,23.4c-0.9-0.9-2-1.5-3.2-1.8c-1.5-0.3-3.2,0-4.5,0.9l-15.3,10.1l0,0l0,0L163,226.2
	c-0.1-1.5-0.2-3.1-0.2-4.7C162.7,206.8,167.9,192.9,177.3,182z M235.1,251.8c-0.1,0.4-0.3,0.8-0.7,1l0,0l-13.2,8.7L196.7,225
	c-0.7-1-2.1-1.3-3.1-0.6c-1,0.7-1.3,2.1-0.6,3.1l24.5,36.5l-18.9,12.5c-18.7-8.2-32.1-25.5-35.3-45.5l22.2-14.6l2.5,3.7
	c0.4,0.7,1.1,1,1.9,1c0.4,0,0.9-0.1,1.2-0.3c1-0.7,1.3-2.1,0.7-3.1l-2.5-3.7l13.5-8.9c0.3-0.2,0.8-0.3,1.2-0.2
	c0.4,0.1,0.8,0.3,1,0.7l29.9,45.1C235.1,250.9,235.2,251.4,235.1,251.8z M294.1,211.1c-0.3,1.5-1.2,2.9-2.5,3.7l-7.8,5.2l0,0
	l-27.8,18.4c-2.1,1.3-4.6,1.9-7.1,1.5c-3.5-0.6-7.2,0.2-10.1,2.2l-2.9,2l-24.5-37l6.3-27.3c1.7-7.1,0.8-14.4-2.3-20.9
	c0-0.1-0.1-0.1-0.1-0.2c-0.6-1.2-1.3-2.4-2-3.5c-1.4-2.2-0.9-5.2,1.3-6.7c1.9-1.2,4.4-1,6.1,0.6l4.2,4.1c4.6,4.4,8.2,9.9,10.4,16
	l2.3,6.2l0,0l0,0v0.1c0,0.1,0.1,0.2,0.1,0.2c0.7,1,2.1,1.3,3.1,0.7l23.7-15.7c2.6-1.8,6.3-1,8.2,1.7c1.8,2.6,1,6.3-1.7,8.2l-2.1,1.3
	l0,0l-4.6,3.1l0,0c0,0,0,0-0.1,0c-1,0.7-1.2,2-0.6,3c0.7,1,2.1,1.3,3.1,0.7l4.6-3.1c1.3-0.9,2.9-1.2,4.4-0.9s2.9,1.2,3.7,2.5
	c0.9,1.3,1.2,2.9,0.9,4.4c-0.3,1.5-1.2,2.9-2.5,3.7l-6.6,4.4c-1,0.7-1.3,2.1-0.7,3.1c0.4,0.7,1.1,1,1.9,1c0.4,0,0.9-0.1,1.2-0.3
	l1-0.7l3.5-2.3c2.6-1.8,6.3-1,8.2,1.7c1.8,2.6,1,6.3-1.7,8.2l-3.3,2.2l0,0l-3.3,2.2c-1,0.7-1.3,2.1-0.7,3.1c0.4,0.7,1.1,1,1.9,1
	c0.4,0,0.9-0.1,1.2-0.3l1-0.7l0,0l3.5-2.3c1.3-0.9,2.9-1.2,4.4-0.9c1.5,0.3,2.9,1.2,3.7,2.5C294.2,208,294.4,209.7,294.1,211.1z"/>
</svg>
