<?xml version="1.0" encoding="utf-8"?>
<!-- Generator: Adobe Illustrator 21.1.0, SVG Export Plug-In . SVG Version: 6.00 Build 0)  -->
<svg version="1.1" id="Layer_1" xmlns="http://www.w3.org/2000/svg" xmlns:xlink="http://www.w3.org/1999/xlink" x="0px" y="0px"
	 viewBox="0 0 512 512" style="enable-background:new 0 0 512 512;" xml:space="preserve">
<style type="text/css">
	.st0{stroke:#000000;stroke-width:20;stroke-miterlimit:10;}
</style>
<path class="st0" d="M484.1,406.9c0.2-0.1,0.5-0.2,0.7-0.3s0.5-0.2,0.6-0.3c0.1-0.1,0.2-0.1,0.2-0.2c0.2-0.2,0.6-0.3,0.9-0.5
	c1.6-1.4,2.5-3.3,2.5-5.2V111.9c0-0.1,0-0.2,0-0.3c0-0.3,0-0.7-0.1-1c0-0.2-0.1-0.3-0.1-0.5c-0.1-0.2-0.1-0.5-0.2-0.8
	c-0.1-0.2-0.2-0.4-0.4-0.7c-0.1-0.2-0.2-0.3-0.4-0.5c-0.1-0.2-0.4-0.5-0.6-0.8c-0.1-0.1-0.1-0.2-0.2-0.2c0,0-0.1,0-0.1-0.1
	c-0.4-0.3-0.6-0.5-1.1-0.9c0,0,0,0-0.1,0c-1.4-0.9-3-1.4-4.7-1.4H31c-1.7,0-3.3,0.5-4.7,1.4c0,0,0,0-0.1,0c-0.4,0.2-0.7,0.5-1,0.9
	c0,0-0.1,0-0.1,0.1c-0.1,0.1-0.1,0.2-0.2,0.2c-0.2,0.2-0.4,0.4-0.6,0.8c-0.1,0.2-0.2,0.3-0.4,0.5c-0.1,0.2-0.2,0.4-0.4,0.7
	c-0.1,0.2-0.1,0.4-0.2,0.7c-0.1,0.2-0.1,0.4-0.1,0.7s-0.1,0.5-0.1,0.8c0,0.1,0,0.2,0,0.4v288.6l0,0c0,1.8,0.9,3.7,2.5,5.1
	c0.2,0.2,0.6,0.4,0.9,0.5c0.1,0.1,0.2,0.1,0.2,0.2c0.2,0.1,0.5,0.2,0.6,0.3c0.2,0.1,0.5,0.2,0.7,0.3c0.1,0.1,0.4,0.1,0.5,0.1
	c0.2,0.1,0.6,0.2,0.9,0.2c0.5,0.1,1,0.1,1.5,0.1h450.1c0.5,0,1,0,1.5-0.1c0.4,0,0.6-0.1,0.9-0.2C483.8,407,483.9,407,484.1,406.9z
	 M39,127.7l150,118.7L39,383V127.7z M306.3,240.9c-0.1,0.1-0.1,0.1-0.2,0.2l-0.1,0.1l-50,39.5l-50-39.6l0,0l0,0L51.9,118.9h408.4
	L306.3,240.9z M200.9,255.8l49.8,39.5c1.5,1.2,3.4,1.8,5.3,1.8s3.8-0.7,5.3-1.8l49.8-39.5l151,137.6H49.9L200.9,255.8z M323.2,246.4
	l149.9-118.8V383L323.2,246.4z"/>
<path class="st0" d="M362.4,487H18.2c-3.6,0-6.5,2.9-6.5,6.5s2.9,6.5,6.5,6.5h344.2c3.6,0,6.5-2.9,6.5-6.5S366,487,362.4,487z"/>
<path class="st0" d="M121.2,27h374.2c3.6,0,6.5-2.9,6.5-6.5S499,14,495.4,14H121.2c-3.6,0-6.5,2.9-6.5,6.5S117.6,27,121.2,27z"/>
</svg>
