<?xml version="1.0" encoding="utf-8"?>
<!-- Generator: Adobe Illustrator 22.0.1, SVG Export Plug-In . SVG Version: 6.00 Build 0)  -->
<svg version="1.1" id="Capa_1" xmlns="http://www.w3.org/2000/svg" xmlns:xlink="http://www.w3.org/1999/xlink" x="0px" y="0px"
	 viewBox="0 0 512 512" style="enable-background:new 0 0 512 512;" xml:space="preserve">
<style type="text/css">
	.st0{fill:#001E35;stroke:#FFFFFF;stroke-width:3;stroke-miterlimit:10;}
	.st1{fill:#F12300;}
	.st2{fill:#001E35;}
</style>
<g>
	<g>
		<path class="st0" d="M457.3,389c5.5-7.6,8.7-16.9,8.7-26.9V302c0-5.5-4.5-10-10-10h-44.7c-20.7,0-37.5,16.8-37.5,37.5v32.6
			c0,10,3.2,19.3,8.7,26.9c-6.8,1.1-13.4,3.3-19.5,6.5c-13.9-20.7-36.7-35-62.8-37.4c-0.1,0-0.2,0-0.3-0.1
			c9.4-10.5,15.1-24.2,15.1-39.3V237c0-5.5-4.5-10-10-10h-60.7c-26.1,0-47.3,21.2-47.3,47.3v44.3c0,15.1,5.7,28.9,15.1,39.3
			c-0.1,0-0.2,0-0.3,0.1c-26.2,2.4-48.9,16.7-62.8,37.4c-6.1-3.2-12.7-5.4-19.5-6.5c5.5-7.6,8.7-16.9,8.7-26.9v-60
			c0-5.5-4.5-10-10-10H83.4c-20.7,0-37.5,16.8-37.5,37.5v32.6c0,10.1,3.2,19.4,8.7,26.9C23.7,394.1,0,421,0,453.4V501
			c0,5.5,4.5,10,10,10h492c5.5,0,10-4.5,10-10v-47.6C512,421,488.3,394.1,457.3,389z M65.9,329.5c0-9.6,7.8-17.5,17.5-17.5h34.7
			v12.2c0,6-4.9,10.8-10.8,10.8H65.9V329.5z M65.9,355h41.3c3.8,0,7.5-0.7,10.8-2v9.1c0,14.4-11.7,26.1-26.1,26.1
			s-26.1-11.7-26.1-26.1L65.9,355L65.9,355z M98.4,408.2l-6.4,6.4l-6.4-6.4H98.4z M134.6,442.7V491H20v-37.6
			c0-22.4,16.4-41.1,37.9-44.6L85,435.9c1.9,1.9,4.4,2.9,7.1,2.9s5.2-1.1,7.1-2.9l27.1-27.1c4.8,0.8,9.4,2.3,13.7,4.6
			C136.4,422.5,134.6,432.4,134.6,442.7z M256,357.7c-21.5,0-39-17.5-39-39v-13.2h59.8c6.6,0,12.9-1.7,18.3-4.7v17.9
			C295,340.2,277.5,357.7,256,357.7z M273.4,377.7L256,395.1l-17.4-17.4H273.4z M217,274.3L217,274.3c0-15.1,12.3-27.3,27.3-27.3
			H295v20.1c0,10.1-8.2,18.3-18.3,18.3H217V274.3L217,274.3z M357.4,491H338H174h-19.4v-38h65.1c5.5,0,10-4.5,10-10s-4.5-10-10-10
			h-64.4c4.3-28.4,27-50.9,55.6-54.7l38,38c2,2,4.5,2.9,7.1,2.9s5.1-1,7.1-2.9l38-38c31.8,4.3,56.3,31.5,56.3,64.4L357.4,491
			L357.4,491z M393.9,329.5c0-9.6,7.8-17.5,17.5-17.5h34.7v12.2c0,6-4.9,10.8-10.8,10.8H394v-5.5H393.9z M393.9,355h41.3
			c3.8,0,7.5-0.7,10.8-2v9.1c0,14.4-11.7,26.1-26.1,26.1s-26.1-11.7-26.1-26.1L393.9,355L393.9,355z M426.4,408.2l-6.4,6.4l-6.4-6.4
			H426.4z M377.4,491v-48.3c0-10.3-1.9-20.2-5.2-29.4c4.3-2.3,8.9-3.8,13.7-4.6l27.1,27.1c1.9,1.9,4.4,2.9,7.1,2.9s5.2-1.1,7.1-2.9
			l27.1-27.1c21.5,3.5,37.9,22.2,37.9,44.6V491H377.4z"/>
	</g>
</g>
<g>
	<g>
		<path class="st1" d="M263.1,435.9c-1.9-1.9-4.4-2.9-7.1-2.9s-5.2,1.1-7.1,2.9s-2.9,4.4-2.9,7.1s1.1,5.2,2.9,7.1
			c1.9,1.9,4.4,2.9,7.1,2.9s5.2-1.1,7.1-2.9c1.9-1.9,2.9-4.4,2.9-7.1S264.9,437.8,263.1,435.9z"/>
	</g>
</g>
<path class="st1" d="M256,3.3c-52.8,0-95.6,42.8-95.6,95.5s42.8,95.6,95.6,95.6s95.6-42.8,95.6-95.5C351.4,46.1,308.7,3.4,256,3.3z
	 M256,177c-43.2,0-78.1-35-78.1-78.1s35-78.1,78.1-78.1s78.1,35,78.1,78.1C334.1,141.9,299.1,177,256,177z"/>
<path class="st2" d="M308.4,91.9h-45.5V46.5c0-3.8-3.1-6.9-6.9-6.9s-6.9,3.1-6.9,6.9v45.4h-45.4c-3.8,0-6.9,3.1-6.9,6.9
	s3.1,6.9,6.9,6.9h45.4v45.4c0,3.8,3.1,6.9,6.9,6.9s6.9-3.1,6.9-6.9v-45.4h45.4c3.8,0,6.9-3.1,6.9-6.9
	C315.2,95,312.2,91.9,308.4,91.9z"/>
</svg>
