<?xml version="1.0" encoding="utf-8"?>
<!-- Generator: Adobe Illustrator 21.1.0, SVG Export Plug-In . SVG Version: 6.00 Build 0)  -->
<svg version="1.1" id="Capa_1" xmlns="http://www.w3.org/2000/svg" xmlns:xlink="http://www.w3.org/1999/xlink" x="0px" y="0px"
	 viewBox="0 0 480 480" style="enable-background:new 0 0 480 480;" xml:space="preserve">
<style type="text/css">
	.st0{fill:#B1B1B1;}
</style>
<g>
	<g>
		<path class="st0" d="M240,0c-26.5,0-48,21.5-48,48s21.5,48,48,48c26.5,0,48-21.5,48-48C288,21.5,266.5,0,240,0z M240,80
			c-17.7,0-32-14.3-32-32s14.3-32,32-32s32,14.3,32,32S257.7,80,240,80z"/>
	</g>
</g>
<g>
	<g>
		<path class="st0" d="M272,104h-1.9l-1.7,0.8c-17.9,8.9-38.9,8.9-56.8,0l-1.7-0.8H208c-22.1,0-40,17.9-40,40v48
			c0,13.3,10.7,24,24,24h96c13.3,0,24-10.7,24-24v-48C312,121.9,294.1,104,272,104z M296,192c0,4.4-3.6,8-8,8h-96c-4.4,0-8-3.6-8-8
			v-48c0-12.6,9.7-23,22.3-23.9c21.4,9.9,46,9.9,67.4,0C286.3,121,296,131.4,296,144V192z"/>
	</g>
</g>
<g>
	<g>
		<path class="st0" d="M408,264c-26.5,0-48,21.5-48,48s21.5,48,48,48s48-21.5,48-48C456,285.5,434.5,264,408,264z M408,344
			c-17.7,0-32-14.3-32-32s14.3-32,32-32s32,14.3,32,32S425.7,344,408,344z"/>
	</g>
</g>
<g>
	<g>
		<path class="st0" d="M440,368h-1.9l-1.7,0.8c-17.9,8.9-38.9,8.9-56.8,0l-1.7-0.8H376c-22.1,0-40,17.9-40,40v48
			c0,13.3,10.7,24,24,24h96c13.3,0,24-10.7,24-24v-48C480,385.9,462.1,368,440,368z M464,456c0,4.4-3.6,8-8,8h-96c-4.4,0-8-3.6-8-8
			v-48c0-12.6,9.7-23,22.3-23.9c21.4,9.9,46,9.9,67.4,0C454.3,385,464,395.4,464,408V456z"/>
	</g>
</g>
<g>
	<g>
		<path class="st0" d="M72,264c-26.5,0-48,21.5-48,48s21.5,48,48,48s48-21.5,48-48C120,285.5,98.5,264,72,264z M72,344
			c-17.7,0-32-14.3-32-32s14.3-32,32-32s32,14.3,32,32S89.7,344,72,344z"/>
	</g>
</g>
<g>
	<g>
		<path class="st0" d="M104,368h-1.9l-1.7,0.8c-17.9,8.9-38.9,8.9-56.8,0l-1.7-0.8H40c-22.1,0-40,17.9-40,40v48
			c0,13.3,10.7,24,24,24h96c13.3,0,24-10.7,24-24v-48C144,385.9,126.1,368,104,368z M128,456c0,4.4-3.6,8-8,8H24c-4.4,0-8-3.6-8-8
			v-48c0-12.6,9.7-23,22.3-23.9c21.4,9.9,46,9.9,67.4,0C118.3,385,128,395.4,128,408V456z"/>
	</g>
</g>
<g>
	<g>
		<path class="st0" d="M305.5,408.7C305.5,408.7,305.5,408.7,305.5,408.7c-1.4-3.4-5.3-4.9-8.7-3.5l0,0
			c-29.8,12.5-62.9,14.8-94.1,6.5l6.2-1.8c3.5-1,5.5-4.7,4.5-8.2c-1-3.5-4.7-5.5-8.2-4.5l-26.4,7.7c-0.1,0-0.2,0.1-0.3,0.1
			c-0.6,0.2-1.2,0.5-1.7,0.9c-0.2,0.1-0.4,0.3-0.7,0.4c-0.7,0.6-1.2,1.4-1.6,2.2c-0.4,0.9-0.5,1.8-0.5,2.7c0.2,0.9,0.4,1.8,0.7,2.6
			c0,0.1,0,0.2,0.1,0.3l13.2,25.3c1.7,3.2,5.7,4.5,8.9,2.8c3.2-1.7,4.5-5.7,2.8-8.9l-5.4-10.3c35.5,10.7,73.6,8.6,107.7-5.9
			C305.3,415.9,306.9,412,305.5,408.7z"/>
	</g>
</g>
<g>
	<g>
		<path class="st0" d="M438.3,190.9c-2.3-2.3-6-2.3-8.3,0l-8.3,8.3c-4.9-51.6-37.7-96.4-85.4-116.7c-3-1.3-6.5,0.1-7.7,3.1
			c-1.3,3,0.1,6.5,3.1,7.7c42.8,18.2,72.6,58,78,104.2l-6.6-6.6c-2.3-2.3-6.1-2.2-8.3,0.1c-2.2,2.3-2.2,5.9,0,8.2l17.7,17.7
			c2.3,2.3,6,2.3,8.3,0c0,0,0,0,0,0l17.7-17.7C440.6,196.9,440.6,193.2,438.3,190.9z"/>
	</g>
</g>
<g>
	<g>
		<path class="st0" d="M149.8,94c0-0.4-0.1-0.7-0.2-1c0-0.1-0.1-0.1-0.1-0.1c0-0.1,0-0.1,0-0.1c-0.2-0.3-0.4-0.6-0.6-0.8
			c-0.2-0.4-0.4-0.7-0.7-1c-0.4-0.3-0.7-0.6-1.2-0.8c-0.2-0.2-0.4-0.3-0.7-0.5l-24-11c-3.1-1.3-6.6,0.2-7.8,3.3
			c-1.2,2.9,0.1,6.2,2.8,7.6l12.4,5.7C83.2,120.2,54,169,54,222c0,3.3,2.7,6,6,6c3.3,0,6-2.7,6-6c0-46.7,24.7-90,64.9-113.7
			l-4.3,9.1c-1.4,3-0.2,6.6,2.8,8c0.8,0.4,1.7,0.6,2.6,0.6c2.3,0,4.4-1.3,5.4-3.4l12-25c0-0.1,0-0.1,0-0.2c0.2-0.4,0.3-0.8,0.3-1.3
			c0.1-0.3,0.2-0.7,0.2-1C150,94.7,149.9,94.4,149.8,94z"/>
	</g>
</g>
</svg>
