<?xml version="1.0" encoding="utf-8"?>
<!-- Generator: Adobe Illustrator 21.1.0, SVG Export Plug-In . SVG Version: 6.00 Build 0)  -->
<svg version="1.1" id="Capa_1" xmlns="http://www.w3.org/2000/svg" xmlns:xlink="http://www.w3.org/1999/xlink" x="0px" y="0px"
	 viewBox="0 0 28.4 28.4" style="enable-background:new 0 0 28.4 28.4;" xml:space="preserve">
<style type="text/css">
	.st0{fill:#FFFFFF;}
</style>
<g>
	<g id="c115_arrows">
		<path class="st0" d="M28.4,19.6c0-0.9-0.7-1.6-1.5-1.6c-0.8,0-1.5,0.7-1.5,1.6v3.3l-6-6c-0.6-0.6-1.5-0.6-2.1,0
			c-0.6,0.6-0.6,1.5,0,2.1l6,6H20c-0.9,0-1.6,0.7-1.6,1.5c0,0.8,0.7,1.5,1.6,1.5h6.8c0.9,0,1.6-0.7,1.6-1.5c0,0,0,0,0-0.1
			c0,0,0-0.1,0-0.1L28.4,19.6C28.4,19.6,28.4,19.6,28.4,19.6z"/>
		<path class="st0" d="M9,16.8l-6,6v-3.3C3,18.7,2.3,18,1.5,18C0.7,18,0,18.7,0,19.6l0,6.7c0,0,0,0.1,0,0.1c0,0,0,0,0,0.1
			c0,0.8,0.7,1.5,1.6,1.5h6.8c0.9,0,1.6-0.7,1.6-1.5c0-0.8-0.7-1.5-1.6-1.5H5.1l6-6c0.6-0.6,0.6-1.5,0-2.1
			C10.5,16.2,9.6,16.2,9,16.8z"/>
		<path class="st0" d="M19.4,11.5l6-6v3.3c0,0.9,0.7,1.6,1.5,1.6c0.8,0,1.5-0.7,1.5-1.6V2.1c0,0,0-0.1,0-0.1c0,0,0,0,0-0.1
			c0-0.8-0.7-1.5-1.6-1.5H20c-0.9,0-1.6,0.7-1.6,1.5c0,0.8,0.7,1.5,1.6,1.5h3.2l-6,6c-0.6,0.6-0.6,1.5,0,2.1
			C17.8,12.1,18.8,12.1,19.4,11.5z"/>
		<path class="st0" d="M5.1,3.4h3.2c0.9,0,1.6-0.7,1.6-1.5c0-0.8-0.7-1.5-1.6-1.5H1.6C0.7,0.5,0,1.1,0,1.9C0,2,0,2,0,2
			c0,0,0,0.1,0,0.1l0,6.7c0,0.9,0.7,1.6,1.5,1.6C2.3,10.3,3,9.6,3,8.8V5.5l6,6c0.6,0.6,1.5,0.6,2.1,0c0.6-0.6,0.6-1.5,0-2.1L5.1,3.4
			z"/>
	</g>
	<g id="Capa_1_253_">
	</g>
</g>
</svg>
