<?xml version="1.0" encoding="utf-8"?>
<!-- Generator: Adobe Illustrator 21.1.0, SVG Export Plug-In . SVG Version: 6.00 Build 0)  -->
<svg version="1.1" id="Layer_1" xmlns="http://www.w3.org/2000/svg" xmlns:xlink="http://www.w3.org/1999/xlink" x="0px" y="0px"
	 viewBox="0 0 24 24" style="enable-background:new 0 0 24 24;" xml:space="preserve">
<style type="text/css">
	.st0{fill:#FFFFFF;}
</style>
<path class="st0" d="M20.1,0.2H3.9C2.3,0.2,1,1.5,1,3.1v13.3c0,1.6,1.3,2.9,2.9,2.9h16.3c1.6,0,2.9-1.3,2.9-2.9V3.1
	C22.9,1.5,21.7,0.2,20.1,0.2z M2.9,17.7V6.9 M21.1,16.4c0,0.5-0.5,0.9-0.9,0.9H3.9c-0.5,0-0.9-0.5-0.9-0.9V3.1
	c0-0.5,0.5-0.9,0.9-0.9h16.3c0.5,0,0.9,0.5,0.9,0.9V16.4z"/>
<path class="st0" d="M21.7,21.6H2.3c-0.7,0-1.2,0.5-1.2,1.2S1.6,24,2.3,24h19.5c0.7,0,1.2-0.5,1.2-1.2
	C22.9,22.1,22.4,21.6,21.7,21.6z"/>
<g>
	<rect x="5.2" y="4.8" class="st0" width="4.6" height="4.6"/>
	<rect x="9.8" y="9.2" class="st0" width="4.6" height="4.6"/>
	<rect x="14.2" y="4.8" class="st0" width="4.6" height="4.6"/>
</g>
</svg>
