<?xml version="1.0" encoding="utf-8"?>
<!-- Generator: Adobe Illustrator 22.0.1, SVG Export Plug-In . SVG Version: 6.00 Build 0)  -->
<svg version="1.1" id="Layer_1" xmlns="http://www.w3.org/2000/svg" xmlns:xlink="http://www.w3.org/1999/xlink" x="0px" y="0px"
	 viewBox="0 0 50 50" style="enable-background:new 0 0 50 50;" xml:space="preserve">
<style type="text/css">
	.st0{fill:#282828;}
	.st1{fill:#0038BA;}
</style>
<g>
	<g>
		<path class="st0" d="M11.2,33H4.4c-0.4,0-0.6,0.3-0.6,0.6v13.5c0,0.4,0.3,0.6,0.6,0.6h6.8c0.3,0,0.6-0.3,0.6-0.6V33.7
			C11.8,33.3,11.5,33,11.2,33z M10.5,46.6H5V34.3h5.5V46.6z"/>
		<path class="st0" d="M45.6,19.5h-6.8c-0.3,0-0.6,0.3-0.6,0.6v27.1c0,0.4,0.3,0.6,0.6,0.6h6.8c0.3,0,0.6-0.3,0.6-0.6V20.1
			C46.3,19.8,46,19.5,45.6,19.5z M45,46.6h-5.5V20.8H45V46.6z"/>
		<path class="st0" d="M34.2,33h-6.8c-0.3,0-0.6,0.3-0.6,0.6v13.5c0,0.4,0.3,0.6,0.6,0.6h6.8c0.3,0,0.6-0.3,0.6-0.6V33.7
			C34.8,33.3,34.5,33,34.2,33z M33.5,46.6H28V34.3h5.5V46.6z"/>
		<path class="st0" d="M22.7,19.5h-6.8c-0.3,0-0.6,0.3-0.6,0.6v27.1c0,0.4,0.3,0.6,0.6,0.6h6.8c0.3,0,0.6-0.3,0.6-0.6V20.1
			C23.3,19.8,23,19.5,22.7,19.5z M22,46.6h-5.5V20.8H22V46.6z"/>
	</g>
	<path class="st1" d="M45.6,0.1c-1.5,0-2.6,1.2-2.6,2.6c0,0.5,0.1,0.9,0.4,1.4l-11,10.8c-0.4-0.3-1-0.5-1.6-0.5
		c-0.7,0-1.2,0.2-1.7,0.6l-7.3-7.2c0.1-0.3,0.2-0.7,0.2-1c0-1.5-1.2-2.6-2.6-2.6c-1.5,0-2.6,1.2-2.6,2.6c0,0.3,0.1,0.7,0.2,0.9
		L5.8,18.4C5.4,18.1,4.9,18,4.4,18c-1.5,0-2.7,1.2-2.7,2.7c0,1.5,1.2,2.6,2.7,2.6c1.4,0,2.6-1.2,2.6-2.6c0-0.5-0.2-1-0.4-1.4
		L17.4,8.7c0.5,0.4,1.1,0.7,1.7,0.7c0.6,0,1.2-0.2,1.7-0.6l7.4,7.2c-0.1,0.3-0.2,0.6-0.2,1c0,1.5,1.2,2.6,2.6,2.6
		c1.5,0,2.6-1.2,2.6-2.6c0-0.4-0.1-0.8-0.2-1.1L44.2,5c0.4,0.2,0.9,0.4,1.4,0.4c1.5,0,2.6-1.2,2.6-2.7C48.2,1.2,47,0.1,45.6,0.1z"/>
	<rect x="1.2" y="49.1" class="st0" width="47.7" height="0.8"/>
</g>
</svg>
