<?xml version="1.0" encoding="iso-8859-1"?>
<!-- Generator: Adobe Illustrator 19.0.0, SVG Export Plug-In . SVG Version: 6.00 Build 0)  -->
<svg xmlns="http://www.w3.org/2000/svg" xmlns:xlink="http://www.w3.org/1999/xlink" version="1.1" id="Capa_1" x="0px" y="0px" viewBox="0 0 512 512" style="enable-background:new 0 0 512 512;" xml:space="preserve" width="512px" height="512px">
<g>
	<g>
		<path d="M506.125,302.427c-0.8-4.832-3.452-9.066-7.468-11.925l-38.358-27.303L303.271,152.65l-42.551-0.625l-82.06,40.981    c-33.715,16.84-74.932,3.24-91.877-30.312c-5.522-10.934-7.989-23.162-7.13-35.349c0.364-5.158,3.39-9.759,7.915-12.261    l25.181-13.927L90.134,86.678c-8.535-5.464-19.896-2.818-25.139,5.855L4.902,191.947c-5.061,8.373-2.517,19.256,5.733,24.516    c9.301-9.526,21.873-15.142,35.67-15.588c9.327-0.301,18.622,1.968,26.753,6.548c9.43,5.312,16.69,13.075,21.254,22.272    c7.377-5.406,16.123-8.792,25.544-9.742c11.288-1.139,22.731,1.482,32.382,7.447c11.008,6.804,18.475,16.893,22.132,28.094    c3.22-1.136,6.575-1.964,10.032-2.459c15.199-2.178,30.329,2.333,41.983,12.661c7.872,6.976,13.457,16.265,15.909,26.494    c3.489,14.556,0.732,29.386-7.493,41.486c8.95,2.032,17.335,6.436,24.347,13.069c7.462,7.06,12.653,16.268,14.865,26.3    c3.319,15.055-0.011,30.334-9.139,42.515l-1.374,1.834l55.345,39.395c8.333,5.932,19.958,4.026,25.915-4.248    c5.675-7.883,4.149-18.757-3.446-24.845l-29.05-20.653c-6.947-4.939-8.575-14.574-3.636-21.521    c4.94-6.947,14.574-8.575,21.522-3.636l49.237,35.004c8.316,5.735,19.779,3.802,25.681-4.397    c5.844-8.118,3.989-19.517-4.134-25.417l-54.327-38.623c-6.774-4.816-8.902-14.165-4.41-21.158    c4.795-7.465,14.79-9.335,21.939-4.254l54.796,38.956c0.001,0,0.001,0.001,0.001,0.001l0.154,0.11l5.475,3.893    c8.329,5.877,19.908,3.963,25.848-4.291c5.841-8.113,3.988-19.508-4.127-25.411l-70.841-50.363    c-6.947-4.939-8.575-14.575-3.636-21.522c4.94-6.947,14.575-8.576,21.522-3.636l70.956,50.445    c0.002,0.001,0.003,0.002,0.005,0.003l0.365,0.26l12.516,8.898c8.323,5.802,19.841,3.876,25.76-4.347    C505.787,312.069,506.921,307.235,506.125,302.427z" fill="#FFFFFF"/>
	</g>
</g>
<g>
	<g>
		<path d="M509.399,186.071L438.382,68.584c-4.682-7.746-14.383-10.817-22.67-7.177l-42.064,18.479    c-3.34,1.468-7.092,1.704-10.591,0.668L265.84,51.76l-155.083,85.77c0.581,3.894,1.785,7.693,3.579,11.246    c9.307,18.428,31.975,25.879,50.534,16.613l85.423-42.661c2.142-1.07,4.503-1.626,6.895-1.626c0.076,0,0.151,0.001,0.227,0.002    l51.073,0.751c3.103,0.046,6.12,1.026,8.657,2.812L469.67,232.049l33.927-21.418C511.897,205.391,514.477,194.471,509.399,186.071    z" fill="#FFFFFF"/>
	</g>
</g>
<g>
	<g>
		<path d="M244.178,381.39c-0.8-5.585-3.727-10.524-8.241-13.907c-3.693-2.768-8.088-4.223-12.622-4.223    c-1.008,0-2.024,0.072-3.04,0.218c-5.585,0.8-10.524,3.727-13.907,8.241l-26.63,35.535c-3.383,4.515-4.805,10.077-4.006,15.661    c0.799,5.584,3.727,10.524,8.241,13.907h0.001c9.319,6.983,22.584,5.084,29.569-4.236l26.629-35.535    C243.555,392.536,244.977,386.974,244.178,381.39z" fill="#FFFFFF"/>
	</g>
</g>
<g>
	<g>
		<path d="M212.682,301.505c-0.8-5.585-3.727-10.524-8.241-13.907c-3.694-2.768-8.088-4.223-12.622-4.223    c-1.008,0-2.024,0.072-3.04,0.218c-5.585,0.8-10.524,3.727-13.907,8.241l-8.265,11.029c-0.001,0.001-0.002,0.003-0.003,0.004    l-45.371,60.544c-3.383,4.515-4.806,10.077-4.006,15.661c0.8,5.585,3.727,10.524,8.241,13.907    c4.515,3.383,10.079,4.807,15.662,4.006c5.585-0.8,10.524-3.727,13.907-8.241l53.639-71.578    C212.059,312.651,213.482,307.089,212.682,301.505z" fill="#FFFFFF"/>
	</g>
</g>
<g>
	<g>
		<path d="M137.667,254.789c-3.694-2.768-8.088-4.224-12.622-4.224c-1.008,0-2.023,0.072-3.039,0.218    c-5.585,0.8-10.523,3.727-13.907,8.242l-45.371,60.544c-3.383,4.515-4.806,10.077-4.006,15.661    c0.8,5.585,3.727,10.524,8.241,13.907c4.516,3.382,10.077,4.806,15.662,4.005c5.585-0.8,10.524-3.727,13.907-8.241l45.371-60.544    C148.887,275.037,146.987,261.773,137.667,254.789z" fill="#FFFFFF"/>
	</g>
</g>
<g>
	<g>
		<path d="M68.663,249.862c-0.799-5.584-3.727-10.524-8.241-13.907c-3.693-2.768-8.088-4.223-12.622-4.223    c-1.008,0-2.024,0.072-3.04,0.218c-5.585,0.8-10.524,3.727-13.907,8.241l-26.63,35.535c-3.383,4.515-4.805,10.077-4.006,15.661    c0.8,5.585,3.727,10.524,8.241,13.907c4.515,3.382,10.078,4.806,15.662,4.005c5.585-0.8,10.524-3.727,13.907-8.241l26.63-35.535    C68.04,261.008,69.462,255.446,68.663,249.862z" fill="#FFFFFF"/>
	</g>
</g>
<g>
</g>
<g>
</g>
<g>
</g>
<g>
</g>
<g>
</g>
<g>
</g>
<g>
</g>
<g>
</g>
<g>
</g>
<g>
</g>
<g>
</g>
<g>
</g>
<g>
</g>
<g>
</g>
<g>
</g>
</svg>
