<?xml version="1.0" encoding="utf-8"?>
<!-- Generator: Adobe Illustrator 21.1.0, SVG Export Plug-In . SVG Version: 6.00 Build 0)  -->
<svg version="1.1" id="Layer_1" xmlns="http://www.w3.org/2000/svg" xmlns:xlink="http://www.w3.org/1999/xlink" x="0px" y="0px"
	 viewBox="0 0 100 100" style="enable-background:new 0 0 100 100;" xml:space="preserve">
<style type="text/css">
	.st0{fill:#FFFFFF;}
</style>
<g>
	<g>
		<path class="st0" d="M71.1,85.3H28.9c-3.2,0-5.7-2.5-5.7-5.7V20.4c0-3.2,2.5-5.7,5.7-5.7h42.2c3.2,0,5.7,2.5,5.7,5.7v59.3
			C76.8,82.8,74.3,85.3,71.1,85.3z M28.9,16.9c-1.9,0-3.4,1.5-3.4,3.4v59.3c0,1.9,1.5,3.4,3.4,3.4h42.2c1.9,0,3.4-1.5,3.4-3.4V20.4
			c0-1.9-1.5-3.4-3.4-3.4H28.9z"/>
	</g>
	<g>
		<path class="st0" d="M62.2,24.9H37.8c-1.7,0-3.2-1.5-3.2-3.2v-5.9h2.3v5.9c0,0.5,0.5,0.9,0.9,0.9h24.4c0.5,0,0.9-0.5,0.9-0.9v-5.9
			h2.3v5.9C65.4,23.4,63.9,24.9,62.2,24.9z"/>
	</g>
	<g>
		<polygon class="st0" points="72.2,78.5 27.8,78.5 27.8,20.4 35.8,20.4 35.8,22.6 30.1,22.6 30.1,76.2 69.9,76.2 69.9,22.6 
			64.2,22.6 64.2,20.4 72.2,20.4 		"/>
	</g>
	<g>
		<rect x="32.3" y="31.8" class="st0" width="35.3" height="2.3"/>
	</g>
	<g>
		<rect x="32.3" y="40.9" class="st0" width="27.4" height="2.3"/>
	</g>
	<g>
		<rect x="32.3" y="36.3" class="st0" width="31.9" height="2.3"/>
	</g>
	<g>
		<rect x="32.3" y="45.4" class="st0" width="31.9" height="2.3"/>
	</g>
	<g>
		<rect x="32.3" y="50" class="st0" width="35.3" height="2.3"/>
	</g>
	<g>
		<rect x="32.3" y="59.1" class="st0" width="27.4" height="2.3"/>
	</g>
	<g>
		<rect x="32.3" y="54.6" class="st0" width="31.9" height="2.3"/>
	</g>
	<g>
		<rect x="32.3" y="63.7" class="st0" width="31.9" height="2.3"/>
	</g>
</g>
</svg>
