<?xml version="1.0" encoding="utf-8"?>
<!-- Generator: Adobe Illustrator 21.1.0, SVG Export Plug-In . SVG Version: 6.00 Build 0)  -->
<svg version="1.1" id="Layer_1" xmlns="http://www.w3.org/2000/svg" xmlns:xlink="http://www.w3.org/1999/xlink" x="0px" y="0px"
	 viewBox="0 0 512 512" style="enable-background:new 0 0 512 512;" xml:space="preserve">
<style type="text/css">
	.st0{fill:#FFFFFF;}
</style>
<g>
	<path class="st0" d="M376.9,133.1V15c0-8.3-6.7-15-15-15H260.7v114c0,10.8-11.5,19.1-22.7,12.9l-49-24.8l-50,25.3
		c-10.1,5.1-21.7-2.4-21.7-13.4l0-114H16C7.7,0,1,6.7,1,15v345.9c0,8.3,6.7,15,15,15h195.5c-9.2-24.3-14.7-48.4-14.7-69.9
		C196.9,207.8,278.5,129.2,376.9,133.1z"/>
	<path class="st0" d="M195.7,72l35,17.7V0h-83.4v89.7L182.2,72C186.3,69.9,191.3,69.8,195.7,72z"/>
	<path class="st0" d="M369.9,163c-79,0-143,64-143,143c0,37.7,21.4,87.5,48.6,128.2c29.3,43.7,66.8,77.8,94.4,77.8
		s65.1-34.1,94.4-77.8c27.3-40.7,48.6-90.5,48.6-128.2C512.9,227,448.9,163,369.9,163z M369.9,361c-30.4,0-55-24.6-55-55
		c0-30.4,24.6-55,55-55s55,24.6,55,55C424.9,336.4,400.3,361,369.9,361z"/>
	<path class="st0" d="M394.9,306c0,13.8-11.2,25.1-25.1,25.1c-13.8,0-25-11.2-25-25.1c0-13.8,11.2-25,25-25
		C383.7,280.9,394.9,292.2,394.9,306z"/>
</g>
</svg>
