<?xml version="1.0" encoding="utf-8"?>
<!-- Generator: Adobe Illustrator 21.1.0, SVG Export Plug-In . SVG Version: 6.00 Build 0)  -->
<svg version="1.1" id="Layer_1" xmlns="http://www.w3.org/2000/svg" xmlns:xlink="http://www.w3.org/1999/xlink" x="0px" y="0px"
	 viewBox="0 0 512 512" style="enable-background:new 0 0 512 512;" xml:space="preserve">
<style type="text/css">
	.st0{fill:#FFFFFF;}
</style>
<g>
	<path class="st0" d="M198,236h-16v32h-16v-32h-16c-17.7,0-32,14.3-32,32v48c0,17.7,14.3,32,32,32h48c17.7,0,32-14.3,32-32v-48
		C230,250.3,215.7,236,198,236z"/>
	<path class="st0" d="M362,236h-16v32h-16v-32h-16c-17.7,0-32,14.3-32,32v48c0,17.7,14.3,32,32,32h48c17.7,0,32-14.3,32-32v-48
		C394,250.3,379.7,236,362,236z"/>
	<path class="st0" d="M198,400h-16v32h-16v-32h-16c-17.7,0-32,14.3-32,32v48c0,17.7,14.3,32,32,32h48c17.7,0,32-14.3,32-32v-48
		C230,414.3,215.7,400,198,400z"/>
	<path class="st0" d="M362,400h-16v32h-16v-32h-16c-17.7,0-32,14.3-32,32v48c0,17.7,14.3,32,32,32h48c17.7,0,32-14.3,32-32v-48
		C394,414.3,379.7,400,362,400z"/>
	<path class="st0" d="M494.3,115.4l-224-112c-9-4.5-19.6-4.5-28.6,0l-224,112c-13.3,6.6-20.2,21.5-16.8,36C4.3,165.8,17,176,32,176
		v304c0,17.7,14.3,32,32,32s12-14.3,12-32V145h360v335c0,17.7-5.7,32,12,32c17.7,0,32-14.3,32-32V176c15,0,27.7-10.2,31.1-24.6
		C514.6,136.9,507.6,122,494.3,115.4L494.3,115.4z M192,111h-32V79h32V111z M288,111h-64V79h64V111z M352,111h-32V79h32V111z"/>
</g>
</svg>
