<?xml version="1.0" encoding="utf-8"?>
<!-- Generator: Adobe Illustrator 21.1.0, SVG Export Plug-In . SVG Version: 6.00 Build 0)  -->
<svg version="1.1" id="Layer_1" xmlns="http://www.w3.org/2000/svg" xmlns:xlink="http://www.w3.org/1999/xlink" x="0px" y="0px"
	 viewBox="0 0 512 512" style="enable-background:new 0 0 512 512;" xml:space="preserve">
<style type="text/css">
	.st0{fill:#FFFFFF;}
</style>
<path class="st0" d="M211,92c0,24.8,20.2,45,45,45s45-20.2,45-45s-20.2-45-45-45S211,67.2,211,92z"/>
<path class="st0" d="M256,167c-49.6,0-90,40.4-90,90v71h180v-71C346,207.4,305.6,167,256,167z"/>
<path class="st0" d="M136,122c0-24.8-20.2-45-45-45s-45,20.2-45,45s20.2,45,45,45S136,146.8,136,122z"/>
<path class="st0" d="M466,122c0-24.8-20.2-45-45-45s-45,20.2-45,45s20.2,45,45,45S466,146.8,466,122z"/>
<path class="st0" d="M421,197c-19.9,0-38.2,6.7-53.1,17.7c5,13.2,8.1,27.4,8.1,42.3v71h136v-41C512,237.3,470.7,197,421,197z"/>
<path class="st0" d="M0,287v41h136v-71c0-15,3.1-29.1,8.1-42.3c-14.9-11-33.2-17.7-53.1-17.7C41.3,197,0,237.3,0,287z"/>
<rect x="0.5" y="396" class="st0" width="511.5" height="76"/>
</svg>
