<?xml version="1.0" encoding="utf-8"?>
<!-- Generator: Adobe Illustrator 21.1.0, SVG Export Plug-In . SVG Version: 6.00 Build 0)  -->
<svg version="1.1" id="Capa_1" xmlns="http://www.w3.org/2000/svg" xmlns:xlink="http://www.w3.org/1999/xlink" x="0px" y="0px"
	 viewBox="0 0 512 512" style="enable-background:new 0 0 512 512;" xml:space="preserve">
<style type="text/css">
	.st0{fill:#FFFFFF;}
</style>
<g>
	<g>
		<path class="st0" d="M256,0C134.7,0,36,96.2,36,215.9c0,68.6,33,132.6,88.9,173.3V492c0,7.9,4.7,15.1,12,18.3
			c7.2,3.2,15.7,1.8,21.6-3.6l82.1-75.6c5.2,0.4,10.3,0.5,15.4,0.5c121.3,0,220-96.2,220-215.9C476,96.1,377.2,0,256,0z M256,391.7
			c-6.7,0-13.5-0.4-20.3-1.1c-5.7-0.6-11.5,1.3-15.7,5.2l-55.1,50.7v-67.7c0-6.7-3.4-13-9-16.7c-50-32.8-79.8-87.4-79.8-146.1
			C76,118.9,156.7,40,256,40s180,78.9,180,175.9C436,312.8,355.3,391.7,256,391.7z"/>
	</g>
</g>
<g>
	<g>
		<path class="st0" d="M266,98.9h-70c-11,0-20,9-20,20s9,20,20,20h70c16.5,0,30,13.5,30,30s-13.5,30-30,30h-20c-11,0-20,9-20,20
			v28.8c0,11,9,20,20,20c11,0,20-9,20-20v-8.8c38.6,0,70-31.4,70-70C336,130.3,304.6,98.9,266,98.9z"/>
	</g>
</g>
<g>
	<g>
		<circle class="st0" cx="246" cy="319.2" r="27"/>
	</g>
</g>
</svg>
