<?xml version="1.0" encoding="utf-8"?>
<!-- Generator: Adobe Illustrator 21.1.0, SVG Export Plug-In . SVG Version: 6.00 Build 0)  -->
<svg version="1.1" id="Layer_1" xmlns="http://www.w3.org/2000/svg" xmlns:xlink="http://www.w3.org/1999/xlink" x="0px" y="0px"
	 viewBox="0 0 100 100" style="enable-background:new 0 0 100 100;" xml:space="preserve">
<style type="text/css">
	.st0{fill:#FFFFFF;}
</style>
<g>
	<g>
		<path class="st0" d="M71.5,86.1H28.5c-3.3,0-5.8-2.6-5.8-5.8V19.7c0-3.3,2.6-5.8,5.8-5.8h43.1c3.3,0,5.8,2.6,5.8,5.8v60.5
			C77.3,83.5,74.8,86.1,71.5,86.1z M28.5,16.3c-2,0-3.5,1.5-3.5,3.5v60.5c0,2,1.5,3.5,3.5,3.5h43.1c2,0,3.5-1.5,3.5-3.5V19.7
			c0-2-1.5-3.5-3.5-3.5H28.5z"/>
	</g>
	<g>
		<path class="st0" d="M62.5,24.4H37.5c-1.7,0-3.3-1.5-3.3-3.3v-6.1h2.3v6.1c0,0.5,0.5,0.9,0.9,0.9h24.9c0.5,0,0.9-0.5,0.9-0.9v-6.1
			h2.3v6.1C65.7,22.9,64.2,24.4,62.5,24.4z"/>
	</g>
	<g>
		<polygon class="st0" points="72.7,79.1 27.3,79.1 27.3,19.7 35.5,19.7 35.5,22.1 29.6,22.1 29.6,76.8 70.4,76.8 70.4,22.1 
			64.5,22.1 64.5,19.7 72.7,19.7 		"/>
	</g>
	<g>
		<path class="st0" d="M44.8,34.9H32v-8.1h12.8V34.9z M34.3,32.5h8.1v-3.5h-8.1V32.5z"/>
	</g>
	<g>
		<rect x="32" y="40.7" class="st0" width="36.1" height="2.3"/>
	</g>
	<g>
		<rect x="32" y="50" class="st0" width="27.9" height="2.3"/>
	</g>
	<g>
		<rect x="32" y="45.3" class="st0" width="32.6" height="2.3"/>
	</g>
	<g>
		<rect x="32" y="54.7" class="st0" width="32.6" height="2.3"/>
	</g>
	<path class="st0" d="M65.7,72c0.4,0.4,0.4,0.9,0,1.3s-0.9,0.4-1.3,0l-4.3-4.3l-4.3,4.3c-0.4,0.4-0.9,0.4-1.3,0
		c-0.4-0.4-0.4-0.9,0-1.3l4.3-4.3l-4.3-4.3c-0.4-0.4-0.4-0.9,0-1.3c0.4-0.4,0.9-0.4,1.3,0l4.3,4.3l4.3-4.3c0.4-0.4,0.9-0.4,1.3,0
		s0.4,0.9,0,1.3l-4.3,4.3L65.7,72z"/>
</g>
</svg>
