<?xml version="1.0" encoding="utf-8"?>
<!-- Generator: Adobe Illustrator 21.1.0, SVG Export Plug-In . SVG Version: 6.00 Build 0)  -->
<svg version="1.1" id="Capa_1" xmlns="http://www.w3.org/2000/svg" xmlns:xlink="http://www.w3.org/1999/xlink" x="0px" y="0px"
	 viewBox="0 0 512 512" style="enable-background:new 0 0 512 512;" xml:space="preserve">
<style type="text/css">
	.st0{fill:#FFFFFF;}
</style>
<g>
	<g>
		<g>
			<path class="st0" d="M480.8,28.9H31.2C14,28.9,0,42.9,0,60.1v323.3c0,17.1,14,31.2,31.2,31.2h449.7c17.1,0,31.2-14.1,31.2-31.2
				V60.1C512,42.9,498,28.9,480.8,28.9z M488,375.5H24V57.6h464V375.5z"/>
			<polygon class="st0" points="198.3,429.3 139.5,489.1 373.4,489.1 314.5,429.3 			"/>
			<path class="st0" d="M117.6,330.5c14-3,22.9-16.8,19.9-30.8c-0.5-2.5-1.8-4.7-3-6.8c26.8-33.1,44.1-61.5,65.8-87.3
				c4.7,2,10,3.1,15.4,1.9c4.5-1,8.2-3.3,11.4-6.2c19.9,10.6,53.6,28.7,77.6,41.6c0,1.5-0.3,3,0.1,4.5c3,14,16.9,22.9,30.9,19.9
				c14-3,22.9-16.8,19.9-30.8c-0.5-2.5-1.8-4.6-2.9-6.7l42.8-63.4c3.9,1.1,8,1.6,12.3,0.6c14-3,22.9-16.8,19.9-30.8
				s-16.8-22.9-30.8-19.9c-14,3-22.9,16.8-19.8,30.8c0.7,3.3,2.1,6.4,3.9,9c-14.8,20.5-27.5,42.1-41.7,61.9
				c-4.5-1.7-9.3-2.6-14.4-1.5c-6,1.3-10.7,4.8-14.3,9.2c-19.8-10.6-51.9-27.8-74.7-40c0.4-2.9,0.5-6-0.1-9.1
				c-3-14-16.8-22.9-30.8-19.9c-14,3-22.9,16.8-19.9,30.8c0.7,3.1,2,5.8,3.6,8.3l-66.8,85.7c-4.7-1.9-9.8-2.9-15.1-1.8
				c-14,3-22.9,16.8-19.9,30.8C89.8,324.7,103.6,333.6,117.6,330.5z"/>
		</g>
	</g>
</g>
</svg>
