<?xml version="1.0" encoding="utf-8"?>
<!-- Generator: Adobe Illustrator 21.1.0, SVG Export Plug-In . SVG Version: 6.00 Build 0)  -->
<svg version="1.1" id="Layer_1" xmlns="http://www.w3.org/2000/svg" xmlns:xlink="http://www.w3.org/1999/xlink" x="0px" y="0px"
	 viewBox="0 0 100 100" style="enable-background:new 0 0 100 100;" xml:space="preserve">
<style type="text/css">
	.st0{fill:#FFFFFF;}
</style>
<g>
	<g>
		<g>
			<path class="st0" d="M73.6,86.1h-43c-3.3,0-5.8-2.6-5.8-5.8V58.1H27v22.1c0,2,1.5,3.5,3.5,3.5h43c2,0,3.5-1.5,3.5-3.5V19.8
				c0-2-1.5-3.5-3.5-3.5h-43c-2,0-3.5,1.5-3.5,3.5v19.8h-2.3V19.8c0-3.3,2.6-5.8,5.8-5.8h43c3.3,0,5.8,2.6,5.8,5.8v60.5
				C79.4,83.5,76.8,86.1,73.6,86.1z"/>
		</g>
		<g>
			<path class="st0" d="M64.5,24.4H39.6c-1.7,0-3.3-1.5-3.3-3.3v-6h2.3v6c0,0.5,0.5,0.9,0.9,0.9h24.9c0.5,0,0.9-0.5,0.9-0.9v-6h2.3
				v6C67.7,22.9,66.2,24.4,64.5,24.4z"/>
		</g>
		<g>
			<polygon class="st0" points="74.7,79.1 29.3,79.1 29.3,62.8 31.7,62.8 31.7,76.8 72.4,76.8 72.4,22.1 66.6,22.1 66.6,19.8 
				74.7,19.8 			"/>
		</g>
		<g>
			<polygon class="st0" points="31.7,43 29.3,43 29.3,19.8 37.5,19.8 37.5,22.1 31.7,22.1 			"/>
		</g>
	</g>
	<g>
		<g>
			<path class="st0" d="M43.8,65.5L36.3,63L20.6,47.3l4.9-4.9l15.7,15.7L43.8,65.5z M37.6,61.1l2.4,0.8l-0.8-2.6L25.5,45.6l-1.6,1.6
				L37.6,61.1z"/>
		</g>
		<g>
			
				<rect x="24.9" y="46.5" transform="matrix(0.7071 -0.7071 0.7071 0.7071 -25.8921 32.7998)" class="st0" width="3.5" height="2.3"/>
		</g>
		<g>
			
				<rect x="35.5" y="58.4" transform="matrix(0.7071 -0.7071 0.7071 0.7071 -31.0486 44.2089)" class="st0" width="4.7" height="2.3"/>
		</g>
	</g>
	<g>
		<rect x="37.5" y="31.4" class="st0" width="27.9" height="2.3"/>
	</g>
	<g>
		<rect x="37.5" y="37.2" class="st0" width="20.9" height="2.3"/>
	</g>
	<g>
		<rect x="37.5" y="43" class="st0" width="26.8" height="2.3"/>
	</g>
</g>
</svg>
