<?xml version="1.0" encoding="iso-8859-1"?>
<!-- Generator: Adobe Illustrator 16.0.0, SVG Export Plug-In . SVG Version: 6.00 Build 0)  -->
<!DOCTYPE svg PUBLIC "-//W3C//DTD SVG 1.1//EN" "http://www.w3.org/Graphics/SVG/1.1/DTD/svg11.dtd">
<svg xmlns="http://www.w3.org/2000/svg" xmlns:xlink="http://www.w3.org/1999/xlink" version="1.1" id="Capa_1" x="0px" y="0px" width="512px" height="512px" viewBox="0 0 125 125" style="enable-background:new 0 0 125 125;" xml:space="preserve">
<g>
	<path d="M60.591,78.6c4.7,0,9.2,1.4,13.1,4c0,0,19.4-19.6,20.4-20.1V5.8c0-3.2-2.8-5.8-6.1-5.8h-79.5c-3.2,0-5.4,2.6-5.4,5.8V114.4   c0,3.199,2.2,5.5,5.4,5.5h38.2l-2.4-2.2c-4.4-4.4-6.7-10-6.7-16.2s2.4-11.9,6.7-16.3C48.691,81,54.391,78.6,60.591,78.6z    M33.091,15.8c0-3.2,2.6-5.8,5.8-5.8h39.4c3.2,0,5.8,2.6,5.8,5.8v2.4c0,3.2-2.6,5.8-5.8,5.8h-39.4c-3.2,0-5.8-2.6-5.8-5.8V15.8z    M33.091,37.8c0-3.2,2.6-5.8,5.8-5.8h39.4c3.2,0,5.8,2.6,5.8,5.8v2.4c0,3.2-2.6,5.8-5.8,5.8h-39.4c-3.2,0-5.8-2.6-5.8-5.8V37.8z    M19.191,67.3c-3.8,0-6.8-3-6.8-6.8s3-6.8,6.8-6.8c3.8,0,6.8,3,6.8,6.8S22.891,67.3,19.191,67.3z M19.191,45c-3.8,0-6.8-3-6.8-6.8   c0-3.8,3-6.8,6.8-6.8c3.8,0,6.8,3,6.8,6.8C25.991,41.9,22.891,45,19.191,45z M19.191,23.6c-3.8,0-6.8-3-6.8-6.8   c0-3.8,3-6.8,6.8-6.8c3.8,0,6.8,3,6.8,6.8C25.991,20.6,22.891,23.6,19.191,23.6z M33.091,61.2v-2.4c0-3.2,2.6-5.8,5.8-5.8h39.4   c3.2,0,5.8,2.6,5.8,5.8v2.4c0,3.2-2.6,5.8-5.8,5.8h-39.4C35.691,67,33.091,64.4,33.091,61.2z" fill="#FFFFFF"/>
	<path d="M67.291,122.1c1.899,1.9,4.399,2.9,7,2.9c2.6,0,5.1-1,7-2.9l37.6-37.6c3.8-3.8,4.101-10,0.4-13.9   c-3.8-4.1-10.3-4.199-14.2-0.199L78.391,97.1c-2.3,2.301-5.899,2.301-8.2,0l-3.5-3.5c-3.899-3.899-10.1-3.899-14,0   c-3.9,3.9-3.9,10.101,0,14L67.291,122.1z" fill="#FFFFFF"/>
</g>
<g>
</g>
<g>
</g>
<g>
</g>
<g>
</g>
<g>
</g>
<g>
</g>
<g>
</g>
<g>
</g>
<g>
</g>
<g>
</g>
<g>
</g>
<g>
</g>
<g>
</g>
<g>
</g>
<g>
</g>
</svg>
