<?xml version="1.0" encoding="utf-8"?>
<!-- Generator: Adobe Illustrator 21.1.0, SVG Export Plug-In . SVG Version: 6.00 Build 0)  -->
<svg version="1.1" id="Layer_1" xmlns="http://www.w3.org/2000/svg" xmlns:xlink="http://www.w3.org/1999/xlink" x="0px" y="0px"
	 viewBox="0 0 24 24" style="enable-background:new 0 0 24 24;" xml:space="preserve">
<style type="text/css">
	.st0{fill:#FFFFFF;}
</style>
<path class="st0" d="M21.2,11.3h-3.3c0.2-0.3,0.3-0.7,0.3-1.2V2.8c0-1.4-1.1-2.5-2.5-2.5H8.3c-1.4,0-2.5,1.1-2.5,2.5v7.4
	c0,0.4,0.1,0.8,0.3,1.2H2.8c-1.4,0-2.5,1.1-2.5,2.5v7.4c0,1.4,1.1,2.5,2.5,2.5h7.4c0.7,0,1.4-0.3,1.8-0.8c0.5,0.5,1.1,0.8,1.8,0.8
	h7.4c1.4,0,2.5-1.1,2.5-2.5v-7.4C23.7,12.4,22.6,11.3,21.2,11.3z M22.4,13.8v6.3h-9.7v-6.3c0-0.6,0.5-1.2,1.2-1.2H15v2.3
	c0,0.4,0.3,0.7,0.7,0.7h3.7c0.4,0,0.7-0.3,0.7-0.7v-2.3h1.2C21.8,12.7,22.4,13.2,22.4,13.8z M18.7,14.3h-2.3v-1.6h2.3V14.3z
	 M13.2,1.6v1.6h-2.3V1.6H13.2z M8.3,1.6h1.2v2.3c0,0.4,0.3,0.7,0.7,0.7h3.7c0.4,0,0.7-0.3,0.7-0.7V1.6h1.2c0.6,0,1.2,0.5,1.2,1.2
	v6.3H7.2V2.8C7.2,2.2,7.7,1.6,8.3,1.6z M7.2,10.5h9.6c-0.1,0.5-0.6,0.8-1.1,0.8H8.3C7.8,11.3,7.4,11,7.2,10.5z M7.6,12.7v1.6H5.3
	v-1.6H7.6z M2.8,12.7H4v2.3c0,0.4,0.3,0.7,0.7,0.7h3.7c0.4,0,0.7-0.3,0.7-0.7v-2.3h1.2c0.6,0,1.2,0.5,1.2,1.2v6.3H1.6v-6.3
	C1.6,13.2,2.2,12.7,2.8,12.7z M10.2,22.4H2.8c-0.5,0-1-0.4-1.1-0.8h9.6C11.1,22,10.7,22.4,10.2,22.4z M21.2,22.4h-7.4
	c-0.5,0-1-0.4-1.1-0.8h9.6C22.2,22,21.7,22.4,21.2,22.4z"/>
</svg>
