<?xml version="1.0" encoding="utf-8"?>
<!-- Generator: Adobe Illustrator 21.1.0, SVG Export Plug-In . SVG Version: 6.00 Build 0)  -->
<svg version="1.1" id="Layer_1" xmlns="http://www.w3.org/2000/svg" xmlns:xlink="http://www.w3.org/1999/xlink" x="0px" y="0px"
	 viewBox="0 0 512 512" style="enable-background:new 0 0 512 512;" xml:space="preserve">
<style type="text/css">
	.st0{fill:#282828;}
	.st1{fill:#0038BA;}
</style>
<g id="Receipt">
	<path class="st0" d="M360,459.1c-4.4,0-8,3.6-8,8V480H32V32h240v72c0,4.4,3.6,8,8,8h72v88.9c0,4.4,3.6,8,8,8s8-3.6,8-8V104
		c0-2.1-0.8-4.2-2.3-5.7l-80-80c-1.5-1.5-3.5-2.3-5.7-2.3H24c-4.4,0-8,3.6-8,8v464c0,4.4,3.6,8,8,8h336c4.4,0,8-3.6,8-8v-20.9
		C368,462.7,364.4,459.1,360,459.1z M288,96V43.3L340.7,96H288z"/>
	<path class="st1" d="M131.9,249.1c1.3,0,2.6-0.3,3.8-0.9l67.6-34.1c2.8-1.4,4.6-4.4,4.6-7.5v-85.4c0-3.2-1.8-6.1-4.7-7.6
		l-67.6-33.8c-2.4-1.2-5.2-1.2-7.6,0l-67.6,33.8c-2.9,1.4-4.7,4.4-4.7,7.6v84.5c0,3.2,1.8,6.1,4.6,7.5l67.6,35
		C129.2,248.8,130.6,249.1,131.9,249.1z M191.1,201.3l-50.7,25.6v-66.8l50.7-25.4V201.3z M131.9,96.8l48.7,24.4l-48.7,24.4
		l-14.9-7.5l18.7-9.3l-7.6-15.1l-30,15l-14.9-7.5L131.9,96.8z M123.5,226.8l-50.7-26.2v-65.8l16.9,8.5v28.6h16.9v-20.1l16.9,8.5
		C123.5,160.3,123.5,226.8,123.5,226.8z"/>
	<path class="st0" d="M312,144h-32c-4.4,0-8,3.6-8,8s3.6,8,8,8h32c4.4,0,8-3.6,8-8S316.4,144,312,144z"/>
	<path class="st0" d="M312,176h-64c-4.4,0-8,3.6-8,8s3.6,8,8,8h64c4.4,0,8-3.6,8-8S316.4,176,312,176z"/>
	<path class="st0" d="M312,208h-64c-4.4,0-8,3.6-8,8s3.6,8,8,8h64c4.4,0,8-3.6,8-8S316.4,208,312,208z"/>
	<path class="st0" d="M248,160h8c4.4,0,8-3.6,8-8s-3.6-8-8-8h-8c-4.4,0-8,3.6-8,8S243.6,160,248,160z"/>
	<path class="st0" d="M292,424h-80c-4.4,0-8,3.6-8,8s3.6,8,8,8h80c4.4,0,8-3.6,8-8S296.4,424,292,424z"/>
	<path class="st0" d="M292,448h-48c-4.4,0-8,3.6-8,8s3.6,8,8,8h48c4.4,0,8-3.6,8-8S296.4,448,292,448z"/>
	<path class="st0" d="M399.3,304.3c12.2,0,20,5.9,20,10h20c0-14.2-12.6-25.7-29.9-28.9v-21h-20v21c-17.4,3.3-29.9,14.7-29.9,28.9
		c0,16.8,17.5,29.9,39.9,29.9c12.2,0,20,5.9,20,10s-7.8,10-20,10s-20-5.9-20-10h-20c0,14.2,12.6,25.7,29.9,28.9v21h20v-21
		c17.4-3.3,29.9-14.7,29.9-28.9c0-16.8-17.5-29.9-39.9-29.9c-12.2,0-20-5.9-20-10S387.1,304.3,399.3,304.3z"/>
	<path class="st1" d="M399.3,224.5c-60.6,0-109.8,49.1-109.8,109.7S338.6,444,399.3,444c60.6,0,109.8-49.1,109.8-109.7
		C508.9,273.7,459.8,224.6,399.3,224.5z M399.3,424c-49.6,0-89.8-40.2-89.8-89.8s40.2-89.8,89.8-89.8s89.8,40.2,89.8,89.8
		C489,383.8,448.8,424,399.3,424z"/>
	<path class="st0" d="M82,296H66c-4.4,0-8,3.6-8,8s3.6,8,8,8h16c4.4,0,8-3.6,8-8S86.4,296,82,296z"/>
	<path class="st0" d="M254,296H114c-4.4,0-8,3.6-8,8s3.6,8,8,8h140c4.4,0,8-3.6,8-8S258.4,296,254,296z"/>
	<path class="st1" d="M82,328H66c-4.4,0-8,3.6-8,8s3.6,8,8,8h16c4.4,0,8-3.6,8-8S86.4,328,82,328z"/>
	<path class="st1" d="M254,328H114c-4.4,0-8,3.6-8,8s3.6,8,8,8h140c4.4,0,8-3.6,8-8S258.4,328,254,328z"/>
	<path class="st0" d="M82,360H66c-4.4,0-8,3.6-8,8s3.6,8,8,8h16c4.4,0,8-3.6,8-8S86.4,360,82,360z"/>
	<path class="st0" d="M114,376h140c4.4,0,8-3.6,8-8s-3.6-8-8-8H114c-4.4,0-8,3.6-8,8S109.6,376,114,376z"/>
</g>
</svg>
