<?xml version="1.0" encoding="utf-8"?>
<!-- Generator: Adobe Illustrator 21.1.0, SVG Export Plug-In . SVG Version: 6.00 Build 0)  -->
<svg version="1.1" id="Layer_1" xmlns="http://www.w3.org/2000/svg" xmlns:xlink="http://www.w3.org/1999/xlink" x="0px" y="0px"
	 viewBox="0 0 24 24" style="enable-background:new 0 0 24 24;" xml:space="preserve">
<style type="text/css">
	.st0{fill:#FFFFFF;}
</style>
<g>
	<g>
		<g>
			<path class="st0" d="M14.6,9.2H4.9C4.4,9.2,4,9.6,4,10c0,0.5,0.4,0.8,0.8,0.8h9.7c0.5,0,0.8-0.4,0.8-0.8
				C15.4,9.6,15,9.2,14.6,9.2z"/>
			<path class="st0" d="M12.6,22H3.9c-0.9,0-1.7-0.7-1.7-1.7V3.7C2.2,2.8,3,2,3.9,2h15.7c0.9,0,1.7,0.7,1.7,1.7v1
				c0,0.5,0.4,0.8,0.8,0.8c0.5,0,0.8-0.4,0.8-0.8v-1c0-1.8-1.5-3.3-3.3-3.3H3.9C2,0.4,0.6,1.9,0.6,3.7v16.6c0,1.8,1.5,3.3,3.3,3.3
				h8.8c0.5,0,0.8-0.4,0.8-0.8C13.5,22.3,13.1,22,12.6,22z"/>
			<path class="st0" d="M15.4,4.6H4.8C4.3,4.6,4,4.9,4,5.4s0.4,0.8,0.8,0.8h10.6c0.5,0,0.8-0.4,0.8-0.8S15.8,4.6,15.4,4.6z"/>
			<path class="st0" d="M13.4,14.8c0-0.5-0.4-0.8-0.8-0.8H4.8C4.3,14,4,14.4,4,14.8c0,0.5,0.4,0.8,0.8,0.8h7.8
				C13.1,15.6,13.4,15.3,13.4,14.8z"/>
		</g>
	</g>
</g>
<path class="st0" d="M19.7,20.2h-2.3c-0.7,0-1.1,0.5-1.1,1.1c0,0.7,0.5,1.1,1.1,1.1h1.1v0.3c0,0.7,0.5,1.1,1.1,1.1
	c0.7,0,1.1-0.5,1.1-1.1v-0.6c1.4-0.5,2.3-1.7,2.3-3.2c0-2-1.5-3.4-3.4-3.4c-0.7,0-1.1-0.5-1.1-1.1c0-0.7,0.5-1.1,1.1-1.1H22
	c0.7,0,1.1-0.5,1.1-1.1c0-0.7-0.5-1.1-1.1-1.1h-1.1v-0.3c0-0.7-0.5-1.1-1.1-1.1s-1.1,0.5-1.1,1.1v0.6c-1.4,0.5-2.3,1.7-2.3,3.2
	c0,2,1.5,3.4,3.4,3.4c0.7,0,1.1,0.5,1.1,1.1C20.9,19.8,20.3,20.2,19.7,20.2z"/>
</svg>
