<?xml version="1.0" encoding="utf-8"?>
<!-- Generator: Adobe Illustrator 21.1.0, SVG Export Plug-In . SVG Version: 6.00 Build 0)  -->
<svg version="1.1" id="Capa_1" xmlns="http://www.w3.org/2000/svg" xmlns:xlink="http://www.w3.org/1999/xlink" x="0px" y="0px"
	 viewBox="0 0 512 512" style="enable-background:new 0 0 512 512;" xml:space="preserve">
<style type="text/css">
	.st0{fill:#FFFFFF;}
</style>
<g>
	<g>
		<polygon class="st0" points="320,0 320,128 448,128 		"/>
	</g>
</g>
<g>
	<g>
		<path class="st0" d="M320,160c-17.6,0-32-14.4-32-32V0H96C78.4,0,64,14.4,64,32v448c0,17.7,14.4,32,32,32h320
			c17.7,0,32-14.3,32-32V160H320z M176,98V80c0-8.8,7.2-16,16-16s16,7.2,16,16v18c10,2.3,19.4,6.5,27.1,12.8
			c6.9,5.6,7.9,15.6,2.3,22.5c-5.6,6.9-15.7,7.9-22.5,2.3c-6-4.9-14.2-7.6-22.9-7.6c-17.3,0-32,11-32,24s14.7,24,32,24
			c35.3,0,64,25.1,64,56c0,26-20.5,47.7-48,54v18c0,8.8-7.2,16-16,16s-16-7.2-16-16v-18c-10-2.3-19.4-6.5-27.1-12.8
			c-6.9-5.6-7.9-15.7-2.3-22.5c5.6-6.9,15.6-7.9,22.5-2.3c6,4.9,14.2,7.6,22.9,7.6c17.3,0,32-11,32-24s-14.7-24-32-24
			c-35.3,0-64-25.1-64-56C128,126,148.5,104.3,176,98z M368,448H144c-8.8,0-16-7.2-16-16s7.2-16,16-16h224c8.8,0,16,7.2,16,16
			S376.8,448,368,448z M368,384H144c-8.8,0-16-7.2-16-16s7.2-16,16-16h224c8.8,0,16,7.2,16,16S376.8,384,368,384z M368,320h-64
			c-8.8,0-16-7.2-16-16s7.2-16,16-16h64c8.8,0,16,7.2,16,16S376.8,320,368,320z M368,256h-64c-8.8,0-16-7.2-16-16s7.2-16,16-16h64
			c8.8,0,16,7.1,16,16C384,248.8,376.8,256,368,256z"/>
	</g>
</g>
</svg>
