<?xml version="1.0" encoding="utf-8"?>
<!-- Generator: Adobe Illustrator 21.1.0, SVG Export Plug-In . SVG Version: 6.00 Build 0)  -->
<svg version="1.1" id="Layer_1" xmlns="http://www.w3.org/2000/svg" xmlns:xlink="http://www.w3.org/1999/xlink" x="0px" y="0px"
	 viewBox="0 0 24 24" style="enable-background:new 0 0 24 24;" xml:space="preserve">
<style type="text/css">
	.st0{fill:#FFFFFF;}
</style>
<g>
	<g>
		<path class="st0" d="M21.3,5.6c-0.2-0.5-0.4-0.8-0.7-1.1l-2.4-2.4c-0.3-0.3-0.6-0.5-1.1-0.7s-0.9-0.3-1.2-0.3H2.8
			c-0.4,0-0.7,0.1-1,0.4s-0.4,0.6-0.4,1v19.1c0,0.4,0.1,0.7,0.4,1s0.6,0.4,1,0.4h17.4c0.4,0,0.7-0.1,1-0.4s0.4-0.6,0.4-1V6.8
			C21.6,6.4,21.5,6,21.3,5.6z M16.3,3c0.3,0.1,0.5,0.2,0.6,0.3l2.4,2.4c0.1,0.1,0.2,0.3,0.3,0.6h-3.3V3z M19.8,21.1H3.2V2.9h11.3
			v3.9c0,0.4,0.1,0.7,0.4,1c0.3,0.3,0.6,0.4,1,0.4h3.9V21.1z"/>
	</g>
</g>
<path class="st0" d="M7.6,17h-2c-0.6,0-1,0.4-1,1s0.4,1,1,1h1v0.3c0,0.6,0.4,1,1,1s1-0.4,1-1v-0.5c1.2-0.4,2-1.5,2-2.8
	c0-1.7-1.3-3-3-3c-0.6,0-1-0.4-1-1s0.4-1,1-1h2c0.6,0,1-0.4,1-1s-0.4-1-1-1h-1V8.7c0-0.6-0.4-1-1-1s-1,0.4-1,1v0.5
	c-1.2,0.4-2,1.5-2,2.8c0,1.7,1.3,3,3,3c0.6,0,1,0.4,1,1S8.1,17,7.6,17z"/>
</svg>
