<?xml version="1.0" encoding="utf-8"?>
<!-- Generator: Adobe Illustrator 21.1.0, SVG Export Plug-In . SVG Version: 6.00 Build 0)  -->
<svg version="1.1" id="Layer_1" xmlns="http://www.w3.org/2000/svg" xmlns:xlink="http://www.w3.org/1999/xlink" x="0px" y="0px"
	 viewBox="0 0 512 512" style="enable-background:new 0 0 512 512;" xml:space="preserve">
<style type="text/css">
	.st0{fill:none;stroke:#000000;stroke-width:35;stroke-linecap:round;stroke-linejoin:round;}
</style>
<g>
	<path class="st0" d="M295.3,451.9V339.5c0-39.8-32.6-72.4-72.4-72.4H91c-39.8,0-72.4,32.6-72.4,72.4v56.2"/>
	<circle class="st0" cx="158.4" cy="104.2" r="72.4"/>
	<path class="st0" d="M408.9,467.8V355.5c0-32.6-21.7-61.6-54.3-70.6"/>
	<path class="st0" d="M285.2,49.5c38,9.1,61.6,48.9,52.5,88.7c-7.2,25.3-27.2,45.3-52.5,52.5"/>
</g>
<path class="st0" d="M495,475.8V363.4c0-32.6-21.7-61.6-54.3-70.6"/>
<path class="st0" d="M381.3,57.5c38,9.1,61.6,48.9,52.5,88.7c-7.2,25.3-27.2,45.3-52.5,52.5"/>
</svg>
