<?xml version="1.0" encoding="utf-8"?>
<!-- Generator: Adobe Illustrator 22.0.1, SVG Export Plug-In . SVG Version: 6.00 Build 0)  -->
<svg version="1.1" id="Capa_1" xmlns="http://www.w3.org/2000/svg" xmlns:xlink="http://www.w3.org/1999/xlink" x="0px" y="0px"
	 viewBox="0 0 512 512" style="enable-background:new 0 0 512 512;" xml:space="preserve">
<style type="text/css">
	.st0{fill:#001E35;stroke:#FFFFFF;stroke-width:3;stroke-miterlimit:10;}
	.st1{fill:#001E35;}
	.st2{fill:#F12300;stroke:#FFFFFF;stroke-width:2;stroke-miterlimit:10;}
</style>
<g>
	<g>
		<g>
			<path class="st0" d="M262.8,50.4c-1.9-1.9-4.2-2.9-6.9-2.9c-2.7,0-5,1.1-6.9,2.9c-1.9,1.8-2.9,4.3-2.9,6.9c0,2.6,1.1,5,2.9,6.9
				c1.9,1.9,4.2,2.9,6.9,2.9c2.7,0,5-1.1,6.9-2.9c1.9-1.9,2.9-4.2,2.9-6.9C265.6,54.7,264.6,52.3,262.8,50.4z"/>
		</g>
	</g>
	<g>
		<g>
			<path class="st0" d="M433.5,43.7h-93.4c-10.6-10.1-25.2-16.4-41.1-16.4h-8.6C284.1,14.4,270.8,5.9,256,5.9
				c-14.9,0-28.1,8.5-34.6,21.4h-8.6c-15.8,0-30.3,6.3-41.1,16.4H78.4C52.3,43.7,31.2,65,31.2,91v364c0,26.1,21.3,47.3,47.3,47.3
				h355.2c26.1,0,47.3-21.3,47.3-47.3V91.1C480.8,65,459.6,43.7,433.5,43.7z M212.9,46.7H228c4.3,0,8.2-3,9.4-7.1
				c2.4-8.5,9.9-14.3,18.7-14.3c8.8,0,16.3,5.8,18.7,14.3c1.2,4.1,4.9,7.1,9.4,7.1h15.2c21.1,0,38.4,16.2,40.2,36.8H172.7
				C174.5,62.9,191.8,46.7,212.9,46.7z M461.4,454.8c0,15.5-12.5,28-28,28h-355c-15.5,0-28-12.5-28-28V91.1c0.1-15.5,12.6-28,28-28
				h79.7c-3.2,7.3-4.9,15.4-4.9,23.7v6.3c0,5.3,4.3,9.6,9.6,9.6h186.1c5.3,0,9.6-4.3,9.6-9.6v-6.3c0-8.5-1.8-16.4-4.9-23.7h79.8
				c15.5,0,28,12.5,28,28L461.4,454.8L461.4,454.8z"/>
		</g>
	</g>
</g>
<g>
	<g>
		<path class="st1" d="M302.5,145.3h-110c-4.8,0-8.6,3.9-8.6,8.6c0,4.8,3.9,8.6,8.6,8.6h110c4.8,0,8.6-3.9,8.6-8.6
			C311.1,149.3,307.2,145.3,302.5,145.3z"/>
	</g>
</g>
<g>
	<g>
		<path class="st1" d="M265.4,187h-73c-4.8,0-8.6,3.9-8.6,8.6s3.9,8.6,8.6,8.6h73c4.8,0,8.6-3.9,8.6-8.6S270.1,187,265.4,187z"/>
	</g>
</g>
<g>
	<g>
		<path class="st2" d="M425.4,149.9c-3.4-3.4-8.9-3.4-12.4,0l-37.4,37.4L364,175.7c-3.4-3.4-8.9-3.4-12.4,0c-3.4,3.4-3.4,8.9,0,12.4
			l17.7,17.7c1.8,1.8,3.9,2.6,6.2,2.6c2.3,0,4.4-0.9,6.2-2.6l43.6-43.6C428.8,158.8,428.8,153.2,425.4,149.9z"/>
	</g>
</g>
<g>
	<g>
		<path class="st2" d="M140.9,145.3h-43c-4.5,0-8.1,3.6-8.1,8.1v46.9c0,4.5,3.6,8.1,8.1,8.1h43c4.5,0,8.1-3.6,8.1-8.1v-46.8
			C149,149,145.4,145.3,140.9,145.3z M132.7,192.2H106v-30.7h26.7V192.2z"/>
	</g>
</g>
<g>
	<g>
		<path class="st1" d="M302.5,267h-110c-4.8,0-8.6,3.9-8.6,8.6s3.9,8.6,8.6,8.6h110c4.8,0,8.6-3.9,8.6-8.6
			C311.1,271,307.2,267,302.5,267z"/>
	</g>
</g>
<g>
	<g>
		<path class="st1" d="M265.4,308.8h-73c-4.8,0-8.6,3.9-8.6,8.6c0,4.8,3.9,8.6,8.6,8.6h73c4.8,0,8.6-3.9,8.6-8.6
			C274,312.6,270.1,308.8,265.4,308.8z"/>
	</g>
</g>
<g>
	<g>
		<path class="st2" d="M425.4,271.6c-3.4-3.4-8.9-3.4-12.4,0L375.6,309L364,297.5c-3.4-3.4-8.9-3.4-12.4,0c-3.4,3.4-3.4,8.9,0,12.4
			l17.7,17.7c1.8,1.8,3.9,2.6,6.2,2.6c2.3,0,4.4-0.9,6.2-2.6l43.6-43.6C428.8,280.5,428.8,275,425.4,271.6z"/>
	</g>
</g>
<g>
	<g>
		<path class="st2" d="M140.9,267h-43c-4.5,0-8.1,3.6-8.1,8.1V322c0,4.5,3.6,8.1,8.1,8.1h43c4.5,0,8.1-3.6,8.1-8.1v-46.8
			C149,270.7,145.4,267,140.9,267z M132.7,314H106v-30.7h26.7V314z"/>
	</g>
</g>
<g>
	<g>
		<path class="st1" d="M302.5,382.3h-110c-4.8,0-8.6,3.9-8.6,8.6c0,4.8,3.9,8.6,8.6,8.6h110c4.8,0,8.6-3.9,8.6-8.6
			C311.1,386.3,307.2,382.3,302.5,382.3z"/>
	</g>
</g>
<g>
	<g>
		<path class="st1" d="M265.4,424h-73c-4.8,0-8.6,3.9-8.6,8.6c0,4.8,3.9,8.6,8.6,8.6h73c4.8,0,8.6-3.9,8.6-8.6
			C274,427.9,270.1,424,265.4,424z"/>
	</g>
</g>
<g>
	<g>
		<path class="st2" d="M425.4,386.9c-3.4-3.4-8.9-3.4-12.4,0l-37.4,37.4L364,412.7c-3.4-3.4-8.9-3.4-12.4,0c-3.4,3.4-3.4,8.9,0,12.4
			l17.7,17.7c1.8,1.8,3.9,2.6,6.2,2.6c2.3,0,4.4-0.9,6.2-2.6l43.6-43.6C428.8,395.8,428.8,390.2,425.4,386.9z"/>
	</g>
</g>
<g>
	<g>
		<path class="st2" d="M140.9,382.3h-43c-4.5,0-8.1,3.6-8.1,8.1v46.9c0,4.5,3.6,8.1,8.1,8.1h43c4.5,0,8.1-3.6,8.1-8.1v-46.8
			C149,386,145.4,382.3,140.9,382.3z M132.7,429.2H106v-30.7h26.7V429.2z"/>
	</g>
</g>
</svg>
