<?xml version="1.0" encoding="utf-8"?>
<!-- Generator: Adobe Illustrator 22.0.1, SVG Export Plug-In . SVG Version: 6.00 Build 0)  -->
<svg version="1.1" id="Layer_1" xmlns="http://www.w3.org/2000/svg" xmlns:xlink="http://www.w3.org/1999/xlink" x="0px" y="0px"
	 viewBox="0 0 100 85.5" style="enable-background:new 0 0 100 85.5;" xml:space="preserve">
<style type="text/css">
	.st0{fill:none;stroke:#D2D8DF;stroke-width:0.75;stroke-linecap:round;stroke-miterlimit:10;}
	.st1{fill:#EBECEE;}
	.st2{fill:#D1D8DF;}
	.st3{fill:#E0E2EE;}
	.st4{fill:#E8EBF2;}
	.st5{fill:#D8DBEA;}
	.st6{fill:#F1F2F7;}
	.st7{fill:none;stroke:#E0E2EE;stroke-width:1.3;stroke-linecap:round;stroke-linejoin:round;stroke-miterlimit:10;}
</style>
<path id="Stroke_1" class="st0" d="M3.9,46.4v0.8"/>
<g id="Group_8" transform="translate(0 132)">
	<path id="Stroke_2" class="st0" d="M2-84.8l0.7,0.7"/>
	<path id="Stroke_4" class="st0" d="M1.2-83h1"/>
	<path id="Stroke_6" class="st0" d="M1.9-81.1l0.7-0.7"/>
</g>
<path id="Stroke_9" class="st0" d="M3.9,51.8V51"/>
<path id="Stroke_10" class="st0" d="M5.7,51l-0.6-0.6"/>
<path id="Stroke_11" class="st0" d="M6.4,49.2H5.5"/>
<path id="Stroke_12" class="st0" d="M5.8,47.3l-0.6,0.6"/>
<path id="Stroke_13" class="st0" d="M66.4,5.8v0.6"/>
<path id="Stroke_15" class="st0" d="M64.7,7.5h0.6"/>
<path id="Stroke_16" class="st0" d="M66.4,9.1V8.6"/>
<path id="Stroke_17" class="st0" d="M67.8,7.5h-0.6"/>
<path id="Stroke_18" class="st0" d="M15.6,25.1v0.8"/>
<path id="Stroke_19" class="st0" d="M13.1,27.6H14"/>
<path id="Stroke_20" class="st0" d="M15.6,29.8V29"/>
<path id="Stroke_21" class="st0" d="M17.9,27.6H17"/>
<path id="Stroke_22" class="st0" d="M88.4,67.9c0.7,0,1.2,0.5,1.2,1.2s-0.5,1.2-1.2,1.2s-1.2-0.5-1.2-1.2l0,0"/>
<path id="Fill_26" class="st1" d="M81.6,53c0.7-0.2,1.8-1.1,2.1-2c0.2,0.8,1.2,1.8,2.1,1.9c-1,0.3-1.9,1.4-2.1,2.2
	C83.6,54.3,82.3,53.2,81.6,53"/>
<path id="Fill_28" class="st1" d="M8.4,63.6c0.5-0.2,0.8-0.5,1-1c0.2,0.5,0.5,0.8,1,0.9c-0.5,0.2-0.9,0.6-1,1.1
	C9.4,64.2,8.7,63.6,8.4,63.6"/>
<path id="Fill_30" class="st2" d="M14.1,14.6c0,0.5-0.4,0.9-0.9,0.9s-0.9-0.4-0.9-0.9s0.4-0.9,0.9-0.9
	C13.7,13.7,14.1,14.1,14.1,14.6L14.1,14.6"/>
<path id="Fill_32" class="st1" d="M77.2,27.5c0,0.9-0.7,1.6-1.6,1.6S74,28.4,74,27.5s0.7-1.6,1.6-1.6S77.2,26.6,77.2,27.5"/>
<path id="Fill_34" class="st1" d="M98.8,23.2c0,0.7-0.6,1.2-1.2,1.2c-0.7,0-1.2-0.6-1.2-1.2c0-0.7,0.6-1.2,1.2-1.2
	C98.2,22,98.8,22.6,98.8,23.2L98.8,23.2"/>
<path id="Stroke_36" class="st0" d="M17.8,78.3c0,0.4-0.3,0.8-0.8,0.8c-0.4,0-0.8-0.3-0.8-0.8c0-0.4,0.3-0.8,0.8-0.8
	C17.5,77.6,17.8,77.9,17.8,78.3L17.8,78.3z"/>
<path id="Stroke_38" class="st0" d="M31,6.4c0,0.5-0.4,0.9-0.9,0.9s-0.9-0.4-0.9-0.9s0.4-0.9,0.9-0.9C30.6,5.4,31,5.8,31,6.4L31,6.4
	z"/>
<path id="Stroke_40" class="st0" d="M55.7,80.6c-0.6,0.2-1.3-0.1-1.5-0.7s0.1-1.3,0.7-1.5s1.3,0.1,1.5,0.7l0,0
	C56.6,79.7,56.3,80.3,55.7,80.6z"/>
<g>
	<path id="Fill_1" class="st3" d="M63.3,61.9H40.6c-1.6,0-2.9-1.3-2.9-2.9V26.6c0-1.6,1.3-2.9,2.9-2.9h22.8c1.6,0,2.9,1.3,2.9,2.9
		V59C66.2,60.6,64.9,61.9,63.3,61.9"/>
	<path id="Fill_3" class="st4" d="M61.4,63.3H38.6c-1.6,0-2.9-1.3-2.9-2.9V27.9c0-1.6,1.3-2.9,2.9-2.9h22.8c1.6,0,2.9,1.3,2.9,2.9
		v32.5C64.3,62,63,63.3,61.4,63.3"/>
	<path id="Fill_5" class="st5" d="M59.5,64.4H36.7c-1.6,0-2.9-1.3-2.9-2.9V29.2c0-1.6,1.3-2.9,2.9-2.9h22.8c1.6,0,2.9,1.3,2.9,2.9
		v32.3C62.4,63.1,61.1,64.4,59.5,64.4"/>
	<path id="Fill_8" class="st6" d="M59.5,64.4H36.7c-1.6,0-2.9-1.3-2.9-2.9V29.2c0-1.6,1.3-2.9,2.9-2.9h22.8c1.6,0,2.9,1.3,2.9,2.9
		v32.3C62.4,63.1,61.1,64.4,59.5,64.4"/>
	<path id="Fill_15" class="st3" d="M56.2,49.6H39.4c-0.5,0-0.9-0.4-0.9-0.8c0-0.5,0.4-0.8,0.9-0.8h16.9c0.5,0,0.9,0.4,0.9,0.8
		C57.1,49.3,56.7,49.6,56.2,49.6"/>
	<path id="Fill_17" class="st3" d="M56.2,54.6H39.4c-0.5,0-0.9-0.4-0.9-0.8c0-0.5,0.4-0.8,0.9-0.8h16.9c0.5,0,0.9,0.4,0.9,0.8
		C57.1,54.3,56.7,54.6,56.2,54.6"/>
	<path id="Fill_19" class="st3" d="M48.1,59.6h-8.8c-0.5,0-0.9-0.4-0.9-0.8c0-0.5,0.4-0.8,0.9-0.8h8.8c0.5,0,0.9,0.4,0.9,0.8
		C49,59.3,48.6,59.6,48.1,59.6"/>
	<path class="st3" d="M43.4,33.3l-0.9-0.9l0.9-0.9c0.2-0.2,0.2-0.6,0-0.8c-0.2-0.2-0.6-0.2-0.8,0l-0.9,0.9l-0.9-0.9
		c-0.2-0.2-0.6-0.2-0.8,0s-0.2,0.6,0,0.8l0.9,0.9l-0.9,1c-0.2,0.2-0.2,0.6,0,0.8s0.6,0.2,0.8,0l0.9-0.9l0.9,0.9
		c0.2,0.2,0.6,0.2,0.8,0C43.6,33.9,43.6,33.6,43.4,33.3z"/>
	<path class="st3" d="M56.2,33.3l-0.9-0.9l0.9-0.9c0.2-0.2,0.2-0.6,0-0.8c-0.2-0.2-0.6-0.2-0.8,0l-0.9,0.9l-0.9-0.9
		c-0.2-0.2-0.6-0.2-0.8,0s-0.2,0.6,0,0.8l0.9,0.9l-0.9,0.9c-0.2,0.2-0.2,0.6,0,0.8s0.6,0.2,0.8,0l0.9-0.9l0.9,0.9
		c0.2,0.2,0.6,0.2,0.8,0C56.4,33.9,56.4,33.6,56.2,33.3z"/>
	<path class="st7" d="M56.2,41.7L56.2,41.7c-5.5-2.5-11.1-2.5-16.2,0l0,0"/>
</g>
</svg>
