<?xml version="1.0" encoding="utf-8"?>
<!-- Generator: Adobe Illustrator 22.0.1, SVG Export Plug-In . SVG Version: 6.00 Build 0)  -->
<svg version="1.1" id="f20e0c25-d928-42cc-98d1-13cc230663ea"
	 xmlns="http://www.w3.org/2000/svg" xmlns:xlink="http://www.w3.org/1999/xlink" x="0px" y="0px" viewBox="0 0 820.2 780.8"
	 style="enable-background:new 0 0 820.2 780.8;" xml:space="preserve">
<style type="text/css">
	.st0{opacity:0.5;}
	.st1{fill:#47E6B1;}
	.st2{opacity:0.5;fill:#4D8AF0;enable-background:new    ;}
	.st3{opacity:0.5;fill:#FDD835;enable-background:new    ;}
	.st4{opacity:0.5;fill:#F55F44;enable-background:new    ;}
	.st5{opacity:0.5;fill:#47E6B1;enable-background:new    ;}
	.st6{fill:#E0E0E0;}
	.st7{fill:url(#SVGID_1_);}
	.st8{fill:#FAFAFA;}
	.st9{fill:url(#SVGID_2_);}
	.st10{fill:url(#SVGID_3_);}
	.st11{fill:#0038BA;}
	.st12{fill:url(#SVGID_4_);}
	.st13{fill:#FFFFFF;}
	.st14{fill:url(#SVGID_5_);}
	.st15{fill:url(#SVGID_6_);}
	.st16{fill:#282828;}
</style>
<title>no data</title>
<g class="st0">
	<rect x="108.7" y="394.9" class="st1" width="3.8" height="21.3"/>
	<rect x="99.9" y="403.7" class="st1" width="21.3" height="3.8"/>
</g>
<g class="st0">
	<rect x="346.4" y="31.5" class="st1" width="3.8" height="21.3"/>
	<rect x="337.6" y="40.2" class="st1" width="21.3" height="3.8"/>
</g>
<g class="st0">
	<rect x="725.9" y="182.8" class="st1" width="3.8" height="21.3"/>
	<rect x="717.1" y="191.6" class="st1" width="21.3" height="3.8"/>
</g>
<path class="st2" d="M749.9,730.9c-2.1-0.9-3.3-3.3-2.6-5.6c0.1-0.2,0.1-0.3,0.1-0.5l0,0c0.1-1.3-0.9-2.4-2.2-2.4
	c-0.8,0-1.5,0.3-2,0.9l0,0c-0.1,0.1-0.2,0.3-0.3,0.5c-0.9,2.1-3.3,3.3-5.6,2.6c-0.2-0.1-0.3-0.1-0.5-0.1l0,0
	c-1.3-0.1-2.4,0.9-2.4,2.2c0,0.8,0.3,1.5,0.9,2l0,0c0.1,0.1,0.3,0.2,0.4,0.3c2.1,0.9,3.3,3.3,2.6,5.6c-0.1,0.2-0.1,0.3-0.1,0.5l0,0
	c-0.1,1.3,0.9,2.4,2.2,2.4c0.8,0,1.5-0.3,2-0.9l0,0c0.1-0.1,0.2-0.3,0.3-0.5c0.9-2.1,3.3-3.3,5.6-2.6c0.2,0.1,0.3,0.1,0.5,0.1l0,0
	c1.3,0.1,2.4-0.9,2.4-2.2c0-0.8-0.3-1.5-0.9-2l0,0C750.2,731,750,730.9,749.9,730.9z"/>
<path class="st3" d="M136.7,567.5c-2.1-0.9-3.3-3.3-2.6-5.6c0.1-0.2,0.1-0.3,0.1-0.5l0,0c0.1-1.3-0.9-2.4-2.2-2.4
	c-0.8,0-1.5,0.3-2,0.9l0,0c-0.1,0.1-0.2,0.3-0.3,0.5c-0.9,2.1-3.3,3.3-5.6,2.6c-0.2-0.1-0.3-0.1-0.5-0.1l0,0
	c-1.3-0.1-2.4,0.9-2.4,2.2c0,0.8,0.3,1.5,0.9,2l0,0c0.1,0.1,0.3,0.2,0.5,0.3c2.1,0.9,3.3,3.3,2.6,5.6c-0.1,0.2-0.1,0.3-0.1,0.5l0,0
	c-0.1,1.3,0.9,2.4,2.2,2.4c0.8,0,1.5-0.3,2-0.9l0,0c0.1-0.1,0.2-0.3,0.3-0.5c0.9-2.1,3.3-3.3,5.6-2.6c0.2,0.1,0.3,0.1,0.5,0.1l0,0
	c1.3,0.1,2.4-0.9,2.4-2.2c0-0.8-0.3-1.5-0.9-2l0,0C137,567.7,136.8,567.6,136.7,567.5z"/>
<path class="st3" d="M618.8,85c-2.1-0.9-3.3-3.3-2.6-5.6c0.1-0.2,0.1-0.3,0.1-0.5l0,0c0.1-1.3-0.9-2.4-2.2-2.4c-0.8,0-1.5,0.3-2,0.9
	l0,0c-0.1,0.1-0.2,0.3-0.3,0.4c-0.9,2.1-3.3,3.3-5.6,2.6c-0.2-0.1-0.3-0.1-0.5-0.1l0,0c-1.3-0.1-2.4,0.9-2.4,2.2
	c0,0.8,0.3,1.5,0.9,2l0,0c0.1,0.1,0.3,0.2,0.5,0.3c2.1,0.9,3.3,3.3,2.6,5.6c-0.1,0.2-0.1,0.3-0.1,0.5l0,0c-0.1,1.3,0.9,2.4,2.2,2.4
	c0.8,0,1.5-0.3,2-0.9l0,0c0.1-0.1,0.2-0.3,0.3-0.4c0.9-2.1,3.3-3.3,5.6-2.6c0.2,0.1,0.3,0.1,0.5,0.1l0,0c1.3,0.1,2.4-0.9,2.4-2.2
	c0-0.8-0.3-1.5-0.9-2l0,0C619.2,85.1,619,85,618.8,85z"/>
<circle class="st4" cx="812.6" cy="314.5" r="7.5"/>
<circle class="st4" cx="230.7" cy="746.7" r="7.5"/>
<circle class="st4" cx="735.3" cy="477.2" r="7.5"/>
<circle class="st4" cx="449.9" cy="675.5" r="7.5"/>
<circle class="st2" cx="87.1" cy="96.3" r="7.5"/>
<circle class="st5" cx="7.5" cy="301.8" r="7.5"/>
<g>
	
		<rect x="202" y="169.4" transform="matrix(0.9777 -0.2098 0.2098 0.9777 -72.4278 83.3362)" class="st6" width="309.3" height="427.3"/>
	<g class="st0">
		
			<linearGradient id="SVGID_1_" gradientUnits="userSpaceOnUse" x1="-580.6914" y1="-943.705" x2="-580.6914" y2="-530.8635" gradientTransform="matrix(0.9777 -0.2098 -0.2098 -0.9777 769.7028 -459.6296)">
			<stop  offset="0" style="stop-color:#808080;stop-opacity:0.25"/>
			<stop  offset="0.54" style="stop-color:#808080;stop-opacity:0.12"/>
			<stop  offset="1" style="stop-color:#808080;stop-opacity:0.1"/>
		</linearGradient>
		<polygon class="st7" points="167.2,212.6 459.4,149.9 546,553.6 253.8,616.2 		"/>
	</g>
	
		<rect x="210.7" y="179.7" transform="matrix(0.9777 -0.2098 0.2098 0.9777 -72.1233 83.2362)" class="st8" width="291.2" height="403.7"/>
	
		<linearGradient id="SVGID_2_" gradientUnits="userSpaceOnUse" x1="-580.3126" y1="-551.3919" x2="-580.3126" y2="-516.3994" gradientTransform="matrix(0.9777 -0.2098 -0.2098 -0.9777 769.7021 -459.6291)">
		<stop  offset="0" style="stop-color:#808080;stop-opacity:0.25"/>
		<stop  offset="0.54" style="stop-color:#808080;stop-opacity:0.12"/>
		<stop  offset="1" style="stop-color:#808080;stop-opacity:0.1"/>
	</linearGradient>
	<polygon class="st9" points="240,182.2 381.3,151.9 388.6,186.1 247.4,216.4 	"/>
	
		<linearGradient id="SVGID_3_" gradientUnits="userSpaceOnUse" x1="-580.3283" y1="-523.5688" x2="-580.3283" y2="-482.2256" gradientTransform="matrix(0.9777 -0.2098 -0.2098 -0.9777 769.7028 -459.6342)">
		<stop  offset="0" style="stop-color:#808080;stop-opacity:0.25"/>
		<stop  offset="0.54" style="stop-color:#808080;stop-opacity:0.12"/>
		<stop  offset="1" style="stop-color:#808080;stop-opacity:0.1"/>
	</linearGradient>
	<path class="st10" d="M303.5,133.6c-10.9,2.3-17.8,13.3-15.4,24.4s13.2,18.3,24.1,16s17.8-13.3,15.4-24.4S314.4,131.3,303.5,133.6z
		 M310.3,165.5c-6.4,1.5-12.8-2.4-14.4-8.8c-1.5-6.4,2.4-12.8,8.8-14.4c6.4-1.5,12.8,2.4,14.4,8.8c0,0.1,0,0.1,0.1,0.2
		C320.7,157.7,316.7,164,310.3,165.5C310.3,165.5,310.3,165.5,310.3,165.5z"/>
	
		<rect x="243.1" y="165.2" transform="matrix(0.9777 -0.2098 0.2098 0.9777 -31.1784 69.8866)" class="st11" width="141.4" height="33.4"/>
	<path class="st11" d="M303.5,133.6c-10.7,2.3-17.5,12.8-15.2,23.5c2.3,10.7,12.8,17.5,23.5,15.2c10.7-2.3,17.5-12.8,15.2-23.5
		C324.6,138.1,314.1,131.3,303.5,133.6C303.5,133.6,303.5,133.6,303.5,133.6z M310,164.1c-6.2,1.3-12.2-2.6-13.5-8.8
		c-1.3-6.2,2.6-12.2,8.8-13.5c6.2-1.3,12.2,2.6,13.5,8.8c0,0,0,0,0,0C320.1,156.7,316.2,162.8,310,164.1z"/>
	<rect x="294.2" y="193.5" class="st6" width="309.3" height="427.3"/>
	<g class="st0">
		
			<linearGradient id="SVGID_4_" gradientUnits="userSpaceOnUse" x1="448.8087" y1="168.4628" x2="448.8087" y2="581.3042" gradientTransform="matrix(1 0 0 -1 0 782)">
			<stop  offset="0" style="stop-color:#808080;stop-opacity:0.25"/>
			<stop  offset="0.54" style="stop-color:#808080;stop-opacity:0.12"/>
			<stop  offset="1" style="stop-color:#808080;stop-opacity:0.1"/>
		</linearGradient>
		<rect x="299.4" y="200.7" class="st12" width="298.8" height="412.8"/>
	</g>
	<rect x="303.2" y="203.7" class="st13" width="291.2" height="403.7"/>
	
		<linearGradient id="SVGID_5_" gradientUnits="userSpaceOnUse" x1="449.1873" y1="560.7757" x2="449.1873" y2="595.7682" gradientTransform="matrix(1 0 0 -1 0 782)">
		<stop  offset="0" style="stop-color:#808080;stop-opacity:0.25"/>
		<stop  offset="0.54" style="stop-color:#808080;stop-opacity:0.12"/>
		<stop  offset="1" style="stop-color:#808080;stop-opacity:0.1"/>
	</linearGradient>
	<rect x="377" y="186.2" class="st14" width="144.5" height="35"/>
	
		<linearGradient id="SVGID_6_" gradientUnits="userSpaceOnUse" x1="639.1072" y1="528.9816" x2="639.1072" y2="570.3358" gradientTransform="matrix(1 0 0 -1 -189.92 722.41)">
		<stop  offset="0" style="stop-color:#808080;stop-opacity:0.25"/>
		<stop  offset="0.54" style="stop-color:#808080;stop-opacity:0.12"/>
		<stop  offset="1" style="stop-color:#808080;stop-opacity:0.1"/>
	</linearGradient>
	<path class="st15" d="M449.2,152.1c-11.2,0-20.2,9.3-20.2,20.7s9,20.7,20.2,20.7c11.2,0,20.2-9.3,20.2-20.7
		S460.3,152.1,449.2,152.1z M449.2,184.7c-6.6,0.2-12.1-5.1-12.2-11.6c-0.2-6.6,5.1-12.1,11.6-12.2c6.6-0.2,12.1,5.1,12.2,11.6
		c0,0.1,0,0.2,0,0.3C460.9,179.2,455.7,184.5,449.2,184.7L449.2,184.7z"/>
	<rect x="378.5" y="184.7" class="st11" width="141.4" height="33.4"/>
	<path class="st11" d="M449.2,152.1c-10.9,0-19.8,8.8-19.8,19.8s8.8,19.8,19.8,19.8c10.9,0,19.8-8.8,19.8-19.8l0,0
		C469,160.9,460.1,152.1,449.2,152.1z M449.2,183.2c-6.3,0-11.4-5.1-11.4-11.4c0-6.3,5.1-11.4,11.4-11.4c6.3,0,11.4,5.1,11.4,11.4
		C460.6,178.1,455.5,183.2,449.2,183.2C449.2,183.2,449.2,183.2,449.2,183.2L449.2,183.2z"/>
	<g>
		<g>
			<path class="st16" d="M450.7,447.7h-1.7c-0.3,0-0.5,0-0.8,0c-19.9-0.7-38.7-10.6-50.6-26.7c-2.1-2.9-1.5-7.1,1.4-9.2
				s7.1-1.5,9.2,1.4c9.7,13.2,25.2,21.2,41.6,21.4c16.4-0.3,31.8-8.2,41.6-21.4c2.1-2.9,6.3-3.6,9.2-1.4c2.9,2.1,3.6,6.3,1.4,9.2
				c-11.9,16.1-30.7,26-50.6,26.7C451.3,447.7,451,447.7,450.7,447.7z"/>
		</g>
		<g>
			<path class="st16" d="M532.1,353.5c-3.6,0-6.6-2.9-6.6-6.6c0-8.5-6.9-15.3-15.3-15.3s-15.3,6.9-15.3,15.3c0,3.6-2.9,6.6-6.6,6.6
				c-3.6,0-6.6-2.9-6.6-6.6c0-15.7,12.8-28.5,28.5-28.5s28.5,12.8,28.5,28.5C538.7,350.5,535.8,353.5,532.1,353.5z"/>
		</g>
		<g>
			<path class="st16" d="M409.3,353.5c-3.6,0-6.6-2.9-6.6-6.6c0-8.5-6.9-15.3-15.3-15.3c-8.5,0-15.3,6.9-15.3,15.3
				c0,3.6-2.9,6.6-6.6,6.6s-6.6-2.9-6.6-6.6c0-15.7,12.8-28.5,28.5-28.5s28.5,12.8,28.5,28.5C415.9,350.5,413,353.5,409.3,353.5z"/>
		</g>
	</g>
</g>
</svg>
