<?xml version="1.0" encoding="utf-8"?>
<!-- Generator: Adobe Illustrator 21.1.0, SVG Export Plug-In . SVG Version: 6.00 Build 0)  -->
<svg version="1.1" id="f20e0c25-d928-42cc-98d1-13cc230663ea"
	 xmlns="http://www.w3.org/2000/svg" xmlns:xlink="http://www.w3.org/1999/xlink" x="0px" y="0px" viewBox="0 0 456.9 415"
	 style="enable-background:new 0 0 456.9 415;" xml:space="preserve">
<style type="text/css">
	.st0{opacity:0.5;}
	.st1{fill:#47E6B1;}
	.st2{opacity:0.5;fill:#4D8AF0;enable-background:new    ;}
	.st3{opacity:0.5;fill:#E8E8E8;enable-background:new    ;}
	.st4{opacity:0.5;fill:#FDD835;enable-background:new    ;}
	.st5{opacity:0.5;fill:#F55F44;enable-background:new    ;}
	.st6{opacity:0.5;fill:#47E6B1;enable-background:new    ;}
	.st7{opacity:0.5;enable-background:new    ;}
	.st8{fill:#E8E8E8;}
	.st9{fill:#DBDBDB;stroke:#FFFFFF;stroke-width:6;stroke-miterlimit:10;}
	.st10{fill:#0038BA;}
</style>
<title>no data</title>
<g class="st0">
	<rect x="62.8" y="208.4" class="st1" width="2.1" height="11.7"/>
	<rect x="58" y="213.3" class="st1" width="11.7" height="2.1"/>
</g>
<g class="st0">
	<rect x="193.6" y="8.5" class="st1" width="2.1" height="11.7"/>
	<rect x="188.7" y="13.3" class="st1" width="11.7" height="2.1"/>
</g>
<g class="st0">
	<rect x="402.4" y="91.7" class="st1" width="2.1" height="11.7"/>
	<rect x="397.5" y="96.6" class="st1" width="11.7" height="2.1"/>
</g>
<path class="st2" d="M415.6,393.3c-1.2-0.5-1.8-1.8-1.4-3.1c0.1-0.1,0.1-0.2,0.1-0.3l0,0c0.1-0.7-0.5-1.3-1.2-1.3
	c-0.4,0-0.8,0.2-1.1,0.5l0,0c-0.1,0.1-0.1,0.2-0.2,0.3c-0.5,1.2-1.8,1.8-3.1,1.4c-0.1-0.1-0.2-0.1-0.3-0.1l0,0
	c-0.7-0.1-1.3,0.5-1.3,1.2c0,0.4,0.2,0.8,0.5,1.1l0,0c0.1,0.1,0.2,0.1,0.2,0.2c1.2,0.5,1.8,1.8,1.4,3.1c-0.1,0.1-0.1,0.2-0.1,0.3
	l0,0c-0.1,0.7,0.5,1.3,1.2,1.3c0.4,0,0.8-0.2,1.1-0.5l0,0c0.1-0.1,0.1-0.2,0.2-0.3c0.5-1.2,1.8-1.8,3.1-1.4c0.1,0.1,0.2,0.1,0.3,0.1
	l0,0c0.7,0.1,1.3-0.5,1.3-1.2c0-0.4-0.2-0.8-0.5-1.1l0,0C415.7,393.3,415.6,393.3,415.6,393.3z"/>
<path class="st3" d="M88.9,284.6c-1.5-0.7-2.4-2.4-1.9-4.1c0.1-0.1,0.1-0.2,0.1-0.4l0,0c0.1-1-0.7-1.8-1.6-1.8
	c-0.6,0-1.1,0.2-1.5,0.7l0,0c-0.1,0.1-0.1,0.2-0.2,0.4c-0.7,1.5-2.4,2.4-4.1,1.9c-0.1-0.1-0.2-0.1-0.4-0.1l0,0
	c-1-0.1-1.8,0.7-1.8,1.6c0,0.6,0.2,1.1,0.7,1.5l0,0c0.1,0.1,0.2,0.1,0.4,0.2c1.5,0.7,2.4,2.4,1.9,4.1c-0.1,0.1-0.1,0.2-0.1,0.4l0,0
	c-0.1,1,0.7,1.8,1.6,1.8c0.6,0,1.1-0.2,1.5-0.7l0,0c0.1-0.1,0.1-0.2,0.2-0.4c0.7-1.5,2.4-2.4,4.1-1.9c0.1,0.1,0.2,0.1,0.4,0.1l0,0
	c1,0.1,1.8-0.7,1.8-1.6c0-0.6-0.2-1.1-0.7-1.5l0,0C89.1,284.7,89,284.7,88.9,284.6z"/>
<path class="st4" d="M343.4,37.9c-1.2-0.5-1.8-1.8-1.4-3.1c0.1-0.1,0.1-0.2,0.1-0.3l0,0c0.1-0.7-0.5-1.3-1.2-1.3
	c-0.4,0-0.8,0.2-1.1,0.5l0,0c-0.1,0.1-0.1,0.2-0.2,0.2c-0.5,1.2-1.8,1.8-3.1,1.4c-0.1-0.1-0.2-0.1-0.3-0.1l0,0
	c-0.7-0.1-1.3,0.5-1.3,1.2c0,0.4,0.2,0.8,0.5,1.1l0,0c0.1,0.1,0.2,0.1,0.3,0.2c1.2,0.5,1.8,1.8,1.4,3.1c-0.1,0.1-0.1,0.2-0.1,0.3
	l0,0c-0.1,0.7,0.5,1.3,1.2,1.3c0.4,0,0.8-0.2,1.1-0.5l0,0c0.1-0.1,0.1-0.2,0.2-0.2c0.5-1.2,1.8-1.8,3.1-1.4c0.1,0.1,0.2,0.1,0.3,0.1
	l0,0c0.7,0.1,1.3-0.5,1.3-1.2c0-0.4-0.2-0.8-0.5-1.1l0,0C343.7,38,343.6,37.9,343.4,37.9z"/>
<circle class="st5" cx="450.1" cy="164.2" r="4.1"/>
<circle class="st5" cx="129.9" cy="402" r="4.1"/>
<circle class="st5" cx="407.5" cy="253.7" r="4.1"/>
<circle class="st5" cx="250.5" cy="362.8" r="4.1"/>
<circle class="st2" cx="50.9" cy="44.2" r="4.1"/>
<circle class="st6" cx="7.1" cy="157.2" r="4.1"/>
<g class="st7">
	<g>
		<g>
			<path class="st8" d="M387,107.4c-1.2,2-0.6,4.5,1.3,5.8l4.2,2.6c2,1.2,4.5,0.6,5.8-1.3l2.6-4.2c1.2-2,0.6-4.5-1.3-5.8l-4.2-2.6
				c-2-1.2-4.5-0.6-5.8,1.3L387,107.4z M393.2,105.5l4.2,2.6l-2.6,4.2l0,0l-4.2-2.6L393.2,105.5z"/>
			
				<ellipse transform="matrix(0.5334 -0.8458 0.8458 0.5334 104.6198 389.2103)" class="st8" cx="405.1" cy="99.8" rx="2.1" ry="2.1"/>
			
				<ellipse transform="matrix(0.5334 -0.8458 0.8458 0.5334 105.1356 380.4124)" class="st8" cx="397.4" cy="94.9" rx="2.1" ry="2.1"/>
			<path class="st8" d="M406.6,118.3c1,0.6,2.3,0.3,2.9-0.7l11.9-18.8c2.5-3.9,1.3-9.1-2.6-11.6l-2.3-1.5l1.1-1.8
				c0.6-1,0.3-2.3-0.7-2.9c-1-0.6-2.3-0.3-2.9,0.7l-1.1,1.8l-8.1-5.1l1.1-1.8c0.6-1,0.3-2.3-0.7-2.9c-1-0.6-2.3-0.3-2.9,0.7
				l-1.1,1.8l-8-5l1.1-1.8c0.6-1,0.3-2.3-0.7-2.9c-1-0.6-2.3-0.3-2.9,0.7l-1.1,1.8l-2.2-1.4c-3.9-2.5-9.1-1.3-11.6,2.6l-17.5,27.7
				c-2.5,3.9-1.3,9.1,2.6,11.6l31.2,19.7c3.9,2.5,9.1,1.3,11.6-2.6c0.6-1,0.3-2.3-0.7-2.9c-1-0.6-2.3-0.3-2.9,0.7
				c-1.2,2-3.8,2.5-5.8,1.3l-31.2-19.7c-2-1.2-2.5-3.8-1.3-5.8l17.5-27.7c1.2-2,3.8-2.5,5.8-1.3l2.2,1.4l-1.1,1.8
				c-0.6,1-0.3,2.3,0.7,2.9c1,0.6,2.3,0.3,2.9-0.7l1.1-1.8l8,5l-1.1,1.8c-0.6,1-0.3,2.3,0.7,2.9c1,0.6,2.3,0.3,2.9-0.7l1.1-1.8
				l8.1,5.1l-1.1,1.8c-0.6,1-0.3,2.3,0.7,2.9c1,0.6,2.3,0.3,2.9-0.7l1.1-1.8l2.3,1.5c2,1.2,2.5,3.8,1.3,5.8l-11.9,18.8
				C405.3,116.4,405.6,117.7,406.6,118.3z"/>
			
				<ellipse transform="matrix(0.5334 -0.8458 0.8458 0.5334 88.5714 361.7849)" class="st8" cx="372.2" cy="100.6" rx="2.1" ry="2.1"/>
			
				<ellipse transform="matrix(0.5334 -0.8458 0.8458 0.5334 106.1673 362.8165)" class="st8" cx="382" cy="85.2" rx="2.1" ry="2.1"/>
			
				<ellipse transform="matrix(0.5334 -0.8458 0.8458 0.5334 97.3693 362.3007)" class="st8" cx="377.1" cy="92.9" rx="2.1" ry="2.1"/>
			
				<ellipse transform="matrix(0.5334 -0.8458 0.8458 0.5334 96.8535 371.0986)" class="st8" cx="384.8" cy="97.8" rx="2.1" ry="2.1"/>
			
				<ellipse transform="matrix(0.5334 -0.8458 0.8458 0.5334 105.6514 371.6144)" class="st8" cx="389.7" cy="90" rx="2.1" ry="2.1"/>
			
				<ellipse transform="matrix(0.5334 -0.8458 0.8458 0.5334 88.0556 370.5828)" class="st8" cx="379.9" cy="105.5" rx="2.1" ry="2.1"/>
		</g>
	</g>
</g>
<path class="st9" d="M411.7,316.1L347.6,276v22.4h-50.2c25.9-23.6,42.6-56.9,44.2-94.2h22.5L324,140.1l-40.1,64.1h22.2
	c-1.3,23.2-10.6,44.2-25.1,60.5c1.1-2.3,1.8-4.8,1.8-7.5V134c3.2,3.8,6.2,7.9,8.9,12.3l3.1,5l30.3-18.4l-3.1-5
	c-24.8-40.7-68.1-65-115.7-65c-72.7,0-132.2,57.6-135.3,129.5H48.4l40.1,64.1l40.1-64.1h-22.2c1.3-22.2,9.9-42.4,23.4-58.4v123.2
	c0,9.7,7.9,17.7,17.7,17.7h117.8c2.6,0,5-0.6,7.2-1.6c-17.7,15.6-40.8,25.1-66.1,25.1H106.2v11.8h100.1
	c61.7,0,111.9-50.2,111.9-111.9v-5.9h-12.9l18.8-30.1l18.8,30.1h-12.9v5.9c0,68.2-55.5,123.6-123.6,123.6h-159v11.8h300.3v22.4
	L411.7,316.1z M165,157.1v-11.8h11.8v11.8h11.8v-11.8h11.8v11.8h11.8v-11.8h11.8v11.8h11.8v-11.8h11.8v11.8h11.8v-11.8H271v23.6
	H141.5v-23.6h11.8v11.8H165z M94.4,198.3v5.9h12.9l-18.8,30.1l-18.8-30.1h12.9v-5.9c0-68.2,55.5-123.6,123.6-123.6
	c41.5,0,79.4,20.2,102.4,54.4l-10.2,6.2c-20.9-30.7-55-48.8-92.3-48.8C144.6,86.4,94.4,136.6,94.4,198.3L94.4,198.3z M130.1,133.5
	c18.4-21.6,45.7-35.3,76.2-35.3c29.8,0,57.3,13,76.1,35.3h-23.2v-11.8h-11.8v11.8h-11.8v-11.8h-11.8v11.8h-11.8v-11.8h-11.8v11.8
	h-11.8v-11.8h-11.8v11.8H165v-11.8h-11.8v11.8H130.1z M265.1,263.1H147.4c-3.3,0-5.9-2.6-5.9-5.9v-76.5H271v76.5
	C271,260.4,268.4,263.1,265.1,263.1z M261.4,321.9c7.4-3.3,14.4-7.3,21-11.8h76.9v-12.9l30.1,18.8l-30.1,18.8v-12.9H261.4z"/>
<g>
	<g>
		<path class="st10" d="M206.3,257.8h-0.9c-0.2,0-0.3,0-0.4,0c-10.2-0.4-19.9-5.5-26-13.7c-1.1-1.5-0.8-3.7,0.7-4.7
			c1.5-1.1,3.7-0.8,4.7,0.7c5,6.8,13,10.9,21.4,11c8.4-0.2,16.4-4.2,21.4-11c1.1-1.5,3.2-1.9,4.7-0.7c1.5,1.1,1.9,3.2,0.7,4.7
			c-6.1,8.3-15.8,13.4-26,13.7C206.6,257.8,206.4,257.8,206.3,257.8z"/>
	</g>
	<g>
		<path class="st10" d="M248.2,209.4c-1.9,0-3.4-1.5-3.4-3.4c0-4.4-3.5-7.9-7.9-7.9c-4.3,0-7.9,3.5-7.9,7.9c0,1.9-1.5,3.4-3.4,3.4
			c-1.9,0-3.4-1.5-3.4-3.4c0-8.1,6.6-14.7,14.7-14.7c8.1,0,14.7,6.6,14.7,14.7C251.6,207.8,250.1,209.4,248.2,209.4z"/>
	</g>
	<g>
		<path class="st10" d="M185,209.4c-1.9,0-3.4-1.5-3.4-3.4c0-4.4-3.5-7.9-7.9-7.9c-4.4,0-7.9,3.5-7.9,7.9c0,1.9-1.5,3.4-3.4,3.4
			c-1.9,0-3.4-1.5-3.4-3.4c0-8.1,6.6-14.7,14.7-14.7c8.1,0,14.7,6.6,14.7,14.7C188.4,207.8,186.9,209.4,185,209.4z"/>
	</g>
</g>
</svg>
