<?xml version="1.0" encoding="utf-8"?>
<!-- Generator: Adobe Illustrator 21.1.0, SVG Export Plug-In . SVG Version: 6.00 Build 0)  -->
<svg version="1.1" id="Layer_1" xmlns="http://www.w3.org/2000/svg" xmlns:xlink="http://www.w3.org/1999/xlink" x="0px" y="0px"
	 viewBox="0 0 512 512" style="enable-background:new 0 0 512 512;" xml:space="preserve">
<title>Commercial delivery</title>
<g>
	<g>
		<g>
			<g>
				<g>
					<g>
						<path d="M442,181.6c-13.7,13.7-27.5,27.5-41.2,41.2c-7,7-14.2,14.2-21.2,21.2c-17.2,17.2-34.4,34.4-51.6,51.6
							c-18.1,18.1-36.2,36.2-54.3,54.3c-6.4,6.4-12.9,12.9-19.3,19.3c-3,3-6.2,5.8-8.9,8.9c-0.1,0.1-0.2,0.2-0.2,0.2
							c-0.2,0.3,4.4-2.9,2.7-2.1c1.3-0.5,2.6-1.1,3.9-1.6c-1.5,0.6-3.1,0.8-4.7,1c1.5-0.2,2.9-0.4,4.3-0.6
							c-13.1,1.7-26.5,1.5-39.6,1.5c5.4,5.4,10.8,10.8,16.3,16.3c-0.1-13.3-0.3-27,1.3-40.2c-0.2,1.5-0.4,2.9-0.6,4.3
							c0.4-2.9,1.5-5.7,1.5-8.6c-0.8,2.7-1.5,5.5-2.2,8.2c-2.2,3.6-2.7,3.1-1.2,1.7c0.8-0.8,1.6-1.6,2.4-2.4
							c2.9-2.9,5.7-5.7,8.7-8.7c8.8-8.8,17.6-17.6,26.5-26.5c13.1-13.1,26.1-26.1,39.2-39.2c13.5-13.5,27-27.1,40.6-40.6
							c10-10,20.1-20.1,30.2-30.2c15.8-15.8,31.6-31.6,47.4-47.4c0.4-0.4,0.8-0.8,1.1-1.1c-7.6,0-15.3,0-23,0
							c12.3,12.3,24.6,24.6,36.9,36.9c1.8,1.8,3.6,3.6,5.4,5.4c6,6,17.1,6.5,23,0c6-6.5,6.5-16.6,0-23
							c-12.4-12.4-24.8-24.8-37.1-37.1c-1.7-1.7-3.4-3.4-5.2-5.2c-6.2-6.2-16.8-6.2-23,0c-14.5,14.5-29,29-43.4,43.4
							c-9.8,9.8-19.6,19.6-29.3,29.4c-15.3,15.3-30.6,30.6-45.9,45.9c-11.4,11.4-22.9,22.9-34.3,34.3
							c-14.4,14.4-29.1,28.7-43.3,43.3c-3.4,3.5-5.6,7.8-5.6,12.7c0.2-1.5,0.4-2.9,0.6-4.3c-1.6,4.6-1.7,9.8-2.1,14.5
							c-0.4,5.1-0.5,10.2-0.6,15.3c-0.1,6.3-0.2,12.6-0.1,18.9c0.1,8.8,7.4,16.2,16.3,16.3c12.1,0.1,24.2,0,36.3-1.1
							c7.4-0.7,14.6-1.3,20.3-6.7c1.1-1.1,2.2-2.2,3.3-3.3c15.2-15.2,30.5-30.5,45.8-45.8c21.6-21.6,43.2-43.2,64.7-64.7
							c13.2-13.2,26.5-26.5,39.7-39.7c13.8-13.8,27.5-27.5,41.3-41.3c0.6-0.6,1.2-1.2,1.8-1.8c6-6,6.5-17.1,0-23
							C458.5,175.6,448.4,175.2,442,181.6z"/>
					</g>
				</g>
				<g>
					<g>
						<path d="M482.8,140.8c-11.9,11.9-23.8,23.8-35.7,35.7c-1.7,1.7-3.4,3.4-5.2,5.2c7.6,0,15.3,0,23,0
							c-12.4-12.4-24.8-24.8-37.1-37.1c-1.7-1.7-3.4-3.4-5.2-5.2c0,7.6,0,15.3,0,23c12.1-12.1,24.2-24.2,36.3-36.3
							c1.1-1.1,2.3-2.3,3.4-3.4c0.3-0.3,0.7-0.5,0.9-0.9c0-0.1,0.2-0.1,0.2-0.2c-0.1,0.8-3.7,2.2-0.7,0.8c-1.3,0.5-2.6,1.1-3.9,1.6
							c0.8-0.3,1.4-0.4,2.2-0.5c-1.5,0.2-2.9,0.4-4.3,0.6c0.5-0.1,1-0.1,1.5,0c-1.5-0.2-2.9-0.4-4.3-0.6c0.9,0.2,1.6,0.3,2.4,0.7
							c-1.3-0.5-2.6-1.1-3.9-1.6c2.8,1.5,5.8,2.7,9.1,2.7c-2.7-0.8-5.5-1.5-8.2-2.2c1.2,0.8,2.1,2.2-1.9-1.5
							c-1.6-3.9-3.2-7.6-4.8-11.5c0,9,8.9,15.7,14.8,21.5c5.9,5.9,11.8,11.8,17.6,17.6c0.9,0.9,1.9,1.9,2.8,2.8
							c0.2,0.2,0.4,0.5,0.7,0.7l0.1,0.1l0,0c0.3,0.3,0.1-0.1-0.8-1.1c-1.7-2.3-0.4-0.4-0.1,0.2c-0.5-1.3-1.1-2.6-1.6-3.9
							c0.3,0.7,0.4,1.3,0.5,2.1c-0.2-1.5-0.4-2.9-0.6-4.3c0.1,0.7,0.1,1.4,0,2.1c0.2-1.5,0.4-2.9,0.6-4.3c-0.1,0.7-0.3,1.4-0.5,2.1
							c0.5-1.3,1.1-2.6,1.6-3.9C481.2,143.1,480,143.9,482.8,140.8c-5.7,6.3-6.7,16.9,0,23c6.2,5.7,16.9,6.7,23,0
							c9.1-10,9.2-24.3-0.2-34.2c-1.8-2-3.8-3.8-5.6-5.6c-6.7-6.7-13.3-13.3-20-20c-1.8-1.8-3.6-3.6-5.4-5.4
							c1.6,3.9,3.2,7.6,4.8,11.5c0-9.2-8.6-17.4-17.7-17.4c2.7,0.8,5.5,1.5,8.2,2.2c-10.3-6-22.3-3.4-30.4,4.7
							c-2.9,2.9-5.7,5.7-8.6,8.6c-8.4,8.4-16.7,16.7-25.1,25.1c-2,2-4.1,4.1-6.1,6.1c-6.2,6.2-6.2,16.8,0,23
							c12.3,12.3,24.6,24.6,36.9,36.9c1.8,1.8,3.6,3.6,5.4,5.4c6.2,6.2,16.8,6.2,23,0c11.9-11.9,23.8-23.8,35.7-35.7
							c1.7-1.7,3.4-3.4,5.2-5.2c6-6,6.5-17.1,0-23C499.3,134.8,489.3,134.4,482.8,140.8z"/>
					</g>
				</g>
				<g>
					<g>
						<path d="M482.8,140.8c-11.9,11.9-23.8,23.8-35.7,35.7c-1.7,1.7-3.4,3.4-5.2,5.2c7.6,0,15.3,0,23,0
							c-12.4-12.4-24.8-24.8-37.1-37.1c-1.7-1.7-3.4-3.4-5.2-5.2c0,7.6,0,15.3,0,23c12.1-12.1,24.2-24.2,36.3-36.3
							c1.1-1.1,2.3-2.3,3.4-3.4c0.3-0.3,0.7-0.5,0.9-0.9c0-0.1,0.2-0.1,0.2-0.2c-0.1,0.8-3.7,2.2-0.7,0.8c-1.3,0.5-2.6,1.1-3.9,1.6
							c0.8-0.3,1.4-0.4,2.2-0.5c-1.5,0.2-2.9,0.4-4.3,0.6c0.5-0.1,1-0.1,1.5,0c-1.5-0.2-2.9-0.4-4.3-0.6c0.9,0.2,1.6,0.3,2.4,0.7
							c-1.3-0.5-2.6-1.1-3.9-1.6c2.8,1.5,5.8,2.7,9.1,2.7c-2.7-0.8-5.5-1.5-8.2-2.2c2.6,1.7-3.3-3-1.4-0.9c0.7,0.7,1.4,1.4,2.1,2.1
							c2.5,2.5,5,5,7.6,7.6c5.9,5.9,11.7,11.7,17.6,17.6c0.9,0.9,1.8,1.8,2.7,2.7c0.2,0.2,0.4,0.5,0.7,0.7l0.1,0.1l0,0
							c0.3,0.3,0.1-0.1-0.8-1.1c-1.7-2.3-0.4-0.4-0.1,0.2c-0.5-1.3-1.1-2.6-1.6-3.9c0.3,0.7,0.4,1.3,0.5,2.1
							c-0.2-1.5-0.4-2.9-0.6-4.3c0.1,0.7,0.1,1.4,0,2.1c0.2-1.5,0.4-2.9,0.6-4.3c-0.1,0.7-0.3,1.4-0.5,2.1c0.5-1.3,1.1-2.6,1.6-3.9
							C481.2,143.1,480,143.9,482.8,140.8c-5.7,6.3-6.7,16.9,0,23c6.2,5.7,16.9,6.7,23,0c9.1-10,9.2-24.5-0.3-34.3
							c-2.1-2.2-4.3-4.3-6.5-6.5c-6.9-6.9-13.9-13.9-20.9-20.9c-4.7-4.7-9.2-9.5-16.5-9.5c2.7,0.8,5.5,1.5,8.2,2.2
							c-10.3-6-22.3-3.4-30.4,4.7c-2.9,2.9-5.7,5.7-8.6,8.6c-8.4,8.4-16.7,16.7-25.1,25.1c-2,2-4.1,4.1-6.1,6.1
							c-6.2,6.2-6.2,16.8,0,23c12.3,12.3,24.6,24.6,36.9,36.9c1.8,1.8,3.6,3.6,5.4,5.4c6.2,6.2,16.8,6.2,23,0
							c11.9-11.9,23.8-23.8,35.7-35.7c1.7-1.7,3.4-3.4,5.2-5.2c6-6,6.5-17.1,0-23C499.3,134.8,489.3,134.4,482.8,140.8z"/>
					</g>
				</g>
				<g>
					<g>
						<path d="M198.3,344.1c-0.1,0.2-0.1,0.4-0.2,0.5c-0.7,2.2-0.8,4.3-0.3,6.5c0.1,2.2,0.8,4.2,2,6.1c1,1.9,2.4,3.4,4.2,4.6
							c1.6,1.5,3.4,2.4,5.5,2.9c1.5,0.2,2.9,0.4,4.3,0.6c2.9,0,5.7-0.8,8.2-2.2c1.1-0.9,2.2-1.7,3.3-2.5c2-2,3.4-4.4,4.2-7.2
							c0.1-0.2,0.1-0.4,0.2-0.5c0.7-2.2,0.8-4.3,0.3-6.5c-0.1-2.2-0.8-4.2-2-6.1c-1-1.9-2.4-3.4-4.2-4.6c-1.6-1.5-3.4-2.4-5.5-2.9
							c-1.5-0.2-2.9-0.4-4.3-0.6c-2.9,0-5.7,0.8-8.2,2.2c-1.1,0.9-2.2,1.7-3.3,2.5C200.4,338.9,199,341.3,198.3,344.1L198.3,344.1z"
							/>
					</g>
				</g>
				<g>
					<g>
						<path d="M228,356.6c0.1-0.2,0.2-0.4,0.3-0.6c-0.9,1.1-1.7,2.2-2.5,3.3c0.1-0.1,0.1-0.1,0.1-0.1c-7.6,0-15.3,0-23,0l0,0
							c1.5,1.6,3.2,2.7,5.3,3.4c2,1,4,1.5,6.3,1.4c2.2,0.1,4.3-0.4,6.3-1.4c2-0.7,3.7-1.8,5.3-3.4c0.9-1.1,1.7-2.2,2.5-3.3
							c1.5-2.5,2.2-5.3,2.2-8.2c-0.2-1.5-0.4-2.9-0.6-4.3c-0.8-2.8-2.2-5.2-4.2-7.2l0,0c-1.5-1.6-3.2-2.7-5.3-3.4
							c-2-1-4-1.5-6.3-1.4c-1.5,0.2-2.9,0.4-4.3,0.6c-2.8,0.8-5.2,2.2-7.2,4.2c-1,1.1-2,2.3-2.7,3.5c-0.1,0.2-0.2,0.3-0.2,0.4
							c-1.2,1.8-1.8,3.9-2,6.1c-0.5,2.2-0.4,4.3,0.3,6.5c0.5,2.1,1.5,4,2.9,5.5c1.1,1.8,2.7,3.1,4.6,4.2c1.3,0.5,2.6,1.1,3.9,1.6
							c2.9,0.8,5.7,0.8,8.7,0c1.3-0.5,2.6-1.1,3.9-1.6C224.6,361,226.5,359,228,356.6L228,356.6z"/>
					</g>
				</g>
			</g>
		</g>
	</g>
	<g>
		<g>
			<path d="M395.2,62.3c0,25.9,0,51.9,0,77.8c0,3.6,0,7.3,0,11c9.3-3.9,18.5-7.6,27.8-11.5c-0.1-0.1-0.2-0.2-0.3-0.3
				c-6.2-6.2-16.8-6.2-23,0c-14.5,14.5-29,29-43.4,43.4c-9.8,9.8-19.6,19.6-29.3,29.4c-15.3,15.3-30.6,30.6-45.9,45.9
				c-11.4,11.4-22.9,22.9-34.3,34.3c-14.4,14.4-29.1,28.7-43.3,43.3c-3.4,3.5-5.6,7.8-5.6,12.7c0.2-1.5,0.4-2.9,0.6-4.3
				c-1.6,4.6-1.7,9.8-2.1,14.5c-0.4,5.1-0.5,10.2-0.6,15.3c-0.1,6.3-0.2,12.6-0.1,18.9c0.1,8.8,7.4,16.2,16.3,16.3
				c9.4,0.1,18.8-0.1,28.3-0.5c9.9-0.5,21.2-0.3,28.8-7.6c9.2-8.9,18.1-18.1,27.1-27.1c16.8-16.8,33.6-33.6,50.4-50.4
				s33.5-33.5,50.3-50.3c8.7-8.7,17.6-17.1,26-26c0.1-0.1,0.3-0.3,0.4-0.4c-9.3-3.9-18.5-7.6-27.8-11.5c0,7.3,0,14.5,0,21.7
				c0,17.4,0,34.7,0,52.1c0,20.9,0,41.8,0,62.6c0,17.7,0,35.5,0,53.2c0,8.2,0.1,16.4,0,24.6c0,1.5-0.1,3.1-0.3,4.6
				c0.2-1.5,0.4-2.9,0.6-4.3c-0.4,3.1-1.2,6.1-2.4,9.1c0.5-1.3,1.1-2.6,1.6-3.9c-0.9,2-1.8,3.9-3,5.6c-0.3,0.5-0.7,1-1,1.5
				c-0.8,1.4,2.8-3.3,1-1.4c-0.7,0.8-1.4,1.6-2.1,2.3c-0.8,0.8-1.6,1.4-2.3,2.1c-1.7,1.5,1.6-1.3,1.6-1.2c0.1,0.1-1.4,0.9-1.5,1
				c-1.9,1.2-3.9,2.3-5.9,3.2c1.3-0.5,2.6-1.1,3.9-1.6c-2.9,1.2-6,2-9.1,2.4c1.5-0.2,2.9-0.4,4.3-0.6c-4.1,0.5-8.2,0.3-12.4,0.3
				c-7.8,0-15.6,0-23.4,0c-26.1,0-52.3,0-78.5,0c-31.7,0-63.4,0-95.1,0c-27.3,0-54.6,0-81.8,0c-12.8,0-25.6,0.1-38.4,0
				c-1.6,0-3.2-0.1-4.8-0.3c1.5,0.2,2.9,0.4,4.3,0.6c-3.1-0.4-6.1-1.2-9.1-2.4c1.3,0.5,2.6,1.1,3.9,1.6c-2-0.8-3.9-1.8-5.6-3
				c-0.5-0.3-1-0.7-1.5-1c-1.4-0.8,3.3,2.8,1.4,1c-0.8-0.7-1.6-1.4-2.3-2.1c-0.8-0.8-1.4-1.6-2.1-2.3c-1.5-1.7,1.3,1.6,1.2,1.6
				c-0.1,0.1-0.9-1.4-1-1.5c-1.2-1.9-2.3-3.9-3.2-5.9c0.5,1.3,1.1,2.6,1.6,3.9c-1.2-2.9-2-6-2.4-9.1c0.2,1.5,0.4,2.9,0.6,4.3
				c-0.5-4.6-0.3-9.3-0.3-14c0-9.3,0-18.5,0-27.8c0-13.9,0-27.8,0-41.7c0-17.1,0-34.3,0-51.4c0-18.7,0-37.4,0-56.2c0-19,0-38,0-57
				c0-17.6,0-35.2,0-52.8c0-14.8,0-29.6,0-44.4c0-10.6,0-21.1,0-31.7c0-4.8,0-9.5,0-14.3c0-1.6,0.1-3.3,0.3-4.9
				c-0.2,1.5-0.4,2.9-0.6,4.3c0.4-3.1,1.2-6.1,2.4-9.1c-0.5,1.3-1.1,2.6-1.6,3.9c0.9-2,1.8-3.9,3-5.6c0.3-0.5,0.7-1,1-1.5
				c0.8-1.4-2.8,3.3-1,1.4c0.7-0.8,1.4-1.6,2.1-2.3c0.8-0.8,1.6-1.4,2.3-2.1c1.7-1.5-1.6,1.3-1.6,1.2c-0.1-0.1,1.4-0.9,1.5-1
				c1.9-1.2,3.9-2.3,5.9-3.2c-1.3,0.5-2.6,1.1-3.9,1.6c2.9-1.2,6-2,9.1-2.4c-1.5,0.2-2.9,0.4-4.3,0.6c4.1-0.5,8.2-0.3,12.4-0.3
				c7.8,0,15.6,0,23.4,0c26.1,0,52.3,0,78.5,0c31.7,0,63.4,0,95.1,0c27.3,0,54.6,0,81.8,0c12.8,0,25.6-0.1,38.4,0
				c1.6,0,3.2,0.1,4.8,0.3c-1.5-0.2-2.9-0.4-4.3-0.6c3.1,0.4,6.1,1.2,9.1,2.4c-1.3-0.5-2.6-1.1-3.9-1.6c2,0.8,3.9,1.8,5.6,3
				c0.5,0.3,1,0.7,1.5,1c1.4,0.8-3.3-2.8-1.4-1c0.8,0.7,1.6,1.4,2.3,2.1c0.8,0.8,1.4,1.6,2.1,2.3c1.5,1.7-1.3-1.6-1.2-1.6
				c0.1-0.1,0.9,1.4,1,1.5c1.2,1.9,2.3,3.9,3.2,5.9c-0.5-1.3-1.1-2.6-1.6-3.9c1.2,2.9,2,6,2.4,9.1c-0.2-1.5-0.4-2.9-0.6-4.3
				C395.1,59.3,395.2,60.8,395.2,62.3c0.1,8.5,7.4,16.6,16.3,16.3c8.7-0.4,16.4-7.2,16.3-16.3c-0.2-14.7-6.5-29.6-17.9-39
				c-9.7-7.9-21.1-12.4-33.7-12.5c-3.9-0.1-7.8,0-11.7,0c-22.2,0-44.5,0-66.7,0c-32.3,0-64.6,0-96.9,0c-30.7,0-61.4,0-92.1,0
				c-18,0-36.1,0-54.1,0c-1.2,0-2.4,0-3.6,0c-12.6,0.1-24,4.6-33.7,12.5c-12.4,10-18,25.5-18,41.1c0,14.7,0,29.4,0,44.2
				c0,28,0,56.1,0,84.1c0,33,0,66,0,99.1c0,30.2,0,60.5,0,90.7c0,19.3,0,38.6,0,57.9c0,3-0.1,6.1,0,9.1c0.1,13.5,5.4,26.6,14.9,36.2
				c9.6,9.8,23,15.2,36.7,15.3c12.4,0.1,24.8,0,37.3,0c28.3,0,56.6,0,84.9,0c33,0,65.9,0,98.9,0c26.2,0,52.5,0,78.7,0
				c17.7,0,37.4,2.2,53-7.9c13.8-8.9,22-22.9,23.8-39.2c0.3-2.4,0.3-4.8,0.3-7.3c0-8.2,0-16.5,0-24.7c0-30.4,0-60.8,0-91.3
				c0-27.4,0-54.9,0-82.4c0-4.4,0-8.8,0-13.2c0-6.5-4.1-12.4-10-14.9c-6-2.5-13.1-1.3-17.8,3.4c-5.2,5.2-10.4,10.4-15.6,15.6
				c-12.4,12.4-24.9,24.9-37.3,37.3c-15,15-30,30-45,45c-12.9,12.9-25.8,25.8-38.6,38.6c-4.2,4.2-8.4,8.4-12.6,12.6
				c-1.8,1.8-3.9,3.6-5.6,5.6c-1,1.2,4.6-3,2.5-2c1.3-0.5,2.6-1.1,3.9-1.6c-1.5,0.6-3.1,0.8-4.7,1c1.5-0.2,2.9-0.4,4.3-0.6
				c-13.1,1.7-26.5,1.5-39.6,1.5c5.4,5.4,10.8,10.8,16.3,16.3c-0.1-13.3-0.3-27,1.3-40.2c-0.2,1.5-0.4,2.9-0.6,4.3
				c0.4-2.9,1.5-5.7,1.5-8.6c-0.8,2.7-1.5,5.5-2.2,8.2c-2.2,3.6-2.7,3.1-1.2,1.7c0.8-0.8,1.6-1.6,2.4-2.4c2.9-2.9,5.7-5.7,8.7-8.7
				c8.8-8.8,17.6-17.6,26.5-26.5c13.1-13.1,26.1-26.1,39.2-39.2c13.5-13.5,27-27.1,40.6-40.6c10-10,20.1-20.1,30.2-30.2
				c15.8-15.8,31.6-31.6,47.4-47.4c0.4-0.4,0.8-0.8,1.1-1.1c-7.6,0-15.3,0-23,0c0.1,0.1,0.2,0.2,0.3,0.3c4.7,4.7,11.8,5.9,17.8,3.4
				c5.9-2.5,10-8.4,10-14.9c0-25.9,0-51.9,0-77.8c0-3.6,0-7.3,0-11c0-8.5-7.5-16.6-16.3-16.3C402.7,46.4,395.2,53.2,395.2,62.3z"/>
		</g>
	</g>
	<g>
		<g>
			<g>
				<path d="M91.6,135c8.1,0,16.1,0,24.2,0c24,0,34.1,0,58.1,0c23.5,0,47.1,0,70.6,0c20.2,0,10.4,0,30.6,0c9.9,0,19.8,0.2,29.7,0
					c0.1,0,0.3,0,0.4,0c8.5,0,16.6-7.5,16.3-16.3c-0.4-8.8-7.2-16.3-16.3-16.3c-8.1,0-16.1,0-24.2,0c-19.4,0-8.7,0-28.1,0
					c-23.5,0-47.1,0-70.6,0c-20.2,0-40.4,0-60.6,0c-9.9,0-19.8-0.2-29.7,0c-0.1,0-0.3,0-0.4,0c-8.5,0-16.6,7.5-16.3,16.3
					C75.7,127.5,82.4,135,91.6,135L91.6,135z"/>
			</g>
		</g>
		<g>
			<g>
				<path d="M240.1,193.9c-20.2,0-10.3,0-30.5,0c-32,0-64.1,0-96.2,0c-7.3,0-14.6,0-21.9,0c-8.5,0-16.6,7.5-16.3,16.3
					c0.4,8.8,7.2,16.3,16.3,16.3c20.2,0,40.3,0,60.5,0c32,0,34.1,0,66.2,0c7.3,0,14.6,0,21.9,0c8.5,0,16.6-7.5,16.3-16.3
					C255.9,201.3,249.2,193.9,240.1,193.9L240.1,193.9z"/>
			</g>
		</g>
		<g>
			<g>
				<path d="M153.3,285.3c-26.8,0-23.5,0-50.3,0c-3.8,0-7.6,0-11.4,0c-8.5,0-16.6,7.5-16.3,16.3c0.4,8.8,7.2,16.3,16.3,16.3
					c26.8,0,23.5,0,50.3,0c3.8,0,7.6,0,11.4,0c8.5,0,16.6-7.5,16.3-16.3C169.1,292.8,162.4,285.3,153.3,285.3L153.3,285.3z"/>
			</g>
		</g>
	</g>
</g>
</svg>
