<?xml version="1.0" encoding="utf-8"?>
<!-- Generator: Adobe Illustrator 21.1.0, SVG Export Plug-In . SVG Version: 6.00 Build 0)  -->
<svg version="1.1" id="Capa_1" xmlns="http://www.w3.org/2000/svg" xmlns:xlink="http://www.w3.org/1999/xlink" x="0px" y="0px"
	 viewBox="0 0 535.5 535.5" style="enable-background:new 0 0 535.5 535.5;" xml:space="preserve">
<style type="text/css">
	.st0{fill:#FFFFFF;}
</style>
<g>
	<g id="notifications-on">
		<path class="st0" d="M75.6,156.9l-45.4-15.2c-32.6,64.8-37.1,142.6-7,214l43.3-21.5C41.8,273.6,45.2,209.8,75.6,156.9z
			 M434.5,151.3l43.3-21.5C439.1,62.7,376.5,18.2,305.1,5l-15.2,45.4C348.3,59.2,401.1,95,434.5,151.3z M396.6,183.7
			c-33.3-67.1-105.7-98.6-176-82.6L213,85.9c-8.6-17.3-31.3-24.9-48.6-16.3s-24.9,31.3-16.3,48.6l7.5,15.2
			c-55.3,46.3-73.8,123.1-40.5,190.2l59.2,119.1l-21.8,64.8l10.8,21.6l368-182.9l-10.8-21.6l-64.8-21.8L396.6,183.7z M389.6,512.5
			c2.2-1.1,6.5-3.2,8.7-4.3c14.1-9.7,19.5-25.9,17.4-41c0-5.4-1-13-4.3-19.5l-86.6,43C336.6,514.6,365.8,524.4,389.6,512.5z"/>
	</g>
</g>
</svg>
