<?xml version="1.0" encoding="utf-8"?>
<!-- Generator: Adobe Illustrator 21.1.0, SVG Export Plug-In . SVG Version: 6.00 Build 0)  -->
<svg version="1.1" id="Layer_1" xmlns="http://www.w3.org/2000/svg" xmlns:xlink="http://www.w3.org/1999/xlink" x="0px" y="0px"
	 viewBox="0 0 50 50" style="enable-background:new 0 0 50 50;" xml:space="preserve">
<style type="text/css">
	.st0{fill:#282828;}
	.st1{fill:#0038BA;}
</style>
<g>
	<g>
		<g>
			<path class="st0" d="M41.5,8h-3.8V6.8c0-1.3-1.1-2.4-2.4-2.4s-2.4,1.1-2.4,2.4V8H19.4V6.8c0-1.3-1.1-2.4-2.4-2.4
				s-2.4,1.1-2.4,2.4V8c-0.1,0-0.1,0-0.2,0h-3.2c-2.2,0-4,1.8-4,4v13.7c0,0.4,0.4,0.8,0.8,0.8c0.4,0,0.8-0.4,0.8-0.8v-9.4h29
				c0.4,0,0.8-0.4,0.8-0.8s-0.4-0.8-0.8-0.8h-29V12c0-1.3,1.1-2.4,2.4-2.4h3.2c0.1,0,0.1,0,0.2,0v1c0,1.3,1.1,2.4,2.4,2.4
				s2.4-1.1,2.4-2.4v-1h13.5v1c0,1.3,1.1,2.4,2.4,2.4s2.4-1.1,2.4-2.4v-1h3.8c1.3,0,2.4,1.1,2.4,2.4v30.5c0,0.8-0.7,1.4-1.4,1.4
				s-1.4-0.7-1.4-1.4v-2.1c0-0.4-0.4-0.8-0.8-0.8h-9.3c-0.4,0-0.8,0.4-0.8,0.8s0.4,0.8,0.8,0.8h8.5v1.3c0,0.5,0.1,1,0.4,1.4H7.5
				C6.7,44,6,43.3,6,42.5v-1.3h18c0.4,0,0.8-0.4,0.8-0.8s-0.4-0.8-0.8-0.8h-8c1.4-1.2,2.3-3,2.3-5c0-3.6-3-6.6-6.6-6.6
				s-6.6,3-6.6,6.6c0,2,0.9,3.8,2.3,5H5.2c-0.4,0-0.8,0.4-0.8,0.8v2.1c0,1.7,1.4,3.1,3.1,3.1h35c1.7,0,3.1-1.4,3.1-3.1V12
				C45.6,9.8,43.8,8,41.5,8z M17.8,10.6c0,0.4-0.4,0.8-0.8,0.8s-0.8-0.4-0.8-0.8V6.8C16.2,6.4,16.6,6,17,6s0.8,0.4,0.8,0.8V10.6z
				 M36.1,10.6c0,0.4-0.4,0.8-0.8,0.8s-0.8-0.4-0.8-0.8V6.8c0-0.4,0.4-0.8,0.8-0.8s0.8,0.4,0.8,0.8V10.6z M6.7,34.6c0-2.7,2.2-5,5-5
				s5,2.2,5,5s-2.2,5-5,5S6.7,37.4,6.7,34.6z"/>
		</g>
	</g>
	<g>
		<g>
			<path class="st0" d="M42.1,14.9c-0.2-0.2-0.4-0.2-0.6-0.2c-0.2,0-0.4,0.1-0.6,0.2c-0.2,0.2-0.2,0.4-0.2,0.6s0.1,0.4,0.2,0.6
				c0.1,0.2,0.4,0.2,0.6,0.2c0.2,0,0.4-0.1,0.6-0.2c0.2-0.2,0.2-0.4,0.2-0.6S42.2,15,42.1,14.9z"/>
		</g>
	</g>
	<g>
		<g>
			<path class="st0" d="M28.4,39.9c-0.2-0.2-0.4-0.2-0.6-0.2s-0.4,0.1-0.6,0.2C27.1,40,27,40.2,27,40.4c0,0.2,0.1,0.4,0.2,0.6
				c0.2,0.2,0.4,0.2,0.6,0.2s0.4-0.1,0.6-0.2c0.2-0.2,0.2-0.4,0.2-0.6C28.7,40.2,28.6,40,28.4,39.9z"/>
		</g>
	</g>
	<g>
		<g>
			<path class="st0" d="M22.6,28.9c-1.7,0-3.1,1.4-3.1,3.1s1.4,3.1,3.1,3.1s3.1-1.4,3.1-3.1S24.3,28.9,22.6,28.9z M22.6,33.4
				c-0.8,0-1.4-0.7-1.4-1.4c0-0.8,0.7-1.4,1.4-1.4c0.8,0,1.4,0.7,1.4,1.4C24.1,32.7,23.4,33.4,22.6,33.4z"/>
		</g>
	</g>
	<g>
		<g>
			<path class="st0" d="M30.1,28.9c-1.7,0-3.1,1.4-3.1,3.1s1.4,3.1,3.1,3.1s3.1-1.4,3.1-3.1S31.8,28.9,30.1,28.9z M30.1,33.4
				c-0.8,0-1.4-0.7-1.4-1.4c0-0.8,0.7-1.4,1.4-1.4c0.8,0,1.4,0.7,1.4,1.4C31.6,32.7,30.9,33.4,30.1,33.4z"/>
		</g>
	</g>
	<g>
		<g>
			<path class="st1" d="M37.6,28.9c-1.7,0-3.1,1.4-3.1,3.1s1.4,3.1,3.1,3.1s3.1-1.4,3.1-3.1S39.3,28.9,37.6,28.9z M37.6,33.4
				c-0.8,0-1.4-0.7-1.4-1.4c0-0.8,0.7-1.4,1.4-1.4c0.8,0,1.4,0.7,1.4,1.4C39,32.7,38.4,33.4,37.6,33.4z"/>
		</g>
	</g>
	<g>
		<g>
			<path class="st1" d="M15.1,20.5c-1.7,0-3.1,1.4-3.1,3.1s1.4,3.1,3.1,3.1s3.1-1.4,3.1-3.1S16.8,20.5,15.1,20.5z M15.1,25
				c-0.8,0-1.4-0.7-1.4-1.4s0.7-1.4,1.4-1.4c0.8,0,1.4,0.7,1.4,1.4S15.9,25,15.1,25z"/>
		</g>
	</g>
	<g>
		<g>
			<path class="st1" d="M30.1,20.5c-1.7,0-3.1,1.4-3.1,3.1s1.4,3.1,3.1,3.1s3.1-1.4,3.1-3.1S31.8,20.5,30.1,20.5z M30.1,25
				c-0.8,0-1.4-0.7-1.4-1.4s0.7-1.4,1.4-1.4c0.8,0,1.4,0.7,1.4,1.4S30.9,25,30.1,25z"/>
		</g>
	</g>
	<g>
		<g>
			<path class="st1" d="M37.6,20.5c-1.7,0-3.1,1.4-3.1,3.1s1.4,3.1,3.1,3.1s3.1-1.4,3.1-3.1S39.3,20.5,37.6,20.5z M37.6,25
				c-0.8,0-1.4-0.7-1.4-1.4s0.7-1.4,1.4-1.4c0.8,0,1.4,0.7,1.4,1.4S38.4,25,37.6,25z"/>
		</g>
	</g>
	<g>
		<g>
			<path class="st1" d="M22.6,20.5c-1.7,0-3.1,1.4-3.1,3.1s1.4,3.1,3.1,3.1s3.1-1.4,3.1-3.1S24.3,20.5,22.6,20.5z M22.6,25
				c-0.8,0-1.4-0.7-1.4-1.4s0.7-1.4,1.4-1.4c0.8,0,1.4,0.7,1.4,1.4S23.4,25,22.6,25z"/>
		</g>
	</g>
	<g>
		<g>
			<path class="st0" d="M14.6,32.7c-0.3-0.3-0.8-0.3-1.1,0l-2.6,2.6l-0.9-0.9c-0.3-0.3-0.8-0.3-1.1,0c-0.3,0.3-0.3,0.8,0,1.1
				l1.5,1.5c0.2,0.2,0.4,0.2,0.6,0.2c0.2,0,0.4-0.1,0.6-0.2l3.2-3.2C14.9,33.5,14.9,33,14.6,32.7z"/>
		</g>
	</g>
</g>
</svg>
