<?xml version="1.0" encoding="utf-8"?>
<!-- Generator: Adobe Illustrator 21.1.0, SVG Export Plug-In . SVG Version: 6.00 Build 0)  -->
<svg version="1.1" id="Layer_1" xmlns="http://www.w3.org/2000/svg" xmlns:xlink="http://www.w3.org/1999/xlink" x="0px" y="0px"
	 viewBox="0 0 50 50" style="enable-background:new 0 0 50 50;" xml:space="preserve">
<style type="text/css">
	.st0{fill:#282828;}
	.st1{fill:#0038BA;}
	.st2{fill:#0038BA;stroke:#0038BA;stroke-width:0.4466;stroke-miterlimit:10;}
	.st3{fill:#282828;stroke:#282828;stroke-width:0.4466;stroke-miterlimit:10;}
</style>
<g>
	<g>
		<path class="st0" d="M39.9,0.1H10c-2.2,0-4,1.8-3.9,4V46c0,2.2,1.7,4,4,4h29.7c2.2,0,4-1.7,4-4V4.1C43.8,1.9,42.1,0.1,39.9,0.1z
			 M15.7,1.7h18.5v3.4c0,0.3-0.3,0.6-0.6,0.6H16.3c-0.3,0-0.6-0.3-0.6-0.6C15.7,5.1,15.7,1.7,15.7,1.7z M16.4,7.2h17.2
			c0.9,0,1.8-0.7,2-1.6H39v37.8H11V5.7h3.4C14.6,6.6,15.5,7.2,16.4,7.2z M42.2,46c0,1.4-1,2.4-2.4,2.4H10.1c-1.4,0-2.4-1-2.4-2.4V4
			c0-1.4,1-2.4,2.4-2.4h4V4H9.2v41h31.4V4h-4.8V1.7h4c1.2,0,2.4,1,2.4,2.4C42.2,4.1,42.2,46,42.2,46z"/>
	</g>
</g>
<g>
	<rect x="82.8" y="13.8" class="st1" width="20" height="1.6"/>
</g>
<g>
	<rect x="82.8" y="17.9" class="st0" width="20" height="1.6"/>
</g>
<g>
	<rect x="82.8" y="22.2" class="st0" width="10" height="1.6"/>
</g>
<g>
	<path class="st2" d="M24.9,15.4c0.2,0,0.4-0.2,0.4-0.4v-1.8c0-0.2-0.2-0.4-0.4-0.4s-0.4,0.2-0.4,0.4v1.8
		C24.6,15.4,24.7,15.4,24.9,15.4z"/>
	<path class="st2" d="M24.9,34.6c-0.2,0-0.4,0.2-0.4,0.4v1.8c0,0.2,0.2,0.4,0.4,0.4s0.4-0.2,0.4-0.4v-1.8
		C25.4,34.8,25.3,34.6,24.9,34.6z"/>
	<path class="st2" d="M36.6,24.6h-1.8c-0.2,0-0.4,0.2-0.4,0.4c0,0.2,0.2,0.4,0.4,0.4h1.8c0.2,0,0.4-0.2,0.4-0.4
		C37,24.8,36.8,24.6,36.6,24.6z"/>
	<path class="st2" d="M15.5,25c0-0.2-0.2-0.4-0.4-0.4h-1.8c-0.2,0-0.4,0.2-0.4,0.4c0,0.2,0.2,0.4,0.4,0.4h1.8
		C15.3,25.4,15.5,25.2,15.5,25z"/>
	<path class="st2" d="M33.6,20.4h0.2l1.6-0.9c0.2-0.2,0.2-0.4,0.2-0.5c-0.2-0.2-0.4-0.2-0.5-0.2l-1.6,0.9c-0.2,0.2-0.2,0.4-0.2,0.5
		C33.3,20.4,33.4,20.4,33.6,20.4z"/>
	<path class="st2" d="M16.2,29.6l-1.6,0.9c-0.2,0.2-0.2,0.4-0.2,0.5c0,0.2,0.2,0.2,0.4,0.2H15l1.6-0.9c0.2-0.2,0.2-0.4,0.2-0.5
		C16.6,29.6,16.4,29.4,16.2,29.6z"/>
	<path class="st2" d="M30.2,33.3c-0.2-0.2-0.4-0.2-0.5-0.2c-0.2,0.2-0.2,0.4-0.2,0.5l0.9,1.6c0,0.2,0.2,0.2,0.4,0.2h0.2
		c0.2-0.2,0.2-0.4,0.2-0.5L30.2,33.3z"/>
	<path class="st2" d="M19.4,14.7c-0.2-0.2-0.4-0.2-0.5-0.2c-0.2,0.2-0.2,0.4-0.2,0.5l0.9,1.6c0,0.2,0.2,0.2,0.4,0.2h0.2
		c0.2-0.2,0.2-0.4,0.2-0.5L19.4,14.7z"/>
	<path class="st2" d="M16.6,19.7L15,18.8c-0.2-0.2-0.4,0-0.5,0.2c-0.2,0.2,0,0.4,0.2,0.5l1.6,0.9h0.2c0.2,0,0.2,0,0.4-0.2
		C16.9,20,16.7,19.9,16.6,19.7z"/>
	<path class="st2" d="M35.2,30.5l-1.6-0.9c-0.2-0.2-0.4,0-0.5,0.2c-0.2,0.2,0,0.4,0.2,0.5l1.6,0.9H35c0.2,0,0.2,0,0.4-0.2
		C35.6,30.9,35.6,30.5,35.2,30.5z"/>
	<path class="st2" d="M20.3,33.2c-0.2-0.2-0.4,0-0.5,0.2l-0.9,1.6c-0.2,0.2,0,0.4,0.2,0.5h0.2c0.2,0,0.2,0,0.4-0.2l0.9-1.6
		C20.5,33.5,20.5,33.3,20.3,33.2z"/>
	<path class="st2" d="M29.7,16.7h0.2c0.2,0,0.2,0,0.4-0.2l0.9-1.6c0.2-0.2,0-0.4-0.2-0.5c-0.2-0.2-0.4,0-0.5,0.2l-0.9,1.6
		C29.5,16.3,29.5,16.7,29.7,16.7z"/>
	<path class="st3" d="M33.4,25c0-0.2-0.2-0.4-0.4-0.4h-7.5l0.9-4.4c0-0.2-0.2-0.4-0.4-0.5c-0.2,0-0.4,0.2-0.5,0.4l-0.9,4.8l0,0l0,0
		c0,0.2,0.2,0.4,0.4,0.4h8C33.3,25.4,33.4,25.2,33.4,25z"/>
</g>
</svg>
