<?xml version="1.0" encoding="utf-8"?>
<!-- Generator: Adobe Illustrator 21.1.0, SVG Export Plug-In . SVG Version: 6.00 Build 0)  -->
<svg version="1.1" id="Layer_1" xmlns="http://www.w3.org/2000/svg" xmlns:xlink="http://www.w3.org/1999/xlink" x="0px" y="0px"
	 viewBox="0 0 50 50" style="enable-background:new 0 0 50 50;" xml:space="preserve">
<style type="text/css">
	.st0{fill:none;stroke:#282828;stroke-width:1.5;stroke-miterlimit:10;}
	.st1{fill:none;stroke:#0038BA;stroke-width:1.5;stroke-miterlimit:10;}
	.st2{fill:#0038BA;}
</style>
<circle class="st0" cx="25" cy="25" r="19.7"/>
<circle class="st1" cx="25" cy="25" r="23.7"/>
<path class="st2" d="M22.9,15v0.7c-2.5,0.4-4.4,2.5-4.4,5.1v0.7c0,2.8,2.3,5.1,5.1,5.1h2.9c0.4,0,0.7,0.4,0.7,0.7V28
	c0,0.4-0.4,0.7-0.7,0.7h-2.9c-0.4,0-0.7-0.4-0.7-0.7v-0.7h-4.4V28c0,2.6,1.9,4.6,4.4,5v1c0,1.2,1,2.1,2.1,2.1s2.1-1,2.1-2.1v-0.7
	c2.5-0.4,4.4-2.5,4.4-5v-0.7c0-2.8-2.3-5.1-5.1-5.1h-2.9c-0.4,0-0.7-0.4-0.7-0.7v-0.7c0-0.4,0.4-0.7,0.7-0.7h2.9
	c0.4,0,0.7,0.4,0.7,0.7v0.7h4.4v-0.7c0-2.6-1.9-4.6-4.4-5v-0.7c0-1.2-1-2.1-2.1-2.1S22.9,13.8,22.9,15z M25.7,15v2.1h0.7
	c1.8,0,3.2,1.2,3.5,2.9h-1.5c-0.3-0.8-1.1-1.5-2-1.5h-2.9c-1.2,0-2.1,1-2.1,2.1v0.7c0,1.2,1,2.1,2.1,2.1h2.9c2,0,3.6,1.7,3.6,3.6
	v0.7c0,2-1.7,3.6-3.6,3.6h-0.7v2.1c0,0.4-0.4,0.7-0.7,0.7s-0.7-0.4-0.7-0.7v-2.1h-0.7c-1.8,0-3.2-1.2-3.5-2.9h1.5
	c0.3,0.8,1.1,1.5,2,1.5h2.9c1.2,0,2.1-1,2.1-2.1v-0.7c0-1.2-1-2.1-2.1-2.1h-2.9c-2,0-3.6-1.7-3.6-3.6v-0.7c0-2,1.7-3.6,3.6-3.6h0.7
	V15c0-0.4,0.4-0.7,0.7-0.7S25.7,14.7,25.7,15z"/>
</svg>
