<?xml version="1.0" encoding="utf-8"?>
<!-- Generator: Adobe Illustrator 22.0.1, SVG Export Plug-In . SVG Version: 6.00 Build 0)  -->
<svg version="1.1" id="Layer_1" xmlns="http://www.w3.org/2000/svg" xmlns:xlink="http://www.w3.org/1999/xlink" x="0px" y="0px"
	 viewBox="0 0 50 50" style="enable-background:new 0 0 50 50;" xml:space="preserve">
<style type="text/css">
	.st0{fill:#282828;stroke:#282828;stroke-width:0.8272;stroke-miterlimit:10;}
	.st1{fill:#0038BA;stroke:#0038BA;stroke-width:0.8272;stroke-miterlimit:10;}
	.st2{fill:#282828;}
	.st3{fill:#0038BA;}
</style>
<g>
	<path class="st0" d="M24.8,41.7"/>
</g>
<g>
	<path class="st1" d="M32.1,38.9c0,0,0.1-0.1,0.1-0.2v-9.6c0-0.1,0-0.2-0.1-0.3l-7-3c-0.1,0-0.1,0-0.2,0l-7,3
		c-0.1,0.1-0.1,0.1-0.1,0.2c0,0,0,0.1,0,0.1v9.6c0,0.1,0,0.2,0.1,0.2l6.8,2.8c0.2,0.1,0.5,0.1,0.7,0L32.1,38.9z M25,26.3l6.5,2.8
		l-3,1.3L22,27.6L25,26.3z M24.8,41.3l-6.6-2.7v-9.1l6.6,2.7V41.3z M25,31.8L18.5,29l3-1.2l6.5,2.7L25,31.8z M28.4,30.8l3.4-1.4v9.1
		l-6.6,2.7v-9.1L28.4,30.8"/>
</g>
<g>
	<g>
		<path class="st2" d="M39.9,0.1H10c-2.2,0-4,1.8-3.9,4V46c0,2.2,1.7,4,4,4h29.7c2.2,0,4-1.7,4-4V4.1C43.8,1.9,42.1,0.1,39.9,0.1z
			 M15.7,1.7h18.5v3.4c0,0.3-0.3,0.6-0.6,0.6H16.3c-0.3,0-0.6-0.3-0.6-0.6C15.7,5.1,15.7,1.7,15.7,1.7z M16.4,7.2h17.2
			c0.9,0,1.8-0.7,2-1.6H39v37.8H11V5.7h3.4C14.6,6.6,15.5,7.2,16.4,7.2z M42.2,46c0,1.4-1,2.4-2.4,2.4H10.1c-1.4,0-2.4-1-2.4-2.4V4
			c0-1.4,1-2.4,2.4-2.4h4V4H9.2v41h31.4V4h-4.8V1.7h4c1.2,0,2.4,1,2.4,2.4C42.2,4.1,42.2,46,42.2,46z"/>
	</g>
</g>
<g>
	<rect x="15" y="12.2" class="st3" width="20" height="1.6"/>
</g>
<g>
	<rect x="15" y="16.3" class="st2" width="20" height="1.6"/>
</g>
<g>
	<rect x="15" y="20.6" class="st2" width="10" height="1.6"/>
</g>
</svg>
