<?xml version="1.0" encoding="utf-8"?>
<!-- Generator: Adobe Illustrator 22.0.1, SVG Export Plug-In . SVG Version: 6.00 Build 0)  -->
<svg version="1.1" id="Layer_1" xmlns="http://www.w3.org/2000/svg" xmlns:xlink="http://www.w3.org/1999/xlink" x="0px" y="0px"
	 viewBox="0 0 50 50" style="enable-background:new 0 0 50 50;" xml:space="preserve">
<style type="text/css">
	.st0{fill:#282828;}
	.st1{fill:#0038BA;}
	.st2{fill:#0038BA;stroke:#0038BA;stroke-width:0.6139;stroke-miterlimit:10;}
</style>
<g>
	<g>
		<path class="st0" d="M39.9,0.1H10c-2.2,0-4,1.8-3.9,4V46c0,2.2,1.7,4,4,4h29.7c2.2,0,4-1.7,4-4V4.1C43.8,1.9,42.1,0.1,39.9,0.1z
			 M15.7,1.7h18.5v3.4c0,0.3-0.3,0.6-0.6,0.6H16.3c-0.3,0-0.6-0.3-0.6-0.6C15.7,5.1,15.7,1.7,15.7,1.7z M16.4,7.2h17.2
			c0.9,0,1.8-0.7,2-1.6H39v37.8H11V5.7h3.4C14.6,6.6,15.5,7.2,16.4,7.2z M42.2,46c0,1.4-1,2.4-2.4,2.4H10.1c-1.4,0-2.4-1-2.4-2.4V4
			c0-1.4,1-2.4,2.4-2.4h4V4H9.2v41h31.4V4h-4.8V1.7h4c1.2,0,2.4,1,2.4,2.4C42.2,4.1,42.2,46,42.2,46z"/>
	</g>
</g>
<g>
	<rect x="15" y="12.2" class="st1" width="20" height="1.6"/>
</g>
<g>
	<rect x="15" y="16.3" class="st0" width="20" height="1.6"/>
</g>
<g>
	<rect x="15" y="20.6" class="st0" width="10" height="1.6"/>
</g>
<g>
	<g>
		<g>
			<path class="st2" d="M17.7,28.5L17.7,28.5l-0.3,0.3"/>
			<path class="st2" d="M25,41.9l0.2-0.1"/>
		</g>
		<g>
			<polygon class="st2" points="32,29.1 32,29.1 32,29.1 31.9,29 			"/>
		</g>
		<g>
			<path class="st2" d="M32.4,28.8"/>
			<path class="st2" d="M32.5,28.8"/>
		</g>
		<g>
			<path class="st2" d="M32.2,38.9c0.1-0.1,0.2-0.2,0.2-0.3v-6.1l1.9-0.8c0,0,0,0,0,0c0,0,0,0,0.1,0c0.1-0.1,0.2-0.2,0.1-0.3
				c-0.1-0.1-0.1-0.2-0.2-0.3l-2.1-2.5c-0.1-0.1-0.3-0.2-0.4-0.3l-6.5-2.7c-0.2-0.1-0.4-0.1-0.5,0l-7,2.9l0,0l-0.1,0.1l-0.2,0.2
				l-1.9,2.4c-0.1,0.1-0.1,0.2-0.1,0.3s0.1,0.2,0.2,0.2l1.8,0.8v6.3c0,0.1,0.1,0.3,0.2,0.3l7.1,2.9c0.2,0.1,0.3,0.1,0.5,0L32.2,38.9
				z M16.1,31.3l1.7-2.1l6.6,2.8L22.7,34L16.1,31.3z M24.6,32.6v8.6L18,38.5v-5.8l4.4,1.9c0.2,0.1,0.5,0,0.7-0.2L24.6,32.6z
				 M24.8,31.4L24.8,31.4l-6.2-2.6l6.4-2.7l6.2,2.6L24.8,31.4z M31.8,32.7v5.7l-6.6,2.7v-8.5l1.6,1.9c0.1,0.1,0.2,0.1,0.3,0.1
				L31.8,32.7z M32,29.1l1.7,2.2L27.1,34l-1.8-2.2L32,29.1"/>
			<path class="st2" d="M24.9,25.5"/>
			<path class="st2" d="M25.2,25.5"/>
		</g>
		<g>
			<line class="st2" x1="32" y1="29.1" x2="32" y2="29.1"/>
		</g>
	</g>
</g>
</svg>
