<?xml version="1.0" encoding="utf-8"?>
<!-- Generator: Adobe Illustrator 22.0.1, SVG Export Plug-In . SVG Version: 6.00 Build 0)  -->
<svg version="1.1" id="Layer_1" xmlns="http://www.w3.org/2000/svg" xmlns:xlink="http://www.w3.org/1999/xlink" x="0px" y="0px"
	 viewBox="0 0 50 50" style="enable-background:new 0 0 50 50;" xml:space="preserve">
<style type="text/css">
	.st0{fill:#0038BA;}
	.st1{fill:#282828;}
</style>
<polygon class="st0" points="22,37.7 16.1,31.9 17.9,30.2 22,34.4 32.2,24.2 33.8,26 "/>
<g>
	<g>
		<g>
			<path class="st1" d="M38.1,3H11.8C9.9,3,8.3,4.6,8.4,6.5v36.9c0,1.9,1.5,3.5,3.5,3.5h26.2c1.9,0,3.5-1.5,3.5-3.5V6.5
				C41.6,4.6,40.1,3,38.1,3z M16.8,4.4h16.3v3c0,0.3-0.3,0.5-0.5,0.5H17.3c-0.3,0-0.5-0.3-0.5-0.5V4.4z M17.4,9.3h15.2
				c0.8,0,1.6-0.6,1.8-1.4h2.9v33.3H12.6V7.9h3C15.8,8.7,16.6,9.3,17.4,9.3z M40.2,43.5c0,1.2-0.9,2.1-2.1,2.1H11.9
				c-1.2,0-2.1-0.9-2.1-2.1v-37c0-1.2,0.9-2.1,2.1-2.1h3.5v2.1h-4.3v36.1h27.7V6.5h-4.2V4.4h3.5c1.1,0,2.1,0.9,2.1,2.1
				C40.2,6.5,40.2,43.5,40.2,43.5z"/>
		</g>
	</g>
	<g>
		<rect x="16.2" y="13.7" class="st0" width="17.6" height="1.4"/>
	</g>
	<g>
		<rect x="16.2" y="17.3" class="st1" width="17.6" height="1.4"/>
	</g>
	<g>
		<rect x="16.2" y="21.1" class="st1" width="8.8" height="1.4"/>
	</g>
</g>
</svg>
