<?xml version="1.0" encoding="utf-8"?>
<!-- Generator: Adobe Illustrator 22.0.1, SVG Export Plug-In . SVG Version: 6.00 Build 0)  -->
<svg version="1.1" id="Layer_1" xmlns="http://www.w3.org/2000/svg" xmlns:xlink="http://www.w3.org/1999/xlink" x="0px" y="0px"
	 viewBox="0 0 50 50" style="enable-background:new 0 0 50 50;" xml:space="preserve">
<path d="M49.1,14.5l-8.4-9.3l0,0c-0.4-0.4-0.9-0.6-1.4-0.6H2.2c-1,0-1.9,0.8-1.9,1.9v27.9c0,0.5,0.2,1,0.6,1.3l0,0l10.2,9.3
	c0.3,0.3,0.8,0.5,1.3,0.5h35.3c1,0,1.9-0.8,1.9-1.9V15.7c0-0.1,0-0.2,0-0.3C49.6,15,49.4,14.7,49.1,14.5z M10.6,39.4l-6.5-5.9v-23
	l6.5,6.5V39.4z M29,8.3l5.6,5.6h-5.3l-5.6-5.6H29z M14.5,8.3h5.3l5.6,5.6H20L14.5,8.3z M35.7,32.4c0,1-0.8,1.9-1.9,1.9h-9.3
	c-1,0-1.9-0.8-1.9-1.9V17.6h3.7v13H32v-13h3.7V32.4z"/>
</svg>
