<?xml version="1.0" encoding="utf-8"?>
<!-- Generator: Adobe Illustrator 21.1.0, SVG Export Plug-In . SVG Version: 6.00 Build 0)  -->
<svg version="1.1" id="Layer_1" xmlns="http://www.w3.org/2000/svg" xmlns:xlink="http://www.w3.org/1999/xlink" x="0px" y="0px"
	 viewBox="0 0 512 512" style="enable-background:new 0 0 512 512;" xml:space="preserve">
<path d="M256,2c-21.9,0-40.3,14.3-47.3,33.9h-37.3c-9.4,0-16.9,7.6-16.9,16.9v67.7c0,9.4,7.6,16.9,16.9,16.9h169.3
	c9.4,0,16.9-7.6,16.9-16.9V52.8c0-9.4-7.6-16.9-16.9-16.9h-37.3C296.3,16.3,277.9,2,256,2z M256,35.9c9.6,0,16.9,7.4,16.9,16.9
	c0,9.4,7.6,16.9,16.9,16.9h33.9v33.9H188.3V69.7h33.9c9.4,0,16.9-7.6,16.9-16.9C239.1,43.2,246.4,35.9,256,35.9z"/>
<path d="M56.7,69.7c-9.4,0-16.9,7.6-16.9,16.9V493c0,9.4,7.6,16.9,16.9,16.9h398.7c9.4,0,16.9-7.6,16.9-16.9V86.7
	c0-9.4-7.6-16.9-16.9-16.9h-70.8v33.9h53.9v372.5H73.6V103.6h53.9V69.7H56.7z"/>
<polygon points="342.4,216.8 332.6,207 325.1,214.5 307.5,232.1 303.2,236.4 285.9,253.7 268.6,271 251.3,288.3 234.1,305.6 
	216.9,322.7 186.9,292.7 179.4,285.2 169.6,295 154.4,310.2 169.6,325.4 186.9,342.7 204.5,360.3 216.9,372.7 232.2,357.4 
	241.9,347.7 249.5,340.1 266.8,322.8 284.1,305.6 301.3,288.3 325.1,264.5 342.4,247.2 357.6,232 "/>
</svg>
