<?xml version="1.0" encoding="utf-8"?>
<!-- Generator: Adobe Illustrator 21.1.0, SVG Export Plug-In . SVG Version: 6.00 Build 0)  -->
<svg version="1.1" id="Layer_1" xmlns="http://www.w3.org/2000/svg" xmlns:xlink="http://www.w3.org/1999/xlink" x="0px" y="0px"
	 viewBox="0 0 24 24" style="enable-background:new 0 0 24 24;" xml:space="preserve">
<style type="text/css">
	.st0{fill:#FFFFFF;}
</style>
<g>
	<g>
		<g>
			<path class="st0" d="M20.8,2H18V1.5C18,0.7,17.3,0,16.5,0h-9C6.7,0,6,0.7,6,1.5V2H3.2C2,2,1,3,1,4.2v17.6C1,23,2,24,3.2,24h17.6
				c1.2,0,2.2-1,2.2-2.2V4.2C23,3,22,2,20.8,2z M8,2h8v2H8V2z M21,21.8c0,0.1-0.1,0.2-0.2,0.2H3.2C3.1,22,3,21.9,3,21.8V4.2
				C3,4.1,3.1,4,3.2,4H6v0.5C6,5.3,6.7,6,7.5,6l0,0h9l0,0C17.3,6,18,5.3,18,4.5V4h2.8C20.9,4,21,4.1,21,4.2V21.8z"/>
			<rect x="4.9" y="8.5" class="st0" width="4" height="4"/>
			<path class="st0" d="M18.3,9h-4c-0.6,0-1,0.4-1,1s0.4,1,1,1h4c0.6,0,1-0.4,1-1S18.9,9,18.3,9z"/>
			<path class="st0" d="M18.3,17.3h-4c-0.6,0-1,0.4-1,1s0.4,1,1,1h4c0.6,0,1-0.4,1-1S18.9,17.3,18.3,17.3z"/>
			<path class="st0" d="M10.5,15.5l-2.9,2.9l-1.1-1.1c-0.4-0.4-0.9-0.4-1.2,0s-0.4,0.9,0,1.2L7,20.2c0.4,0.4,0.9,0.4,1.2,0l3.5-3.5
				c0.4-0.4,0.4-0.9,0-1.2C11.4,15.1,10.9,15.1,10.5,15.5z"/>
		</g>
	</g>
</g>
</svg>
