<?xml version="1.0" encoding="utf-8"?>
<!-- Generator: Adobe Illustrator 21.1.0, SVG Export Plug-In . SVG Version: 6.00 Build 0)  -->
<svg version="1.1" id="Layer_1" xmlns="http://www.w3.org/2000/svg" xmlns:xlink="http://www.w3.org/1999/xlink" x="0px" y="0px"
	 viewBox="0 0 496 496" style="enable-background:new 0 0 496 496;" xml:space="preserve">
<style type="text/css">
	.st0{fill:#E5E5E5;}
</style>
<path class="st0" d="M112,224v-17.1c13.8-3.6,24-16,24-30.9c0-17.6-14.4-32-32-32c-8.8,0-16-7.2-16-16s7.2-16,16-16s16,7.2,16,16h16
	c0-14.9-10.2-27.3-24-30.9V80H96v17.1c-13.8,3.6-24,16-24,30.9c0,17.6,14.4,32,32,32c8.8,0,16,7.2,16,16s-7.2,16-16,16
	s-16-7.2-16-16H72c0,14.9,10.2,27.3,24,30.9V224H112z"/>
<path class="st0" d="M160,144h16v16h-16V144z"/>
<path class="st0" d="M32,144h16v16H32V144z"/>
<path class="st0" d="M128,400h16v16h-16V400z"/>
<path class="st0" d="M160,400h16v16h-16V400z"/>
<path class="st0" d="M192,400h16v16h-16V400z"/>
<path class="st0" d="M224,400h16v16h-16V400z"/>
<path class="st0" d="M128,368h112v16H128V368z"/>
<path class="st0" d="M352,336h-80c-8.8,0-16,7.2-16,16v48c0,8.8,7.2,16,16,16h80c8.8,0,16-7.2,16-16v-48
	C368,343.2,360.8,336,352,336z M352,368h-16v-16h16L352,368z M272,384h16v16h-16V384z M304,400v-32h-32v-16h48v32h32l0,16H304z"/>
<path class="st0" d="M489,194L375.8,80.9c-9.1-9.1-24.9-9-33.9,0L180.7,240h-21.5c29.3-18.4,48.8-50.9,48.8-88
	c0-57.3-46.7-104-104-104S0,94.7,0,152c0,55.2,43.2,100.3,97.6,103.7c-1,2.6-1.6,5.4-1.6,8.3v160c0,13.2,10.8,24,24,24h256
	c13.2,0,24-10.8,24-24V316.9l89-89c4.5-4.5,7-10.6,7-17C496,204.6,493.5,198.5,489,194z M381.5,109.2l11.3,11.3L273.3,240h-22
	L381.5,109.2z M187.2,256l166-163.8c3.1-3.1,8.2-3.1,11.3,0l5.7,5.7L212.8,256H376c4.4,0,8,3.6,8,8v8H112v-8c0-4.4,3.6-8,8-8H187.2z
	 M347.5,233.6l33.9-33.9l22.6,22.6l22.6-22.6l11.3,11.3l-41.3,41.3C392.7,245,384.9,240,376,240h-22.1L347.5,233.6z M392.8,188.4
	l11.3-11.3l11.3,11.3l-11.3,11.3L392.8,188.4z M112,288h272v16H112V288z M16,152c0-48.5,39.5-88,88-88s88,39.5,88,88s-39.5,88-88,88
	S16,200.5,16,152z M376,432H120c-4.4,0-8-3.6-8-8V320h272v104C384,428.4,380.4,432,376,432z M477.7,216.6L400,294.3v-22.6l49.4-49.4
	c6.2-6.2,6.2-16.4,0-22.6l-33.9-33.9c-6.2-6.2-16.4-6.2-22.6,0l-56.6,56.6c-4.8,4.8-5.9,11.8-3.3,17.7h-37l108.2-108.2l73.5,73.5
	C480.8,208.4,480.8,213.5,477.7,216.6z"/>
</svg>
