<?xml version="1.0" encoding="utf-8"?>
<!-- Generator: Adobe Illustrator 21.1.0, SVG Export Plug-In . SVG Version: 6.00 Build 0)  -->
<svg version="1.1" id="Layer_1" xmlns="http://www.w3.org/2000/svg" xmlns:xlink="http://www.w3.org/1999/xlink" x="0px" y="0px"
	 viewBox="0 0 24 24" style="enable-background:new 0 0 24 24;" xml:space="preserve">
<style type="text/css">
	.st0{fill:#FFFFFF;}
</style>
<g>
	<path class="st0" d="M21.3,2.9H2.7C1.2,2.9,0.1,4,0.1,5.5v13.1c0,1.4,1.2,2.6,2.6,2.6h18.7c1.4,0,2.6-1.2,2.6-2.6V5.5
		C23.9,4,22.8,2.9,21.3,2.9z M2.7,4.3h18.7c0.6,0,1.2,0.5,1.2,1.2v1.9h-21V5.5C1.5,4.8,2,4.3,2.7,4.3z M21.3,19.7H2.7
		c-0.6,0-1.2-0.5-1.2-1.2V8.8h21v9.8C22.5,19.2,22,19.7,21.3,19.7z"/>
	<path class="st0" d="M7.8,12.3c-0.1-0.1-0.3-0.2-0.5-0.2H4.5c-0.4,0-0.7,0.3-0.7,0.7v1.7c0,0.4,0.3,0.7,0.7,0.7h3.2
		c0.4,0,0.7-0.3,0.7-0.7v-0.2c0-0.2-0.1-0.4-0.2-0.5L7.8,12.3z"/>
</g>
</svg>
