<?xml version="1.0" encoding="utf-8"?>
<!-- Generator: Adobe Illustrator 22.0.1, SVG Export Plug-In . SVG Version: 6.00 Build 0)  -->
<svg version="1.1" id="Layer_1" xmlns="http://www.w3.org/2000/svg" xmlns:xlink="http://www.w3.org/1999/xlink" x="0px" y="0px"
	 viewBox="0 0 50 50" style="enable-background:new 0 0 50 50;" xml:space="preserve">
<g>
	<path d="M48.1,13.5h-5.8V7.7c0-1.1-0.9-1.9-1.9-1.9H1.9C0.9,5.8,0,6.6,0,7.7v26.9c0,1.1,0.9,1.9,1.9,1.9h5.8v5.8
		c0,1.1,0.9,1.9,1.9,1.9h38.5c1.1,0,1.9-0.9,1.9-1.9V15.4C50,14.3,49.1,13.5,48.1,13.5z M30.8,11.5h3.8c1.1,0,1.9,0.9,1.9,1.9
		s-0.9,1.9-1.9,1.9h-3.8c-1.1,0-1.9-0.9-1.9-1.9S29.7,11.5,30.8,11.5z M22.1,23.1h-1.9c-2.7,0-4.8-2.1-4.8-4.8
		c0-2.3,1.6-4.3,3.9-4.7v-0.1c0-1.1,0.9-1.9,1.9-1.9c1.1,0,1.9,0.9,1.9,1.9H25c1.1,0,1.9,0.9,1.9,1.9c0,1.1-0.9,1.9-1.9,1.9h-4.8
		c-0.5,0-1,0.4-1,1c0,0.5,0.4,1,1,1h1.9c2.7-0.3,5,1.7,5.3,4.3c0.3,2.7-1.7,5-4.3,5.3l0,0c0,1.1-0.9,1.9-1.9,1.9
		c-1.1,0-1.9-0.9-1.9-1.9h-1.9c-1.1,0-1.9-0.9-1.9-1.9s0.9-1.9,1.9-1.9h4.8c0.5,0,1-0.4,1-1S22.6,23.1,22.1,23.1z M5.8,28.8
		c0-1.1,0.9-1.9,1.9-1.9h3.8c1.1,0,1.9,0.9,1.9,1.9c0,1.1-0.9,1.9-1.9,1.9H7.7C6.6,30.8,5.8,29.9,5.8,28.8z M46.2,40.4H11.5v-3.8
		h28.8c1.1,0,1.9-0.9,1.9-1.9V17.3h3.8V40.4z"/>
</g>
</svg>
