<?xml version="1.0" encoding="utf-8"?>
<!-- Generator: Adobe Illustrator 21.1.0, SVG Export Plug-In . SVG Version: 6.00 Build 0)  -->
<svg version="1.1" id="Layer_1" xmlns="http://www.w3.org/2000/svg" xmlns:xlink="http://www.w3.org/1999/xlink" x="0px" y="0px"
	 viewBox="0 0 512 512" style="enable-background:new 0 0 512 512;" xml:space="preserve">
<path d="M460.8,29.3H51.2C22.9,29.3,0,52.2,0,80.5v357.1c0,28.3,22.9,51.2,51.2,51.2h409.6c28.3,0,51.2-22.9,51.2-51.2V80.5
	C512,52.2,489.1,29.3,460.8,29.3z M51.2,63.4h409.6c9.4,0,17.1,7.6,17.1,17.1v34.1H34.1V80.5C34.1,71,41.8,63.4,51.2,63.4z
	 M477.9,251H34.1V148.7h443.7L477.9,251L477.9,251z M460.8,454.6H51.2c-9.4,0-17.1-7.6-17.1-17.1V251h443.7v186.5
	C477.9,447,470.2,454.6,460.8,454.6z"/>
<g>
	<g>
		<path d="M256,284.3c-18.3,0-33.2-12.9-33.2-28.4c0-15.7,14.9-28.4,33.2-28.4s33.2,12.9,33.2,28.4c0,10.1,8.2,18.4,18.4,18.4
			c10.1,0,18.4-8.2,18.4-18.4c0-30.1-21.9-55.5-51.6-62.9v-12.6c0-10.1-8.2-18.4-18.4-18.4c-10.1,0-18.4,8.2-18.4,18.4V193
			c-29.6,7.6-51.6,32.9-51.6,62.9c0,36,31.3,65.3,70.1,65.3c18.3,0,33.2,12.9,33.2,28.4c0,15.7-14.9,28.4-33.2,28.4
			c-18.4,0-33.2-12.9-33.2-28.4c0-10.1-8.2-18.4-18.4-18.4c-10.2,0-18.4,8.2-18.4,18.4c0,30.1,21.9,55.5,51.6,62.9v15
			c0,10.1,8.2,18.4,18.4,18.4s18.4-8.2,18.4-18.4v-15c29.6-7.6,51.6-32.9,51.6-62.9C326.2,324.3,294.6,284.3,256,284.3z"/>
	</g>
</g>
</svg>
