<?xml version="1.0" encoding="utf-8"?>
<!-- Generator: Adobe Illustrator 21.1.0, SVG Export Plug-In . SVG Version: 6.00 Build 0)  -->
<svg version="1.1" id="Layer_1" xmlns="http://www.w3.org/2000/svg" xmlns:xlink="http://www.w3.org/1999/xlink" x="0px" y="0px"
	 viewBox="0 0 1000 818.4" style="enable-background:new 0 0 1000 818.4;" xml:space="preserve">
<style type="text/css">
	.st0{fill:none;stroke:#999999;stroke-width:9.5;stroke-miterlimit:10;}
	.st1{fill:none;stroke:#999999;stroke-width:7.5;stroke-miterlimit:10;}
	.st2{fill:none;stroke:#999999;stroke-width:6;stroke-miterlimit:10;}
	.st3{fill:none;stroke:#999999;stroke-width:10.5;stroke-miterlimit:10;}
	.st4{fill:none;stroke:#999999;stroke-width:8.5;stroke-miterlimit:10;}
	.st5{fill:#282828;}
	.st6{fill:#0038BA;}
	.st7{fill:none;}
</style>
<line class="st0" x1="935.9" y1="643.6" x2="831.8" y2="643.6"/>
<line class="st0" x1="957.2" y1="593.6" x2="884.1" y2="593.6"/>
<circle class="st1" cx="894.5" cy="787.5" r="23.5"/>
<circle class="st2" cx="440.2" cy="72.3" r="15.1"/>
<circle class="st3" cx="42.2" cy="657.7" r="21"/>
<line class="st4" x1="183.1" y1="733" x2="235.5" y2="733"/>
<line class="st4" x1="104.5" y1="733" x2="156.9" y2="733"/>
<line class="st4" x1="86.4" y1="193" x2="130.7" y2="193"/>
<line class="st4" x1="20.1" y1="193" x2="64.3" y2="193"/>
<circle class="st2" cx="957.2" cy="32.2" r="26.2"/>
<g>
	<g>
		<g>
			<g>
				<path class="st5" d="M546.7,230H340.8v0.1c-1.9,0-3.7,0.7-5,2l-71,71c-1.3,1.3-2,3.1-2,5h-0.1v333.6c0,7.8,6.4,14.2,14.2,14.2
					h213v-14.2h-42.6v-21.3h14.2c3.9,0,7.1-3.2,7.1-7.1v-35.5c0-3.9-3.2-7.1-7.1-7.1h-14.2v-21.3h14.2c3.9,0,7.1-3.2,7.1-7.1v-35.5
					c0-3.9-3.2-7.1-7.1-7.1h-0.2c18-13.4,28.6-34.4,28.6-56.8c0.1-39.2-31.6-71-70.8-71.1c-39.2-0.1-71,31.6-71.1,70.8
					c0,22.5,10.6,43.6,28.6,57.1h-57c-3.9,0-7.1,3.2-7.1,7.1v28.4h-14.2c-3.9,0-7.1,3.2-7.1,7.1v35.5c0,3.9,3.2,7.1,7.1,7.1h14.2
					v21.3h-14.2c-3.9,0-7.1,3.2-7.1,7.1v28.4h-14.2V315.2h56.8c7.8,0,14.2-6.4,14.2-14.2v-56.8h198.8v413.5h14.2V244.2
					C560.9,236.4,554.5,230,546.7,230z M454.4,584.9v21.3H326.6v-21.3H454.4z M362.1,443c0-31.4,25.4-56.8,56.8-56.8
					s56.8,25.4,56.8,56.8s-25.4,56.8-56.8,56.8C387.6,499.7,362.2,474.3,362.1,443z M326.6,514h127.8v21.3H326.6V514z M305.3,570.7
					v-21.3h127.8v21.3H319.5H305.3z M305.3,620.4h127.8v21.3H305.3V620.4z M333.7,301H287l46.8-46.8V301z"/>
			</g>
		</g>
		<g>
			<g>
				<path class="st6" d="M418.9,421.7h21.3v-14.2H426v-7.1h-14.2v8.4c-11.1,3.9-16.9,16-13,27.1c3,8.5,11.1,14.2,20.1,14.2
					c3.9,0,7.1,3.2,7.1,7.1c0,3.9-3.2,7.1-7.1,7.1h-21.3v14.2h14.2v7.1H426v-8.4c11.1-3.9,16.9-16,13-27.1
					c-3-8.5-11.1-14.2-20.1-14.2c-3.9,0-7.1-3.2-7.1-7.1S415,421.7,418.9,421.7z"/>
			</g>
		</g>
		<g>
			<g>
				<rect x="369.2" y="286.8" class="st5" width="120.7" height="14.2"/>
			</g>
		</g>
		<g>
			<g>
				<rect x="291.1" y="329.4" class="st6" width="241.4" height="14.2"/>
			</g>
		</g>
		<g>
			<g>
				<rect x="291.1" y="357.8" class="st5" width="85.2" height="14.2"/>
			</g>
		</g>
		<g>
			<g>
				<rect x="468.6" y="357.8" class="st5" width="63.9" height="14.2"/>
			</g>
		</g>
	</g>
	<g>
		<path class="st7" d="M649.7,384c38.7,31.4,44.7,88.4,13.3,127.1c-22.4,27.7-58,38.6-90.6,31.1v35.6c1.7,0.3,3.3,0.5,5,0.7
			c2.8,0.4,4.9,2.2,5.8,4.8l10.4,33.4l32-3.4l3.2-34.8c0.2-2.6,2-5,4.6-5.8c13.2-4.5,25.5-11.2,36.5-19.8c2.1-1.7,5-2,7.4-0.7
			l30.9,16.3l20.3-25.1l-22.4-26.9c-1.7-2.1-2-4.9-0.8-7.4c6.1-12.5,10.1-25.9,11.8-39.8c0.4-2.8,2.2-4.9,4.8-5.8l33.4-10.4l-3.4-32
			l-34.8-3.2c-2.6-0.2-5-2-5.8-4.6c-4.5-13.2-11.2-25.5-19.8-36.5c-1.7-2.1-2-5-0.7-7.4l16.3-30.9l-25-20.3l-26.9,22.4
			c-2.1,1.7-4.9,2-7.4,0.8c-12.5-6.1-25.9-10.1-39.8-11.8c-2.7-0.3-4.9-2.2-5.7-4.8L592,291.5l-19.5,2v72.6
			C598.6,360.2,627.2,365.8,649.7,384z"/>
		<path class="st7" d="M652.3,502.5c26.6-32.9,21.5-81.2-11.3-107.8c-19.9-16.2-45.6-20.6-68.6-14.3v13.9
			c19.9-6.7,42.7-3.4,60.2,10.8c6.9,5.6,12.4,12.3,16.5,20.2c1.7,3.3,0.4,7.5-3,9.3c-3.3,1.7-7.5,0.4-9.3-3
			c-3.1-6.1-7.5-11.5-12.8-15.8c-15-12.2-35.1-14.1-51.6-6.7v90.5c20,9,44.5,3.8,58.9-14c6.5-8.1,10.3-17.8,11-28.1
			c0.3-3.8,3.5-6.7,7.3-6.4c3.7,0.2,6.6,3.5,6.3,7.4c-0.8,13.2-5.7,25.6-14,35.9c-17.1,21.1-45.2,28.4-69.6,20.1v13.7
			C600.9,535.9,632.6,526.8,652.3,502.5z"/>
		<path class="st6" d="M624,415.7c5.3,4.3,9.8,9.7,12.8,15.8c1.7,3.4,5.9,4.7,9.3,3c3.4-1.7,4.7-5.9,3-9.3
			c-4-7.9-9.6-14.6-16.5-20.2c-17.5-14.2-40.3-17.5-60.2-10.8V409C589,401.6,609,403.5,624,415.7z"/>
		<path class="st6" d="M642,494.2c8.3-10.3,13.2-22.7,14-35.9c0.3-3.9-2.6-7.2-6.3-7.4c-3.8-0.3-7.1,2.6-7.3,6.4
			c-0.7,10.3-4.4,20-11,28.1c-14.5,17.8-38.9,23-58.9,14v14.9C596.8,522.6,624.9,515.4,642,494.2z"/>
		<path class="st5" d="M663,511.1c31.4-38.7,25.4-95.8-13.3-127.1c-22.4-18.2-51.1-23.8-77.2-17.8v14.1c23-6.3,48.6-1.8,68.6,14.3
			c32.8,26.6,37.9,74.9,11.3,107.8c-19.7,24.3-51.4,33.4-79.9,25.6v14.2C605,549.7,640.6,538.8,663,511.1z"/>
		<path class="st6" d="M769.9,457.6l-4.5-43.2c-0.3-3.2-3-5.8-6.3-6.1l-36.2-3.3c-4.4-11.7-10.3-22.7-17.8-32.7l16.9-32.2
			c1.5-2.9,0.8-6.5-1.8-8.6l-33.8-27.4c-2.6-2.1-6.2-2.1-8.7,0l-27.9,23.2c-11.4-5.1-23.3-8.6-35.7-10.6L603.4,282
			c-1-3.2-4-5.1-7.3-4.8l-23.6,2.5v14l19.5-2l10.4,33.4c0.9,2.6,3,4.4,5.7,4.8c13.9,1.7,27.3,5.7,39.8,11.8c2.5,1.2,5.3,0.9,7.4-0.8
			l26.9-22.4l25,20.3l-16.3,30.9c-1.2,2.4-1,5.3,0.7,7.4c8.6,11,15.3,23.3,19.8,36.5c0.9,2.6,3.2,4.4,5.8,4.6l34.8,3.2l3.4,32
			L722,463.6c-2.6,0.9-4.4,3-4.8,5.8c-1.7,13.9-5.7,27.3-11.8,39.8c-1.2,2.5-0.9,5.3,0.8,7.4l22.4,26.9l-20.3,25.1l-30.9-16.3
			c-2.4-1.2-5.3-1-7.4,0.7c-11,8.6-23.3,15.3-36.5,19.8c-2.6,0.9-4.4,3.2-4.6,5.8l-3.2,34.8l-32,3.4l-10.4-33.4
			c-0.9-2.6-3-4.4-5.8-4.8c-1.7-0.2-3.3-0.4-5-0.7v17l9.8,31.7c1,3.2,4,5.1,7.3,4.8l43.2-4.5c3.2-0.3,5.8-3,6.1-6.3l3.3-36.2
			c11.7-4.4,22.7-10.3,32.7-17.8l32.1,16.9c2.9,1.5,6.5,0.8,8.6-1.8L743,548c2.1-2.6,2.1-6.2,0-8.7l-23.2-27.9
			c5.1-11.4,8.6-23.3,10.6-35.7l34.7-10.7C768.2,463.9,770.2,460.9,769.9,457.6z"/>
	</g>
</g>
<line class="st4" x1="770" y1="211" x2="870.6" y2="211"/>
</svg>
