<?xml version="1.0" encoding="utf-8"?>
<!-- Generator: Adobe Illustrator 21.1.0, SVG Export Plug-In . SVG Version: 6.00 Build 0)  -->
<svg version="1.1" id="Layer_1" xmlns="http://www.w3.org/2000/svg" xmlns:xlink="http://www.w3.org/1999/xlink" x="0px" y="0px"
	 viewBox="0 0 24 24" style="enable-background:new 0 0 24 24;" xml:space="preserve">
<style type="text/css">
	.st0{fill:#FFFFFF;}
</style>
<g>
	<g>
		<g>
			<path class="st0" d="M14.6,9.2H4.9C4.4,9.2,4,9.6,4,10c0,0.5,0.4,0.8,0.8,0.8h9.7c0.5,0,0.8-0.4,0.8-0.8
				C15.4,9.6,15,9.2,14.6,9.2z"/>
			<path class="st0" d="M10.6,22H3.9c-0.9,0-1.7-0.7-1.7-1.7V3.7C2.2,2.8,3,2,3.9,2h15.7c0.9,0,1.7,0.7,1.7,1.7v1
				c0,0.5,0.4,0.8,0.8,0.8c0.5,0,0.8-0.4,0.8-0.8v-1c0-1.8-1.5-3.3-3.3-3.3H3.9C2,0.4,0.6,1.9,0.6,3.7v16.6c0,1.8,1.5,3.3,3.3,3.3
				h6.8c0.5,0,0.8-0.4,0.8-0.8C11.5,22.3,11.1,22,10.6,22z"/>
			<path class="st0" d="M15.4,4.6H4.8C4.3,4.6,4,4.9,4,5.4s0.4,0.8,0.8,0.8h10.6c0.5,0,0.8-0.4,0.8-0.8S15.8,4.6,15.4,4.6z"/>
			<path class="st0" d="M11.4,14.8c0-0.5-0.4-0.8-0.8-0.8H4.8C4.3,14,4,14.4,4,14.8c0,0.5,0.4,0.8,0.8,0.8h5.8
				C11.1,15.6,11.4,15.3,11.4,14.8z"/>
		</g>
	</g>
</g>
<path class="st0" d="M22.7,11c-1.3-1-3.2-0.7-4.1,0.7l-4.3,6.5c-0.1,0.1-0.1,0.3-0.2,0.5l-0.5,4.2c0,0.4,0.1,0.7,0.4,1
	c0.2,0.2,0.5,0.2,0.7,0.2c0.1,0,0.2,0,0.3-0.1l3.7-1.8c0.2-0.1,0.3-0.2,0.4-0.3l4.3-6.5C24.4,13.9,24.1,12,22.7,11z M17.7,20.3
	l-1.9,0.9l0.2-2.1l2.9-4.4l1.6,1.2L17.7,20.3z M21.9,14.1l-0.2,0.2l-1.6-1.2l0.2-0.2c0.3-0.5,0.9-0.6,1.4-0.2
	C22.1,13,22.2,13.6,21.9,14.1z"/>
</svg>
