<?xml version="1.0" encoding="utf-8"?>
<!-- Generator: Adobe Illustrator 21.1.0, SVG Export Plug-In . SVG Version: 6.00 Build 0)  -->
<svg version="1.1" id="Layer_1" xmlns="http://www.w3.org/2000/svg" xmlns:xlink="http://www.w3.org/1999/xlink" x="0px" y="0px"
	 viewBox="0 0 30 30" style="enable-background:new 0 0 30 30;" xml:space="preserve">
<style type="text/css">
	.st0{fill:#FFFFFF;}
</style>
<path class="st0" d="M23.1,12.3L23.1,12.3l-2.6-2.7L17.8,7c0,0,0,0-0.1-0.1c-0.2-0.1-0.4-0.1-0.5,0.1l0,0c-0.3,0.4-0.4,0.8-0.4,1.2
	c0,0.4,0.1,0.7,0.2,1.1l-6,4.5c-0.4-0.3-0.9-0.5-1.4-0.5C9,13.2,8.5,13.4,8,13.6c0,0-0.1,0-0.1,0.1c-0.1,0.1-0.1,0.4,0,0.5l0,0
	l3.3,3.3l-4.4,5.6l5.6-4.4c0.9,0.9,3.3,3.3,3.3,3.3c0,0,0,0,0.1,0.1c0.2,0.1,0.4,0.1,0.5-0.1L16,21.8l0.3,0.2c0.3-0.5,0.4-1,0.4-1.6
	c0-0.5-0.2-1-0.5-1.4l4.5-6c0.4,0.2,0.7,0.2,1.1,0.2c0.5,0,0.9-0.1,1.2-0.4c0,0,0,0,0.1,0C23.2,12.6,23.2,12.4,23.1,12.3z"/>
</svg>
