<?xml version="1.0" encoding="utf-8"?>
<!-- Generator: Adobe Illustrator 21.1.0, SVG Export Plug-In . SVG Version: 6.00 Build 0)  -->
<svg version="1.1" id="Capa_1" xmlns="http://www.w3.org/2000/svg" xmlns:xlink="http://www.w3.org/1999/xlink" x="0px" y="0px"
	 viewBox="0 0 512 512" style="enable-background:new 0 0 512 512;" xml:space="preserve">
<style type="text/css">
	.st0{fill:#0038BA;}
	.st1{fill:#282828;}
</style>
<g>
	<g>
		<g>
			<path class="st0" d="M185.3,81.8h-0.4c-5.5,0-10,4.5-10,10s4.5,10,10,10h0.3l0,0c5.5,0,10-4.4,10-10
				C195.2,86.3,190.8,81.8,185.3,81.8z"/>
		</g>
	</g>
	<path class="st0" d="M191.5,63.8h-15.2V47.3h-24.5V32.2h39.6v31.6H191.5z"/>
	<path class="st1" d="M79.7,303.7H32.1v-39.6h15.2v24.5h32.5v15.1H79.7z"/>
	<path class="st1" d="M15.2,15.3h97v16.9H39.6v15.2h72.6v128.2h111.3V47.3h72.6V32.2h-72.6V15.3h97v80.6h15.2V0.1H0V216h15.2V15.3z
		 M127.3,160.4v-16.9h81v16.9H127.3z M208.4,15.3v113.1h-81V15.3H208.4z"/>
	<path class="st1" d="M453,240.1l-9.3,12c33.8,26.1,53.1,65.6,53.1,108.2c0,75.4-61.3,136.7-136.7,136.7s-136.7-61.3-136.7-136.7
		c0-9.9,1.1-19.9,3.3-29.6c11.4-51.7,52.1-92.4,103.8-103.8c9.8-2.2,19.7-3.3,29.6-3.3c22.1,0,43.2,5.1,62.7,15.2l7-13.5
		c-21.4-11-45.4-16.9-69.6-16.9c-8.2,0-16.4,0.7-24.5,2v-90.6h-15.2v93.9c-52,14-92.9,55-106.9,106.9H15.2v-80.5H0v95.7h210.4
		c-1.3,8.1-2,16.3-2,24.5c0,83.7,68.1,151.8,151.8,151.8S512,444,512,360.3C512,312.9,490.5,269.1,453,240.1z"/>
	<path class="st0" d="M360,466.7c-23.7,0-46.1-7.8-64.7-22.4l-9.4,11.9c21.3,16.8,46.9,25.7,74.1,25.7c66,0,119.8-53.7,119.8-119.8
		c0-66-53.7-119.8-119.8-119.8c-66,0-119.8,53.7-119.8,119.8c0,28.1,10,55.5,28,77l11.6-9.8c-15.8-18.8-24.5-42.7-24.5-67.2
		c0-57.7,46.9-104.6,104.6-104.6s104.7,46.9,104.7,104.6S417.7,466.7,360,466.7z"/>
	<g>
		<g>
			<path class="st0" d="M105.3,286.9h-0.4c-5.5,0-10,4.5-10,10s4.5,10,10,10h0.3l0,0c5.5,0,10-4.4,10-10
				C115.2,291.4,110.8,286.9,105.3,286.9z"/>
		</g>
	</g>
	<g>
		<g>
			<path class="st0" d="M141.9,286.9h-0.4c-5.5,0-10,4.5-10,10s4.5,10,10,10h0.3l0,0c5.5,0,10-4.4,10-10
				C151.8,291.4,147.4,286.9,141.9,286.9z"/>
		</g>
	</g>
	<rect x="39.6" y="32.2" class="st0" width="87.7" height="15.8"/>
	<rect x="208.1" y="32.2" class="st0" width="87.7" height="15.8"/>
	<path class="st1" d="M411,317h-33c-4.4,0-8,3.6-8,8s3.6,8,8,8h33c4.4,0,8-3.6,8-8S415.4,317,411,317z"/>
	<path class="st1" d="M411,354H307c-4.4,0-8,3.6-8,8s3.6,8,8,8h104c4.4,0,8-3.6,8-8S415.4,354,411,354z"/>
	<path class="st1" d="M411,391H307c-4.4,0-8,3.6-8,8s3.6,8,8,8h104c4.4,0,8-3.6,8-8S415.4,391,411,391z"/>
	<path class="st1" d="M307,333h38c4.4,0,8-3.6,8-8s-3.6-8-8-8h-38c-4.4,0-8,3.6-8,8S302.6,333,307,333z"/>
</g>
</svg>
