<?xml version="1.0" encoding="utf-8"?>
<!-- Generator: Adobe Illustrator 21.1.0, SVG Export Plug-In . SVG Version: 6.00 Build 0)  -->
<svg version="1.1" id="Layer_1" xmlns="http://www.w3.org/2000/svg" xmlns:xlink="http://www.w3.org/1999/xlink" x="0px" y="0px"
	 viewBox="0 0 24 24" style="enable-background:new 0 0 24 24;" xml:space="preserve">
<style type="text/css">
	.st0{fill:#FFFFFF;}
</style>
<g>
	<g>
		<g>
			<path class="st0" d="M20.5,0H15H9H3.5C1.5,0,0,1.5,0,3.5v17.1C0,22.5,1.5,24,3.5,24H9c0.6,0,1-0.4,1-1s-0.4-1-1-1H3.5
				C2.7,22,2,21.3,2,20.5V3.5C2,2.7,2.7,2,3.5,2H8v5c0,0.8,0.9,1.3,1.6,0.8L12,6.2l2.4,1.6C15.1,8.3,16,7.8,16,7V2h4.5
				C21.3,2,22,2.7,22,3.5V7c0,0.6,0.4,1,1,1s1-0.4,1-1V3.5C24,1.5,22.5,0,20.5,0z M14,5.1l-1.4-1c-0.3-0.2-0.8-0.2-1.1,0l-1.4,1V2h4
				V5.1z"/>
			<path class="st0" d="M18,16v-2c0-0.6-0.4-1-1-1s-1,0.4-1,1v2h-2c-0.6,0-1,0.4-1,1s0.4,1,1,1h2v2c0,0.6,0.4,1,1,1s1-0.4,1-1v-2h2
				c0.6,0,1-0.4,1-1s-0.4-1-1-1L18,16L18,16z"/>
			<path class="st0" d="M17,10c-3.9,0-7,3.1-7,7s3.1,7,7,7s7-3.1,7-7S20.9,10,17,10z M17,22c-2.8,0-5-2.2-5-5c0-2.8,2.2-5,5-5
				s5,2.2,5,5C22,19.8,19.8,22,17,22z"/>
		</g>
	</g>
</g>
</svg>
