<?xml version="1.0" encoding="utf-8"?>
<!-- Generator: Adobe Illustrator 21.1.0, SVG Export Plug-In . SVG Version: 6.00 Build 0)  -->
<svg version="1.1" id="Layer_1" xmlns="http://www.w3.org/2000/svg" xmlns:xlink="http://www.w3.org/1999/xlink" x="0px" y="0px"
	 viewBox="0 0 24 24" style="enable-background:new 0 0 24 24;" xml:space="preserve">
<style type="text/css">
	.st0{fill:#FFFFFF;}
</style>
<g>
	<path class="st0" d="M24,7.7c0-0.6-0.3-1.1-0.8-1.4C22.6,6,22,6,21.5,6.3l-3.8-3.8c0.4-0.5,0.3-1.3,0-1.8c-0.4-0.5-1-0.8-1.7-0.7
		c-0.6,0.1-1.1,0.6-1.3,1.3H9.3C9.2,0.7,8.7,0.2,8,0C7.4-0.1,6.8,0.2,6.4,0.7C6,1.2,6,1.9,6.3,2.5L2.5,6.3C2,6,1.3,6,0.7,6.3
		C0.2,6.7-0.1,7.3,0,8c0.1,0.6,0.6,1.1,1.2,1.3v5.4c-0.8,0.2-1.3,1-1.2,1.8c0.1,0.8,0.8,1.4,1.6,1.4c0.3,0,0.6-0.1,0.9-0.2l3.9,3.9
		C6,22,6,22.7,6.4,23.3c0.4,0.5,1,0.8,1.7,0.7c0.6-0.1,1.1-0.6,1.3-1.3h5.4c0.1,0.6,0.6,1.1,1.3,1.3c0.6,0.1,1.3-0.2,1.7-0.7
		c0.4-0.5,0.4-1.3,0-1.8l3.8-3.8c0.6,0.3,1.3,0.3,1.8-0.1c0.5-0.4,0.8-1,0.7-1.6c-0.1-0.6-0.6-1.1-1.2-1.3V9.3
		C23.5,9.1,24,8.4,24,7.7z M22,14.7c-0.5,0.1-1,0.5-1.2,1c-0.2,0.5-0.1,1.1,0.2,1.5L17.2,21c-0.4-0.3-1-0.3-1.5-0.1
		c-0.5,0.2-0.8,0.6-1,1.1H9.3c-0.1-0.5-0.5-0.9-1-1.1c-0.5-0.2-1.1-0.2-1.5,0.1L3,17.2c0.3-0.5,0.4-1,0.1-1.5
		c-0.2-0.5-0.7-0.9-1.2-1V9.3c0.5-0.1,1-0.5,1.2-1C3.4,7.8,3.3,7.2,3,6.8L6.8,3c0.4,0.3,1,0.3,1.5,0.1c0.5-0.2,0.9-0.6,1-1.2h5.4
		c0.1,0.5,0.5,0.9,1,1.1c0.5,0.2,1.1,0.2,1.5-0.1L21,6.8c-0.3,0.4-0.4,1-0.1,1.5c0.2,0.5,0.6,0.9,1.2,1V14.7z"/>
</g>
<g>
	<path class="st0" d="M18.1,7.1l-5.9-2c-0.1,0-0.2,0-0.3,0l-6,2C5.3,7.2,5.4,7.6,5.4,7.6V16c0,0.2,0.1,0.4,0.3,0.5l6,2.4
		c0.1,0,0.3,0,0.4,0l6-2.4c0.2-0.1,0.3-0.3,0.3-0.5V7.6C18.7,7.5,18.5,7.2,18.1,7.1z M12,6.4l4.1,1.4L12,9.3L7.9,7.8L12,6.4z
		 M6.7,15.5V8.8l4.6,1.7v6.7L6.7,15.5z M17.4,15.5l-4.6,1.7v-6.7l4.6-1.7C17.4,8.8,17.4,15.5,17.4,15.5z"/>
</g>
</svg>
