<?xml version="1.0" encoding="utf-8"?>
<!-- Generator: Adobe Illustrator 21.1.0, SVG Export Plug-In . SVG Version: 6.00 Build 0)  -->
<svg version="1.1" id="Layer_1" xmlns="http://www.w3.org/2000/svg" xmlns:xlink="http://www.w3.org/1999/xlink" x="0px" y="0px"
	 viewBox="0 0 24 24" style="enable-background:new 0 0 24 24;" xml:space="preserve">
<style type="text/css">
	.st0{fill:#FFFFFF;}
</style>
<path class="st0" d="M4.8,16.8H1.6c-1,0-1.6,0.6-1.6,1.6S0.6,20,1.6,20h1.6v0.5c0,1,0.6,1.6,1.6,1.6s1.6-0.6,1.6-1.6v-0.8
	c1.9-0.6,3.2-2.4,3.2-4.5c0-2.7-2.1-4.8-4.8-4.8c-1,0-1.6-0.6-1.6-1.6s0.6-1.6,1.6-1.6H8c1,0,1.6-0.6,1.6-1.6S8.9,4,8,4H6.4V3.5
	c0-1-0.6-1.6-1.6-1.6S3.2,2.6,3.2,3.5v0.8C1.3,5,0,6.7,0,8.8c0,2.7,2.1,4.8,4.8,4.8c1,0,1.6,0.6,1.6,1.6S5.6,16.8,4.8,16.8z"/>
<g>
	<path class="st0" d="M18.2,13.2V9.7h-3.5V7.4h3.5V3.9h2.3v3.5H24v2.4h-3.5v3.5H18.2z"/>
	<path class="st0" d="M14.7,20.1v-2.4H24v2.4H14.7z"/>
</g>
</svg>
