<?xml version="1.0" encoding="utf-8"?>
<!-- Generator: Adobe Illustrator 21.1.0, SVG Export Plug-In . SVG Version: 6.00 Build 0)  -->
<svg version="1.1" id="Layer_1" xmlns="http://www.w3.org/2000/svg" xmlns:xlink="http://www.w3.org/1999/xlink" x="0px" y="0px"
	 viewBox="0 0 24 24" style="enable-background:new 0 0 24 24;" xml:space="preserve">
<style type="text/css">
	.st0{fill:#FFFFFF;}
</style>
<path class="st0" d="M12,15.3H9.8c-0.7,0-1.1,0.4-1.1,1.1c0,0.7,0.4,1.1,1.1,1.1h1.1v0.3c0,0.7,0.4,1.1,1.1,1.1
	c0.7,0,1.1-0.4,1.1-1.1v-0.6c2-0.7,3-3,1.6-5.2c-0.5-0.9-1.6-1.3-2.7-1.2c-0.7,0-1.2-0.4-1.2-1.1c0-0.7,0.4-1.1,1.1-1.1h2.2
	c0.7,0,1.1-0.4,1.1-1.1s-0.4-1.1-1.1-1.1h-1.1V6.1C13.1,5.4,12.7,5,12,5s-1.1,0.4-1.1,1.1v0.6c-2,0.7-3,3-1.6,5.2
	c0.5,0.9,1.6,1.3,2.7,1.2c0.7,0,1.2,0.4,1.2,1.1C13.1,14.9,12.6,15.3,12,15.3z"/>
<g>
	<g>
		<path class="st0" d="M19.4,19.4c-4,4-10.3,4.1-14.4,0.4h3.3v-1.4H3.5h0H2.6v1v0v4.8H4v-3.4c2.3,2.1,5.1,3.1,8,3.1
			c3.1,0,6.1-1.2,8.4-3.5l0.5-0.5l-1-1L19.4,19.4z"/>
		<path class="st0" d="M20-0.2v3.4c-2.3-2.1-5.1-3.1-8-3.1C9,0.1,5.9,1.3,3.6,3.6L3.1,4.1l1,1l0.5-0.5c4-4,10.3-4.1,14.4-0.4h-3.3
			v1.4h4.8h0h0.9v-1v0v-4.8H20z"/>
	</g>
</g>
</svg>
