<?xml version="1.0" encoding="utf-8"?>
<!-- Generator: Adobe Illustrator 21.1.0, SVG Export Plug-In . SVG Version: 6.00 Build 0)  -->
<svg version="1.1" id="Capa_1" xmlns="http://www.w3.org/2000/svg" xmlns:xlink="http://www.w3.org/1999/xlink" x="0px" y="0px"
	 viewBox="0 0 512 512" style="enable-background:new 0 0 512 512;" xml:space="preserve">
<style type="text/css">
	.st0{fill:#001E35;}
</style>
<path class="st0" d="M464.4,5.6H229.7c-21.6,0-39.1,19.1-39.1,42.5v85c0.3,7.8,6.3,13.9,13.5,13.6c6.8-0.3,12.3-6.2,12.5-13.6v-85
	c0-7.8,5.8-14.2,13-14.2h197.3L326.7,80.5c-17.8,8.3-31.9,31.4-31.9,52.5v269.1h-65.2c-7.2,0-13-6.4-13-14.2v-85
	c-0.3-7.8-6.3-13.9-13.5-13.6c-6.8,0.3-12.3,6.2-12.5,13.6v85c0,23.4,17.5,42.5,39.1,42.5h65.2V473c0,12.3,4.7,22.7,12.9,28.6
	c4.6,3.2,9.8,4.9,15.4,4.9c4.5,0,9.2-1.1,13.9-3.2l134.6-62.7c17.9-8.3,31.9-31.4,31.9-52.5v-340C503.5,24.6,486,5.6,464.4,5.6z
	 M477.4,388c0,9.9-7.7,22.5-16.1,26.4l-134.6,62.7c-2.5,1.2-4.2,1.1-4.6,0.8c-0.5-0.3-1.2-1.9-1.2-4.9V133c0-9.9,7.7-22.5,16.1-26.5
	l139.1-64.8c0.9,1.9,1.3,4.1,1.3,6.2L477.4,388L477.4,388z M225.9,208l-78.2-85c-5.3-5.3-13.5-5-18.4,0.7c-4.7,5.4-4.7,13.9,0,19.3
	l56,60.8H21c-7.2,0.3-12.8,6.9-12.5,14.7c0.3,7.4,5.7,13.3,12.5,13.6h164.1l-56,60.8c-5.1,5.5-5.1,14.5,0,20
	c5.1,5.5,13.4,5.5,18.5,0l0,0l78.2-85C231,222.5,231,213.5,225.9,208L225.9,208L225.9,208z"/>
</svg>
