<?xml version="1.0" encoding="utf-8"?>
<!-- Generator: Adobe Illustrator 22.0.1, SVG Export Plug-In . SVG Version: 6.00 Build 0)  -->
<svg version="1.1" id="Layer_1" xmlns="http://www.w3.org/2000/svg" xmlns:xlink="http://www.w3.org/1999/xlink" x="0px" y="0px"
	 viewBox="0 0 50 50" style="enable-background:new 0 0 50 50;" xml:space="preserve">
<style type="text/css">
	.st0{fill:#231F20;}
	.st1{fill:#0038BA;}
</style>
<path class="st0" d="M46.3,26.9c0-0.4-0.3-0.7-0.7-0.7H23.8V4.4c0-0.4-0.3-0.7-0.7-0.7C10.4,3.7,0,14.1,0,26.9
	C0,39.6,10.4,50,23.1,50S46.3,39.6,46.3,26.9z M1.4,26.9c0-11.8,9.4-21.4,21.1-21.8v21.8c0,0.4,0.3,0.7,0.7,0.7h21.8
	c-0.4,11.7-10,21.1-21.8,21.1C11.1,48.6,1.4,38.9,1.4,26.9z"/>
<path class="st1" d="M26.4,23.6c0.1,0.1,0.3,0.2,0.5,0.2l22.5,0c0.4,0,0.7-0.3,0.7-0.7C50,10.4,39.6,0,26.9,0
	c-0.4,0-0.7,0.3-0.7,0.7v22.5C26.2,23.3,26.2,23.5,26.4,23.6z"/>
</svg>
