<?xml version="1.0" encoding="utf-8"?>
<!-- Generator: Adobe Illustrator 21.1.0, SVG Export Plug-In . SVG Version: 6.00 Build 0)  -->
<svg version="1.1" id="Layer_1" xmlns="http://www.w3.org/2000/svg" xmlns:xlink="http://www.w3.org/1999/xlink" x="0px" y="0px"
	 viewBox="0 0 24 24" style="enable-background:new 0 0 24 24;" xml:space="preserve">
<style type="text/css">
	.st0{fill:#FFFFFF;}
</style>
<g>
	<g>
		<path class="st0" d="M20.3,12.5h-8.8V3.7c0-0.4-0.3-0.6-0.6-0.6C5.4,3,0.9,7.5,0.9,13.1s4.5,10.1,10.1,10.1S21,18.6,21,13.1
			C21,12.7,20.7,12.5,20.3,12.5z M10.9,21.9c-4.8,0-8.8-3.9-8.8-8.8c0-4.6,3.6-8.4,8.1-8.8v8.8c0,0.4,0.3,0.6,0.6,0.6h8.8
			C19.3,18.3,15.5,21.9,10.9,21.9z"/>
		<path class="st0" d="M23.1,9.3c0-2.1-0.8-4.1-2.1-5.6c-1.6-1.8-3.9-2.9-6.4-2.9c-0.3,0-0.5,0.2-0.5,0.5v8c0,0.3,0.2,0.5,0.5,0.5h8
			l0,0C22.9,9.9,23.1,9.7,23.1,9.3C23.1,9.4,23.1,9.4,23.1,9.3z M15.2,8.8L15.2,8.8"/>
	</g>
</g>
</svg>
