<?xml version="1.0" encoding="utf-8"?>
<!-- Generator: Adobe Illustrator 21.1.0, SVG Export Plug-In . SVG Version: 6.00 Build 0)  -->
<svg version="1.1" id="Layer_1" xmlns="http://www.w3.org/2000/svg" xmlns:xlink="http://www.w3.org/1999/xlink" x="0px" y="0px"
	 viewBox="0 0 24 24" style="enable-background:new 0 0 24 24;" xml:space="preserve">
<style type="text/css">
	.st0{fill:#FFFFFF;}
</style>
<g>
	<path class="st0" d="M0.8,22.2c-0.4,0-0.7,0.3-0.7,0.7s0.3,0.7,0.5,0.7h22.2c0.7,0,1-0.3,1-0.7s-0.3-0.7-0.7-0.7l0,0V1.1
		c0-0.4-0.3-0.7-0.7-0.7h-4.6c-0.4,0-0.7,0.3-0.7,0.7v21.1h-2.4V7.6c0-0.4-0.3-0.7-0.7-0.7H9.6c-0.4,0-0.7,0.3-0.7,0.7v14.6h-2v-6.7
		c0-0.4-0.3-0.7-0.7-0.7H1.9c-0.4,0-0.7,0.3-0.7,0.7v6.7H0.8z M18.5,1.9h3.1v20.3h-3.1V1.9z M10.3,8.3h2.8v13.9h-2.8V8.3z M2.7,16.3
		h2.6v6H2.7V16.3z"/>
</g>
</svg>
