<?xml version="1.0" encoding="utf-8"?>
<!-- Generator: Adobe Illustrator 21.1.0, SVG Export Plug-In . SVG Version: 6.00 Build 0)  -->
<svg version="1.1" id="Layer_1" xmlns="http://www.w3.org/2000/svg" xmlns:xlink="http://www.w3.org/1999/xlink" x="0px" y="0px"
	 viewBox="0 0 24 24" style="enable-background:new 0 0 24 24;" xml:space="preserve">
<style type="text/css">
	.st0{fill:#0038BA;}
</style>
<g>
	<path class="st0" d="M23,11.6h-7.8c-0.3-1.4-1.6-2.5-3.1-2.5s-2.8,1-3.1,2.5H1.4c-0.4,0-0.7,0.3-0.7,0.7s0.3,0.7,0.7,0.7H9
		c0.3,1.4,1.6,2.5,3.1,2.5s2.8-1,3.1-2.5H23c0.4,0,0.7-0.3,0.7-0.7C23.7,11.9,23.4,11.6,23,11.6z M12.1,14c-1,0-1.8-0.8-1.8-1.8
		s0.8-1.8,1.8-1.8s1.8,0.8,1.8,1.8S13.1,14,12.1,14z"/>
	<path d="M3.1,6.4c1.5,0,2.8-1,3.1-2.5h16.1c0.4,0,0.7-0.3,0.7-0.7s-0.3-0.7-0.7-0.7H6.2C5.9,1.2,4.6,0.2,3.1,0.2
		C1.4,0.2,0,1.6,0,3.3S1.4,6.4,3.1,6.4z M3.1,1.5c1,0,1.8,0.8,1.8,1.8S4.1,5.1,3.1,5.1S1.4,4.3,1.4,3.3S2.2,1.5,3.1,1.5z"/>
	<path d="M20.9,17.7c-1.5,0-2.7,1-3.1,2.4H1.7c-0.4,0-0.7,0.3-0.7,0.7c0,0.4,0.3,0.7,0.7,0.7h16.1c0.3,1.4,1.6,2.5,3.1,2.5
		c1.7,0,3.1-1.4,3.1-3.1S22.6,17.7,20.9,17.7z M20.9,22.6c-1,0-1.8-0.8-1.8-1.8s0.8-1.8,1.8-1.8s1.8,0.8,1.8,1.8
		S21.8,22.6,20.9,22.6z"/>
</g>
</svg>
