<?xml version="1.0" encoding="utf-8"?>
<!-- Generator: Adobe Illustrator 21.1.0, SVG Export Plug-In . SVG Version: 6.00 Build 0)  -->
<svg version="1.1" id="Capa_1" xmlns="http://www.w3.org/2000/svg" xmlns:xlink="http://www.w3.org/1999/xlink" x="0px" y="0px"
	 viewBox="0 0 512 512" style="enable-background:new 0 0 512 512;" xml:space="preserve">
<style type="text/css">
	.st0{fill:#FFFFFF;}
</style>
<path class="st0" d="M120,240c66.2,0,120-53.8,120-120S186.2,0,120,0S0,53.8,0,120S53.8,240,120,240z M120,40c44.1,0,80,35.9,80,80
	s-35.9,80-80,80s-80-35.9-80-80S75.9,40,120,40z"/>
<path class="st0" d="M392,240c66.2,0,120-53.8,120-120S458.2,0,392,0S272,53.8,272,120S325.8,240,392,240z M392,40
	c44.1,0,80,35.9,80,80s-35.9,80-80,80s-80-35.9-80-80S347.9,40,392,40z"/>
<path class="st0" d="M120,512c66.2,0,120-53.8,120-120s-53.8-120-120-120S0,325.8,0,392S53.8,512,120,512z M120,312
	c44.1,0,80,35.9,80,80s-35.9,80-80,80s-80-35.9-80-80S75.9,312,120,312z"/>
<path class="st0" d="M392,471.2c43.7,0,79.2-35.5,79.2-79.2s-35.5-79.2-79.2-79.2s-79.2,35.5-79.2,79.2S348.3,471.2,392,471.2z"/>
</svg>
