<?xml version="1.0" encoding="utf-8"?>
<!-- Generator: Adobe Illustrator 21.1.0, SVG Export Plug-In . SVG Version: 6.00 Build 0)  -->
<svg version="1.1" id="Layer_1" xmlns="http://www.w3.org/2000/svg" xmlns:xlink="http://www.w3.org/1999/xlink" x="0px" y="0px"
	 viewBox="0 0 1747.4 366" style="enable-background:new 0 0 1747.4 366;" xml:space="preserve">
<style type="text/css">
	.st0{fill:#FF5C1D;}
</style>
<g>
	<g>
		<g>
			<path class="st0" d="M354.9,31H277c-18.4,0-44,10.6-57,23.6L89.1,185.5c-13,13-13,34.2,0,47.2l97.4,97.4c13,13,34.2,13,47.2,0
				l130.8-130.8c13-13,23.6-38.6,23.6-57V64.4C388.2,46.1,373.2,31,354.9,31z M310.3,142.3c-18.4,0-33.4-14.9-33.4-33.4
				c0-18.4,14.9-33.4,33.4-33.4s33.4,14.9,33.4,33.4C343.7,127.4,328.8,142.3,310.3,142.3z M40,216.9L159.1,336
				c-12.6,6.7-28.7,4.7-39.3-5.9l-97.4-97.4c-13-13-13-34.2,0-47.2L153.2,54.7c13-13,38.6-23.6,57-23.6L40,201.2
				C35.7,205.5,35.7,212.6,40,216.9z"/>
		</g>
		<g>
			<path class="st0" d="M663.6,296.1c-7.9,13.3-19.6,24-35.1,32s-34.4,12.1-56.6,12.1c-21.9,0-41.5-3.7-58.8-11.2
				s-31.1-18.2-41.5-32.2s-16.3-30.4-17.8-49.1h65.8c1.5,12.6,6.5,23,15.1,31.4c8.6,8.3,20.1,12.5,34.4,12.5
				c12.9,0,22.7-3.4,29.6-10.3c6.9-6.9,10.3-15.7,10.3-26.5c0-9.7-2.8-17.6-8.3-23.9c-5.6-6.3-12.6-11.3-21.1-15.1
				s-20.2-8.2-35.1-13.2c-19.3-6.4-35.1-12.8-47.4-19.1s-22.7-15.4-31.4-27.4c-8.6-12-12.9-27.6-12.9-46.9
				c0-26.6,9.6-47.6,28.7-62.9c19.2-15.4,44.5-23,76.1-23c32.7,0,58.8,7.9,78.3,23.7c19.4,15.8,30.5,36.8,33.1,63.2h-66.7
				c-1.8-11.1-6.4-20.2-14-27.4s-18-10.7-31.1-10.7c-11.4,0-20.6,3-27.6,9s-10.5,14.7-10.5,26.1c0,9.1,2.7,16.6,8.1,22.6
				c5.4,6,12.3,10.9,20.6,14.7s19.7,8,34,12.7c19.9,7,36,13.6,48.5,19.7c12.4,6.1,23,15.4,31.8,27.6c8.8,12.3,13.2,28.4,13.2,48.3
				C675.4,268.2,671.5,282.8,663.6,296.1z"/>
			<path class="st0" d="M868.9,105.5c14.6,9.7,25,22.7,31.1,39V94.1h61.4v243H900v-50.9c-6.1,16.4-16.5,29.5-31.1,39.3
				s-32.2,14.7-52.6,14.7c-20.5,0-38.9-5-55.3-14.9c-16.4-9.9-29.2-24.3-38.4-43.2s-13.8-41-13.8-66.5c0-25.4,4.6-47.6,13.8-66.5
				s22-33.3,38.4-43.2S795.8,91,816.3,91C836.7,91,854.3,95.8,868.9,105.5z M789.1,163.8c-11.7,12.6-17.5,29.8-17.5,51.8
				c0,21.9,5.8,39.1,17.5,51.5s27.2,18.6,46.5,18.6c18.7,0,34.1-6.4,46.3-19.1c12.1-12.7,18.2-29.8,18.2-51.1
				c0-21.6-6.1-38.8-18.2-51.5c-12.1-12.7-27.6-19.1-46.3-19.1C816.3,145,800.7,151.2,789.1,163.8z"/>
			<path class="st0" d="M1123.3,275.2L1184.7,94h65.8l-89.9,243h-75.4L995.3,94h66.2L1123.3,275.2z"/>
			<path class="st0" d="M1460.9,105.9c18.9,9.9,33.7,24.3,44.5,43.2s16.2,41,16.2,66.5c0,25.4-5.4,47.5-16.2,66.2
				c-10.8,18.7-25.7,33.1-44.5,43.2c-18.9,10.1-40.1,15.1-63.8,15.1s-45-5-63.8-15.1c-18.9-10.1-33.7-24.5-44.5-43.2
				s-16.2-40.8-16.2-66.2s5.4-47.6,16.2-66.5c10.8-18.9,25.7-33.3,44.5-43.2c18.9-9.9,40.1-14.9,63.8-14.9S1442,96,1460.9,105.9z
				 M1353.2,162.7c-12,12.1-18,29.8-18,52.9s6,40.7,18,52.9c12,12.1,26.6,18.2,43.9,18.2s31.9-6.1,43.9-18.2s18-29.8,18-52.9
				s-6-40.7-18-52.9c-12-12.1-26.6-18.2-43.9-18.2C1379.8,144.5,1365.2,150.6,1353.2,162.7z"/>
			<path class="st0" d="M1615.5,285.3h119.3v51.8h-186.9V288l111.9-142.6h-109.2V94.1h179.8v48.7L1615.5,285.3z"/>
		</g>
	</g>
</g>
</svg>
