<?xml version="1.0" encoding="utf-8"?>
<!-- Generator: Adobe Illustrator 21.1.0, SVG Export Plug-In . SVG Version: 6.00 Build 0)  -->
<svg version="1.1" id="Layer_1" xmlns="http://www.w3.org/2000/svg" xmlns:xlink="http://www.w3.org/1999/xlink" x="0px" y="0px"
	 viewBox="0 0 24 24" style="enable-background:new 0 0 24 24;" xml:space="preserve">
<style type="text/css">
	.st0{fill:#FFFFFF;}
</style>
<path class="st0" d="M23.2,21.7L18.6,17c1.6-1.9,2.4-4.2,2.4-6.6C21.1,4.7,16.4,0,10.8,0S0.5,4.7,0.5,10.3s4.6,10.3,10.3,10.3
	c2.1,0,4.2-0.6,5.9-1.9l4.6,4.8c0.3,0.3,0.6,0.4,1,0.4c0.3,0,0.7-0.1,0.9-0.4C23.7,23.1,23.7,22.2,23.2,21.7z M10.8,2.7
	c4.2,0,7.6,3.4,7.6,7.6s-3.4,7.6-7.6,7.6s-7.6-3.4-7.6-7.6S6.6,2.7,10.8,2.7z"/>
</svg>
