<?xml version="1.0" encoding="utf-8"?>
<!-- Generator: Adobe Illustrator 21.1.0, SVG Export Plug-In . SVG Version: 6.00 Build 0)  -->
<svg version="1.1" id="Layer_1" xmlns="http://www.w3.org/2000/svg" xmlns:xlink="http://www.w3.org/1999/xlink" x="0px" y="0px"
	 viewBox="0 0 24 24" style="enable-background:new 0 0 24 24;" xml:space="preserve">
<style type="text/css">
	.st0{fill:#FFFFFF;}
</style>
<g>
	<g>
		<path class="st0" d="M22.6,9.5l-1.7-0.3c-0.2-0.6-0.4-1.1-0.7-1.6l1-1.4c0.4-0.6,0.3-1.4-0.2-1.9l-1.5-1.5c-0.3-0.3-0.6-0.4-1-0.4
			c-0.3,0-0.6,0.1-0.8,0.3l-1.4,1c-0.5-0.3-1.1-0.5-1.7-0.7l-0.3-1.6c-0.1-0.7-0.7-1.2-1.4-1.2h-2.1c-0.7,0-1.3,0.5-1.4,1.2L9.2,3.1
			C8.6,3.3,8.1,3.5,7.6,3.8l-1.4-1C6,2.6,5.7,2.5,5.4,2.5C5,2.5,4.6,2.7,4.4,3L2.9,4.4C2.4,4.9,2.3,5.7,2.7,6.3l1,1.4
			C3.4,8.2,3.2,8.7,3.1,9.3L1.4,9.6C0.7,9.7,0.2,10.3,0.2,11v2.1c0,0.7,0.5,1.3,1.2,1.4l1.7,0.3c0.2,0.6,0.4,1.1,0.7,1.6l-1,1.4
			c-0.4,0.6-0.3,1.4,0.2,1.9l1.5,1.5c0.3,0.3,0.6,0.4,1,0.4c0.3,0,0.6-0.1,0.8-0.3l1.4-1c0.5,0.3,1,0.5,1.6,0.6l0.3,1.7
			c0.1,0.7,0.7,1.2,1.4,1.2H13c0.7,0,1.3-0.5,1.4-1.2l0.3-1.7c0.6-0.2,1.1-0.4,1.6-0.7l1.4,1c0.2,0.2,0.5,0.3,0.8,0.3l0,0
			c0.4,0,0.8-0.2,1-0.4l1.5-1.5c0.5-0.5,0.6-1.3,0.2-1.9l-1-1.4c0.3-0.5,0.5-1.1,0.7-1.6l1.7-0.3c0.7-0.1,1.2-0.7,1.2-1.4V11
			C23.8,10.2,23.3,9.6,22.6,9.5z M22.5,13c0,0.1,0,0.1-0.1,0.1l-2.1,0.3c-0.3,0-0.5,0.2-0.5,0.5c-0.2,0.7-0.5,1.4-0.9,2.1
			c-0.1,0.2-0.1,0.5,0,0.7l1.2,1.7c0,0,0,0.1,0,0.2l-1.5,1.5c0,0-0.1,0-0.1,0c0,0-0.1,0-0.1,0l-1.7-1.2c-0.2-0.2-0.5-0.2-0.7,0
			c-0.6,0.4-1.3,0.7-2.1,0.9c-0.3,0.1-0.4,0.3-0.5,0.5l-0.3,2.1c0,0.1-0.1,0.1-0.1,0.1H11c-0.1,0-0.1,0-0.1-0.1l-0.3-2.1
			c0-0.3-0.2-0.5-0.5-0.5c-0.7-0.2-1.4-0.5-2-0.8c-0.1-0.1-0.2-0.1-0.3-0.1c-0.1,0-0.3,0-0.4,0.1l-1.7,1.2c0,0,0,0-0.1,0
			c0,0-0.1,0-0.1,0l-1.5-1.5c0,0,0-0.1,0-0.2l1.2-1.7c0.2-0.2,0.2-0.5,0-0.7c-0.4-0.6-0.7-1.3-0.9-2.1c-0.1-0.3-0.3-0.4-0.5-0.5
			l-2.1-0.4c-0.1,0-0.1-0.1-0.1-0.1V11c0-0.1,0-0.1,0.1-0.1l2.1-0.3c0.3,0,0.5-0.2,0.5-0.5C4.4,9.3,4.7,8.6,5.1,8
			c0.1-0.2,0.1-0.5,0-0.7L3.8,5.5c0,0,0-0.1,0-0.2l1.5-1.5c0,0,0.1,0,0.1,0c0,0,0.1,0,0.1,0l1.7,1.2c0.2,0.2,0.5,0.2,0.7,0
			C8.5,4.7,9.2,4.4,10,4.3c0.3-0.1,0.4-0.3,0.5-0.5l0.4-2.1c0-0.1,0.1-0.1,0.1-0.1H13c0.1,0,0.1,0,0.1,0.1l0.3,2.1
			c0,0.3,0.2,0.5,0.5,0.5c0.7,0.2,1.5,0.5,2.1,0.9c0.2,0.1,0.5,0.1,0.7,0l1.7-1.2c0,0,0,0,0.1,0c0,0,0.1,0,0.1,0l1.5,1.5
			c0,0,0,0.1,0,0.2l-1.2,1.7c-0.2,0.2-0.2,0.5,0,0.7c0.4,0.6,0.7,1.3,0.9,2.1c0.1,0.3,0.3,0.4,0.5,0.5l2.1,0.3
			c0.1,0,0.1,0.1,0.1,0.1L22.5,13L22.5,13z"/>
		<path class="st0" d="M12,6.9c-2.8,0-5.1,2.3-5.1,5.1s2.3,5.1,5.1,5.1s5.1-2.3,5.1-5.1S14.8,6.9,12,6.9z M12,15.5
			c-1.9,0-3.5-1.6-3.5-3.5s1.6-3.5,3.5-3.5s3.5,1.6,3.5,3.5S13.9,15.5,12,15.5z"/>
	</g>
</g>
</svg>
