<?xml version="1.0" encoding="utf-8"?>
<!-- Generator: Adobe Illustrator 21.1.0, SVG Export Plug-In . SVG Version: 6.00 Build 0)  -->
<svg version="1.1" id="Layer_1" xmlns="http://www.w3.org/2000/svg" xmlns:xlink="http://www.w3.org/1999/xlink" x="0px" y="0px"
	 viewBox="0 0 24 24" style="enable-background:new 0 0 24 24;" xml:space="preserve">
<style type="text/css">
	.st0{fill:#FFFFFF;}
</style>
<g>
	<path class="st0" d="M23.8,10.2l-4-4.6h-5.3V3.3H0.3v4.2h-3.4c-0.4,0-0.8,0.3-0.8,0.8C-3.8,8.7-3.5,9-3.1,9h3.4h1.5h1.1
		c0.4,0,0.8-0.3,0.8-0.8c0-0.4-0.3-0.8-0.8-0.8H1.9V4.8H13v0.8v11.4H8.6C8.1,15.8,6.9,15,5.6,15c-1.4,0-2.6,0.9-3.1,2.1H1.9v-3.4H5
		c0.4,0,0.8-0.3,0.8-0.8S5.5,12.1,5,12.1H1.9v-1.5H0.3v1.5H-1c-0.4,0-0.8,0.3-0.8,0.8s0.3,0.8,0.8,0.8h1.3v5h1.9
		c0.1,1.7,1.6,3.1,3.3,3.1c1.8,0,3.2-1.4,3.3-3.1h5.6v0h0.1c0.1,1.7,1.6,3.1,3.3,3.1c1.8,0,3.2-1.4,3.3-3.1h2.5V10.2z M5.6,20.2
		c-1,0-1.8-0.8-1.8-1.8s0.8-1.8,1.8-1.8s1.8,0.8,1.8,1.8C7.4,19.3,6.6,20.2,5.6,20.2z M18,20.2c-1,0-1.8-0.8-1.8-1.8
		s0.8-1.8,1.8-1.8c1,0,1.8,0.8,1.8,1.8C19.8,19.3,19,20.2,18,20.2z M22.3,17h-1.2C20.6,15.8,19.4,15,18,15c-1.4,0-2.6,0.9-3.1,2.1
		h-0.4V7.1h4.7l3.1,3.7V17z"/>
</g>
</svg>
