<?xml version="1.0" encoding="utf-8"?>
<!-- Generator: Adobe Illustrator 21.1.0, SVG Export Plug-In . SVG Version: 6.00 Build 0)  -->
<svg version="1.1" id="Layer_1" xmlns="http://www.w3.org/2000/svg" xmlns:xlink="http://www.w3.org/1999/xlink" x="0px" y="0px"
	 viewBox="0 0 24 24" style="enable-background:new 0 0 24 24;" xml:space="preserve">
<style type="text/css">
	.st0{fill:#FFFFFF;}
</style>
<g>
	<path class="st0" d="M13.5,6.9L13.5,6.9v11.4H8.9c-0.5-1.2-1.7-2-3-2c-1.4,0-2.6,0.9-3.1,2.1H2.2l0,0H0.6V20h1.9
		c0.1,1.7,1.6,3.1,3.3,3.1c1.8,0,3.2-1.4,3.3-3.1h5.8l0,0H15c0.1,1.7,1.6,3.1,3.3,3.1c1.8,0,3.2-1.4,3.3-3.1h2.5v-8.5l-3.8-4.6H15
		l0,0H13.5z M5.9,21.5c-1,0-1.8-0.8-1.8-1.8s0.8-1.8,1.8-1.8s1.8,0.8,1.8,1.8C7.7,20.6,6.9,21.5,5.9,21.5z M18.5,21.5
		c-1,0-1.8-0.8-1.8-1.8s0.8-1.8,1.8-1.8s1.8,0.8,1.8,1.8C20.3,20.6,19.5,21.5,18.5,21.5z M22.8,18.3h-1.2c-0.5-1.2-1.7-2-3.1-2
		s-2.6,0.9-3.1,2.1H15v-10h4.7l3.1,3.7C22.8,12.1,22.8,18.3,22.8,18.3z"/>
</g>
<rect y="12.4" class="st0" width="14.9" height="1.8"/>
<rect x="-1" y="8.2" class="st0" width="12.9" height="1.8"/>
<rect x="-1" y="4.5" class="st0" width="12.9" height="1.8"/>
<rect x="-1" y="0.8" class="st0" width="12.9" height="1.8"/>
<rect x="-0.4" y="12.4" class="st0" width="1.8" height="7.6"/>
</svg>
