<?xml version="1.0" encoding="utf-8"?>
<!-- Generator: Adobe Illustrator 22.0.1, SVG Export Plug-In . SVG Version: 6.00 Build 0)  -->
<svg version="1.1" id="Layer_1" xmlns="http://www.w3.org/2000/svg" xmlns:xlink="http://www.w3.org/1999/xlink" x="0px" y="0px"
	 viewBox="0 0 50 50" style="enable-background:new 0 0 50 50;" xml:space="preserve">
<style type="text/css">
	.st0{fill:none;stroke:#000000;stroke-width:1.9596;stroke-linecap:round;stroke-miterlimit:10;}
</style>
<g>
	<g>
		<path d="M12.5,25.9c-3,0-5.4,2.4-5.4,5.4c0,3,2.4,5.4,5.4,5.4s5.4-2.4,5.4-5.4C18,28.4,15.5,25.9,12.5,25.9z M12.5,33.9
			c-1.4,0-2.5-1.1-2.5-2.5c0-1.4,1.1-2.5,2.5-2.5c1.4,0,2.5,1.1,2.5,2.5C15.1,32.7,13.9,33.9,12.5,33.9z"/>
		<path d="M37,25.9c-3,0-5.4,2.4-5.4,5.4c0,3,2.4,5.4,5.4,5.4c3,0,5.4-2.4,5.4-5.4C42.4,28.4,40,25.9,37,25.9z M37,33.9
			c-1.4,0-2.5-1.1-2.5-2.5c0-1.4,1.1-2.5,2.5-2.5c1.4,0,2.5,1.1,2.5,2.5C39.5,32.7,38.4,33.9,37,33.9z"/>
		<path d="M48.4,27.6h-0.2v-4c0-0.1,0-0.2-0.1-0.3l-3-7.3c-1.3-2.2-2.7-4.2-4.7-4.2h-6.4c-1,0-1.8,0.3-2.6,0.7V10
			c0-1.3-1.1-2.4-2.4-2.4H2.4C1.1,7.7,0,8.7,0,10v19.1c0,1.3,1.1,2.4,2.4,2.4h3.2c0-0.1,0-0.1,0-0.2c0-3.8,3.1-6.9,6.9-6.9
			c3.8,0,6.9,3.1,6.9,6.9c0,0.1,0,0.1,0,0.2h4.6h5h1c0-0.1,0-0.1,0-0.2c0-3.8,3.1-6.9,6.9-6.9c3.8,0,6.9,3.1,6.9,6.9
			c0,0.1,0,0.1,0,0.2h0.8h2.7h1c0.9,0,1.6-0.7,1.6-1.6v-0.8C50,28.3,49.3,27.6,48.4,27.6z M33.6,21.7v-5.8h5.6c2,0,4,5.8,4,5.8
			L33.6,21.7L33.6,21.7z"/>
	</g>
	<line class="st0" x1="1" y1="42.3" x2="49" y2="42.3"/>
</g>
</svg>
