<?xml version="1.0" encoding="utf-8"?>
<!-- Generator: Adobe Illustrator 21.1.0, SVG Export Plug-In . SVG Version: 6.00 Build 0)  -->
<svg version="1.1" id="Layer_1" xmlns="http://www.w3.org/2000/svg" xmlns:xlink="http://www.w3.org/1999/xlink" x="0px" y="0px"
	 viewBox="0 0 24 24" style="enable-background:new 0 0 24 24;" xml:space="preserve">
<style type="text/css">
	.st0{fill:#FFFFFF;}
</style>
<path class="st0" d="M8.7,0.1H1c-0.4,0-0.8,0.4-0.8,0.8v7.9c0,0.4,0.3,0.8,0.8,0.8h7.7c0.4,0,0.8-0.4,0.8-0.8V0.9
	C9.4,0.5,9.1,0.1,8.7,0.1z M7.9,8H1.7V1.7h6.2C7.9,1.7,7.9,8,7.9,8z"/>
<path class="st0" d="M23.2,0h-7.7c-0.4,0-0.8,0.4-0.8,0.8v7.9c0,0.4,0.3,0.8,0.8,0.8h7.7c0.4,0,0.8-0.4,0.8-0.8V0.8
	C24,0.4,23.7,0,23.2,0z M22.5,7.9h-6.2V1.6h6.2V7.9z"/>
<path class="st0" d="M15.4,5.7H8.6V4h6.8C15.4,4,15.4,5.7,15.4,5.7z"/>
<path class="st0" d="M8.7,14.6H1c-0.4,0-0.8,0.4-0.8,0.8v7.9C0.2,23.6,0.5,24,1,24h7.7c0.4,0,0.8-0.4,0.8-0.8v-7.9
	C9.4,14.9,9.1,14.6,8.7,14.6z M7.9,22.4H1.7v-6.3h6.2C7.9,16.1,7.9,22.4,7.9,22.4z"/>
<path class="st0" d="M23.2,14.4h-7.7c-0.4,0-0.8,0.4-0.8,0.8v7.9c0,0.4,0.3,0.8,0.8,0.8h7.7c0.4,0,0.8-0.4,0.8-0.8v-7.9
	C24,14.8,23.7,14.4,23.2,14.4z M22.5,22.3h-6.2V16h6.2V22.3z"/>
<path class="st0" d="M5.7,8.6v6.8H4V8.6H5.7z"/>
</svg>
