<?xml version="1.0" encoding="utf-8"?>
<!-- Generator: Adobe Illustrator 21.1.0, SVG Export Plug-In . SVG Version: 6.00 Build 0)  -->
<svg version="1.1" id="Layer_1" xmlns="http://www.w3.org/2000/svg" xmlns:xlink="http://www.w3.org/1999/xlink" x="0px" y="0px"
	 viewBox="0 0 24 24" style="enable-background:new 0 0 24 24;" xml:space="preserve">
<style type="text/css">
	.st0{fill:none;stroke:#FFFFFF;stroke-width:2;stroke-linecap:round;stroke-linejoin:round;}
	.st1{fill:#FFFFFF;}
</style>
<g>
	<g>
		<path class="st0" d="M8.3,14.6h-3c-2.2,0-4,1.8-4,4"/>
		<circle class="st0" cx="8.5" cy="5.5" r="4"/>
	</g>
</g>
<g>
	<path class="st1" d="M23.1,13l-5.5-1.9c-0.1,0-0.2,0-0.3,0L11.7,13c-0.5,0.1-0.4,0.5-0.4,0.5v7.8c0,0.2,0.1,0.4,0.3,0.5l5.6,2.2
		c0.1,0,0.3,0,0.4,0l5.6-2.2c0.2-0.1,0.3-0.3,0.3-0.5v-7.8C23.6,13.4,23.5,13.1,23.1,13z M17.4,12.3l3.8,1.3L17.4,15l-3.8-1.4
		L17.4,12.3z M12.5,20.8v-6.2l4.3,1.6v6.2L12.5,20.8z M22.4,20.8l-4.3,1.6v-6.2l4.3-1.6V20.8z"/>
</g>
</svg>
