<?xml version="1.0" encoding="utf-8"?>
<!-- Generator: Adobe Illustrator 21.1.0, SVG Export Plug-In . SVG Version: 6.00 Build 0)  -->
<svg version="1.1" id="Layer_1" xmlns="http://www.w3.org/2000/svg" xmlns:xlink="http://www.w3.org/1999/xlink" x="0px" y="0px"
	 viewBox="0 0 24 24" style="enable-background:new 0 0 24 24;" xml:space="preserve">
<style type="text/css">
	.st0{fill:#FEFEFE;}
	.st1{fill:#FEFEFE;stroke:#FFFFFF;stroke-width:2.2;stroke-linecap:round;stroke-linejoin:round;}
</style>
<g>
	<g>
		<path class="st0" d="M22.8,3.2l-5.5,5.5l-2.4-2.3c-0.7,0.2-1.2,0.7-1.4,1.4l3.7,3.6L24,4.6C23.9,3.8,23.4,3.3,22.8,3.2z"/>
	</g>
</g>
<g>
	<path class="st1" d="M22.9,17.5H1.1"/>
	<path class="st1" d="M22.9,22.6H1.1"/>
	<g>
		<path class="st0" d="M11.9,2.1L6.3,0C6.2,0,6.1,0,6,0L0.4,2.1C-0.1,2.2,0,2.6,0,2.6v8.5c0,0.2,0.1,0.4,0.3,0.5l5.6,2.4
			c0.1,0,0.3,0,0.4,0l5.6-2.4c0.2-0.1,0.3-0.3,0.3-0.5V2.6C12.4,2.5,12.3,2.2,11.9,2.1z M6.1,1.3L10,2.7L6.1,4.3L2.3,2.7L6.1,1.3z
			 M1.2,10.6V3.8l4.3,1.7v6.8L1.2,10.6z M11.2,10.6l-4.3,1.7V5.6l4.3-1.7C11.2,3.8,11.2,10.6,11.2,10.6z"/>
	</g>
</g>
</svg>
