<?xml version="1.0" encoding="utf-8"?>
<!-- Generator: Adobe Illustrator 21.1.0, SVG Export Plug-In . SVG Version: 6.00 Build 0)  -->
<svg version="1.1" id="Layer_1" xmlns="http://www.w3.org/2000/svg" xmlns:xlink="http://www.w3.org/1999/xlink" x="0px" y="0px"
	 viewBox="0 0 24 24" style="enable-background:new 0 0 24 24;" xml:space="preserve">
<style type="text/css">
	.st0{fill:#FFFFFF;}
	.st1{fill:none;stroke:#FFFFFF;stroke-width:2.2;stroke-linecap:round;stroke-linejoin:round;}
</style>
<g>
	<g>
		<path class="st0" d="M17.4,15.3L2.5,15.5l-0.8,0.4h2.7v2.4c-1.2,0.4-2.1,1.4-2.1,2.8c0,1.6,1.3,2.9,3,2.9c1.3,0,2.4-0.8,2.9-1.9
			h4.4c0.5,1.1,1.6,1.9,2.9,1.9c1.7,0,3-1.3,3-2.9c0-1.3-0.8-2.4-2.1-2.8v-2.4h2.1L17.4,15.3z M5.3,22.1c-0.6,0-1-0.5-1-1s0.5-1,1-1
			s1,0.5,1,1S5.9,22.1,5.3,22.1z M12.6,20.1H8.2c-0.4-0.8-1-1.4-1.8-1.8v-2.4h8.1v2.4l0,0C13.6,18.6,12.9,19.3,12.6,20.1z
			 M15.5,22.1c-0.6,0-1-0.5-1-1s0.5-1,1-1s1,0.5,1,1S16,22.1,15.5,22.1z"/>
	</g>
</g>
<path class="st1" d="M15.2,6.5H1.1"/>
<path class="st1" d="M15.2,10.7H1.1"/>
<path class="st1" d="M23,1.9l-3.8,3v10H1.1"/>
<path class="st1" d="M15.2,2.3H1.1"/>
</svg>
