<?xml version="1.0" encoding="utf-8"?>
<!-- Generator: Adobe Illustrator 21.1.0, SVG Export Plug-In . SVG Version: 6.00 Build 0)  -->
<svg version="1.1" id="Layer_1" xmlns="http://www.w3.org/2000/svg" xmlns:xlink="http://www.w3.org/1999/xlink" x="0px" y="0px"
	 viewBox="0 0 24 24" style="enable-background:new 0 0 24 24;" xml:space="preserve">
<style type="text/css">
	.st0{fill:#FFFFFF;}
</style>
<g>
	<g>
		<g>
			<path class="st0" d="M20.3,3.8h-3.5C16.4,3.4,16,3.1,15.5,3c-0.4-0.1-0.7-0.4-0.9-0.9c-0.3-1.1-1.4-2-2.6-2S9.7,1,9.4,2.1
				C9.3,2.6,8.9,2.9,8.5,3C8,3.1,7.6,3.4,7.2,3.8H3.7c-1,0-1.8,0.8-1.8,1.8V22c0,1,0.8,1.8,1.8,1.8h16.6c1,0,1.8-0.8,1.8-1.8V5.6
				C22.1,4.6,21.3,3.8,20.3,3.8z M12,2c0.5,0,0.9,0.4,0.9,0.9c0,0.5-0.4,0.9-0.9,0.9c-0.5,0-0.9-0.4-0.9-0.9C11.1,2.4,11.5,2,12,2z
				 M20.3,22H3.7V5.6h2.8v1.8h10.9V5.6h2.8V22z"/>
		</g>
	</g>
	<g>
		<g>
			<polygon class="st0" points="15.6,10.9 10.5,16 8.4,13.9 7.1,15.2 10.5,18.5 16.9,12.2 			"/>
		</g>
	</g>
</g>
</svg>
