<?xml version="1.0" encoding="utf-8"?>
<!-- Generator: Adobe Illustrator 21.1.0, SVG Export Plug-In . SVG Version: 6.00 Build 0)  -->
<svg version="1.1" id="Layer_1" xmlns="http://www.w3.org/2000/svg" xmlns:xlink="http://www.w3.org/1999/xlink" x="0px" y="0px"
	 viewBox="0 0 512 512" style="enable-background:new 0 0 512 512;" xml:space="preserve">
<g>
	<path d="M376.3,273.4H143.9c-8.2,0-14.8,6.6-14.8,14.8c0,8.2,6.6,14.8,14.8,14.8h232.2c8.2,0,14.8-6.6,14.8-14.8
		C390.9,280,384.3,273.4,376.3,273.4z"/>
	<path d="M376.3,192.4H143.9c-8.2,0-14.8,6.6-14.8,14.8s6.6,14.8,14.8,14.8h232.2c8.2,0,14.8-6.6,14.8-14.8S384.3,192.4,376.3,192.4
		z"/>
	<path d="M259.4,352.4H143.9c-8.2,0-14.8,6.6-14.8,14.8c0,8.2,6.6,14.8,14.8,14.8h115.4c8.2,0,14.8-6.6,14.8-14.8
		C274.1,359,267.5,352.4,259.4,352.4z"/>
	<path d="M82.8,512h346.4c22.3,0,40.4-18.1,40.4-40.4V108.3c0-22.3-18.1-40.4-40.4-40.4h-44.8v28.4h44.8c6.6,0,12,5.4,12,12l0,0
		v363.3c0,6.6-5.4,12-12,12H82.8c-6.6,0-12-5.4-12-12l0,0V108.3c0-6.6,5.4-12,12-12l0,0h54.8V67.9H82.8c-22.3,0-40.4,18.1-40.4,40.4
		v363.3C42.4,493.9,60.5,512,82.8,512z"/>
	<path d="M156,56.9v50.3c0,5.6,4.5,10.2,10.1,10.2l0,0h189.7c5.6,0,10.2-4.6,10.2-10.2l0,0V56.9c0-5.6-4.5-10.1-10.1-10.2l0,0h-59.6
		c3.3-22.3-12-43-34.3-46.3s-43,12-46.3,34.3c-0.6,4-0.6,8,0,12h-49.6C160.5,46.8,156,51.3,156,56.9L156,56.9z M256,23.1
		c9.9,0,18,8.1,18,18s-8.1,18-18,18s-18-8.1-18-18l0,0C238,31.1,246.1,23.1,256,23.1z"/>
</g>
</svg>
