<?xml version="1.0" encoding="utf-8"?>
<!-- Generator: Adobe Illustrator 21.1.0, SVG Export Plug-In . SVG Version: 6.00 Build 0)  -->
<svg version="1.1" id="Layer_1" xmlns="http://www.w3.org/2000/svg" xmlns:xlink="http://www.w3.org/1999/xlink" x="0px" y="0px"
	 viewBox="0 0 24 24" style="enable-background:new 0 0 24 24;" xml:space="preserve">
<style type="text/css">
	.st0{fill:#282828;}
</style>
<g>
	<g id="check-circle-outline">
		<path class="st0" d="M7.1,9.7l-1.7,1.7l5.4,5.4L22.7,4.9l-1.7-1.7L10.8,13.4L7.1,9.7z M21.5,12c0,5.2-4.3,9.5-9.5,9.5
			S2.5,17.2,2.5,12S6.8,2.5,12,2.5c1,0,1.8,0.1,2.6,0.4l1.9-1.9c-1.4-0.5-3-0.8-4.5-0.8C5.4,0.1,0.1,5.4,0.1,12S5.4,23.9,12,23.9
			S23.9,18.6,23.9,12H21.5z"/>
	</g>
</g>
</svg>
