<?xml version="1.0" encoding="utf-8"?>
<!-- Generator: Adobe Illustrator 21.1.0, SVG Export Plug-In . SVG Version: 6.00 Build 0)  -->
<svg version="1.1" id="Layer_1" xmlns="http://www.w3.org/2000/svg" xmlns:xlink="http://www.w3.org/1999/xlink" x="0px" y="0px"
	 viewBox="0 0 512 512" style="enable-background:new 0 0 512 512;" xml:space="preserve">
<style type="text/css">
	.st0{fill:#003DB6;}
</style>
<g>
	<g>
		<g>
			<path class="st0" d="M256,3.3C116.7,3.3,3.3,116.7,3.3,256S116.7,508.7,256,508.7c139.3,0,252.7-113.3,252.7-252.7
				C508.7,116.7,395.3,3.3,256,3.3z M371.5,439.4l-11.8-20.4c-1.4-2.3-3.9-3.8-6.6-3.8c-1.4,0-2.6,0.3-3.8,1c-1.8,1-3,2.7-3.6,4.7
				c-0.5,2-0.2,4,0.8,5.8l11.9,20.4c-26.5,14.2-56.2,23.1-87.8,25.2v-28.8c0-8-6.5-14.5-14.5-14.5c-8,0-14.5,6.5-14.5,14.5v28.8
				c-31.1-2.1-60.5-10.7-86.7-24.6l11.7-20.5c1-1.8,1.3-3.8,0.7-5.8c-0.5-2-1.8-3.6-3.6-4.6c-1.2-0.7-2.5-1-3.8-1
				c-2.7,0-5.3,1.5-6.7,3.8l-11.7,20.4c-26.1-16.3-48.5-38-65.7-63.5l24.8-14.3c6.9-4,9.3-12.8,5.3-19.7c-4-6.9-12.8-9.3-19.7-5.3
				l-24.9,14.4c-13.1-26.5-20.9-56.1-22.1-87.3l23.6-0.1c2,0,4-0.8,5.4-2.3c1.4-1.4,2.2-3.4,2.2-5.4c0-4.2-3.4-7.6-7.7-7.6L39.3,249
				c1-31.7,8.9-61.8,22.1-88.6l24.9,14.4c2.3,1.3,4.8,1.9,7.2,1.9c5,0,9.9-2.6,12.5-7.2c4-6.9,1.6-15.8-5.3-19.7l-24.8-14.3
				c16.9-25.1,38.9-46.6,64.6-62.8l11.8,20.4c0.7,1.2,1.6,2.1,2.8,2.8c2.3,1.3,5.3,1.4,7.7,0c1.8-1,3-2.7,3.6-4.7
				c0.5-2,0.2-4-0.8-5.8l-11.8-20.4c26.5-14.2,56.2-23.1,87.8-25.2v28.7c0,8,6.5,14.5,14.5,14.5c8,0,14.5-6.5,14.5-14.5V39.7
				c31.1,2.1,60.5,10.7,86.7,24.6l-11.7,20.5c-2.1,3.7-0.8,8.3,2.8,10.4c1.2,0.7,2.5,1,3.8,1c2.7,0,5.3-1.5,6.6-3.8l11.7-20.4
				c26.1,16.3,48.5,38,65.7,63.5l-24.8,14.3c-6.9,4-9.3,12.8-5.3,19.7c2.7,4.6,7.5,7.2,12.5,7.2c2.5,0,4.9-0.6,7.2-1.9l24.9-14.4
				c13.1,26.5,20.9,56.1,22.1,87.3l-23.6,0.1c-2,0-4,0.8-5.4,2.3c-1.4,1.4-2.2,3.4-2.2,5.4c0,2.7,1.5,5.3,3.9,6.6
				c1.1,0.7,2.5,1,3.8,1h0l23.6-0.1c-1,31.7-8.9,61.8-22.1,88.6l-24.9-14.4c-6.9-4-15.7-1.6-19.7,5.3c-4,6.9-1.6,15.8,5.3,19.7
				l24.8,14.3C419.2,401.8,397.1,423.2,371.5,439.4z"/>
			<path class="st0" d="M362.8,177.6l-92.7,51.4c-4.2-2.2-9-3.5-14.1-3.5c-5.1,0-9.9,1.3-14.1,3.5l-92.7-51.4
				c-8.8-4.9-19.8-1.7-24.7,7.1c-4.9,8.8-1.7,19.8,7.1,24.7l94.6,52.5c2.7,14,15.1,24.6,29.8,24.6c14.8,0,27.1-10.6,29.8-24.6
				l94.6-52.5c8.8-4.9,11.9-15.9,7.1-24.7C382.6,175.9,371.6,172.8,362.8,177.6z"/>
		</g>
	</g>
</g>
</svg>
