<?xml version="1.0" encoding="utf-8"?>
<!-- Generator: Adobe Illustrator 21.1.0, SVG Export Plug-In . SVG Version: 6.00 Build 0)  -->
<svg version="1.1" id="Layer_1" xmlns="http://www.w3.org/2000/svg" xmlns:xlink="http://www.w3.org/1999/xlink" x="0px" y="0px"
	 viewBox="0 0 512 512" style="enable-background:new 0 0 512 512;" xml:space="preserve">
<style type="text/css">
	.st0{fill:#BCBCBC;}
</style>
<path class="st0" d="M504.2,297.3H400.5V194.4c0-4.2-3.4-7.6-7.6-7.6s-7.6,3.4-7.6,7.6v102.9h-37.5v-189c0-4.2-3.4-7.6-7.6-7.6
	h-28.9v-33h42.9c17.1,0,31.1,13.9,31.1,31.1v70.3c0,4.2,3.4,7.6,7.6,7.6s7.6-3.4,7.6-7.6V98.8c0-25.5-20.8-46.3-46.3-46.3h-43.4
	c-2.2-10.7-11.6-18.7-22.9-18.7h-33.6c-10-20.4-31.1-33.7-54-33.7s-44,13.4-54,33.7h-33.6c-11.3,0-20.8,8.1-22.9,18.7H46.3
	C20.8,52.5,0,73.2,0,98.8v80.4c0,4.2,3.4,7.6,7.6,7.6s7.6-3.4,7.6-7.6V98.8c0-17.1,13.9-31.1,31.1-31.1h42.9v33H60.3
	c-4.2,0-7.6,3.4-7.6,7.6v334.6c0,4.2,3.4,7.6,7.6,7.6h192.9c4.2,0,7.6-3.4,7.6-7.6s-3.4-7.6-7.6-7.6H67.9V115.9h21.3v22.8
	c0,4.2,3.4,7.6,7.6,7.6h206.8c4.2,0,7.6-3.4,7.6-7.6v-22.8h21.3v181.5h-54c-4.2,0-7.6,3.4-7.6,7.6v191.9H46.3
	c-17.1,0-31.1-13.9-31.1-31.1V204.6c0-4.2-3.4-7.6-7.6-7.6S0,200.4,0,204.6v261.1C0,491.2,20.8,512,46.3,512h457.9
	c4.2,0,7.6-3.4,7.6-7.6V304.9C511.8,300.7,508.4,297.3,504.2,297.3z M104.4,131.1v-74c0-4.5,3.7-8.2,8.2-8.2h38.6
	c3.2,0,6-1.9,7.1-4.9c6.6-17.3,23.4-28.8,41.9-28.8s35.3,11.6,41.9,28.8c1.1,2.9,3.9,4.9,7.1,4.9h38.6c4.5,0,8.2,3.7,8.2,8.2
	c0,0,0,2.9,0,3v48.2v22.8H104.4L104.4,131.1z M423.3,312.5v74.7l-28.2-15.9c-1.2-0.7-2.4-1-3.7-1c-1.3,0-2.6,0.3-3.7,1l-28.2,15.9
	v-74.7H423.3z M496.6,496.8H354.2l0,0h-68V312.5h58.1v87.7c0,2.7,1.4,5.2,3.8,6.6c2.3,1.4,5.2,1.4,7.6,0.1l35.8-20.2l35.8,20.2
	c1.2,0.7,2.4,1,3.7,1c1.3,0,2.6-0.3,3.8-1c2.3-1.4,3.8-3.9,3.8-6.6v-87.7h58.1L496.6,496.8L496.6,496.8z"/>
<path class="st0" d="M200.2,28.2c-17.6,0-31.8,14.3-31.8,31.8c0,17.6,14.3,31.8,31.8,31.8c17.6,0,31.8-14.3,31.8-31.8
	C232.1,42.5,217.8,28.2,200.2,28.2z M200.2,76.7c-9.2,0-16.6-7.5-16.6-16.6s7.5-16.6,16.6-16.6c9.2,0,16.6,7.5,16.6,16.6
	S209.4,76.7,200.2,76.7z"/>
<path class="st0" d="M143.7,188.7c-3.7-1.9-8.3-0.5-10.3,3.2l-17.1,32.7L106.1,208c-2.2-3.6-6.9-4.7-10.5-2.5s-4.7,6.9-2.5,10.5
	l17.2,28c1.4,2.3,3.8,3.6,6.5,3.6c0.1,0,0.2,0,0.3,0c2.7-0.1,5.2-1.7,6.5-4.1l23.3-44.6C148.9,195.2,147.5,190.6,143.7,188.7z"/>
<path class="st0" d="M306,217.7c0-4.2-3.4-7.6-7.6-7.6H170.6c-4.2,0-7.6,3.4-7.6,7.6s3.4,7.6,7.6,7.6h127.8
	C302.6,225.4,306,221.9,306,217.7z"/>
<path class="st0" d="M143.7,275.4c-3.7-1.9-8.3-0.5-10.3,3.2l-17.1,32.7l-10.2-16.6c-2.2-3.6-6.9-4.7-10.5-2.5s-4.7,6.9-2.5,10.5
	l17.2,28c1.4,2.3,3.8,3.6,6.5,3.6c0.1,0,0.2,0,0.3,0c2.7-0.1,5.2-1.7,6.5-4.1l23.3-44.6C148.9,282,147.5,277.4,143.7,275.4z"/>
<path class="st0" d="M170.6,296.9c-4.2,0-7.6,3.4-7.6,7.6s3.4,7.6,7.6,7.6h81.1c4.2,0,7.6-3.4,7.6-7.6s-3.4-7.6-7.6-7.6H170.6z"/>
</svg>
