<?xml version="1.0" encoding="utf-8"?>
<!-- Generator: Adobe Illustrator 21.1.0, SVG Export Plug-In . SVG Version: 6.00 Build 0)  -->
<svg version="1.1" id="Capa_1" xmlns="http://www.w3.org/2000/svg" xmlns:xlink="http://www.w3.org/1999/xlink" x="0px" y="0px"
	 viewBox="0 0 496 496" style="enable-background:new 0 0 496 496;" xml:space="preserve">
<style type="text/css">
	.st0{fill:#BCBCBC;}
</style>
<g>
	<g>
		<path class="st0" d="M104,104c-8.8,0-16-7.2-16-16s7.2-16,16-16s16,7.2,16,16h16c0-17.6-14.4-32-32-32S72,70.4,72,88
			s14.4,32,32,32c8.8,0,16,7.2,16,16s-7.2,16-16,16s-16-7.2-16-16H72c0,17.6,14.4,32,32,32s32-14.4,32-32S121.6,104,104,104z"/>
	</g>
</g>
<g>
	<g>
		<rect x="96" y="40" class="st0" width="16" height="24"/>
	</g>
</g>
<g>
	<g>
		<rect x="96" y="160" class="st0" width="16" height="24"/>
	</g>
</g>
<g>
	<g>
		<path class="st0" d="M0,448v48h144v-48H0z M128,480H16v-16h112V480z"/>
	</g>
</g>
<g>
	<g>
		<path class="st0" d="M0,416v48h144v-48H0z M128,448H16v-16h112V448z"/>
	</g>
</g>
<g>
	<g>
		<path class="st0" d="M0,384v48h144v-48H0z M128,416H16v-16h112V416z"/>
	</g>
</g>
<g>
	<g>
		<polygon class="st0" points="208,448 208,464 288,464 288,480 176,480 176,464 192,464 192,448 160,448 160,496 304,496 304,448 
					"/>
	</g>
</g>
<g>
	<g>
		<polygon class="st0" points="160,416 160,456 176,456 176,432 288,432 288,456 304,456 304,416 		"/>
	</g>
</g>
<g>
	<g>
		<path class="st0" d="M160,384v48h144v-48H160z M288,416H176v-16h112V416z"/>
	</g>
</g>
<g>
	<g>
		<path class="st0" d="M160,352v48h144v-48H160z M288,384H176v-16h112V384z"/>
	</g>
</g>
<g>
	<g>
		<path class="st0" d="M160,320v48h144v-48H160z M288,352H176v-16h112V352z"/>
	</g>
</g>
<g>
	<g>
		<path class="st0" d="M320,448v48h144v-48H320z M448,480H336v-16h112V480z"/>
	</g>
</g>
<g>
	<g>
		<path class="st0" d="M320,416v48h144v-48H320z M448,448H336v-16h112V448z"/>
	</g>
</g>
<g>
	<g>
		<path class="st0" d="M320,384v48h144v-48H320z M448,416H336v-16h112V416z"/>
	</g>
</g>
<g>
	<g>
		<path class="st0" d="M320,352v48h144v-48H320z M448,384H336v-16h112V384z"/>
	</g>
</g>
<g>
	<g>
		<polygon class="st0" points="432,320 432,336 448,336 448,352 336,352 336,336 416,336 416,320 320,320 320,368 464,368 464,320 
					"/>
	</g>
</g>
<g>
	<g>
		<polygon class="st0" points="320,288 320,328 336,328 336,304 448,304 448,328 464,328 464,288 		"/>
	</g>
</g>
<g>
	<g>
		<path class="st0" d="M320,256v48h144v-48H320z M448,288H336v-16h112V288z"/>
	</g>
</g>
<g>
	<g>
		<path class="st0" d="M376,0c-13.2,0-24,10.8-24,24s10.8,24,24,24h36.7L294.8,165.8l-63.4-39.6L3.1,305.7l9.9,12.6l219.6-172.5
			l64.6,40.4L451.3,32H376c-4.4,0-8-3.6-8-8s3.6-8,8-8h104v104c0,4.4-3.6,8-8,8s-8-3.6-8-8V52.7L302.6,214.1l-71.4-39.7L27,337.8
			l10,12.5l195.8-156.6l72.6,40.3L448,91.3V120c0,13.2,10.8,24,24,24s24-10.8,24-24V0H376z"/>
	</g>
</g>
<g>
	<g>
		<rect x="32" y="104" class="st0" width="16" height="16"/>
	</g>
</g>
<g>
	<g>
		<rect x="160" y="104" class="st0" width="16" height="16"/>
	</g>
</g>
<g>
	<g>
		<path class="st0" d="M104,8C46.7,8,0,54.7,0,112s46.7,104,104,104s104-46.7,104-104S161.3,8,104,8z M104,200
			c-48.5,0-88-39.5-88-88s39.5-88,88-88s88,39.5,88,88S152.5,200,104,200z"/>
	</g>
</g>
</svg>
