<?xml version="1.0" encoding="utf-8"?>
<!-- Generator: Adobe Illustrator 21.1.0, SVG Export Plug-In . SVG Version: 6.00 Build 0)  -->
<svg version="1.1" id="Layer_1" xmlns="http://www.w3.org/2000/svg" xmlns:xlink="http://www.w3.org/1999/xlink" x="0px" y="0px"
	 viewBox="0 0 511 511" style="enable-background:new 0 0 511 511;" xml:space="preserve">
<style type="text/css">
	.st0{fill:#FFFFFF;}
</style>
<path class="st0" d="M470.5,190.5h-48.3c2.8-4.9,5.9-8.8,4.2-15.2c-1-3.5-3.2-6.5-6.4-8.3l-25.5-14.7c0.6-2.6,1-5.3,1.4-8l29-5.1
	c7.3-1.3,12.5-8.3,11.1-15.9L431,95c-1.3-7.5-8.5-12.4-15.9-11.1l-29,5.1c-1.2-2.4-2.6-4.7-4.1-7L401,59.4
	c4.9-5.8,4.1-14.5-1.7-19.3l-21.9-18.4c-2.8-2.4-6.4-3.5-10-3.2c-3.7,0.3-7,2-9.3,4.9L339.1,46c-2.5-1-5-2-7.6-2.8V13.7
	c0-7.6-6.2-13.7-13.7-13.7h-28.6c-7.6,0-13.7,6.2-13.7,13.7v29.5c-2.6,0.8-5.1,1.7-7.6,2.8l-11-13.1v-6.1
	c0-13.7-11.2-24.9-24.9-24.9H25.9C12.2,1.9,1,13.1,1,26.8v68.7c0,4.2,3.4,7.5,7.5,7.5c4.2,0,7.5-3.4,7.5-7.5V26.8
	c0-5.4,4.4-9.8,9.8-9.8h206.1c1.9,0,3.7,0.6,5.3,1.5c-2.8,0.2-5.5,1.3-7.7,3.2l-21.9,18.4c-5.8,4.9-6.6,13.6-1.7,19.3L224.9,82
	c-1.5,2.3-2.8,4.6-4.1,7l-29-5.1c-7.5-1.3-14.6,3.7-15.9,11.1l-5,28.2c-1.3,7.5,3.7,14.6,11.1,15.9l29,5.1c0.4,2.7,0.8,5.4,1.4,8
	L187,166.9c-6.6,3.8-8.8,12.2-5,18.8l14.3,24.8c3.8,6.6,12.2,8.8,18.8,5l3.6-2.1c-2.6,5.4-4.1,11.4-4.1,17.8v239.2
	c0,9.7,3.4,18.5,9,25.5H25.9c-5.4,0-9.8-4.4-9.8-9.8V125.6c0-4.2-3.4-7.5-7.5-7.5c-4.2,0-7.5,3.4-7.5,7.5V486
	c0,13.7,11.2,24.9,24.9,24.9h206.1c3.6,0,7-0.8,10.1-2.2c8.9,3.1-6,2.2,228.4,2.2c22.4,0,40.6-18.2,40.6-40.6V231.1
	C511.1,208.7,492.9,190.5,470.5,190.5z M208.6,201.7l-12.9-22.4l29.3-16.9c3-1.7,4.4-5.3,3.5-8.6c-1.5-5.3-2.5-10.9-2.9-16.5
	c-0.2-3.5-2.8-6.3-6.2-6.9l-33.3-5.9l4.5-25.5l33.3,5.9c3.4,0.6,6.8-1.2,8.2-4.4c11.3-25.5,19.6-10-13.7-49.7l19.8-16.6
	c33.4,39.8,19.6,28.7,46.6,22.1c3.4-0.8,5.7-3.9,5.7-7.3V15.1h25.9v33.8c0,3.5,2.4,6.5,5.7,7.3c5.4,1.3,10.7,3.3,15.7,5.7
	c3.1,1.5,6.9,0.7,9.1-1.9l21.7-25.9l19.8,16.6l-21.7,25.9c-2.2,2.7-2.4,6.5-0.3,9.3c16.6,22.7-1,22,49.9,13l4.5,25.5
	c-51.1,9-34.7,2.6-42.4,29.3c-1,3.3,0.5,6.9,3.5,8.6l29.3,16.9c-7.9,13.7-5,8.6-12.9,22.4c-23.2-13.4-16.8-9.7-29.3-16.9
	c-3-1.7-6.8-1.2-9.2,1.3c-3.9,4-8.1,7.6-12.8,10.8c-2.8,1.9-4,5.5-2.9,8.7c0,0.1,0,0.1,0.1,0.2c2.5,6.9,5.4,14.9,11.6,31.8
	l-24.3,8.8c-3.6-9.8-11.5-31.6-11.6-31.8c-1.2-3.3-4.5-5.3-7.9-4.9c-5.6,0.6-11.2,0.6-16.8,0c-3.5-0.4-6.7,1.7-7.9,4.9
	c-2,5.5-9,24.8-11.6,31.8c-22.1-8-17.2-6.3-24.3-8.8c7.6-21,5.8-15.9,11.6-31.8c0-0.1,0-0.1,0.1-0.2c1.1-3.2-0.1-6.8-2.9-8.7
	c-12.8-8.6-12.6-13.1-18.3-13.1C238.9,183.8,240.7,183.2,208.6,201.7z M496,470.3c0,14.1-11.5,25.5-25.5,25.5
	c-0.2,0-215.5,0-215.7,0c-13.8-0.2-25.2-11.5-25.2-25.5V231.1c0-11,7-20.4,16.6-23.9c-5.5,15.2-3.3,9.1-9.6,26.5
	c-2.2,6,0.1,12.5,5.1,16v26.4c0,7.4,6,13.5,13.5,13.5h155c4.2,0,7.5-3.4,7.5-7.5c0-4.2-3.4-7.5-7.5-7.5H256.8v-18.7l14.9,5.4
	c7.2,2.6,15-1.1,17.6-8.2c8.6-23.5,6.5-17.9,10.1-27.7c2.7,0.1,5.4,0.1,8.1,0c3.5,9.6,1.4,3.7,10.1,27.7c2.6,7.2,10.6,10.8,17.6,8.2
	l26.9-9.8c7.1-2.6,10.8-10.5,8.2-17.6l-0.3-0.9h98.9v41.6h-28.5c-4.2,0-7.5,3.4-7.5,7.5c0,4.2,3.4,7.5,7.5,7.5h30.2
	c7.4,0,13.5-6,13.5-13.5v-44.8c0-7.4-6-13.5-13.5-13.5H364.4l-4.3-11.7c1-0.7,3.8-3.1,6.2-5.2c9.2,5.3,4.8,2.8,25.5,14.7
	c6.5,3.8,15,1.5,18.8-5l2.8-4.8h57c14.1,0,25.5,11.5,25.5,25.5V470.3z"/>
<path class="st0" d="M342,303.2h-84.8c-7.1,0-12.9,5.8-12.9,12.9v58.7c0,7.1,5.8,12.9,12.9,12.9H342c7.1,0,12.9-5.8,12.9-12.9v-58.7
	C354.9,309,349.1,303.2,342,303.2z M339.8,372.7h-80.5v-54.4h80.5V372.7z"/>
<path class="st0" d="M471,303.2h-84.8c-7.1,0-12.9,5.8-12.9,12.9v58.7c0,7.1,5.8,12.9,12.9,12.9H471c7.1,0,12.9-5.8,12.9-12.9v-58.7
	C483.9,309,478.1,303.2,471,303.2z M468.9,372.7h-80.5v-54.4h80.5V372.7z"/>
<path class="st0" d="M412.4,353h32.5c4.2,0,7.5-3.4,7.5-7.5s-3.4-7.5-7.5-7.5h-32.5c-4.2,0-7.5,3.4-7.5,7.5S408.2,353,412.4,353z"/>
<path class="st0" d="M283.3,353h8.7v8.7c0,4.2,3.4,7.5,7.5,7.5c4.2,0,7.5-3.4,7.5-7.5V353h8.7c4.2,0,7.5-3.4,7.5-7.5
	s-3.4-7.5-7.5-7.5h-8.7v-8.7c0-4.2-3.4-7.5-7.5-7.5c-4.2,0-7.5,3.4-7.5,7.5v8.7h-8.7c-4.2,0-7.5,3.4-7.5,7.5S279.2,353,283.3,353z"
	/>
<path class="st0" d="M342,398.8h-84.8c-7.1,0-12.9,5.8-12.9,12.9v58.7c0,7.1,5.8,12.9,12.9,12.9H342c7.1,0,12.9-5.8,12.9-12.9v-58.7
	C354.9,404.6,349.1,398.8,342,398.8z M339.8,468.2h-80.5v-54.4h80.5V468.2z"/>
<path class="st0" d="M471,398.8h-84.8c-7.1,0-12.9,5.8-12.9,12.9v58.7c0,7.1,5.8,12.9,12.9,12.9H471c7.1,0,12.9-5.8,12.9-12.9v-58.7
	C483.9,404.6,478.1,398.8,471,398.8z M468.9,468.2h-80.5v-54.4h80.5V468.2z"/>
<path class="st0" d="M412.4,448.6h32.5c4.2,0,7.5-3.4,7.5-7.5s-3.4-7.5-7.5-7.5h-32.5c-4.2,0-7.5,3.4-7.5,7.5
	S408.2,448.6,412.4,448.6z"/>
<path class="st0" d="M288.1,460.1c3.9,0,5.2-2,11.5-8.4c6.3,6.3,7.6,8.4,11.5,8.4c6.7,0,10.1-8.1,5.3-12.9l-6.2-6.2l6.2-6.2
	c2.9-2.9,2.9-7.7,0-10.7s-7.7-2.9-10.7,0l-6.2,6.2l-6.2-6.2c-3-2.9-7.7-2.9-10.7,0c-2.9,2.9-2.9,7.7,0,10.7l6.2,6.2l-6.2,6.2
	C278,452,281.4,460.1,288.1,460.1z"/>
<path class="st0" d="M436.7,423.7c0,4.4-3.6,8.1-8.1,8.1c-4.4,0-8-3.6-8-8.1s3.6-8.1,8-8.1C433.1,415.7,436.7,419.3,436.7,423.7z"/>
<path class="st0" d="M436.7,458.3c0,4.4-3.6,8.1-8.1,8.1c-4.4,0-8-3.6-8-8.1s3.6-8.1,8-8.1C433.1,450.3,436.7,453.9,436.7,458.3z"/>
<path class="st0" d="M127.5,154.4c-10.2,0-14.7-4.5-18.1-7.8c-1.9-1.9-3.4-3.3-5.4-3.3c-3.5,0-6.6,4.3-6.6,7.8
	c0,6,9.6,14.8,24.7,16.7V181c0,4.2,3.4,7.5,7.5,7.5c4.2,0,7.5-3.4,7.5-7.5v-13.8c14.2-3,22.5-13.6,22.5-29.4
	c0-38.1-45.2-27.1-45.2-48.5c0-10.6,9.3-12.8,17.2-12.8c7.5,0,11.6,2.1,14.6,3.7c1.7,0.9,3,1.6,4.5,1.6c4.2,0,6.5-5.1,6.5-7.8
	c0-6.4-10.7-9.4-20-10.3V48.2c0-4.2-3.4-7.5-7.5-7.5c-4.2,0-7.5,3.4-7.5,7.5v16.1c-9.8,2-22.2,8.1-22.2,26.1
	c0,34.5,45.2,22.4,45.2,48.5C145.1,152.3,134.1,154.4,127.5,154.4z"/>
<path class="st0" d="M51.4,257.5c0,4.2,3.4,7.5,7.5,7.5h139.9c4.2,0,7.5-3.4,7.5-7.5s-3.4-7.5-7.5-7.5H59
	C54.8,249.9,51.4,253.3,51.4,257.5z"/>
<path class="st0" d="M59,316.4h139.9c4.2,0,7.5-3.4,7.5-7.5c0-4.2-3.4-7.5-7.5-7.5H59c-4.2,0-7.5,3.4-7.5,7.5
	C51.4,313,54.8,316.4,59,316.4z"/>
<path class="st0" d="M59,367.8h139.9c4.2,0,7.5-3.4,7.5-7.5c0-4.2-3.4-7.5-7.5-7.5H59c-4.2,0-7.5,3.4-7.5,7.5
	C51.4,364.4,54.8,367.8,59,367.8z"/>
<path class="st0" d="M59,441.1h62.5c4.2,0,7.5-3.4,7.5-7.5s-3.4-7.5-7.5-7.5H59c-4.2,0-7.5,3.4-7.5,7.5S54.8,441.1,59,441.1z"/>
<path class="st0" d="M303.4,198.6c37.3,0,67.6-30.3,67.6-67.6c0-47.1-47.3-80-91.6-63.3c-3.9,1.5-5.9,5.8-4.4,9.7
	c1.5,3.9,5.8,5.9,9.7,4.4c34.4-13,71.1,12.6,71.1,49.2c0,29-23.6,52.6-52.6,52.6c-29,0-52.6-23.6-52.6-52.6
	c0-12.5,4.5-24.6,12.6-34.1c2.7-3.2,2.3-7.9-0.8-10.6c-3.2-2.7-7.9-2.3-10.6,0.8c-10.5,12.2-16.2,27.8-16.2,44
	C235.8,168.2,266.1,198.6,303.4,198.6z"/>
<path class="st0" d="M302.6,153.8c-9.3,0-9.2-7-14.9-7c-4.1,0-7.2,4.2-7.2,8c0,5.4,6.5,11.3,15.9,13.2v5.8c0,4.2,3.4,7.5,7.5,7.5
	c4.2,0,7.5-3.4,7.5-7.5v-6.3c9.1-2.8,14.5-10.3,14.5-21.1c0-25.7-28.6-21-28.6-30.7c0-1.5,0-5,7.8-5c7,0,8.2,3.3,12.1,3.3
	c4.6,0,7.2-4.7,7.2-8c0-5.7-6.6-8.3-13-9.3v-7c0-4.2-3.4-7.5-7.5-7.5c-4.2,0-7.5,3.4-7.5,7.5v7.7c-9,2.6-14.4,9.4-14.4,19
	c0,23.6,28.6,17.8,28.6,30.7C310.6,148.9,310.6,153.8,302.6,153.8z"/>
</svg>
