<?xml version="1.0" encoding="utf-8"?>
<!-- Generator: Adobe Illustrator 21.1.0, SVG Export Plug-In . SVG Version: 6.00 Build 0)  -->
<svg version="1.1" id="Capa_1" xmlns="http://www.w3.org/2000/svg" xmlns:xlink="http://www.w3.org/1999/xlink" x="0px" y="0px"
	 viewBox="0 0 512 512" style="enable-background:new 0 0 512 512;" xml:space="preserve">
<style type="text/css">
	.st0{fill:#FFFFFF;}
</style>
<path class="st0" d="M-20.5,63.5h248.3V132h-93.2c-6.4,0-12.2,3.5-15.3,9.1L42.8,289.7c-1.4,2.5-2.1,5.4-2.1,8.2v136.3
	c0,9.6,7.8,17.4,17.4,17.4h52.2V512h47.1v-60.3h195.4V512h47.2v-60.3h52.1c9.6,0,17.4-7.8,17.4-17.4V298.1c0-2.9-0.8-5.7-2.1-8.2
	L391,141.1c-3-5.6-8.9-9.1-15.3-9.1h-94.2V63.5h250.3l0.6-48.9H-20L-20.5,63.5z M422.5,302.4v100.4H87.7V302.4l65.7-125.9h203.3
	L422.5,302.4z"/>
<polygon class="st0" points="283.9,372 228.1,372 244,239 253.8,235.4 264.8,239 "/>
<path class="st0" d="M256,512"/>
</svg>
