<?xml version="1.0" encoding="utf-8"?>
<!-- Generator: Adobe Illustrator 21.1.0, SVG Export Plug-In . SVG Version: 6.00 Build 0)  -->
<svg version="1.1" id="Layer_1" xmlns="http://www.w3.org/2000/svg" xmlns:xlink="http://www.w3.org/1999/xlink" x="0px" y="0px"
	 viewBox="0 0 512 512" style="enable-background:new 0 0 512 512;" xml:space="preserve">
<style type="text/css">
	.st0{fill:#BCBCBC;}
</style>
<g id="Scale-2">
	<path class="st0" d="M112,40c-39.7,0-72,32.3-72,72h16c0-30.9,25.1-56,56-56s56,25.1,56,56h16C184,72.3,151.7,40,112,40z"/>
	<path class="st0" d="M120,114.2V80h-16v34.2c-7.7,4.4-10.3,14.2-5.9,21.9s14.2,10.3,21.9,5.9s10.3-14.2,5.9-21.9
		C124.5,117.6,122.4,115.6,120,114.2z"/>
	<rect x="392" y="352" class="st0" width="32" height="16"/>
	<rect x="360" y="352" class="st0" width="16" height="16"/>
	<path class="st0" d="M488,432c4.4,0,8-3.6,8-8v-32c0-4.4-3.6-8-8-8h-32V200c0-8.8-7.2-16-16-16H232c-8.8,0-16,7.2-16,16v184h-32
		c-4.4,0-8,3.6-8,8v32c0,4.4,3.6,8,8,8h40v16h-88V192h48c13.3,0,24-10.7,24-24V40c0-13.3-10.7-24-24-24H40c-13.3,0-24,10.7-24,24
		v128c0,13.3,10.7,24,24,24h48v256H24c-4.4,0-8,3.6-8,8v32c0,4.4,3.6,8,8,8h464c4.4,0,8-3.6,8-8v-32c0-4.4-3.6-8-8-8h-40v-16H488z
		 M376,232h64v16h-64V232z M440,216h-64v-16h64V216z M360,200v80h-48v-80H360z M296,248h-64v-16h64V248z M296,200v16h-64v-16H296z
		 M232,264h64v16c0,8.8,7.2,16,16,16h48c8.8,0,16-7.2,16-16v-16h64v120H232V264z M192,400h288v16H192V400z M32,168V40
		c0-4.4,3.6-8,8-8h144c4.4,0,8,3.6,8,8v128c0,4.4-3.6,8-8,8H40C35.6,176,32,172.4,32,168z M104,192h16v256h-16V192z M480,480H32v-16
		h448V480z M432,448H240v-16h192V448z"/>
</g>
</svg>
